<svg width="215" height="51" viewBox="0 0 215 51" fill="none" xmlns="http://www.w3.org/2000/svg">
<g clip-path="url(#clip0_761_2014)">
<path d="M79.9507 38.6611C76.4004 38.6611 73.6339 37.6557 71.6513 35.6907C69.6687 33.7256 68.6543 30.8466 68.6543 27.145V12.7041H73.4495V26.9622C73.4495 29.6127 74.0028 31.5321 75.1555 32.7202C76.3082 33.9084 77.9219 34.5025 79.9968 34.5025C82.0716 34.5025 83.6854 33.9084 84.8381 32.7202C85.9908 31.5321 86.5441 29.6127 86.5441 26.9622V12.7041H91.247V27.145C91.247 30.8923 90.2327 33.7256 88.2501 35.6907C86.2213 37.7014 83.4549 38.6611 79.9507 38.6611Z" fill="white"/>
<path d="M97.0566 38.2955V12.7041H100.976L117.206 32.4003H115.223V12.7041H119.972V38.2955H116.053L99.8231 18.5993H101.806V38.2955H97.0566Z" fill="white"/>
<path d="M131.73 12.7041H126.935V38.2955H131.73V12.7041Z" fill="white"/>
<path d="M146.945 38.6612C144.916 38.6612 142.979 38.3871 141.135 37.793C139.291 37.1989 137.815 36.4677 136.755 35.5994L138.415 31.8978C139.429 32.7204 140.72 33.3602 142.242 33.9086C143.763 34.4569 145.331 34.7311 146.945 34.7311C148.282 34.7311 149.388 34.594 150.218 34.2742C151.048 34 151.648 33.5887 152.063 33.086C152.478 32.5833 152.662 32.0349 152.662 31.3951C152.662 30.6182 152.385 29.9785 151.832 29.5215C151.279 29.0645 150.541 28.6532 149.619 28.379C148.743 28.1048 147.729 27.8306 146.622 27.6021C145.515 27.3736 144.409 27.0537 143.348 26.7338C142.242 26.4139 141.273 25.9569 140.351 25.4543C139.475 24.9516 138.738 24.2204 138.138 23.3521C137.585 22.4838 137.308 21.3414 137.308 19.9704C137.308 18.5994 137.677 17.3199 138.415 16.1317C139.152 14.9892 140.305 14.0295 141.827 13.344C143.348 12.6586 145.331 12.293 147.682 12.293C149.25 12.293 150.772 12.4758 152.293 12.8871C153.815 13.2983 155.152 13.8467 156.258 14.5779L154.737 18.2795C153.584 17.594 152.385 17.0914 151.14 16.7715C149.896 16.4516 148.743 16.2688 147.59 16.2688C146.253 16.2688 145.193 16.4059 144.363 16.7258C143.533 17.0457 142.933 17.4569 142.564 17.9596C142.196 18.4623 142.011 19.0564 142.011 19.6962C142.011 20.4731 142.288 21.1129 142.841 21.5699C143.394 22.0268 144.132 22.4381 145.008 22.6666C145.884 22.9408 146.899 23.215 148.005 23.4435C149.112 23.7177 150.218 23.9919 151.325 24.3118C152.431 24.6317 153.4 25.043 154.322 25.5457C155.198 26.0483 155.936 26.7338 156.489 27.6478C157.042 28.5161 157.319 29.6129 157.319 30.9838C157.319 32.3548 156.95 33.5887 156.212 34.7768C155.475 35.9193 154.322 36.879 152.754 37.5645C151.233 38.3414 149.296 38.6612 146.945 38.6612Z" fill="white"/>
<path d="M174.01 38.6614C171.982 38.6614 170.137 38.3416 168.431 37.6561C166.725 37.0163 165.25 36.0566 164.005 34.9141C162.76 33.726 161.792 32.355 161.1 30.7555C160.409 29.1561 160.086 27.4195 160.086 25.5002C160.086 23.5808 160.409 21.8442 161.1 20.2448C161.792 18.6453 162.76 17.2744 164.005 16.0862C165.25 14.898 166.725 13.984 168.431 13.3442C170.137 12.7045 171.982 12.3389 173.964 12.3389C175.993 12.3389 177.837 12.6588 179.497 13.3442C181.203 13.984 182.633 14.9437 183.924 16.0862C185.168 17.2744 186.137 18.6453 186.828 20.2448C187.52 21.8442 187.843 23.5808 187.843 25.5002C187.843 27.4195 187.52 29.1561 186.828 30.7555C186.137 32.355 185.168 33.7717 183.924 34.9141C182.679 36.1023 181.203 37.0163 179.497 37.6561C177.837 38.3416 175.993 38.6614 174.01 38.6614ZM173.964 34.5028C175.255 34.5028 176.454 34.2744 177.561 33.8631C178.667 33.4061 179.636 32.812 180.419 31.9894C181.249 31.1668 181.849 30.2071 182.31 29.1561C182.771 28.0593 183.001 26.8711 183.001 25.5459C183.001 24.2206 182.771 23.0324 182.31 21.9356C181.849 20.8389 181.203 19.8792 180.419 19.1023C179.589 18.2797 178.667 17.6399 177.561 17.2287C176.454 16.7717 175.255 16.5889 173.964 16.5889C172.673 16.5889 171.475 16.8174 170.368 17.2287C169.261 17.6856 168.293 18.2797 167.509 19.1023C166.679 19.9249 166.034 20.8846 165.573 21.9356C165.112 23.0324 164.881 24.2206 164.881 25.5459C164.881 26.8254 165.112 28.0136 165.573 29.1104C166.034 30.2071 166.679 31.1668 167.463 31.9894C168.293 32.812 169.215 33.4518 170.322 33.8631C171.475 34.2744 172.673 34.5028 173.964 34.5028Z" fill="white"/>
<path d="M192.038 38.2955V12.7041H196.003L212.187 32.4003H210.251V12.7041H215V38.2955H211.081L194.851 18.5993H196.833V38.2955H192.038Z" fill="white"/>
<path d="M51.4561 0V32.8118C51.4561 38.7527 48.5514 44.0538 44.125 47.3898C42.0041 48.9892 39.4682 50.1317 36.7939 50.6801C35.5951 50.9086 34.3963 51.0457 33.1053 51.0457C31.8143 51.0457 30.6155 50.9086 29.4167 50.6801C28.1257 50.4059 26.9269 50.0403 25.7281 49.5376C24.4371 48.9892 23.1922 48.2581 22.0395 47.3898C20.6562 46.3387 19.4113 45.1048 18.3508 43.7339C16.0455 40.672 14.6622 36.9247 14.6622 32.8118V7.26613H7.33112V32.7661C7.33112 37.5188 10.4203 41.586 14.6622 43.0941C14.8006 43.1398 14.9389 43.1855 15.0772 43.2312C16.7832 46.1102 19.1808 48.5323 22.0395 50.3145C22.1778 50.4059 22.3161 50.4973 22.4544 50.543C22.3161 50.5887 22.1778 50.5887 22.0395 50.6344C20.8407 50.8629 19.6419 51 18.3508 51C17.1059 51 15.861 50.8629 14.6622 50.6344C11.9419 50.086 9.45207 48.9435 7.33112 47.3441C2.90478 44.0538 0 38.7527 0 32.8118V0H22.0395V32.8118C22.0395 36.0564 23.4688 38.9355 25.7281 40.9462C26.7885 41.9059 28.0335 42.6371 29.4167 43.0941C30.5694 43.5054 31.8143 43.7339 33.1053 43.7339C34.3963 43.7339 35.6412 43.5054 36.7939 43.0941C41.0358 41.586 44.125 37.5645 44.125 32.8118V7.26613H36.7478V32.7661C36.7478 35.7823 36.0101 38.6156 34.7191 41.129C34.2119 41.2204 33.6586 41.2661 33.0592 41.2661C31.7221 41.2661 30.4772 40.9919 29.3706 40.4435C28.6329 40.078 27.9412 39.621 27.3418 39.1183C28.6329 37.336 29.3706 35.1425 29.3706 32.7661V0H51.4561Z" fill="#FFC825"/>
</g>
<defs>
<clipPath id="clip0_761_2014">
<rect width="215" height="51" fill="white"/>
</clipPath>
</defs>
</svg>
