<svg width="230" height="60" viewBox="0 0 230 60" fill="none" xmlns="http://www.w3.org/2000/svg">
<path d="M160.005 26H152.005V36H160C160.53 36 161.039 36.2107 161.414 36.5858C161.789 36.9609 162 37.4696 162 38C162 38.5304 161.789 39.0391 161.414 39.4142C161.039 39.7893 160.53 40 160 40H148V20H168L178 10H148L138 20V50L160.005 49.993C163.186 49.9917 166.237 48.7271 168.486 46.4772C170.736 44.2274 171.999 41.1764 172 37.995C172 31.37 166.63 26 160.005 26ZM134 20H127V50H117.004V20H108V10H144L134 20ZM65 33H89.997L79 44H73L67 50H53L64 39H59L65 33ZM72 31L93 10H104V50H94V23L86 31H72Z" fill="#DFDFDF"/>
</svg>
