<svg width="210" height="64" viewBox="0 0 210 64" fill="none" xmlns="http://www.w3.org/2000/svg">
<g clip-path="url(#clip0_761_2143)">
<path d="M51.6919 16.7686C51.13 17.3275 51.13 18.166 51.6919 18.5852C52.2538 19.1441 53.0966 19.1441 53.518 18.5852C54.0799 18.0262 54.0799 17.1878 53.518 16.7686C52.9561 16.2096 52.1133 16.2096 51.6919 16.7686Z" fill="#DFDFDF"/>
<path d="M64.6154 15.9302H58.9966L57.5919 17.607C57.311 17.8865 57.4515 18.0262 57.7324 18.166L59.5585 19.0044L64.7558 16.6289C65.1772 16.4891 65.0368 15.9302 64.6154 15.9302ZM43.6856 43.3188H36.8027C34.9766 44.4367 34.4147 44.7162 32.0267 45.6944C31.8863 45.6944 31.7458 45.9738 31.8863 46.1136L38.0669 63.3014H41.5786L35.9598 47.511C39.612 47.511 48.4615 46.5328 53.2374 38.8472C51.6923 41.083 48.1806 43.3188 43.6856 43.3188ZM53.5184 18.5852C52.9565 19.1442 52.1137 19.1442 51.6923 18.5852C51.1304 18.0262 51.1304 17.1878 51.6923 16.7686C52.2542 16.2097 53.097 16.2097 53.5184 16.7686C52.3946 15.6507 50.5685 15.6507 49.5853 16.7686C48.602 17.8865 48.4615 19.5634 49.5853 20.6813C50.709 21.7992 52.5351 21.7992 53.5184 20.6813C54.5016 19.5634 54.6421 17.8865 53.5184 16.7686C53.9398 17.3276 53.9398 18.0262 53.5184 18.5852ZM39.893 49.8865L44.6689 63.3014H48.1806L43.1237 49.1878C42.2809 49.4673 41.1572 49.607 39.893 49.8865ZM44.6689 33.118C45.0903 32.559 45.3712 32 45.7926 31.3014C45.6521 31.1616 45.5117 31.3014 45.3712 31.4411C38.2073 38.9869 31.3244 39.9651 25.9866 39.9651H17.8394C17.5585 39.9651 17.418 39.6856 17.5585 39.4062C23.8796 30.7424 30.7625 23.8952 35.9598 19.5634L22.3344 30.8821C21.2107 31.7206 19.9465 32.2795 18.2608 32.2795H1.12372C0.702319 32.2795 0.842787 32.6987 0.842787 32.9782C1.96653 36.6114 5.33777 39.9651 10.9565 39.9651L6.88292 44.0175C6.74245 44.1572 6.74245 44.5765 7.16386 44.5765H22.4749C33.4314 44.5765 40.3144 39.8254 44.6689 33.118Z" fill="#3D3D3D"/>
<path d="M197.498 63.3013H210V24.8734H197.498V38.9869H185.699V24.8734H173.197V63.3013H185.699V48.7686H197.498V63.3013ZM49.5853 20.6812C48.4615 19.5633 48.4615 17.8865 49.5853 16.7686C50.709 15.6507 52.5351 15.6507 53.5184 16.7686C54.5017 17.8865 54.6421 19.5633 53.5184 20.6812C52.3946 21.7991 50.5686 21.7991 49.5853 20.6812ZM53.097 38.8472C57.8729 31.1616 59.5585 19.0044 59.5585 19.0044L57.7324 18.1659C57.4515 18.0262 57.4515 17.8865 57.592 17.607L58.9967 15.9301C58.1538 14.2533 55.0635 11.4585 50.5686 11.4585C47.8997 11.4585 45.5117 12.1572 43.4047 13.5546C43.4047 13.5546 40.3144 15.6507 35.9599 19.4236C30.7625 23.8952 23.8796 30.6026 17.5585 39.2664C17.4181 39.5459 17.5585 39.8253 17.8395 39.8253H25.9866C31.3244 39.8253 38.2074 38.8472 45.3712 31.3013C45.5117 31.1616 45.6522 31.1616 45.7926 31.1616C45.9331 31.3013 45.9331 31.4411 45.9331 31.5808C44.8094 34.3756 42 39.8253 36.8027 43.179H43.6856C48.3211 43.179 51.6923 41.083 53.097 38.8472ZM46.0736 48.0699L51.4114 63.1616H66.5819C63.4916 53.7991 60.1204 45.1354 56.8896 37.1703C54.3612 42.6201 51.9732 45.2751 46.0736 48.0699ZM0 63.3013H15.311L20.5084 47.2314H5.61873C3.79264 51.9825 1.96656 57.2926 0 63.3013ZM20.6488 28.786L28.3746 22.4978C30.0602 18.0262 31.7458 13.5546 33.4314 9.78166C34.2742 11.738 35.1171 13.8341 35.9599 15.9301C40.1739 12.4367 42.8428 10.3406 46.3545 9.36245C44.2475 4.75109 42.7023 1.39738 42 0H24.8629C23.4582 3.07424 17.9799 14.393 11.5184 29.6245H17.699C18.9632 29.6245 19.9465 29.4847 20.6488 28.786ZM115.324 58.9694L116.167 63.1616H126.281V24.8734H113.779V51.5633C112.656 52.821 110.549 54.2183 108.582 54.2183C105.07 54.2183 103.244 52.262 103.244 48.6288V24.8734H90.7425V51.5633C89.6187 52.821 87.2308 54.2183 85.1237 54.2183C81.893 54.2183 80.0669 52.262 80.0669 48.6288V24.8734H67.5652V50.3057C67.5652 59.5284 71.6388 64.1397 80.0669 64.1397C86.107 64.1397 89.7592 61.9039 92.5686 58.9694C94.5351 62.4629 98.0468 64.1397 103.244 64.1397C109.284 64 112.656 61.9039 115.324 58.9694ZM155.077 51.4236C153.953 52.6812 152.127 54.0786 149.037 54.0786C145.666 54.0786 143.839 51.0044 143.839 44.9956C143.839 37.5895 145.806 33.9563 149.88 33.9563C152.268 33.9563 153.391 34.0961 155.077 34.5153V51.4236ZM144.682 64H145.104C150.722 64 154.515 62.0437 156.622 58.9694L157.324 63.1616H167.579V26.4105C163.505 25.1528 158.729 24.0349 150.02 24.0349C137.518 24.0349 130.776 31.5808 130.776 45.5546C130.776 58.4105 135.552 64 144.682 64Z" fill="#DFDFDF"/>
</g>
<defs>
<clipPath id="clip0_761_2143">
<rect width="210" height="64" fill="white"/>
</clipPath>
</defs>
</svg>
