<svg width="40" height="40" viewBox="0 0 40 40" fill="none" xmlns="http://www.w3.org/2000/svg">
<g clip-path="url(#clip0_991_543)">
<path d="M39.9475 18.7369C39.3159 8.3158 30.6317 0 20.0001 0C9.36854 0 0.684314 8.3158 0.0527344 18.7369C0.0527344 19.1579 0.105366 19.579 0.157998 20C0.579051 23.4737 1.89484 26.6842 3.89485 29.3685C7.52643 34.3158 13.3685 37.5264 20.0001 37.5264C10.737 37.5264 3.158 30.3158 2.52642 21.2632C2.47379 20.8421 2.47379 20.4211 2.47379 20C2.47379 19.579 2.47379 19.1579 2.52642 18.7369C3.158 9.68422 10.737 2.47369 20.0001 2.47369C26.6317 2.47369 32.4738 5.68422 36.1054 10.6316C38.1054 13.3158 39.4212 16.5263 39.8423 20C39.8949 20.4211 39.9475 20.8421 39.9475 21.2106C39.9475 20.7895 40.0002 20.3685 40.0002 19.9474C40.0002 19.579 40.0002 19.1579 39.9475 18.7369Z" fill="#DFDFDF"/>
<path d="M0.0526317 21.2626C0.684211 31.6837 9.36843 39.9995 20 39.9995C30.6316 39.9995 39.3158 31.6837 39.9474 21.2626C39.9474 20.8416 39.8948 20.4205 39.8422 19.9995C39.4211 16.5258 38.1053 13.3153 36.1053 10.6311C32.4737 5.68368 26.6316 2.47314 20 2.47314C29.2632 2.47314 36.8422 9.68368 37.4737 18.7363C37.5264 19.1574 37.5264 19.5784 37.5264 19.9995C37.5264 20.4205 37.5264 20.8416 37.4737 21.2626C36.8422 30.3679 29.2632 37.5258 20 37.5258C13.3684 37.5258 7.52633 34.3153 3.89474 29.3679C1.89474 26.6837 0.578948 23.4732 0.157895 19.9995C0.105263 19.5784 0.0526317 19.1574 0.0526317 18.789C0.0526317 19.21 0 19.6311 0 20.0521C0 20.4205 3.76451e-09 20.8416 0.0526317 21.2626Z" fill="#DFDFDF"/>
<path d="M17.5264 3.8418V9.36813H21.3685C22.3159 9.36813 23.0527 8.63128 23.0527 7.68391C23.0527 7.21023 22.8422 6.78915 22.5264 6.47336C22.7369 6.2102 22.8948 5.84178 22.9474 5.47336C22.9474 4.57862 22.2106 3.8418 21.3158 3.8418H17.5264ZM18.7895 4.99969H21.1053C21.3684 4.99969 21.579 5.2102 21.579 5.47336C21.579 5.73652 21.3684 5.94703 21.1053 5.94703H18.7895V4.99969ZM18.7895 7.10493H21.1579C21.4737 7.10493 21.6843 7.31547 21.6843 7.63126C21.6843 7.94705 21.4737 8.15758 21.1579 8.15758H18.7895V7.10493Z" fill="#DFDFDF"/>
<path d="M19.3687 10.4214L16.6318 15.9477H18.0529L18.4739 15.0004H21.5793L22.0003 15.9477H23.4213L20.6318 10.4214H19.3687ZM20.0003 11.8425L20.9476 13.8425H19.0529L20.0003 11.8425Z" fill="#DFDFDF"/>
<path d="M21.8949 17.1577H23.4738L20.6844 20.7367V22.684H19.3686V20.7367L16.5791 17.1577H18.1581L20.0528 19.684L21.8949 17.1577Z" fill="#DFDFDF"/>
<path d="M30.9473 17.1577V22.6841H32.263V20.5788H33.2631L34.842 22.6841H36.4209L34.7894 20.5262C35.4736 20.3156 35.9999 19.6841 35.9999 18.8946C35.9999 17.9472 35.2631 17.1577 34.3157 17.1577H30.9473ZM32.3157 18.3156H34.2105C34.4736 18.3156 34.7368 18.5788 34.7368 18.8419C34.7368 19.1051 34.5263 19.3683 34.2105 19.3683H32.3157V18.3156Z" fill="#DFDFDF"/>
<path d="M4.05273 17.1577V22.6841H7.89485C8.84222 22.6841 9.57907 21.9472 9.57907 20.9998C9.57907 20.5261 9.36853 20.1051 9.05274 19.7893C9.26327 19.5261 9.42113 19.1577 9.47376 18.7893C9.47376 17.8945 8.73693 17.1577 7.84219 17.1577H4.05273ZM5.31586 18.3156H7.63165C7.8948 18.3156 8.1054 18.5261 8.1054 18.7893C8.1054 19.0524 7.8948 19.263 7.63165 19.263H5.31586V18.3156ZM5.31586 20.4208H7.6843C8.00009 20.4208 8.21063 20.6314 8.21063 20.9472C8.21063 21.263 8.00009 21.4735 7.6843 21.4735H5.31586V20.4208Z" fill="#DFDFDF"/>
<path d="M13.105 17.1577L10.3682 22.6841H11.7893L12.2103 21.7367H15.3156L15.7366 22.6841H17.1576L14.3682 17.1577H13.105ZM13.7366 18.5788L14.684 20.5788H12.7893L13.7366 18.5788Z" fill="#DFDFDF"/>
<path d="M29.2109 17.1577V18.3456H25.5267V19.2753H29.1057V20.4632H25.5267V21.4961H29.2109V22.6841H24.2109V17.1577H29.2109Z" fill="#DFDFDF"/>
<path d="M17.4736 30.7363V36.2627H18.7894V34.1574H19.7894L21.3684 36.2627H22.9473L21.3157 34.1048C22 33.8942 22.5263 33.2627 22.5263 32.4732C22.5263 31.5258 21.7894 30.7363 20.8421 30.7363H17.4736ZM18.8421 31.8942H20.7368C21 31.8942 21.2632 32.1574 21.2632 32.4205C21.2632 32.6837 21.0526 32.9469 20.7368 32.9469H18.8421V31.8942Z" fill="#DFDFDF"/>
<path d="M22.5264 23.8828V25.0707H18.8422V26.0004H22.4211V27.1883H18.8422V28.2212H22.5264V29.4091H17.5264V23.8828H22.5264Z" fill="#DFDFDF"/>
</g>
<defs>
<clipPath id="clip0_991_543">
<rect width="40" height="40" fill="white"/>
</clipPath>
</defs>
</svg>
