<svg width="40" height="40" viewBox="0 0 40 40" fill="none" xmlns="http://www.w3.org/2000/svg">
<path d="M23.6174 36.1243H22.2153V34.4276H23.4142V32.9443H22.2153V31.4812H23.4853V29.9268H20.3154V37.689H23.6174V36.1243Z" fill="#DFDFDF"/>
<path d="M8.83506 31.4608H9.42434V37.6787H11.3242V29.9064H6.94531V37.6787H8.84522L8.83506 31.4608Z" fill="#DFDFDF"/>
<path d="M6.29506 35.9821H4.76092V34.1025H6.07155V32.4769H4.76092V30.8513H6.16299V29.1546H2.66797V37.689H6.29506V35.9821Z" fill="#DFDFDF"/>
<path d="M26.1577 34.4275H26.747V37.6787H28.6469V29.9165H26.747V32.7003H26.1577V29.9165H24.2578V37.6787H26.1577V34.4275Z" fill="#DFDFDF"/>
<path d="M30.3031 37.6787H32.203V31.471H33.341V29.9165H29.1855V31.471H30.3031V37.6787Z" fill="#DFDFDF"/>
<path d="M13.8745 29.9268H11.9746V37.689H13.8745V29.9268Z" fill="#DFDFDF"/>
<path d="M19.7771 35.982H19.3402V29.1444H17.2574V35.982H16.6072V29.1444H14.5244V37.6787H18.3344V38.522H19.7771V35.982Z" fill="#DFDFDF"/>
<path d="M35.9617 33.0864C35.4131 33.0864 34.9559 32.6394 34.9559 32.0806C34.9559 31.5218 35.4029 31.0748 35.9617 31.0748C36.5205 31.0748 36.9675 31.5218 36.9675 32.0806C36.9675 32.6292 36.5103 33.0864 35.9617 33.0864ZM37.9022 31.0138C37.8514 30.7801 37.76 30.5871 37.6178 30.4245C37.4755 30.262 37.2622 30.14 36.9878 30.0486C36.7034 29.9572 36.3071 29.9165 35.7991 29.9165H33.8789V37.6787H35.7687V34.5495H36.2868C36.7034 34.5495 37.0386 34.4885 37.3028 34.3666C37.5568 34.2447 37.7397 34.0719 37.8311 33.8484C37.9226 33.6249 37.9734 33.2591 37.9734 32.7613V32.0907C37.9734 31.6031 37.953 31.2475 37.9022 31.0138Z" fill="#DFDFDF"/>
<path d="M36.1044 32.5785L35.8911 32.162V32.5785H35.566V31.5727H35.8809V31.9994L36.0841 31.5727H36.4499L36.1755 32.0705L36.4905 32.5785H36.1044ZM35.9622 31.3085C35.5456 31.3085 35.2002 31.654 35.2002 32.0705C35.2002 32.4972 35.5456 32.8325 35.9622 32.8325C36.3889 32.8325 36.7242 32.4871 36.7242 32.0705C36.7242 31.654 36.3787 31.3085 35.9622 31.3085Z" fill="#DFDFDF"/>
<path d="M38.7152 30.3736C38.705 30.3837 38.6949 30.3939 38.6847 30.3939C38.6644 30.4041 38.6441 30.4041 38.6136 30.4041H38.4815V30.2821H38.6339C38.6644 30.2821 38.6949 30.2923 38.705 30.3025C38.7152 30.3126 38.7253 30.3228 38.7253 30.3431C38.7253 30.3533 38.7152 30.3634 38.7152 30.3736ZM38.9082 30.7495L38.8066 30.5869C38.7863 30.5565 38.766 30.5361 38.7457 30.5158C38.7761 30.5057 38.7965 30.4853 38.8168 30.4752C38.8473 30.4447 38.8676 30.3939 38.8676 30.3431C38.8676 30.3025 38.8574 30.272 38.8371 30.2415C38.8168 30.211 38.7863 30.1805 38.7558 30.1704C38.7253 30.1602 38.6847 30.1501 38.6237 30.1501H38.3291V30.8003H38.4713V30.5361H38.5323C38.5526 30.5361 38.5628 30.5361 38.5729 30.5361C38.5831 30.5361 38.5933 30.5463 38.5933 30.5463C38.6034 30.5463 38.6136 30.5565 38.6237 30.5768C38.6339 30.5971 38.6542 30.6174 38.6745 30.6581L38.7558 30.78L38.766 30.8003H38.9489L38.9082 30.7495Z" fill="#DFDFDF"/>
<path d="M38.6037 29.876C38.2685 29.876 37.9941 30.1503 37.9941 30.4856C37.9941 30.8209 38.2685 31.0952 38.6037 31.0952C38.939 31.0952 39.2133 30.8209 39.2133 30.4856C39.2133 30.1503 38.939 29.876 38.6037 29.876ZM39.0813 30.4755C39.0813 30.7396 38.8679 30.953 38.6037 30.953C38.3396 30.953 38.1262 30.7396 38.1262 30.4755C38.1262 30.2113 38.3396 29.9979 38.6037 29.9979C38.8679 29.9979 39.0813 30.2113 39.0813 30.4755Z" fill="#DFDFDF"/>
<path d="M20.0007 26.1086C14.8507 26.1086 10.6673 21.9169 10.6673 16.7752C10.6673 12.1919 13.9923 8.3669 18.359 7.5919V9.63356C18.359 10.1836 18.6173 10.6836 19.0507 11.0086V12.7252H15.2007C14.759 12.7252 14.3507 12.9502 14.1173 13.3336C13.8923 13.7169 13.8757 14.1919 14.084 14.5669L18.9423 23.8419C19.159 24.2586 19.5923 24.5169 20.059 24.5169C20.534 24.5169 20.959 24.2586 21.1757 23.8419L26.034 14.5669C26.2423 14.1752 26.2257 13.7002 25.9923 13.3252C25.7673 12.9586 25.3507 12.7252 24.9173 12.7252H21.0673V11.0086C21.5007 10.6919 21.759 10.1836 21.759 9.63356V7.60856C26.0673 8.43356 29.3257 12.2336 29.3257 16.7752C29.334 21.9252 25.1507 26.1086 20.0007 26.1086ZM21.7673 5.49189V3.60856C21.7673 2.6669 21.0007 1.90023 20.059 1.90023C19.1173 1.90023 18.3507 2.6669 18.3507 3.60856V5.47523C12.834 6.27523 8.58398 11.0336 8.58398 16.7752C8.58398 23.0752 13.709 28.1919 20.0007 28.1919C26.3007 28.1919 31.4173 23.0669 31.4173 16.7752C31.4173 11.0836 27.2257 6.34189 21.7673 5.49189Z" fill="#DFDFDF"/>
</svg>
