<svg width="210" height="36" viewBox="0 0 210 36" fill="none" xmlns="http://www.w3.org/2000/svg">
<g clip-path="url(#clip0_761_2186)">
<path d="M22.575 3.06667H21.3937V0H14.175V3.06667H12.8625C4.9875 3.06667 0 7.06667 0 14.2667V15.6C0 22.6667 4.85625 26.6667 12.9937 26.6667H14.175V29.7333H21.3937V26.6667H22.575C30.5813 26.6667 35.5688 22.6667 35.5688 15.4667V14.1333C35.5688 6.8 30.5813 2.93333 22.575 2.93333V3.06667ZM12.6 21.4667C9.05625 21.4667 7.21875 19.2 7.21875 15.2V14.6667C7.21875 10.6667 9.05625 8.4 12.6 8.4H14.175V21.3333H12.6V21.4667ZM28.35 15.2C28.35 19.2 26.3813 21.4667 22.8375 21.4667H21.3937V8.4H22.8375C26.3813 8.4 28.35 10.5333 28.35 14.6667V15.2ZM50.2687 8.53333C43.3125 8.53333 38.5875 12.9333 38.5875 19.2C38.5875 25.6 43.3125 29.8667 50.2687 29.8667C57.225 29.8667 61.95 25.6 61.95 19.2C61.95 12.9333 57.225 8.53333 50.2687 8.53333ZM50.2687 24.5333C47.25 24.5333 45.2812 22.4 45.2812 19.2C45.2812 16 47.25 13.8667 50.2687 13.8667C53.1562 13.8667 55.2562 16 55.2562 19.2C55.2562 22.4 53.1562 24.5333 50.2687 24.5333ZM88.3313 8.93333H80.7188L72.8438 18.5333V8.93333H66.2812V29.4667H72.8438V19.8667L80.7188 29.4667H88.8562L79.6688 18.8L88.3313 8.93333ZM100.8 13.8667C103.031 13.8667 104.606 15.2 105.131 17.0667H111.694C111.169 12 107.1 8.53333 100.931 8.53333C93.975 8.53333 89.25 12.9333 89.25 19.2C89.25 25.6 93.975 29.8667 101.062 29.8667C107.1 29.8667 111.169 26.4 111.562 21.4667H105.131C104.867 22.4162 104.296 23.2479 103.511 23.8282C102.725 24.4086 101.771 24.7039 100.8 24.6667C97.9125 24.6667 95.9437 22.4 95.9437 19.3333C95.9437 16 97.9125 13.8667 100.8 13.8667ZM113.4 8.93333V14.4H120.75V29.4667H127.312V14.4H134.531V9.06667H113.531L113.4 8.93333ZM150.544 8.8C147.919 8.8 145.556 9.86667 143.981 11.8667V8.93333H137.812V35.6H144.375V27.0667C145.95 28.6667 148.05 29.7333 150.544 29.7333C156.581 29.7333 160.65 25.3333 160.65 19.2C160.65 13.0667 156.581 8.8 150.544 8.8ZM148.969 24.6667C146.081 24.6667 143.981 22.4 143.981 19.3333C143.981 16 146.081 13.8667 148.969 13.8667C151.988 13.8667 153.956 16 153.956 19.2C153.956 22.4 151.988 24.5333 148.969 24.5333V24.6667ZM175.481 8.53333C168.525 8.53333 163.8 12.9333 163.8 19.2C163.8 25.6 168.525 29.8667 175.481 29.8667C182.438 29.8667 187.163 25.6 187.163 19.2C187.163 12.9333 182.438 8.53333 175.35 8.53333H175.481ZM175.481 24.5333C172.462 24.5333 170.494 22.4 170.494 19.2C170.494 16 172.462 13.8667 175.481 13.8667C178.369 13.8667 180.469 16 180.469 19.2C180.469 22.4 178.369 24.5333 175.481 24.5333ZM189 8.93333V14.4H196.219V29.4667H202.781V14.4H210V9.06667H189V8.93333Z" fill="#DFDFDF"/>
</g>
<defs>
<clipPath id="clip0_761_2186">
<rect width="210" height="36" fill="white"/>
</clipPath>
</defs>
</svg>
