<svg width="250" height="70" viewBox="0 0 250 70" fill="none" xmlns="http://www.w3.org/2000/svg">
<g clip-path="url(#clip0_761_2495)">
<path d="M30.4455 60.1433C30.4455 65.3877 26.1816 69.6279 20.9078 69.6279C15.634 69.6279 11.3701 65.3877 11.3701 60.1433C11.3701 54.8989 15.634 50.6587 20.9078 50.6587C26.1816 50.6587 30.4455 54.8989 30.4455 60.1433Z" fill="#DFDFDF"/>
<path d="M20.9078 69.9999C15.447 69.9999 10.9961 65.5738 10.9961 60.1434C10.9961 54.713 15.447 50.2869 20.9078 50.2869C26.3686 50.2869 30.8196 54.713 30.8196 60.1434C30.8196 65.5738 26.406 69.9999 20.9078 69.9999ZM20.9078 51.0308C15.8585 51.0308 11.7441 55.1221 11.7441 60.1434C11.7441 65.1647 15.8585 69.256 20.9078 69.256C25.9572 69.256 30.0715 65.1647 30.0715 60.1434C30.0715 55.1221 25.9946 51.0308 20.9078 51.0308Z" fill="#646464"/>
<path d="M27.3789 60.1434C27.3789 63.6769 24.4988 66.578 20.9082 66.578C17.3549 66.578 14.4375 63.7141 14.4375 60.1434C14.4375 56.6099 17.3175 53.7087 20.9082 53.7087C24.4988 53.7087 27.3789 56.6099 27.3789 60.1434Z" fill="#DFDFDF"/>
<path d="M20.9082 66.9501C17.1305 66.9501 14.0635 63.9001 14.0635 60.1435C14.0635 56.3869 17.1305 53.3369 20.9082 53.3369C24.6859 53.3369 27.7529 56.3869 27.7529 60.1435C27.7529 63.9001 24.6859 66.9501 20.9082 66.9501ZM20.9082 54.0808C17.5419 54.0808 14.8115 56.796 14.8115 60.1435C14.8115 63.491 17.5419 66.2062 20.9082 66.2062C24.2744 66.2062 27.0048 63.491 27.0048 60.1435C27.0048 56.796 24.2744 54.0808 20.9082 54.0808Z" fill="#646464"/>
<path d="M26.1441 60.1432C26.1441 63.0071 23.8251 65.3132 20.9451 65.3132C18.0651 65.3132 15.7461 63.0071 15.7461 60.1432C15.7461 57.2792 18.0651 54.9731 20.9451 54.9731C23.7877 54.9731 26.1441 57.2792 26.1441 60.1432Z" fill="#DFDFDF"/>
<path d="M20.908 65.6853C17.8409 65.6853 15.335 63.1932 15.335 60.1433C15.335 57.0933 17.8409 54.6013 20.908 54.6013C23.975 54.6013 26.481 57.0933 26.481 60.1433C26.481 63.1932 24.0124 65.6853 20.908 65.6853ZM20.908 55.3452C18.2524 55.3452 16.083 57.5025 16.083 60.1433C16.083 62.7841 18.2524 64.9414 20.908 64.9414C23.5636 64.9414 25.7329 62.7841 25.7329 60.1433C25.7329 57.5025 23.601 55.3452 20.908 55.3452Z" fill="#646464"/>
<path d="M23.9369 60.1434C23.9369 61.7799 22.5904 63.1189 20.9447 63.1189C19.2989 63.1189 17.915 61.7799 17.915 60.1434C17.915 58.5068 19.2615 57.1306 20.9447 57.1306C22.5904 57.1678 23.9369 58.5068 23.9369 60.1434Z" fill="#DFDFDF"/>
<path d="M20.9076 63.5281C19.0374 63.5281 17.5039 62.0031 17.5039 60.1806C17.5039 58.3209 19.0374 56.7959 20.9076 56.7959C22.7777 56.7959 24.2738 58.3209 24.2738 60.1806C24.3112 62.0031 22.7777 63.5281 20.9076 63.5281ZM20.9076 57.5398C19.4489 57.5398 18.252 58.73 18.252 60.1806C18.252 61.6312 19.4489 62.7842 20.9076 62.7842C22.3663 62.7842 23.5257 61.594 23.5257 60.1806C23.5632 58.6928 22.3663 57.5398 20.9076 57.5398Z" fill="#646464"/>
<path d="M1.30957 51.9234C1.30957 52.7416 1.98282 53.3739 2.76828 53.3739H3.40412V48.5015H2.76828C1.94542 48.5015 1.30957 49.1338 1.30957 49.9521V51.9234Z" fill="#DFDFDF"/>
<path d="M3.77816 53.746H2.76828C1.75841 53.746 0.935547 52.9277 0.935547 51.9235V49.9522C0.935547 49.4686 1.12256 49.0223 1.45919 48.6504C1.79581 48.3156 2.28205 48.1296 2.76828 48.1296H3.74075V53.746H3.77816ZM2.76828 48.8735C2.46906 48.8735 2.20724 48.9851 1.98282 49.2083C1.75841 49.4314 1.6462 49.6918 1.6462 49.9894V51.9607C1.6462 52.5558 2.13243 53.0393 2.73088 53.0393H2.9927V48.9107L2.76828 48.8735Z" fill="#646464"/>
<path d="M4.56313 59.9575C4.56313 60.3666 4.22651 60.7014 3.81508 60.7014H1.15948C0.710648 60.7014 0.374023 60.3294 0.374023 59.9203V54.7874C0.374023 54.3411 0.748051 54.0063 1.15948 54.0063H3.81508C4.22651 54.0063 4.56313 54.3411 4.56313 54.7502V59.9575Z" fill="#DFDFDF"/>
<path d="M3.81508 61.0361H1.15949C0.523638 61.0361 0 60.5153 0 59.883V54.7502C0 54.1179 0.523638 53.5972 1.15949 53.5972H3.81508C4.41352 53.5972 4.93716 54.0807 4.93716 54.713V59.9574C4.93716 60.5525 4.45093 61.0361 3.81508 61.0361ZM1.15949 54.3411C0.935069 54.3411 0.748055 54.527 0.748055 54.7502V59.883C0.748055 60.1062 0.935069 60.2922 1.15949 60.2922H3.81508C4.00209 60.2922 4.18911 60.1434 4.18911 59.9202V54.6758C4.18911 54.4898 4.0395 54.3039 3.81508 54.3039H1.15949V54.3411Z" fill="#646464"/>
<path d="M115.836 45.5632H65.4922V48.6132H115.836V45.5632Z" fill="#DFDFDF"/>
<path d="M116.173 48.9852H65.1182V45.1914H116.21V48.9852H116.173ZM65.8662 48.2414H115.462V45.9353H65.8662V48.2414Z" fill="#646464"/>
<path d="M231.71 45.3401H157.877V48.6132H231.71V45.3401Z" fill="#DFDFDF"/>
<path d="M232.047 48.985H157.503V44.968H232.084V48.985H232.047ZM158.251 48.2411H231.336V45.7119H158.251V48.2411Z" fill="#646464"/>
<path d="M124.327 53.2251H126.609C127.432 53.2251 128.067 53.8946 128.067 54.6757V54.9732C128.067 55.7915 127.394 56.4238 126.609 56.4238H124.327V53.2251Z" fill="#DFDFDF"/>
<path d="M126.609 56.7959H123.953V52.8533H126.609C127.619 52.8533 128.441 53.6715 128.441 54.6758V54.9734C128.441 55.9776 127.619 56.7959 126.609 56.7959ZM124.701 56.052H126.609C127.207 56.052 127.693 55.5685 127.693 54.9734V54.6758C127.693 54.0807 127.207 53.5972 126.609 53.5972H124.701V56.052Z" fill="#646464"/>
<path d="M124.887 48.3528C115.013 48.3528 52.8869 48.3528 45.5186 48.3528V60.2922C53.2235 60.2922 70.3166 60.2922 71.7753 60.2922V60.255C71.7753 54.1551 76.7499 49.1711 82.9213 49.1711C88.6065 49.1711 93.8803 53.4484 94.0673 60.2922H97.658V60.255C97.658 54.1923 102.633 49.1711 108.804 49.1711C114.452 49.1711 119.763 53.4484 119.95 60.3294H124.925C125.747 60.3294 126.383 59.6599 126.383 58.8788V49.8406C126.346 49.0223 125.673 48.3528 124.887 48.3528Z" fill="#DFDFDF"/>
<path d="M124.887 60.7015H119.539V60.3295C119.389 55.1223 115.574 49.5431 108.767 49.5431C102.82 49.5431 97.9949 54.3412 97.9949 60.2551V60.6643H93.6562V60.2923C93.5066 55.0851 89.6915 49.5431 82.8842 49.5431C76.9372 49.5431 72.1122 54.3412 72.1122 60.2551V60.6643H45.1074V47.981H124.85C125.86 47.981 126.683 48.7992 126.683 49.8035V58.8417C126.72 59.846 125.897 60.7015 124.887 60.7015ZM120.25 59.9576H124.887C125.486 59.9576 125.972 59.4741 125.972 58.8789V49.8407C125.972 49.2456 125.486 48.762 124.887 48.762H45.8929V59.9576H71.4016C71.5886 53.7833 76.6753 48.8364 82.9216 48.8364C88.2702 48.8364 94.0302 52.7418 94.4042 59.9576H97.2843C97.4713 53.7833 102.558 48.8364 108.804 48.8364C115.013 48.7992 119.913 53.5601 120.25 59.9576Z" fill="#646464"/>
<path d="M23.0029 20.829H43.4248V12.5347C43.4248 11.7536 42.7516 11.1213 41.9661 11.1957L33.7375 12.2371C32.8024 12.3115 31.9048 12.7206 31.2689 13.4273L23.0029 20.829Z" fill="#DFDFDF"/>
<path d="M43.8361 21.201H22.0303L31.0443 13.1298C31.7176 12.3859 32.6901 11.9395 33.7373 11.8651L41.9285 10.8237C42.4148 10.7865 42.901 10.9353 43.275 11.27C43.6117 11.6048 43.8361 12.0511 43.8361 12.5346V21.201ZM23.9752 20.4571H43.0506V12.5346C43.0506 12.2743 42.9384 12.0139 42.7514 11.8279C42.5644 11.642 42.3026 11.5676 42.0033 11.5676L33.8121 12.609C32.9519 12.6834 32.1664 13.0554 31.568 13.6877L23.9752 20.4571Z" fill="#646464"/>
<path d="M31.6424 57.1678H31.5676C31.8668 58.172 32.0164 59.2135 32.0164 60.2921C34.111 60.2921 41.4045 60.2921 45.4814 60.2921V22.3166C45.4814 21.4983 44.8082 20.866 44.0227 20.866H11.1457C10.2854 20.866 9.49997 21.4239 9.20075 22.2422L4.5254 35.409L3.40332 38.1986V60.5525H9.53737C9.57477 59.4738 9.64958 57.9861 9.9114 56.9446C10.9961 52.5557 15.821 49.1338 20.8704 49.1338C26.0694 49.1338 30.2585 52.63 31.5676 57.1306H31.6424V57.1678Z" fill="#DFDFDF"/>
<path d="M9.9114 60.9245H3.0293V38.1243L4.18878 35.2975L8.86413 22.1307C9.20075 21.1636 10.1358 20.4941 11.1831 20.4941H44.0601C45.07 20.4941 45.8928 21.3124 45.8928 22.3167V60.6642H31.6798V60.2922C31.6798 59.288 31.5302 58.2837 31.2684 57.2795C29.9219 52.6674 25.7702 49.543 20.9452 49.543C16.0455 49.543 11.4075 52.8533 10.3602 57.0563C10.061 58.2093 9.98621 59.8831 9.98621 60.5898L9.9114 60.9245ZM3.77735 60.1806H9.20075C9.23815 59.2508 9.31296 57.8746 9.57478 56.8703C10.6969 52.3326 15.6714 48.7991 20.9078 48.7991C26.0694 48.7991 30.5203 52.1094 31.979 57.0935C32.2408 58.0234 32.3905 58.9904 32.4279 59.9575H45.1448V22.3167C45.1448 21.7216 44.6586 21.238 44.0601 21.238H11.1457C10.435 21.238 9.79919 21.6844 9.53738 22.3539L4.86203 35.5579L3.77735 38.2731V60.1806Z" fill="#646464"/>
<path d="M29.6231 26.9286C29.6231 26.1103 28.9498 25.478 28.1643 25.478H13.4651C12.6048 25.478 11.7819 26.0359 11.4827 26.8542L8.60271 34.7023C8.34089 35.3718 8.86453 36.0785 9.57518 36.0785H28.1643C28.9872 36.0785 29.6231 35.409 29.6231 34.6279V26.9286Z" fill="#DFDFDF"/>
<path d="M28.1643 36.4505H9.57509C9.12626 36.4505 8.67743 36.2273 8.41561 35.8554C8.15379 35.4835 8.07898 34.9999 8.2286 34.5908L11.1086 26.7056C11.4452 25.7385 12.3803 25.1062 13.4276 25.1062H28.1269C29.1367 25.1062 29.9596 25.9245 29.9596 26.9287V34.5908C29.997 35.6322 29.1741 36.4505 28.1643 36.4505ZM13.465 25.8129C12.7543 25.8129 12.0811 26.2592 11.8567 26.9287L8.97665 34.814C8.90185 34.9999 8.93925 35.2231 9.05146 35.4091C9.16366 35.595 9.38808 35.6694 9.57509 35.6694H28.1643C28.7627 35.6694 29.2489 35.1859 29.2489 34.5908V26.9287C29.2489 26.3336 28.7627 25.8501 28.1643 25.8501H13.465V25.8129Z" fill="#646464"/>
<path d="M29.697 38.6077C29.697 39.2772 29.1734 39.7979 28.5001 39.7979H26.069C25.3957 39.7979 24.8721 39.2772 24.8721 38.6077C24.8721 37.9382 25.3957 37.4175 26.069 37.4175H28.5001C29.136 37.4175 29.697 37.9382 29.697 38.6077Z" fill="#DFDFDF"/>
<path d="M28.5001 40.17H26.069C25.2087 40.17 24.498 39.4633 24.498 38.6078C24.498 37.7524 25.2087 37.0457 26.069 37.0457H28.5001C29.3604 37.0457 30.0711 37.7524 30.0711 38.6078C30.0711 39.4633 29.3604 40.17 28.5001 40.17ZM26.069 37.7895C25.6201 37.7895 25.2461 38.1615 25.2461 38.6078C25.2461 39.0542 25.6201 39.4261 26.069 39.4261H28.5001C28.949 39.4261 29.323 39.0542 29.323 38.6078C29.323 38.1615 28.949 37.7895 28.5001 37.7895H26.069Z" fill="#646464"/>
<path d="M7.5929 55.866H7.18147C6.02198 55.866 5.08691 54.9362 5.08691 53.7831V37.6407L5.12432 37.5664L9.46304 25.1806C9.83706 24.102 10.8469 23.3953 12.0064 23.3953H30.1468C31.3062 23.3953 32.2413 24.3251 32.2413 25.4782V45.4516C32.2413 46.6046 31.3062 47.5345 30.1468 47.5345H20.422C15.9711 47.5345 11.595 50.2869 10.0241 54.0807C9.61265 55.1965 8.64018 55.866 7.5929 55.866ZM5.83497 37.7523V53.746C5.83497 54.4898 6.43341 55.085 7.18147 55.085H7.5929C8.34095 55.085 9.05161 54.5642 9.38823 53.8203C11.034 49.7661 15.7093 46.8278 20.4594 46.8278H30.1094C30.8574 46.8278 31.4559 46.2327 31.4559 45.4888V25.5153C31.4559 24.7715 30.8574 24.1763 30.1094 24.1763H11.969C11.1462 24.1763 10.3981 24.6971 10.1363 25.4782L5.83497 37.7523Z" fill="#646464"/>
<path d="M41.5542 25.4409H35.6071C34.7843 25.4409 34.1484 26.1104 34.1484 26.8915V34.5908C34.1484 35.409 34.8217 36.0413 35.6071 36.0413H41.5542C42.377 36.0413 43.0129 35.3718 43.0129 34.5908V26.9287C43.0129 26.1104 42.3396 25.4409 41.5542 25.4409Z" fill="#DFDFDF"/>
<path d="M41.5542 36.4505H35.6071C34.5973 36.4505 33.7744 35.6322 33.7744 34.628V26.9287C33.7744 25.9245 34.5973 25.1062 35.6071 25.1062H41.5542C42.5641 25.1062 43.3869 25.9245 43.3869 26.9287V34.5908C43.3869 35.6322 42.5641 36.4505 41.5542 36.4505ZM35.6071 25.8129C35.0087 25.8129 34.5225 26.2964 34.5225 26.8915V34.5908C34.5225 35.1859 35.0087 35.6694 35.6071 35.6694H41.5542C42.1526 35.6694 42.6389 35.1859 42.6389 34.5908V26.9287C42.6389 26.3336 42.1526 25.8501 41.5542 25.8501H35.6071V25.8129Z" fill="#646464"/>
<path d="M248.092 46.1211H50.2692C49.2219 46.1211 48.3242 45.2657 48.3242 44.187V1.93411C48.3242 0.892667 49.1845 0 50.2692 0H248.092C249.14 0 250.037 0.855473 250.037 1.93411V44.2242C250 45.2657 249.14 46.1211 248.092 46.1211ZM50.2692 0.743889C49.6333 0.743889 49.0723 1.26461 49.0723 1.93411V44.2242C49.0723 44.8565 49.5959 45.4145 50.2692 45.4145H248.092C248.728 45.4145 249.289 44.8937 249.289 44.2242V1.93411C249.289 1.30181 248.766 0.743889 248.092 0.743889H50.2692Z" fill="#646464"/>
<path d="M246.11 44.0011H52.2514C51.2789 44.0011 50.4561 43.22 50.4561 42.2158V3.90545C50.4561 2.9384 51.2415 2.12012 52.2514 2.12012H246.11C247.082 2.12012 247.905 2.9012 247.905 3.90545V42.253C247.905 43.22 247.082 44.0011 246.11 44.0011ZM52.2514 2.86401C51.6903 2.86401 51.2041 3.31034 51.2041 3.90545V42.253C51.2041 42.8109 51.6529 43.2944 52.2514 43.2944H246.11C246.671 43.2944 247.157 42.8481 247.157 42.253V3.90545C247.157 3.34753 246.708 2.86401 246.11 2.86401H52.2514Z" fill="#646464"/>
<path d="M61.3025 37.3432C61.3025 38.1615 60.6292 38.7938 59.8438 38.7938C59.0209 38.7938 58.3477 38.1615 58.3477 37.3432V8.51748C58.3477 7.6992 59.0209 7.06689 59.8064 7.06689C60.6292 7.06689 61.3025 7.6992 61.3025 8.51748V37.3432Z" fill="#DFDFDF"/>
<path d="M59.8067 39.1658C58.7968 39.1658 57.9365 38.3476 57.9365 37.3433V8.5176C57.9365 7.51335 58.7594 6.69507 59.7693 6.69507C60.7791 6.69507 61.6394 7.51335 61.6394 8.5176V37.3433C61.6768 38.3476 60.8539 39.1658 59.8067 39.1658ZM59.8067 7.43896C59.2082 7.43896 58.722 7.92249 58.722 8.5176V37.3433C58.722 37.9384 59.2082 38.422 59.8441 38.422C60.4425 38.422 60.9287 37.9384 60.9287 37.3433V8.5176C60.9287 7.92249 60.4051 7.43896 59.8067 7.43896Z" fill="#646464"/>
<path d="M222.21 37.3432C222.21 38.1615 221.536 38.7938 220.751 38.7938C219.928 38.7938 219.255 38.1615 219.255 37.3432V8.51748C219.255 7.6992 219.928 7.06689 220.714 7.06689C221.536 7.06689 222.21 7.6992 222.21 8.51748V37.3432Z" fill="#DFDFDF"/>
<path d="M220.751 39.1658C219.741 39.1658 218.881 38.3476 218.881 37.3433V8.5176C218.881 7.51335 219.704 6.69507 220.714 6.69507C221.723 6.69507 222.584 7.51335 222.584 8.5176V37.3433C222.584 38.3476 221.761 39.1658 220.751 39.1658ZM220.714 7.43896C220.115 7.43896 219.629 7.92249 219.629 8.5176V37.3433C219.629 37.9384 220.115 38.422 220.751 38.422C221.349 38.422 221.836 37.9384 221.836 37.3433V8.5176C221.836 7.92249 221.312 7.43896 220.714 7.43896Z" fill="#646464"/>
<path d="M238.293 37.3432C238.293 38.1615 237.619 38.7938 236.834 38.7938C236.011 38.7938 235.338 38.1615 235.338 37.3432V8.51748C235.338 7.6992 236.011 7.06689 236.797 7.06689C237.619 7.06689 238.293 7.6992 238.293 8.51748V37.3432Z" fill="#DFDFDF"/>
<path d="M236.834 39.1658C235.824 39.1658 234.964 38.3476 234.964 37.3433V8.5176C234.964 7.51335 235.787 6.69507 236.797 6.69507C237.806 6.69507 238.667 7.51335 238.667 8.5176V37.3433C238.667 38.3476 237.844 39.1658 236.834 39.1658ZM236.797 7.43896C236.198 7.43896 235.712 7.92249 235.712 8.5176V37.3433C235.712 37.9384 236.198 38.422 236.834 38.422C237.432 38.422 237.919 37.9384 237.919 37.3433V8.5176C237.919 7.92249 237.432 7.43896 236.797 7.43896Z" fill="#646464"/>
<path d="M206.127 37.3432C206.127 38.1615 205.453 38.7938 204.668 38.7938C203.845 38.7938 203.172 38.1615 203.172 37.3432V8.51748C203.172 7.6992 203.845 7.06689 204.631 7.06689C205.453 7.06689 206.127 7.6992 206.127 8.51748V37.3432Z" fill="#DFDFDF"/>
<path d="M204.631 39.1658C203.621 39.1658 202.761 38.3476 202.761 37.3433V8.5176C202.761 7.51335 203.584 6.69507 204.593 6.69507C205.603 6.69507 206.464 7.51335 206.464 8.5176V37.3433C206.501 38.3476 205.678 39.1658 204.631 39.1658ZM204.631 7.43896C204.032 7.43896 203.546 7.92249 203.546 8.5176V37.3433C203.546 37.9384 204.032 38.422 204.668 38.422C205.267 38.422 205.753 37.9384 205.753 37.3433V8.5176C205.753 7.92249 205.229 7.43896 204.631 7.43896Z" fill="#646464"/>
<path d="M190.006 37.3432C190.006 38.1615 189.332 38.7938 188.547 38.7938C187.724 38.7938 187.051 38.1615 187.051 37.3432V8.51748C187.051 7.6992 187.724 7.06689 188.509 7.06689C189.332 7.06689 190.006 7.6992 190.006 8.51748V37.3432Z" fill="#DFDFDF"/>
<path d="M188.547 39.1658C187.537 39.1658 186.677 38.3476 186.677 37.3433V8.5176C186.677 7.51335 187.5 6.69507 188.509 6.69507C189.519 6.69507 190.38 7.51335 190.38 8.5176V37.3433C190.38 38.3476 189.557 39.1658 188.547 39.1658ZM188.547 7.43896C187.948 7.43896 187.462 7.92249 187.462 8.5176V37.3433C187.462 37.9384 187.948 38.422 188.584 38.422C189.183 38.422 189.669 37.9384 189.669 37.3433V8.5176C189.632 7.92249 189.145 7.43896 188.547 7.43896Z" fill="#646464"/>
<path d="M173.923 37.3432C173.923 38.1615 173.249 38.7938 172.464 38.7938C171.641 38.7938 170.968 38.1615 170.968 37.3432V8.51748C170.968 7.6992 171.641 7.06689 172.426 7.06689C173.249 7.06689 173.923 7.6992 173.923 8.51748V37.3432Z" fill="#DFDFDF"/>
<path d="M172.464 39.1658C171.454 39.1658 170.594 38.3476 170.594 37.3433V8.5176C170.594 7.51335 171.417 6.69507 172.426 6.69507C173.436 6.69507 174.297 7.51335 174.297 8.5176V37.3433C174.297 38.3476 173.474 39.1658 172.464 39.1658ZM172.426 7.43896C171.828 7.43896 171.342 7.92249 171.342 8.5176V37.3433C171.342 37.9384 171.828 38.422 172.464 38.422C173.062 38.422 173.549 37.9384 173.549 37.3433V8.5176C173.549 7.92249 173.062 7.43896 172.426 7.43896Z" fill="#646464"/>
<path d="M157.84 37.3432C157.84 38.1615 157.166 38.7938 156.381 38.7938C155.558 38.7938 154.885 38.1615 154.885 37.3432V8.51748C154.885 7.6992 155.558 7.06689 156.343 7.06689C157.166 7.06689 157.84 7.6992 157.84 8.51748V37.3432Z" fill="#DFDFDF"/>
<path d="M156.381 39.1658C155.371 39.1658 154.511 38.3476 154.511 37.3433V8.5176C154.511 7.51335 155.334 6.69507 156.343 6.69507C157.353 6.69507 158.214 7.51335 158.214 8.5176V37.3433C158.214 38.3476 157.391 39.1658 156.381 39.1658ZM156.343 7.43896C155.745 7.43896 155.259 7.92249 155.259 8.5176V37.3433C155.259 37.9384 155.745 38.422 156.381 38.422C156.979 38.422 157.466 37.9384 157.466 37.3433V8.5176C157.466 7.92249 156.979 7.43896 156.343 7.43896Z" fill="#646464"/>
<path d="M141.757 37.3432C141.757 38.1615 141.083 38.7938 140.298 38.7938C139.475 38.7938 138.802 38.1615 138.802 37.3432V8.51748C138.802 7.6992 139.475 7.06689 140.26 7.06689C141.083 7.06689 141.757 7.6992 141.757 8.51748V37.3432Z" fill="#DFDFDF"/>
<path d="M140.298 39.1658C139.288 39.1658 138.428 38.3476 138.428 37.3433V8.5176C138.428 7.51335 139.251 6.69507 140.26 6.69507C141.27 6.69507 142.131 7.51335 142.131 8.5176V37.3433C142.131 38.3476 141.308 39.1658 140.298 39.1658ZM140.26 7.43896C139.662 7.43896 139.176 7.92249 139.176 8.5176V37.3433C139.176 37.9384 139.662 38.422 140.298 38.422C140.896 38.422 141.383 37.9384 141.383 37.3433V8.5176C141.383 7.92249 140.859 7.43896 140.26 7.43896Z" fill="#646464"/>
<path d="M125.673 37.3432C125.673 38.1615 124.999 38.7938 124.214 38.7938C123.391 38.7938 122.718 38.1615 122.718 37.3432V8.51748C122.718 7.6992 123.391 7.06689 124.176 7.06689C124.999 7.06689 125.673 7.6992 125.673 8.51748V37.3432Z" fill="#DFDFDF"/>
<path d="M124.177 39.1658C123.167 39.1658 122.307 38.3476 122.307 37.3433V8.5176C122.307 7.51335 123.129 6.69507 124.139 6.69507C125.149 6.69507 126.01 7.51335 126.01 8.5176V37.3433C126.047 38.3476 125.187 39.1658 124.177 39.1658ZM124.177 7.43896C123.578 7.43896 123.092 7.92249 123.092 8.5176V37.3433C123.092 37.9384 123.578 38.422 124.214 38.422C124.813 38.422 125.299 37.9384 125.299 37.3433V8.5176C125.299 7.92249 124.775 7.43896 124.177 7.43896Z" fill="#646464"/>
<path d="M109.552 37.3432C109.552 38.1615 108.879 38.7938 108.094 38.7938C107.271 38.7938 106.598 38.1615 106.598 37.3432V8.51748C106.598 7.6992 107.271 7.06689 108.056 7.06689C108.879 7.06689 109.552 7.6992 109.552 8.51748V37.3432Z" fill="#DFDFDF"/>
<path d="M108.094 39.1658C107.084 39.1658 106.224 38.3476 106.224 37.3433V8.5176C106.224 7.51335 107.046 6.69507 108.056 6.69507C109.066 6.69507 109.927 7.51335 109.927 8.5176V37.3433C109.927 38.3476 109.104 39.1658 108.094 39.1658ZM108.094 7.43896C107.495 7.43896 107.009 7.92249 107.009 8.5176V37.3433C107.009 37.9384 107.495 38.422 108.131 38.422C108.73 38.422 109.216 37.9384 109.216 37.3433V8.5176C109.178 7.92249 108.692 7.43896 108.094 7.43896Z" fill="#646464"/>
<path d="M93.4695 37.3432C93.4695 38.1615 92.7962 38.7938 92.0108 38.7938C91.1879 38.7938 90.5146 38.1615 90.5146 37.3432V8.51748C90.5146 7.6992 91.1879 7.06689 91.9734 7.06689C92.7962 7.06689 93.4695 7.6992 93.4695 8.51748V37.3432Z" fill="#DFDFDF"/>
<path d="M92.0108 39.1658C91.0009 39.1658 90.1406 38.3476 90.1406 37.3433V8.5176C90.1406 7.51335 90.9635 6.69507 91.9734 6.69507C92.9832 6.69507 93.8435 7.51335 93.8435 8.5176V37.3433C93.8435 38.3476 93.0206 39.1658 92.0108 39.1658ZM91.9734 7.43896C91.3749 7.43896 90.8887 7.92249 90.8887 8.5176V37.3433C90.8887 37.9384 91.3749 38.422 92.0108 38.422C92.6092 38.422 93.0954 37.9384 93.0954 37.3433V8.5176C93.0954 7.92249 92.6092 7.43896 91.9734 7.43896Z" fill="#646464"/>
<path d="M77.3865 37.3432C77.3865 38.1615 76.7132 38.7938 75.9278 38.7938C75.1049 38.7938 74.4316 38.1615 74.4316 37.3432V8.51748C74.4316 7.6992 75.1049 7.06689 75.8903 7.06689C76.7132 7.06689 77.3865 7.6992 77.3865 8.51748V37.3432Z" fill="#DFDFDF"/>
<path d="M75.9278 39.1658C74.9179 39.1658 74.0576 38.3476 74.0576 37.3433V8.5176C74.0576 7.51335 74.8805 6.69507 75.8903 6.69507C76.9002 6.69507 77.7605 7.51335 77.7605 8.5176V37.3433C77.7605 38.3476 76.9376 39.1658 75.9278 39.1658ZM75.8903 7.43896C75.2919 7.43896 74.8057 7.92249 74.8057 8.5176V37.3433C74.8057 37.9384 75.2919 38.422 75.9278 38.422C76.5262 38.422 77.0124 37.9384 77.0124 37.3433V8.5176C77.0124 7.92249 76.5262 7.43896 75.8903 7.43896Z" fill="#646464"/>
<path d="M233.057 53.1509H235.338C236.161 53.1509 236.797 53.8204 236.797 54.6015V54.899C236.797 55.7173 236.124 56.3496 235.338 56.3496H233.057V53.1509Z" fill="#DFDFDF"/>
<path d="M235.338 56.7217H232.683V52.7791H235.338C236.348 52.7791 237.171 53.5973 237.171 54.6016V54.8991C237.208 55.9034 236.348 56.7217 235.338 56.7217ZM233.431 55.9778H235.338C235.937 55.9778 236.423 55.4943 236.423 54.8991V54.6016C236.423 54.0065 235.937 53.5229 235.338 53.5229H233.431V55.9778Z" fill="#646464"/>
<path d="M233.505 48.2786C225.464 48.2786 160.158 48.2786 152.266 48.2786C151.443 48.2786 150.808 48.9481 150.808 49.7291V58.7674C150.808 59.5857 151.481 60.218 152.266 60.218C152.94 60.218 153.538 60.218 154.548 60.218V60.1808C154.548 54.0809 159.522 49.0968 165.694 49.0968C171.379 49.0968 176.653 53.3742 176.84 60.218C181.964 60.218 175.381 60.218 180.431 60.218C180.431 50.5102 191.764 45.7493 198.795 51.7377C201.077 53.6718 202.61 56.6473 202.685 60.218H204.481H206.276C206.276 53.9693 211.363 49.0968 217.422 49.0968C223.07 49.0968 228.381 53.3742 228.568 60.2552H233.543C234.365 60.2552 235.001 59.5857 235.001 58.8046V49.7663C235.039 48.9109 234.328 48.2786 233.505 48.2786Z" fill="#DFDFDF"/>
<path d="M233.543 60.6271H228.194V60.2551C228.044 55.0479 224.229 49.4687 217.422 49.4687C211.475 49.4687 206.65 54.304 206.65 60.2179V60.5899H202.311V60.2179C202.236 56.9076 200.89 53.9693 198.534 51.998C195.317 49.2456 190.903 48.6505 187.013 50.4358C183.124 52.2211 180.805 55.8662 180.805 60.1808V60.5527H176.466V60.1808C176.316 54.9735 172.501 49.4316 165.694 49.4316C159.747 49.4316 154.922 54.2296 154.922 60.1436V60.5155L154.548 60.5527H152.266C151.256 60.5527 150.434 59.7344 150.434 58.7302V49.6919C150.434 48.6877 151.256 47.8694 152.266 47.8694H233.505C234.552 47.8694 235.375 48.6877 235.375 49.6919V58.7302C235.413 59.8088 234.59 60.6271 233.543 60.6271ZM228.942 59.8832H233.58C234.178 59.8832 234.665 59.3997 234.665 58.8046V49.7663C234.665 49.1712 234.141 48.6877 233.543 48.6877H152.266C151.668 48.6877 151.182 49.1712 151.182 49.7663V58.7674C151.182 59.3625 151.668 59.846 152.266 59.846H154.174C154.361 53.6717 159.448 48.7249 165.694 48.7249C171.043 48.7249 176.803 52.6303 177.177 59.846H180.057C180.169 55.3827 182.637 51.6632 186.714 49.8035C190.866 47.9066 195.616 48.5389 199.02 51.4772C201.451 53.5229 202.872 56.4985 203.059 59.8832H205.939C206.126 53.7089 211.213 48.7621 217.459 48.7621C223.706 48.7249 228.568 53.4858 228.942 59.8832Z" fill="#646464"/>
<path d="M68.0726 62.4495C68.0726 63.2678 67.3993 63.9001 66.6139 63.9001H49.446C48.6231 63.9001 47.9873 63.2306 47.9873 62.4495V52.2582C47.9873 51.4399 48.6606 50.8076 49.446 50.8076H66.6139C67.4367 50.8076 68.0726 51.4771 68.0726 52.2582V62.4495Z" fill="#DFDFDF"/>
<path d="M66.6139 64.2721H49.446C48.4361 64.2721 47.6133 63.4539 47.6133 62.4496V52.2583C47.6133 51.2541 48.4361 50.4358 49.446 50.4358H66.6139C67.6238 50.4358 68.4466 51.2541 68.4466 52.2583V62.4496C68.4466 63.4539 67.6238 64.2721 66.6139 64.2721ZM49.446 51.1797C48.8476 51.1797 48.3613 51.6632 48.3613 52.2583V62.4496C48.3613 63.0447 48.8476 63.5282 49.446 63.5282H66.6139C67.2123 63.5282 67.6986 63.0447 67.6986 62.4496V52.2583C67.6986 51.6632 67.2123 51.1797 66.6139 51.1797H49.446Z" fill="#646464"/>
<path d="M64.0326 64.086C64.0326 64.5696 63.6212 64.9787 63.135 64.9787C62.6487 64.9787 62.2373 64.5696 62.2373 64.086V50.8448C62.2373 50.3613 62.6487 49.9521 63.135 49.9521C63.6212 49.9521 64.0326 50.3613 64.0326 50.8448V64.086Z" fill="#DFDFDF"/>
<path d="M63.135 65.3508C62.4243 65.3508 61.8633 64.7929 61.8633 64.0862V50.8449C61.8633 50.1382 62.4243 49.5803 63.135 49.5803C63.8456 49.5803 64.4067 50.1382 64.4067 50.8449V64.0862C64.4067 64.7557 63.8456 65.3508 63.135 65.3508ZM63.135 50.287C62.8358 50.287 62.6113 50.5102 62.6113 50.8077V64.049C62.6113 64.3465 62.8358 64.5697 63.135 64.5697C63.4342 64.5697 63.6586 64.3465 63.6586 64.049V50.8077C63.6586 50.5474 63.4342 50.287 63.135 50.287Z" fill="#646464"/>
<path d="M58.9086 64.086C58.9086 64.5696 58.4972 64.9787 58.011 64.9787C57.5247 64.9787 57.1133 64.5696 57.1133 64.086V50.8448C57.1133 50.3613 57.5247 49.9521 58.011 49.9521C58.4972 49.9521 58.9086 50.3613 58.9086 50.8448V64.086Z" fill="#DFDFDF"/>
<path d="M58.011 65.3508C57.3003 65.3508 56.7393 64.7929 56.7393 64.0862V50.8449C56.7393 50.1382 57.3003 49.5803 58.011 49.5803C58.7216 49.5803 59.2826 50.1382 59.2826 50.8449V64.0862C59.2826 64.7557 58.7216 65.3508 58.011 65.3508ZM58.011 50.287C57.7117 50.287 57.4873 50.5102 57.4873 50.8077V64.049C57.4873 64.3465 57.7117 64.5697 58.011 64.5697C58.3102 64.5697 58.5346 64.3465 58.5346 64.049V50.8077C58.5346 50.5474 58.3102 50.287 58.011 50.287Z" fill="#646464"/>
<path d="M53.8217 64.086C53.8217 64.5696 53.4103 64.9787 52.924 64.9787C52.4378 64.9787 52.0264 64.5696 52.0264 64.086V50.8448C52.0264 50.3613 52.4378 49.9521 52.924 49.9521C53.4103 49.9521 53.8217 50.3613 53.8217 50.8448V64.086Z" fill="#DFDFDF"/>
<path d="M52.924 65.3508C52.2134 65.3508 51.6523 64.7929 51.6523 64.0862V50.8449C51.6523 50.1382 52.2134 49.5803 52.924 49.5803C53.6347 49.5803 54.1957 50.1382 54.1957 50.8449V64.0862C54.1957 64.7557 53.5973 65.3508 52.924 65.3508ZM52.924 50.287C52.6248 50.287 52.4004 50.5102 52.4004 50.8077V64.049C52.4004 64.3465 52.6248 64.5697 52.924 64.5697C53.2233 64.5697 53.4477 64.3465 53.4477 64.049V50.8077C53.4477 50.5474 53.1859 50.287 52.924 50.287Z" fill="#646464"/>
<path d="M92.3098 60.1433C92.3098 65.3877 88.0459 69.6279 82.7721 69.6279C77.4983 69.6279 73.2344 65.3877 73.2344 60.1433C73.2344 54.8989 77.4983 50.6587 82.7721 50.6587C88.0459 50.6587 92.3098 54.8989 92.3098 60.1433Z" fill="#DFDFDF"/>
<path d="M82.7721 69.9999C77.3113 69.9999 72.8604 65.5738 72.8604 60.1434C72.8604 54.713 77.3113 50.2869 82.7721 50.2869C88.2329 50.2869 92.6838 54.713 92.6838 60.1434C92.6838 65.5738 88.2329 69.9999 82.7721 69.9999ZM82.7721 51.0308C77.7227 51.0308 73.6084 55.1221 73.6084 60.1434C73.6084 65.1647 77.7227 69.256 82.7721 69.256C87.8215 69.256 91.9358 65.1647 91.9358 60.1434C91.9358 55.1221 87.8215 51.0308 82.7721 51.0308Z" fill="#646464"/>
<path d="M89.2431 60.1434C89.2431 63.6769 86.3631 66.578 82.7724 66.578C79.2192 66.578 76.3018 63.7141 76.3018 60.1434C76.3018 56.6099 79.1818 53.7087 82.7724 53.7087C86.3257 53.7087 89.2431 56.6099 89.2431 60.1434Z" fill="#DFDFDF"/>
<path d="M82.7724 66.9501C78.9948 66.9501 75.9277 63.9001 75.9277 60.1435C75.9277 56.3869 78.9948 53.3369 82.7724 53.3369C86.5501 53.3369 89.6171 56.3869 89.6171 60.1435C89.6171 63.9001 86.5501 66.9501 82.7724 66.9501ZM82.7724 54.0808C79.4062 54.0808 76.6758 56.796 76.6758 60.1435C76.6758 63.491 79.4062 66.2062 82.7724 66.2062C86.1387 66.2062 88.8691 63.491 88.8691 60.1435C88.8691 56.796 86.1387 54.0808 82.7724 54.0808Z" fill="#646464"/>
<path d="M87.9712 60.1432C87.9712 63.0071 85.6522 65.3132 82.7722 65.3132C79.8922 65.3132 77.5732 63.0071 77.5732 60.1432C77.5732 57.2792 79.8922 54.9731 82.7722 54.9731C85.6522 54.9731 87.9712 57.2792 87.9712 60.1432Z" fill="#DFDFDF"/>
<path d="M82.7722 65.6853C79.7052 65.6853 77.1992 63.1932 77.1992 60.1433C77.1992 57.0933 79.7052 54.6013 82.7722 54.6013C85.8393 54.6013 88.3452 57.0933 88.3452 60.1433C88.3452 63.1932 85.8393 65.6853 82.7722 65.6853ZM82.7722 55.3452C80.1166 55.3452 77.9473 57.5025 77.9473 60.1433C77.9473 62.7841 80.1166 64.9414 82.7722 64.9414C85.4278 64.9414 87.5972 62.7841 87.5972 60.1433C87.5972 57.5025 85.4278 55.3452 82.7722 55.3452Z" fill="#646464"/>
<path d="M85.764 60.1434C85.764 61.7799 84.4175 63.1189 82.7718 63.1189C81.1261 63.1189 79.7422 61.7799 79.7422 60.1434C79.7422 58.5068 81.0887 57.1306 82.7718 57.1306C84.4175 57.1678 85.764 58.5068 85.764 60.1434Z" fill="#DFDFDF"/>
<path d="M82.7718 63.5281C80.9017 63.5281 79.3682 62.0031 79.3682 60.1806C79.3682 58.3209 80.9017 56.7959 82.7718 56.7959C84.642 56.7959 86.1381 58.3209 86.1381 60.1806C86.1381 62.0031 84.642 63.5281 82.7718 63.5281ZM82.7718 57.5398C81.3131 57.5398 80.1162 58.73 80.1162 60.1806C80.1162 61.6312 81.3131 62.7842 82.7718 62.7842C84.2305 62.7842 85.39 61.594 85.39 60.1806C85.39 58.6928 84.2305 57.5398 82.7718 57.5398Z" fill="#646464"/>
<path d="M118.38 60.1433C118.38 65.3877 114.116 69.6279 108.842 69.6279C103.569 69.6279 99.3047 65.3877 99.3047 60.1433C99.3047 54.8989 103.569 50.6587 108.842 50.6587C114.116 50.6587 118.38 54.8989 118.38 60.1433Z" fill="#DFDFDF"/>
<path d="M108.842 69.9999C103.382 69.9999 98.9307 65.5738 98.9307 60.1434C98.9307 54.713 103.382 50.2869 108.842 50.2869C114.303 50.2869 118.754 54.713 118.754 60.1434C118.754 65.5738 114.303 69.9999 108.842 69.9999ZM108.842 51.0308C103.793 51.0308 99.6787 55.1221 99.6787 60.1434C99.6787 65.1647 103.793 69.256 108.842 69.256C113.892 69.256 118.006 65.1647 118.006 60.1434C118.006 55.1221 113.892 51.0308 108.842 51.0308Z" fill="#646464"/>
<path d="M115.313 60.1434C115.313 63.6769 112.433 66.578 108.843 66.578C105.289 66.578 102.372 63.7141 102.372 60.1434C102.372 56.6099 105.252 53.7087 108.843 53.7087C112.396 53.7087 115.313 56.6099 115.313 60.1434Z" fill="#DFDFDF"/>
<path d="M108.843 66.9501C105.065 66.9501 101.998 63.9001 101.998 60.1435C101.998 56.3869 105.065 53.3369 108.843 53.3369C112.62 53.3369 115.687 56.3869 115.687 60.1435C115.687 63.9001 112.62 66.9501 108.843 66.9501ZM108.843 54.0808C105.476 54.0808 102.746 56.796 102.746 60.1435C102.746 63.491 105.476 66.2062 108.843 66.2062C112.209 66.2062 114.939 63.491 114.939 60.1435C114.939 56.796 112.209 54.0808 108.843 54.0808Z" fill="#646464"/>
<path d="M114.042 60.1432C114.042 63.0071 111.723 65.3132 108.843 65.3132C105.963 65.3132 103.644 63.0071 103.644 60.1432C103.644 57.2792 105.963 54.9731 108.843 54.9731C111.723 54.9731 114.042 57.2792 114.042 60.1432Z" fill="#DFDFDF"/>
<path d="M108.843 65.6853C105.776 65.6853 103.27 63.1932 103.27 60.1433C103.27 57.0933 105.776 54.6013 108.843 54.6013C111.91 54.6013 114.416 57.0933 114.416 60.1433C114.416 63.1932 111.91 65.6853 108.843 65.6853ZM108.843 55.3452C106.187 55.3452 104.018 57.5025 104.018 60.1433C104.018 62.7841 106.187 64.9414 108.843 64.9414C111.498 64.9414 113.667 62.7841 113.667 60.1433C113.667 57.5025 111.498 55.3452 108.843 55.3452Z" fill="#646464"/>
<path d="M111.834 60.1434C111.834 61.7799 110.488 63.1189 108.842 63.1189C107.196 63.1189 105.812 61.7799 105.812 60.1434C105.812 58.5068 107.159 57.1306 108.842 57.1306C110.488 57.1678 111.834 58.5068 111.834 60.1434Z" fill="#DFDFDF"/>
<path d="M108.842 63.5281C106.972 63.5281 105.438 62.0031 105.438 60.1806C105.438 58.3209 106.972 56.7959 108.842 56.7959C110.712 56.7959 112.208 58.3209 112.208 60.1806C112.208 62.0031 110.712 63.5281 108.842 63.5281ZM108.842 57.5398C107.383 57.5398 106.187 58.73 106.187 60.1806C106.187 61.6312 107.383 62.7842 108.842 62.7842C110.301 62.7842 111.46 61.594 111.46 60.1806C111.46 58.6928 110.301 57.5398 108.842 57.5398Z" fill="#646464"/>
<path d="M175.157 60.1433C175.157 65.3877 170.894 69.6279 165.62 69.6279C160.346 69.6279 156.082 65.3877 156.082 60.1433C156.082 54.8989 160.346 50.6587 165.62 50.6587C170.894 50.6587 175.157 54.8989 175.157 60.1433Z" fill="#DFDFDF"/>
<path d="M165.62 69.9999C160.159 69.9999 155.708 65.5738 155.708 60.1434C155.708 54.713 160.159 50.2869 165.62 50.2869C171.081 50.2869 175.531 54.713 175.531 60.1434C175.531 65.5738 171.081 69.9999 165.62 69.9999ZM165.62 51.0308C160.57 51.0308 156.456 55.1221 156.456 60.1434C156.456 65.1647 160.57 69.256 165.62 69.256C170.669 69.256 174.783 65.1647 174.783 60.1434C174.783 55.1221 170.669 51.0308 165.62 51.0308Z" fill="#646464"/>
<path d="M172.091 60.1434C172.091 63.6769 169.211 66.578 165.62 66.578C162.067 66.578 159.149 63.7141 159.149 60.1434C159.149 56.6099 162.029 53.7087 165.62 53.7087C169.211 53.7087 172.091 56.6099 172.091 60.1434Z" fill="#DFDFDF"/>
<path d="M165.62 66.9501C161.842 66.9501 158.775 63.9001 158.775 60.1435C158.775 56.3869 161.842 53.3369 165.62 53.3369C169.398 53.3369 172.465 56.3869 172.465 60.1435C172.465 63.9001 169.398 66.9501 165.62 66.9501ZM165.62 54.0808C162.254 54.0808 159.523 56.796 159.523 60.1435C159.523 63.491 162.254 66.2062 165.62 66.2062C168.986 66.2062 171.717 63.491 171.717 60.1435C171.717 56.796 168.986 54.0808 165.62 54.0808Z" fill="#646464"/>
<path d="M170.819 60.1432C170.819 63.0071 168.5 65.3132 165.62 65.3132C162.74 65.3132 160.421 63.0071 160.421 60.1432C160.421 57.2792 162.74 54.9731 165.62 54.9731C168.5 54.9731 170.819 57.2792 170.819 60.1432Z" fill="#DFDFDF"/>
<path d="M165.62 65.6853C162.553 65.6853 160.047 63.1932 160.047 60.1433C160.047 57.0933 162.553 54.6013 165.62 54.6013C168.687 54.6013 171.193 57.0933 171.193 60.1433C171.193 63.1932 168.687 65.6853 165.62 65.6853ZM165.62 55.3452C162.964 55.3452 160.795 57.5025 160.795 60.1433C160.795 62.7841 162.964 64.9414 165.62 64.9414C168.275 64.9414 170.445 62.7841 170.445 60.1433C170.445 57.5025 168.275 55.3452 165.62 55.3452Z" fill="#646464"/>
<path d="M168.649 60.1434C168.649 61.7799 167.302 63.1189 165.657 63.1189C164.011 63.1189 162.627 61.7799 162.627 60.1434C162.627 58.5068 163.973 57.1306 165.657 57.1306C167.265 57.1678 168.649 58.5068 168.649 60.1434Z" fill="#DFDFDF"/>
<path d="M165.619 63.5281C163.749 63.5281 162.216 62.0031 162.216 60.1806C162.216 58.3209 163.749 56.7959 165.619 56.7959C167.49 56.7959 168.986 58.3209 168.986 60.1806C169.023 62.0031 167.49 63.5281 165.619 63.5281ZM165.619 57.5398C164.161 57.5398 162.964 58.73 162.964 60.1806C162.964 61.6312 164.161 62.7842 165.619 62.7842C167.078 62.7842 168.238 61.594 168.238 60.1806C168.275 58.6928 167.078 57.5398 165.619 57.5398Z" fill="#646464"/>
<path d="M201.152 60.1433C201.152 65.3877 196.888 69.6279 191.614 69.6279C186.34 69.6279 182.076 65.3877 182.076 60.1433C182.076 54.8989 186.34 50.6587 191.614 50.6587C196.888 50.6587 201.152 54.8989 201.152 60.1433Z" fill="#DFDFDF"/>
<path d="M191.614 69.9999C186.153 69.9999 181.702 65.5738 181.702 60.1434C181.702 54.713 186.153 50.2869 191.614 50.2869C197.075 50.2869 201.526 54.713 201.526 60.1434C201.526 65.5738 197.112 69.9999 191.614 69.9999ZM191.614 51.0308C186.565 51.0308 182.45 55.1221 182.45 60.1434C182.45 65.1647 186.565 69.256 191.614 69.256C196.663 69.256 200.778 65.1647 200.778 60.1434C200.778 55.1221 196.701 51.0308 191.614 51.0308Z" fill="#646464"/>
<path d="M198.085 60.1434C198.085 63.6769 195.205 66.578 191.614 66.578C188.061 66.578 185.144 63.7141 185.144 60.1434C185.144 56.6099 188.024 53.7087 191.614 53.7087C195.205 53.7087 198.085 56.6099 198.085 60.1434Z" fill="#DFDFDF"/>
<path d="M191.614 66.9501C187.837 66.9501 184.77 63.9001 184.77 60.1435C184.77 56.3869 187.837 53.3369 191.614 53.3369C195.392 53.3369 198.459 56.3869 198.459 60.1435C198.459 63.9001 195.392 66.9501 191.614 66.9501ZM191.614 54.0808C188.248 54.0808 185.518 56.796 185.518 60.1435C185.518 63.491 188.248 66.2062 191.614 66.2062C194.98 66.2062 197.711 63.491 197.711 60.1435C197.711 56.796 194.98 54.0808 191.614 54.0808Z" fill="#646464"/>
<path d="M196.85 60.1432C196.85 63.0071 194.531 65.3132 191.651 65.3132C188.771 65.3132 186.452 63.0071 186.452 60.1432C186.452 57.2792 188.771 54.9731 191.651 54.9731C194.494 54.9731 196.85 57.2792 196.85 60.1432Z" fill="#DFDFDF"/>
<path d="M191.614 65.6853C188.547 65.6853 186.041 63.1932 186.041 60.1433C186.041 57.0933 188.547 54.6013 191.614 54.6013C194.681 54.6013 197.187 57.0933 197.187 60.1433C197.187 63.1932 194.718 65.6853 191.614 65.6853ZM191.614 55.3452C188.958 55.3452 186.789 57.5025 186.789 60.1433C186.789 62.7841 188.958 64.9414 191.614 64.9414C194.27 64.9414 196.439 62.7841 196.439 60.1433C196.439 57.5025 194.307 55.3452 191.614 55.3452Z" fill="#646464"/>
<path d="M194.643 60.1434C194.643 61.7799 193.296 63.1189 191.651 63.1189C190.005 63.1189 188.621 61.7799 188.621 60.1434C188.621 58.5068 189.968 57.1306 191.651 57.1306C193.296 57.1678 194.643 58.5068 194.643 60.1434Z" fill="#DFDFDF"/>
<path d="M191.614 63.5281C189.743 63.5281 188.21 62.0031 188.21 60.1806C188.21 58.3209 189.743 56.7959 191.614 56.7959C193.484 56.7959 194.98 58.3209 194.98 60.1806C195.017 62.0031 193.484 63.5281 191.614 63.5281ZM191.614 57.5398C190.155 57.5398 188.958 58.73 188.958 60.1806C188.958 61.6312 190.155 62.7842 191.614 62.7842C193.072 62.7842 194.232 61.594 194.232 60.1806C194.269 58.6928 193.072 57.5398 191.614 57.5398Z" fill="#646464"/>
<path d="M227.034 60.1433C227.034 65.3877 222.77 69.6279 217.497 69.6279C212.223 69.6279 207.959 65.3877 207.959 60.1433C207.959 54.8989 212.223 50.6587 217.497 50.6587C222.77 50.6587 227.034 54.8989 227.034 60.1433Z" fill="#DFDFDF"/>
<path d="M217.497 69.9999C212.036 69.9999 207.585 65.5738 207.585 60.1434C207.585 54.713 212.036 50.2869 217.497 50.2869C222.957 50.2869 227.408 54.713 227.408 60.1434C227.408 65.5738 222.957 69.9999 217.497 69.9999ZM217.497 51.0308C212.447 51.0308 208.333 55.1221 208.333 60.1434C208.333 65.1647 212.447 69.256 217.497 69.256C222.546 69.256 226.66 65.1647 226.66 60.1434C226.66 55.1221 222.546 51.0308 217.497 51.0308Z" fill="#646464"/>
<path d="M223.968 60.1434C223.968 63.6769 221.088 66.578 217.497 66.578C213.944 66.578 211.026 63.7141 211.026 60.1434C211.026 56.6099 213.906 53.7087 217.497 53.7087C221.088 53.7087 223.968 56.6099 223.968 60.1434Z" fill="#DFDFDF"/>
<path d="M217.497 66.9501C213.719 66.9501 210.652 63.9001 210.652 60.1435C210.652 56.3869 213.719 53.3369 217.497 53.3369C221.275 53.3369 224.342 56.3869 224.342 60.1435C224.342 63.9001 221.275 66.9501 217.497 66.9501ZM217.497 54.0808C214.131 54.0808 211.4 56.796 211.4 60.1435C211.4 63.491 214.131 66.2062 217.497 66.2062C220.863 66.2062 223.594 63.491 223.594 60.1435C223.594 56.796 220.863 54.0808 217.497 54.0808Z" fill="#646464"/>
<path d="M222.696 60.1432C222.696 63.0071 220.377 65.3132 217.497 65.3132C214.617 65.3132 212.298 63.0071 212.298 60.1432C212.298 57.2792 214.617 54.9731 217.497 54.9731C220.377 54.9731 222.696 57.2792 222.696 60.1432Z" fill="#DFDFDF"/>
<path d="M217.497 65.6853C214.43 65.6853 211.924 63.1932 211.924 60.1433C211.924 57.0933 214.43 54.6013 217.497 54.6013C220.564 54.6013 223.07 57.0933 223.07 60.1433C223.07 63.1932 220.564 65.6853 217.497 65.6853ZM217.497 55.3452C214.841 55.3452 212.672 57.5025 212.672 60.1433C212.672 62.7841 214.841 64.9414 217.497 64.9414C220.152 64.9414 222.322 62.7841 222.322 60.1433C222.322 57.5025 220.152 55.3452 217.497 55.3452Z" fill="#646464"/>
<path d="M220.526 60.1434C220.526 61.7799 219.179 63.1189 217.534 63.1189C215.888 63.1189 214.504 61.7799 214.504 60.1434C214.504 58.5068 215.85 57.1306 217.534 57.1306C219.179 57.1678 220.526 58.5068 220.526 60.1434Z" fill="#DFDFDF"/>
<path d="M217.496 63.5281C215.626 63.5281 214.093 62.0031 214.093 60.1806C214.093 58.3209 215.626 56.7959 217.496 56.7959C219.367 56.7959 220.863 58.3209 220.863 60.1806C220.9 62.0031 219.367 63.5281 217.496 63.5281ZM217.496 57.5398C216.038 57.5398 214.841 58.73 214.841 60.1806C214.841 61.6312 216.038 62.7842 217.496 62.7842C218.955 62.7842 220.115 61.594 220.115 60.1806C220.152 58.6928 218.955 57.5398 217.496 57.5398Z" fill="#646464"/>
</g>
<defs>
<clipPath id="clip0_761_2495">
<rect width="250" height="70" fill="white"/>
</clipPath>
</defs>
</svg>
