<svg width="169" height="70" viewBox="0 0 169 70" fill="none" xmlns="http://www.w3.org/2000/svg">
<g clip-path="url(#clip0_761_3051)">
<path d="M147.435 43.8486H103.636V47.4829H147.435V43.8486Z" fill="#DFDFDF"/>
<path d="M147.826 47.9175H103.243V43.4536H147.826V47.9175ZM104.027 47.1274H147.042V44.2437H104.027V47.1274Z" fill="#646464"/>
<path d="M75.3642 9.67806C75.7563 3.35752 93.0484 -0.671828 113.987 0.671287C134.926 2.0144 151.551 8.25594 151.159 14.5765C150.767 20.897 133.475 24.9264 112.536 23.5833C91.5976 22.2006 74.9721 15.9986 75.3642 9.67806Z" fill="#DFDFDF"/>
<path d="M120.653 24.2154C118.026 24.2154 115.281 24.1364 112.497 23.9389C102.341 23.2673 92.8524 21.4897 85.7944 18.843C78.5795 16.1567 74.7368 12.878 74.9721 9.63868C75.4034 3.00211 92.5387 -1.10624 113.987 0.276375C135.436 1.65899 151.944 7.94003 151.512 14.5766C151.159 20.3441 138.141 24.2154 120.653 24.2154ZM75.7563 9.67818C75.5603 12.5224 79.3245 15.5642 86.0689 18.0924C93.0484 20.6996 102.459 22.5168 112.536 23.1488C132.848 24.4524 150.375 20.5021 150.728 14.4976C151.12 8.49308 134.259 2.33055 113.948 1.02694C93.6366 -0.237169 76.1092 3.71317 75.7563 9.67818Z" fill="#646464"/>
<path d="M56.9732 3.08128C56.189 3.00228 55.5616 3.67383 55.6793 4.4639L55.7577 5.05645C55.8753 5.96503 56.6203 6.67609 57.5222 6.7551L67.5602 7.86119L73.7948 43.6118C73.9517 44.4808 74.6967 45.1524 75.5985 45.1524H167.431C168.215 45.1524 168.764 44.4018 168.568 43.6513L161.118 15.6039C160.883 14.6953 160.099 14.0632 159.197 13.9447L56.9732 3.08128Z" fill="#DFDFDF"/>
<path d="M167.431 45.5079H75.5987C74.5008 45.5079 73.599 44.7178 73.4029 43.6512L67.2468 8.21671L57.4832 7.15012C56.4245 7.03161 55.5618 6.20204 55.3658 5.09594L55.2874 4.50339C55.2089 4.02935 55.3658 3.51581 55.7187 3.16028C56.0716 2.80475 56.5421 2.60723 57.0127 2.68624L159.197 13.5102C160.256 13.6287 161.197 14.4187 161.471 15.4458L168.921 43.4932C169.039 43.9673 168.96 44.4808 168.647 44.8759C168.372 45.3104 167.941 45.5079 167.431 45.5079ZM56.8558 3.47631C56.6205 3.47631 56.4245 3.55531 56.2676 3.71333C56.1108 3.91084 56.0324 4.14786 56.0716 4.38488L56.15 4.97743C56.2676 5.6885 56.8558 6.28105 57.5616 6.36005L67.9134 7.50565L74.1871 43.5327C74.3048 44.2438 74.8929 44.7178 75.5987 44.7178H167.431C167.666 44.7178 167.902 44.5993 168.059 44.4018C168.215 44.2043 168.255 43.9673 168.176 43.7303L160.726 15.6829C160.53 14.9323 159.903 14.3792 159.118 14.3002L56.9342 3.47631C56.895 3.47631 56.895 3.47631 56.8558 3.47631Z" fill="#646464"/>
<path d="M153.864 52.0654H156.256C157.119 52.0654 157.785 52.7765 157.785 53.6061V53.9221C157.785 54.7912 157.08 55.4627 156.256 55.4627H153.864V52.0654Z" fill="#DFDFDF"/>
<path d="M156.296 55.8973H153.512V51.71H156.296C157.354 51.71 158.217 52.579 158.217 53.6456V53.9617C158.217 55.0283 157.354 55.8973 156.296 55.8973ZM154.257 55.1073H156.256C156.884 55.1073 157.394 54.5937 157.394 53.9617V53.6456C157.394 53.0136 156.884 52.5 156.256 52.5H154.257V55.1073Z" fill="#646464"/>
<path d="M156.609 41.8342C155.707 41.8342 154.923 41.2021 154.687 40.333L148.767 17.5791C148.571 16.868 149.159 16.157 149.904 16.2755L156.648 17.0655C157.55 17.184 158.334 17.8161 158.569 18.7247L164.49 40.3725C164.686 41.1231 164.137 41.8737 163.353 41.8737H156.609V41.8342Z" fill="#DFDFDF"/>
<path d="M163.353 42.2291H156.609C155.511 42.2291 154.57 41.4786 154.296 40.4515L148.375 17.6975C148.257 17.2235 148.375 16.7495 148.689 16.3939C149.002 16.0384 149.473 15.8409 149.943 15.9199L156.688 16.7099C157.785 16.8285 158.648 17.6185 158.962 18.6851L164.883 40.333C165 40.807 164.922 41.3206 164.608 41.7156C164.295 42.0316 163.863 42.2291 163.353 42.2291ZM149.747 16.6309C149.551 16.6309 149.394 16.7099 149.237 16.868C149.081 17.026 149.041 17.263 149.081 17.4605L155.002 40.2145C155.198 40.9255 155.825 41.3996 156.531 41.3996H163.275C163.51 41.3996 163.746 41.2811 163.902 41.0835C164.059 40.886 164.098 40.649 164.02 40.412L158.099 18.7641C157.903 18.0136 157.237 17.4605 156.492 17.3815L149.747 16.5914C149.826 16.6704 149.786 16.6309 149.747 16.6309Z" fill="#646464"/>
<path d="M143.669 41.8341C142.767 41.8341 141.983 41.202 141.748 40.3329L135.827 16.3939C135.631 15.6433 136.219 14.9718 137.003 15.0508L143.669 15.6828C144.571 15.7618 145.355 16.4334 145.591 17.342L151.512 40.4119C151.708 41.1625 151.119 41.9131 150.374 41.9131H143.669V41.8341Z" fill="#DFDFDF"/>
<path d="M150.375 42.2292H143.709C142.611 42.2292 141.67 41.4786 141.434 40.412L135.513 16.473C135.396 15.9989 135.513 15.5249 135.827 15.1299C136.141 14.7743 136.611 14.5768 137.082 14.6163L143.748 15.2484C144.846 15.3669 145.748 16.1174 146.022 17.184L151.943 40.254C152.061 40.7281 151.982 41.2416 151.668 41.6366C151.316 42.0317 150.845 42.2292 150.375 42.2292ZM136.886 15.4064C136.69 15.4064 136.494 15.4854 136.376 15.6434C136.219 15.8014 136.18 16.0384 136.219 16.2755L142.14 40.2145C142.297 40.9256 142.964 41.3996 143.669 41.3996H150.335C150.571 41.3996 150.806 41.2811 150.963 41.0836C151.12 40.8861 151.159 40.649 151.12 40.3725L145.199 17.3815C145.003 16.631 144.375 16.1174 143.63 16.0384L136.964 15.4064C136.964 15.4064 136.925 15.4064 136.886 15.4064Z" fill="#646464"/>
<path d="M130.769 41.8342C129.867 41.8342 129.083 41.2022 128.887 40.3331L122.966 15.1694C122.809 14.4189 123.397 13.7473 124.142 13.7868L130.808 14.4189C131.71 14.4979 132.494 15.1694 132.69 16.078L138.611 40.3331C138.807 41.0837 138.219 41.8342 137.435 41.8342H130.769Z" fill="#DFDFDF"/>
<path d="M137.435 42.2292H130.769C129.671 42.2292 128.73 41.4786 128.495 40.412L122.574 15.2484C122.456 14.7743 122.574 14.3003 122.888 13.9052C123.201 13.5497 123.672 13.3522 124.142 13.3917L130.808 14.0238C131.906 14.1423 132.808 14.8928 133.043 15.9594L138.964 40.2145C139.082 40.6885 138.964 41.2021 138.69 41.5971C138.415 42.0317 137.945 42.2292 137.435 42.2292ZM124.025 14.2213C123.829 14.2213 123.633 14.3003 123.476 14.4583C123.319 14.6163 123.28 14.8533 123.319 15.0903L129.24 40.254C129.397 40.9651 130.024 41.4391 130.769 41.4391H137.435C137.67 41.4391 137.906 41.3206 138.062 41.1231C138.219 40.9256 138.258 40.649 138.219 40.412L132.298 16.1964C132.102 15.4459 131.475 14.9323 130.73 14.8533L124.064 14.2213C124.064 14.2213 124.064 14.2213 124.025 14.2213Z" fill="#646464"/>
<path d="M117.87 41.834C116.968 41.834 116.183 41.202 115.987 40.3329L110.067 13.9841C109.91 13.2336 110.498 12.562 111.243 12.6015L117.909 13.2336C118.811 13.3126 119.595 13.9841 119.791 14.8927L125.712 40.3329C125.908 41.123 125.32 41.834 124.535 41.834H117.87Z" fill="#DFDFDF"/>
<path d="M124.535 42.229H117.869C116.771 42.229 115.869 41.4784 115.595 40.4118L109.674 14.0631C109.556 13.589 109.674 13.0755 110.027 12.7199C110.341 12.3644 110.811 12.1669 111.282 12.2064L117.948 12.8385C119.045 12.957 119.947 13.7075 120.183 14.7741L126.103 40.2143C126.221 40.6883 126.103 41.2019 125.79 41.5969C125.476 42.0315 125.045 42.229 124.535 42.229ZM111.125 12.9965C110.929 12.9965 110.733 13.0755 110.576 13.2335C110.419 13.3915 110.38 13.6285 110.419 13.8655L116.34 40.2143C116.497 40.9254 117.124 41.3994 117.83 41.3994H124.496C124.731 41.3994 124.966 41.2809 125.162 41.0834C125.319 40.8859 125.358 40.6093 125.319 40.3723L119.398 14.9321C119.242 14.1816 118.614 13.668 117.869 13.589L111.203 12.957C111.203 12.9965 111.164 12.9965 111.125 12.9965Z" fill="#646464"/>
<path d="M104.929 41.834C104.027 41.834 103.243 41.202 103.047 40.3329L97.126 12.799C96.9692 12.0485 97.5574 11.3374 98.3416 11.4164L105.007 12.0485C105.909 12.1275 106.694 12.799 106.89 13.7076L112.81 40.3329C112.967 41.123 112.379 41.834 111.595 41.834H104.929Z" fill="#DFDFDF"/>
<path d="M111.595 42.229H104.929C103.871 42.229 102.89 41.4785 102.694 40.4119L96.7734 12.878C96.6558 12.404 96.8126 11.8904 97.1263 11.5349C97.44 11.1794 97.9106 10.9818 98.4203 11.0213L105.086 11.6534C106.184 11.7719 107.047 12.562 107.282 13.6286L113.203 40.2538C113.321 40.7279 113.203 41.2414 112.889 41.6365C112.576 42.0315 112.105 42.229 111.595 42.229ZM98.2635 11.8114C98.0674 11.8114 97.8713 11.8904 97.7145 12.0484C97.5577 12.2459 97.4792 12.4435 97.5577 12.6805L103.479 40.2143C103.635 40.9254 104.263 41.3994 104.969 41.3994H111.634C111.909 41.3994 112.144 41.2809 112.301 41.0834C112.458 40.8859 112.536 40.6094 112.458 40.3724L106.537 13.7471C106.38 12.9965 105.753 12.483 105.008 12.404L98.3419 11.7719C98.3027 11.8114 98.3027 11.8114 98.2635 11.8114Z" fill="#646464"/>
<path d="M92.0291 41.8341C91.1273 41.8341 90.343 41.202 90.1862 40.3329L84.3045 11.614C84.1477 10.8634 84.775 10.1524 85.5201 10.2314L92.186 10.8634C93.0878 10.9424 93.8328 11.614 94.0289 12.5226L99.9498 40.3724C100.107 41.1625 99.5184 41.8736 98.7342 41.8736H92.0291V41.8341Z" fill="#DFDFDF"/>
<path d="M98.6947 42.2291H92.0288C90.9701 42.2291 90.029 41.439 89.7938 40.4119L83.9121 11.6929C83.7945 11.2189 83.9513 10.7054 84.265 10.3498C84.5787 9.9943 85.0492 9.79678 85.559 9.83628L92.2249 10.4683C93.3228 10.5868 94.1854 11.3769 94.4207 12.4435L100.342 40.2934C100.459 40.7674 100.342 41.281 100.028 41.676C99.6358 42.0315 99.2044 42.2291 98.6947 42.2291ZM85.3629 10.5868C85.1669 10.5868 84.9708 10.6659 84.814 10.8239C84.6571 11.0214 84.5787 11.2584 84.6571 11.4954L90.5388 40.2144C90.6956 40.9254 91.2838 41.3995 91.9896 41.3995H98.6555C98.93 41.3995 99.1652 41.281 99.3221 41.0835C99.4789 40.8859 99.5573 40.6094 99.4789 40.3724L93.558 12.5225C93.4012 11.8115 92.7738 11.2584 92.068 11.1794L85.4021 10.5473C85.4413 10.5868 85.4021 10.5868 85.3629 10.5868Z" fill="#646464"/>
<path d="M79.0887 41.8341C78.1868 41.8341 77.4418 41.202 77.2458 40.3329L71.3641 10.3894C71.2072 9.63881 71.8346 8.92775 72.5796 9.00676L79.2455 9.63881C80.1474 9.71782 80.8924 10.3894 81.0884 11.298L86.9701 40.3329C87.127 41.123 86.5388 41.8341 85.7546 41.8341H79.0887Z" fill="#DFDFDF"/>
<path d="M85.7544 42.229H79.0885C78.0298 42.229 77.0887 41.4389 76.8534 40.3723L70.9718 10.4288C70.8933 9.95474 71.011 9.4412 71.3247 9.08567C71.6384 8.73014 72.1089 8.53262 72.6186 8.57212L79.2845 9.20418C80.3432 9.32269 81.2451 10.1128 81.4804 11.1793L87.362 40.2143C87.4797 40.6884 87.3228 41.2019 87.0091 41.597C86.7346 42.0315 86.2641 42.229 85.7544 42.229ZM72.501 9.40169C72.3049 9.40169 72.0697 9.4807 71.952 9.63871C71.7952 9.83623 71.7168 10.0733 71.756 10.3103L77.6377 40.2538C77.7553 40.9649 78.3827 41.4389 79.0885 41.4389H85.7544C86.0288 41.4389 86.2641 41.3204 86.421 41.1229C86.5778 40.9254 86.6562 40.6489 86.617 40.4119L80.7353 11.3769C80.5785 10.6658 79.9903 10.1128 79.2453 10.0337L72.5794 9.40169C72.5402 9.40169 72.501 9.40169 72.501 9.40169Z" fill="#646464"/>
<path d="M154.453 46.8904C144.101 46.8904 73.5605 46.8904 65.8359 46.8904V59.571C73.9134 59.571 97.2441 59.571 98.7733 59.571V59.5315C98.7733 53.0529 103.988 47.7595 110.458 47.7595C116.418 47.7595 121.947 52.3023 122.143 59.571H125.907V59.5315C125.907 53.0924 131.122 47.7595 137.592 47.7595C143.552 47.7595 149.081 52.3023 149.277 59.6105H154.492C155.355 59.6105 156.022 58.8994 156.022 58.0698V48.4705C156.022 47.6014 155.316 46.8904 154.453 46.8904Z" fill="#DFDFDF"/>
<path d="M154.492 60.0055H148.885V59.6105C148.728 54.08 144.728 48.1545 137.592 48.1545C131.357 48.1545 126.299 53.2504 126.299 59.5315V59.9265L125.907 59.966H121.751V59.571C121.594 54.0405 117.594 48.1545 110.458 48.1545C104.223 48.1545 99.1649 53.2504 99.1649 59.5315V59.966H65.4434V46.4954H154.453C155.511 46.4954 156.374 47.3644 156.374 48.431V58.0699C156.413 59.1364 155.551 60.0055 154.492 60.0055ZM149.63 59.2155H154.492C155.119 59.2155 155.629 58.7019 155.629 58.0699V48.4705C155.629 47.8385 155.119 47.3249 154.492 47.3249H66.2668V59.2155H98.4199C98.616 52.6579 103.949 47.4039 110.497 47.4039C116.104 47.4039 122.143 51.5518 122.535 59.2155H125.554C125.75 52.6579 131.083 47.4039 137.631 47.4039C144.14 47.3644 149.238 52.4209 149.63 59.2155Z" fill="#646464"/>
<path d="M64.5024 17.7371H28.8987C28.1929 17.7371 27.6047 18.3296 27.6047 19.0407C27.6047 19.8307 28.036 20.5813 28.7418 20.9368L29.9182 21.5294L28.7026 33.1829L8.97943 35.9086C8.11678 36.0271 7.4502 36.8172 7.4502 37.6863V59.8872H14.9787C15.0179 58.7416 15.0964 57.2009 15.3708 56.0553C16.508 51.3939 21.5662 47.7596 26.8597 47.7596C33.5256 47.7596 38.5838 53.2506 38.5446 59.5711C41.0149 59.5711 53.288 59.5711 64.4632 59.5711V17.7371H64.5024Z" fill="#DFDFDF"/>
<path d="M15.3704 60.2822H7.05762V37.6863C7.05762 36.6197 7.84184 35.6716 8.90054 35.5136L28.3101 32.8274L29.4864 21.7664L28.5453 21.2924C27.7219 20.8578 27.1729 19.9493 27.1729 19.0407C27.1729 18.0926 27.9572 17.342 28.859 17.342H64.8156V60.0057H38.1521V59.6107C38.1913 56.6084 36.9757 53.6852 34.8583 51.552C32.7409 49.3793 29.9177 48.1942 26.8592 48.1942C21.7226 48.1942 16.8604 51.71 15.7625 56.1739C15.488 57.28 15.4096 58.8206 15.3704 59.9267V60.2822ZM7.84184 59.4922H14.5862C14.6254 58.3861 14.743 57.0034 14.9783 55.9764C16.1546 51.1569 21.3697 47.4041 26.8592 47.4041C30.1138 47.4041 33.133 48.6682 35.4073 50.9594C37.5639 53.1716 38.8578 56.1344 38.9363 59.2156H64.1098V18.1321H28.8982C28.3885 18.1321 27.9964 18.5271 27.9964 19.0407C27.9964 19.6727 28.3493 20.3048 28.9374 20.6208L30.349 21.3319L29.0551 33.5384L9.01817 36.3037C8.35158 36.4222 7.84184 37.0147 7.84184 37.6863V59.4922Z" fill="#646464"/>
<path d="M51.876 24.8475C51.876 23.9784 51.1702 23.3069 50.3468 23.3069H38.2698C37.4071 23.3069 36.6621 23.9784 36.5837 24.8475L35.9955 31.6421C35.9171 32.4717 36.5837 33.1827 37.4071 33.1827H50.3468C51.2095 33.1827 51.876 32.4717 51.876 31.6421V24.8475Z" fill="#DFDFDF"/>
<path d="M50.3469 33.5778H37.4072C36.8975 33.5778 36.427 33.3803 36.0741 32.9852C35.7212 32.6297 35.5643 32.1162 35.6035 31.6026L36.1917 24.808C36.2701 23.7414 37.172 22.9119 38.2699 22.9119H50.3469C51.4056 22.9119 52.2683 23.7809 52.2683 24.8475V31.6421C52.2683 32.7087 51.4056 33.5778 50.3469 33.5778ZM38.2699 23.7019C37.6033 23.7019 37.0544 24.2155 36.9759 24.887L36.3878 31.6816C36.3485 31.9581 36.4662 32.2347 36.6622 32.4717C36.8583 32.6692 37.1328 32.7877 37.4072 32.7877H50.3469C50.9743 32.7877 51.484 32.2742 51.484 31.6421V24.8475C51.484 24.2155 50.9743 23.7019 50.3469 23.7019H38.2699Z" fill="#646464"/>
<path d="M31.6042 31.6421L32.1924 24.8475C32.2708 23.9784 32.1924 23.3069 30.8592 23.3069H30.1926C29.33 23.3069 28.585 23.9784 28.5066 24.8475L27.9184 31.6421C27.84 32.4717 28.5066 33.1827 29.33 33.1827H30.2711C31.2513 33.1827 31.5258 32.4717 31.6042 31.6421Z" fill="#DFDFDF"/>
<path d="M30.3102 33.5778H29.3692C28.8594 33.5778 28.3889 33.3803 28.036 32.9852C27.6831 32.6297 27.5262 32.1162 27.5655 31.6026L28.1536 24.808C28.232 23.7414 29.1339 22.9119 30.1926 22.9119H30.8592C31.5258 22.9119 31.9571 23.0699 32.2316 23.3859C32.6237 23.7809 32.5845 24.3735 32.5453 24.887L31.9571 31.6816C31.8787 33.2618 31.016 33.5778 30.3102 33.5778ZM30.1926 23.7019C29.526 23.7019 28.9771 24.2155 28.8986 24.887L28.3105 31.6816C28.2713 31.9581 28.3889 32.2347 28.5849 32.4717C28.781 32.6692 29.0555 32.7877 29.33 32.7877H30.271C30.7023 32.7877 31.0945 32.6297 31.1729 31.6026L31.761 24.808C31.8003 24.4525 31.8003 24.0575 31.6434 23.8994C31.4866 23.7414 31.1337 23.7019 30.82 23.7019H30.1926Z" fill="#646464"/>
<path d="M62.4249 24.0969C62.4249 23.2279 61.7191 22.5563 60.8957 22.5168L57.9941 22.4773C57.1314 22.4773 56.4648 23.1489 56.4648 24.0179V31.6026C56.4648 32.4717 57.1706 33.1432 57.9941 33.1432H60.8957C61.7583 33.1432 62.4249 32.4321 62.4249 31.6026V24.0969Z" fill="#DFDFDF"/>
<path d="M60.8952 33.5778H57.9936C56.9349 33.5778 56.0723 32.7087 56.0723 31.6421V24.0575C56.0723 23.5439 56.2683 23.0699 56.6212 22.6749C56.9741 22.3193 57.4839 22.1218 57.9936 22.1218L60.8952 22.1613C61.9539 22.1613 62.8166 23.0699 62.8166 24.1365V31.6816C62.8166 32.7087 61.9539 33.5778 60.8952 33.5778ZM57.9544 22.9119C57.6407 22.9119 57.3662 23.0304 57.1702 23.2279C56.9349 23.4254 56.8173 23.7415 56.8173 24.018V31.6026C56.8173 32.2347 57.327 32.7482 57.9544 32.7482H60.856C61.4834 32.7482 61.9931 32.2347 61.9931 31.6026V24.097C61.9931 23.4649 61.4834 22.9514 60.856 22.9119H57.9544C57.9936 22.9119 57.9936 22.9119 57.9544 22.9119Z" fill="#646464"/>
<path d="M51.9948 36.8962C51.9948 37.6073 51.4458 38.1603 50.74 38.1603H48.1913C47.4855 38.1603 46.9365 37.6073 46.9365 36.8962C46.9365 36.1851 47.4855 35.6321 48.1913 35.6321H50.74C51.4458 35.6321 51.9948 36.1851 51.9948 36.8962Z" fill="#DFDFDF"/>
<path d="M50.7395 38.5553H48.1908C47.289 38.5553 46.5439 37.8048 46.5439 36.8962C46.5439 35.9876 47.289 35.2371 48.1908 35.2371H50.7395C51.6414 35.2371 52.3864 35.9876 52.3864 36.8962C52.3864 37.8048 51.6414 38.5553 50.7395 38.5553ZM48.1908 36.0271C47.7203 36.0271 47.3282 36.4222 47.3282 36.8962C47.3282 37.3702 47.7203 37.7653 48.1908 37.7653H50.7395C51.2101 37.7653 51.6022 37.3702 51.6022 36.8962C51.6022 36.4222 51.2101 36.0271 50.7395 36.0271H48.1908Z" fill="#646464"/>
<path d="M52.6214 56.7663H44.0342C42.8579 56.7663 41.8776 55.9367 41.5639 54.7516C40.7012 51.0383 38.5054 48.4311 35.1333 46.93C33.8785 46.3769 33.2119 45.5078 33.2119 44.4807V33.1433L34.2314 23.0304C34.349 21.8058 35.3685 20.8972 36.5841 20.8972H52.5822C53.7978 20.8972 54.778 21.8848 54.778 23.1094V54.5146C54.778 55.7392 53.7978 56.7663 52.6214 56.7663ZM33.9961 33.2223V44.4807C33.9961 45.3893 34.7804 45.9029 35.447 46.2189C39.0544 47.799 41.3678 50.6038 42.3089 54.5936C42.505 55.4232 43.2108 55.9762 43.995 55.9762H52.5822C53.3664 55.9762 53.9938 55.3442 53.9938 54.5541V23.1094C53.9938 22.3193 53.3664 21.6873 52.5822 21.6873H36.5841C35.7606 21.6873 35.0941 22.3193 35.0156 23.1094L33.9961 33.2223Z" fill="#646464"/>
<path d="M10.1562 59.8872H1.92181C1.05917 59.8872 0.392578 59.1761 0.392578 58.3466V48.3917C0.392578 47.5226 1.09838 46.8511 1.92181 46.8511H10.1562V59.8872Z" fill="#DFDFDF"/>
<path d="M10.5478 60.2822H1.92135C0.862645 60.2822 0 59.4132 0 58.3466V48.3917C0 47.3251 0.862645 46.4561 1.92135 46.4561H10.5478V60.2822ZM1.92135 47.2066C1.29397 47.2066 0.784223 47.7202 0.784223 48.3522V58.3071C0.784223 58.9391 1.29397 59.4527 1.92135 59.4527H9.76357V47.1671H1.92135V47.2066Z" fill="#646464"/>
<path d="M5.17593 46.8115H7.37175V37.6863C7.37175 37.3702 6.94043 37.2517 6.78359 37.5677L5.72489 40.175C5.33277 41.1231 5.13672 42.1501 5.13672 43.1772V46.8115H5.17593Z" fill="#DFDFDF"/>
<path d="M7.72419 47.2066H4.74414V43.1773C4.74414 42.1107 4.9402 41.0441 5.33231 40.0565L6.39101 37.4493C6.50864 37.1333 6.82233 36.9753 7.17523 37.0148C7.48892 37.0938 7.72419 37.3703 7.72419 37.6863V47.2066ZM5.56757 46.4166H6.97918V38.1999L6.11653 40.3725C5.76363 41.2811 5.56757 42.2292 5.56757 43.2168V46.4166Z" fill="#646464"/>
<path d="M78.697 61.8228C78.697 62.6919 77.9912 63.3634 77.1678 63.3634H59.1699C58.3072 63.3634 57.6406 62.6524 57.6406 61.8228V50.9989C57.6406 50.1298 58.3464 49.4583 59.1699 49.4583H77.1678C78.0304 49.4583 78.697 50.1693 78.697 50.9989V61.8228Z" fill="#DFDFDF"/>
<path d="M77.1673 63.7585H59.1694C58.1107 63.7585 57.248 62.8894 57.248 61.8228V50.9989C57.248 49.9323 58.1107 49.0632 59.1694 49.0632H77.1673C78.226 49.0632 79.0886 49.9323 79.0886 50.9989V61.8228C79.0886 62.8894 78.226 63.7585 77.1673 63.7585ZM59.1694 49.8533C58.542 49.8533 58.0323 50.3668 58.0323 50.9989V61.8228C58.0323 62.4549 58.542 62.9684 59.1694 62.9684H77.1673C77.7947 62.9684 78.3044 62.4549 78.3044 61.8228V50.9989C78.3044 50.3668 77.7947 49.8533 77.1673 49.8533H59.1694Z" fill="#646464"/>
<path d="M74.4622 63.5608C74.4622 64.0744 74.0309 64.5089 73.5211 64.5089C73.0114 64.5089 72.5801 64.0744 72.5801 63.5608V49.4976C72.5801 48.9841 73.0114 48.5496 73.5211 48.5496C74.0309 48.5496 74.4622 48.9841 74.4622 49.4976V63.5608Z" fill="#DFDFDF"/>
<path d="M73.5207 64.904C72.7757 64.904 72.1875 64.3114 72.1875 63.5609V49.4977C72.1875 48.7471 72.7757 48.1545 73.5207 48.1545C74.2657 48.1545 74.8539 48.7471 74.8539 49.4977V63.5609C74.8539 64.3114 74.2657 64.904 73.5207 64.904ZM73.5207 48.9051C73.207 48.9051 72.9717 49.1421 72.9717 49.4582V63.5214C72.9717 63.8374 73.207 64.0744 73.5207 64.0744C73.8344 64.0744 74.0696 63.8374 74.0696 63.5214V49.4582C74.0696 49.1816 73.8344 48.9051 73.5207 48.9051Z" fill="#646464"/>
<path d="M69.1292 63.5608C69.1292 64.0744 68.6979 64.5089 68.1881 64.5089C67.6784 64.5089 67.2471 64.0744 67.2471 63.5608V49.4976C67.2471 48.9841 67.6784 48.5496 68.1881 48.5496C68.6979 48.5496 69.1292 48.9841 69.1292 49.4976V63.5608Z" fill="#DFDFDF"/>
<path d="M68.1877 64.904C67.4427 64.904 66.8545 64.3114 66.8545 63.5609V49.4977C66.8545 48.7471 67.4427 48.1545 68.1877 48.1545C68.9327 48.1545 69.5209 48.7471 69.5209 49.4977V63.5609C69.5209 64.3114 68.8935 64.904 68.1877 64.904ZM68.1877 48.9051C67.874 48.9051 67.6387 49.1421 67.6387 49.4582V63.5214C67.6387 63.8374 67.874 64.0744 68.1877 64.0744C68.5014 64.0744 68.7366 63.8374 68.7366 63.5214V49.4582C68.7366 49.1816 68.4621 48.9051 68.1877 48.9051Z" fill="#646464"/>
<path d="M63.7571 63.5608C63.7571 64.0744 63.3258 64.5089 62.8161 64.5089C62.3063 64.5089 61.875 64.0744 61.875 63.5608V49.4976C61.875 48.9841 62.3063 48.5496 62.8161 48.5496C63.3258 48.5496 63.7571 48.9841 63.7571 49.4976V63.5608Z" fill="#DFDFDF"/>
<path d="M62.8156 64.904C62.0706 64.904 61.4824 64.3114 61.4824 63.5609V49.4977C61.4824 48.7471 62.0706 48.1545 62.8156 48.1545C63.5606 48.1545 64.1488 48.7471 64.1488 49.4977V63.5609C64.1488 64.3114 63.5606 64.904 62.8156 64.904ZM62.8156 48.9051C62.5019 48.9051 62.2666 49.1421 62.2666 49.4582V63.5214C62.2666 63.8374 62.5019 64.0744 62.8156 64.0744C63.1293 64.0744 63.3646 63.8374 63.3646 63.5214V49.4582C63.3646 49.1816 63.1293 48.9051 62.8156 48.9051Z" fill="#646464"/>
<path d="M2.39258 55.3836C3.45128 55.3836 4.27471 54.5146 4.27471 53.4875C4.27471 52.4209 3.41207 51.5913 2.39258 51.5913V55.3836Z" fill="#DFDFDF"/>
<path d="M2.39211 55.7786H2V51.1567H2.39211C3.64687 51.1567 4.66636 52.1838 4.66636 53.4479C4.70557 54.7515 3.64687 55.7786 2.39211 55.7786ZM2.78422 52.0258V54.9491C3.4116 54.7911 3.88213 54.1985 3.88213 53.4874C3.92135 52.7764 3.45081 52.1838 2.78422 52.0258Z" fill="#646464"/>
<path d="M36.7408 59.5316C36.7408 65.1016 32.2708 69.605 26.742 69.605C21.2132 69.605 16.7432 65.1016 16.7432 59.5316C16.7432 53.9616 21.2132 49.4583 26.742 49.4583C32.2708 49.4583 36.7408 53.9616 36.7408 59.5316Z" fill="#DFDFDF"/>
<path d="M26.7415 70C21.0167 70 16.3506 65.2991 16.3506 59.5316C16.3506 53.7641 21.0167 49.0632 26.7415 49.0632C32.4664 49.0632 37.1325 53.7641 37.1325 59.5316C37.1325 65.2991 32.4664 70 26.7415 70ZM26.7415 49.8533C21.448 49.8533 17.1348 54.1987 17.1348 59.5316C17.1348 64.8646 21.448 69.21 26.7415 69.21C32.035 69.21 36.3483 64.8646 36.3483 59.5316C36.3483 54.1987 32.035 49.8533 26.7415 49.8533Z" fill="#646464"/>
<path d="M33.5251 59.5316C33.5251 63.2844 30.5058 66.3657 26.7415 66.3657C22.9773 66.3657 19.958 63.3239 19.958 59.5316C19.958 55.7788 22.9773 52.6975 26.7415 52.6975C30.5058 52.6975 33.5251 55.7788 33.5251 59.5316Z" fill="#DFDFDF"/>
<path d="M26.7411 66.7607C22.7807 66.7607 19.5654 63.5215 19.5654 59.5316C19.5654 55.5418 22.7807 52.3025 26.7411 52.3025C30.7014 52.3025 33.9167 55.5418 33.9167 59.5316C33.9167 63.5215 30.7014 66.7607 26.7411 66.7607ZM26.7411 53.0926C23.2121 53.0926 20.3497 55.9763 20.3497 59.5316C20.3497 63.0869 23.2121 65.9707 26.7411 65.9707C30.2701 65.9707 33.1325 63.0869 33.1325 59.5316C33.1325 55.9763 30.2701 53.0926 26.7411 53.0926Z" fill="#646464"/>
<path d="M32.1927 59.5315C32.1927 62.5733 29.7616 65.0225 26.7423 65.0225C23.7231 65.0225 21.292 62.5733 21.292 59.5315C21.292 56.4897 23.7231 54.0405 26.7423 54.0405C29.7616 54.0405 32.1927 56.4897 32.1927 59.5315Z" fill="#DFDFDF"/>
<path d="M26.7419 65.4175C23.5266 65.4175 20.8994 62.7708 20.8994 59.5315C20.8994 56.2922 23.5266 53.6455 26.7419 53.6455C29.9572 53.6455 32.5843 56.2922 32.5843 59.5315C32.5843 62.8103 29.9572 65.4175 26.7419 65.4175ZM26.7419 54.4356C23.9579 54.4356 21.6836 56.7268 21.6836 59.5315C21.6836 62.3363 23.9579 64.6275 26.7419 64.6275C29.5259 64.6275 31.8001 62.3363 31.8001 59.5315C31.8001 56.7268 29.5259 54.4356 26.7419 54.4356Z" fill="#646464"/>
<path d="M29.9175 59.5316C29.9175 61.2697 28.5059 62.6918 26.7806 62.6918C25.0553 62.6918 23.6045 61.2697 23.6045 59.5316C23.6045 57.7934 25.0161 56.3318 26.7806 56.3318C28.5059 56.3713 29.9175 57.7934 29.9175 59.5316Z" fill="#DFDFDF"/>
<path d="M26.7411 63.1264C24.7805 63.1264 23.1729 61.5068 23.1729 59.5711C23.1729 57.596 24.7805 55.9763 26.7411 55.9763C28.7016 55.9763 30.2701 57.596 30.2701 59.5711C30.3093 61.5068 28.7016 63.1264 26.7411 63.1264ZM26.7411 56.7664C25.2118 56.7664 23.9571 58.0305 23.9571 59.5711C23.9571 61.1118 25.2118 62.3364 26.7411 62.3364C28.2703 62.3364 29.4858 61.0723 29.4858 59.5711C29.5251 57.991 28.2703 56.7664 26.7411 56.7664Z" fill="#646464"/>
<path d="M120.457 59.5316C120.457 65.1016 115.987 69.605 110.458 69.605C104.929 69.605 100.459 65.1016 100.459 59.5316C100.459 53.9616 104.929 49.4583 110.458 49.4583C115.987 49.4583 120.457 53.9616 120.457 59.5316Z" fill="#DFDFDF"/>
<path d="M110.457 70C104.733 70 100.066 65.2991 100.066 59.5316C100.066 53.7641 104.733 49.0632 110.457 49.0632C116.182 49.0632 120.848 53.7641 120.848 59.5316C120.848 65.2991 116.182 70 110.457 70ZM110.457 49.8533C105.164 49.8533 100.851 54.1987 100.851 59.5316C100.851 64.8646 105.164 69.21 110.457 69.21C115.751 69.21 120.064 64.8646 120.064 59.5316C120.064 54.1987 115.751 49.8533 110.457 49.8533Z" fill="#646464"/>
<path d="M117.241 59.5316C117.241 63.2844 114.222 66.3657 110.457 66.3657C106.732 66.3657 103.674 63.3239 103.674 59.5316C103.674 55.7788 106.693 52.6975 110.457 52.6975C114.222 52.6975 117.241 55.7788 117.241 59.5316Z" fill="#DFDFDF"/>
<path d="M110.457 66.7607C106.497 66.7607 103.281 63.5215 103.281 59.5316C103.281 55.5418 106.497 52.3025 110.457 52.3025C114.417 52.3025 117.633 55.5418 117.633 59.5316C117.633 63.5215 114.417 66.7607 110.457 66.7607ZM110.457 53.0926C106.928 53.0926 104.065 55.9763 104.065 59.5316C104.065 63.0869 106.928 65.9707 110.457 65.9707C113.986 65.9707 116.848 63.0869 116.848 59.5316C116.848 55.9763 113.986 53.0926 110.457 53.0926Z" fill="#646464"/>
<path d="M115.948 59.5315C115.948 62.5733 113.516 65.0225 110.497 65.0225C107.478 65.0225 105.047 62.5733 105.047 59.5315C105.047 56.4897 107.478 54.0405 110.497 54.0405C113.516 54.0405 115.948 56.4897 115.948 59.5315Z" fill="#DFDFDF"/>
<path d="M110.458 65.4175C107.242 65.4175 104.615 62.7708 104.615 59.5315C104.615 56.2922 107.242 53.6455 110.458 53.6455C113.673 53.6455 116.3 56.2922 116.3 59.5315C116.339 62.8103 113.712 65.4175 110.458 65.4175ZM110.458 54.4356C107.674 54.4356 105.399 56.7268 105.399 59.5315C105.399 62.3363 107.674 64.6275 110.458 64.6275C113.242 64.6275 115.516 62.3363 115.516 59.5315C115.555 56.7268 113.281 54.4356 110.458 54.4356Z" fill="#646464"/>
<path d="M113.633 59.5316C113.633 61.2697 112.222 62.6918 110.496 62.6918C108.771 62.6918 107.32 61.2697 107.32 59.5316C107.32 57.7934 108.732 56.3318 110.496 56.3318C112.222 56.3713 113.633 57.7934 113.633 59.5316Z" fill="#DFDFDF"/>
<path d="M110.457 63.1264C108.496 63.1264 106.889 61.5068 106.889 59.5711C106.889 57.596 108.496 55.9763 110.457 55.9763C112.417 55.9763 113.986 57.596 113.986 59.5711C114.025 61.5068 112.417 63.1264 110.457 63.1264ZM110.457 56.7664C108.928 56.7664 107.673 58.0305 107.673 59.5711C107.673 61.1118 108.928 62.3364 110.457 62.3364C111.986 62.3364 113.202 61.0723 113.202 59.5711C113.241 57.991 111.986 56.7664 110.457 56.7664Z" fill="#646464"/>
<path d="M147.591 59.5316C147.591 65.1016 143.121 69.605 137.593 69.605C132.064 69.605 127.594 65.1016 127.594 59.5316C127.594 53.9616 132.064 49.4583 137.593 49.4583C143.121 49.4583 147.591 53.9616 147.591 59.5316Z" fill="#DFDFDF"/>
<path d="M137.592 70C131.867 70 127.201 65.2991 127.201 59.5316C127.201 53.7641 131.867 49.0632 137.592 49.0632C143.317 49.0632 147.983 53.7641 147.983 59.5316C147.983 65.2991 143.317 70 137.592 70ZM137.592 49.8533C132.299 49.8533 127.985 54.1987 127.985 59.5316C127.985 64.8646 132.299 69.21 137.592 69.21C142.886 69.21 147.199 64.8646 147.199 59.5316C147.199 54.1987 142.886 49.8533 137.592 49.8533Z" fill="#646464"/>
<path d="M144.376 59.5316C144.376 63.2844 141.356 66.3657 137.592 66.3657C133.867 66.3657 130.809 63.3239 130.809 59.5316C130.809 55.7788 133.828 52.6975 137.592 52.6975C141.317 52.6975 144.376 55.7788 144.376 59.5316Z" fill="#DFDFDF"/>
<path d="M137.592 66.7607C133.631 66.7607 130.416 63.5215 130.416 59.5316C130.416 55.5418 133.631 52.3025 137.592 52.3025C141.552 52.3025 144.767 55.5418 144.767 59.5316C144.767 63.5215 141.552 66.7607 137.592 66.7607ZM137.592 53.0926C134.063 53.0926 131.2 55.9763 131.2 59.5316C131.2 63.0869 134.063 65.9707 137.592 65.9707C141.121 65.9707 143.983 63.0869 143.983 59.5316C143.983 55.9763 141.121 53.0926 137.592 53.0926Z" fill="#646464"/>
<path d="M143.043 59.5315C143.043 62.5733 140.612 65.0225 137.593 65.0225C134.574 65.0225 132.143 62.5733 132.143 59.5315C132.143 56.4897 134.574 54.0405 137.593 54.0405C140.612 54.0405 143.043 56.4897 143.043 59.5315Z" fill="#DFDFDF"/>
<path d="M137.592 65.4175C134.377 65.4175 131.75 62.7708 131.75 59.5315C131.75 56.2922 134.377 53.6455 137.592 53.6455C140.808 53.6455 143.435 56.2922 143.435 59.5315C143.435 62.8103 140.808 65.4175 137.592 65.4175ZM137.592 54.4356C134.808 54.4356 132.534 56.7268 132.534 59.5315C132.534 62.3363 134.808 64.6275 137.592 64.6275C140.376 64.6275 142.651 62.3363 142.651 59.5315C142.651 56.7268 140.376 54.4356 137.592 54.4356Z" fill="#646464"/>
<path d="M140.729 59.5316C140.729 61.2697 139.317 62.6918 137.592 62.6918C135.867 62.6918 134.416 61.2697 134.416 59.5316C134.416 57.7934 135.828 56.3318 137.592 56.3318C139.317 56.3713 140.729 57.7934 140.729 59.5316Z" fill="#DFDFDF"/>
<path d="M137.592 63.1264C135.631 63.1264 134.023 61.5068 134.023 59.5711C134.023 57.596 135.631 55.9763 137.592 55.9763C139.552 55.9763 141.121 57.596 141.121 59.5711C141.121 61.5068 139.552 63.1264 137.592 63.1264ZM137.592 56.7664C136.062 56.7664 134.808 58.0305 134.808 59.5711C134.808 61.1118 136.062 62.3364 137.592 62.3364C139.121 62.3364 140.336 61.0723 140.336 59.5711C140.336 57.991 139.121 56.7664 137.592 56.7664Z" fill="#646464"/>
</g>
<defs>
<clipPath id="clip0_761_3051">
<rect width="169" height="70" fill="white"/>
</clipPath>
</defs>
</svg>
