<svg width="166" height="70" viewBox="0 0 166 70" fill="none" xmlns="http://www.w3.org/2000/svg">
<g clip-path="url(#clip0_761_3683)">
<path d="M160.107 58.43H163.829C164.804 58.43 165.557 57.626 165.557 56.6879V54.0522C165.557 53.0695 164.759 52.3101 163.829 52.3101H160.152V58.43H160.107Z" fill="#DFDFDF"/>
<path d="M159.665 58.8768H163.829C165.025 58.8768 166 57.894 166 56.6879V54.0523C166 52.8462 165.025 51.8634 163.829 51.8634H159.709V58.8768H159.665ZM163.829 52.7568C164.538 52.7568 165.114 53.3376 165.114 54.0523V56.6879C165.114 57.4027 164.538 57.9834 163.829 57.9834H160.595V52.7568H163.829Z" fill="#646464"/>
<path d="M127.944 54.365H128.033C127.679 55.5711 127.501 56.8219 127.501 58.1174C125.021 58.1174 128.609 58.1174 123.824 58.1174V12.5079C123.824 11.5252 124.622 10.7657 125.552 10.7657H152.222C153.241 10.7657 154.171 11.4358 154.526 12.4186L160.064 28.2322L161.393 31.5826V58.4301H154.083C154.038 57.1346 153.95 55.3478 153.64 54.097C152.355 48.8257 146.64 44.716 140.659 44.716C134.501 44.716 129.539 48.9151 127.989 54.3203H127.944V54.365Z" fill="#DFDFDF"/>
<path d="M153.684 58.8769H161.836V31.4933L160.463 28.0983L154.925 12.2846C154.526 11.1232 153.419 10.3191 152.178 10.3191H125.508C124.312 10.3191 123.337 11.3019 123.337 12.508V58.5642H123.78L125.154 58.1174L124.223 57.8047V12.508C124.223 11.7932 124.799 11.2125 125.508 11.2125H152.222C153.064 11.2125 153.817 11.7486 154.127 12.5527L159.665 28.411L160.95 31.672V57.9834H154.526C154.482 56.8666 154.393 55.2138 154.083 54.0077C152.754 48.5578 146.862 44.314 140.66 44.314C134.546 44.314 129.274 48.2897 127.546 54.2757C127.236 55.3925 127.059 56.5539 127.014 57.7154H126.483V58.6088H127.901V58.1621C127.901 56.956 128.078 55.7499 128.388 54.5437C129.983 49.0045 134.9 45.2521 140.615 45.2521C146.419 45.2521 151.912 49.2278 153.153 54.2757C153.507 55.6605 153.596 57.7154 153.596 58.5195L153.684 58.8769Z" fill="#646464"/>
<path d="M130.736 18.6279C130.736 17.6452 131.533 16.8857 132.464 16.8857H149.874C150.893 16.8857 151.868 17.5558 152.222 18.5386L155.634 28.0089C155.944 28.813 155.324 29.6617 154.482 29.6617H132.464C131.489 29.6617 130.736 28.8577 130.736 27.9196V18.6279Z" fill="#DFDFDF"/>
<path d="M132.464 30.0638H154.482C155.013 30.0638 155.545 29.7958 155.855 29.3491C156.165 28.9024 156.254 28.3217 156.077 27.8303L152.665 18.36C152.267 17.1985 151.159 16.4391 149.919 16.4391H132.508C131.312 16.4391 130.337 17.4219 130.337 18.628V27.875C130.293 29.0811 131.267 30.0638 132.464 30.0638ZM149.874 17.3325C150.716 17.3325 151.514 17.8686 151.779 18.6727L155.191 28.143C155.279 28.3663 155.235 28.6344 155.102 28.8577C154.969 29.0811 154.703 29.1704 154.482 29.1704H132.464C131.755 29.1704 131.179 28.5897 131.179 27.875V18.628C131.179 17.9132 131.755 17.3325 132.464 17.3325H149.874Z" fill="#646464"/>
<path d="M130.646 32.6994C130.646 33.5035 131.267 34.1289 132.064 34.1289H134.944C135.741 34.1289 136.361 33.5035 136.361 32.6994C136.361 31.8953 135.741 31.2699 134.944 31.2699H132.064C131.267 31.2253 130.646 31.8953 130.646 32.6994Z" fill="#DFDFDF"/>
<path d="M132.064 34.5756H134.944C135.963 34.5756 136.805 33.7269 136.805 32.6994C136.805 31.672 135.963 30.8232 134.944 30.8232H132.064C131.045 30.8232 130.204 31.672 130.204 32.6994C130.204 33.7269 131.045 34.5756 132.064 34.5756ZM134.944 31.672C135.476 31.672 135.919 32.1187 135.919 32.6548C135.919 33.1908 135.476 33.6375 134.944 33.6375H132.064C131.533 33.6375 131.09 33.1908 131.09 32.6548C131.09 32.1187 131.533 31.672 132.064 31.672H134.944Z" fill="#646464"/>
<path d="M156.83 53.3822H157.317C158.69 53.3822 159.798 52.2655 159.798 50.8806V31.4933L159.754 31.4039L154.615 16.5284C154.171 15.2329 152.975 14.3842 151.602 14.3842H130.115C128.742 14.3842 127.635 15.5009 127.635 16.8858V40.8743C127.635 42.2591 128.742 43.3759 130.115 43.3759H141.59C146.862 43.3759 152.045 46.6815 153.906 51.238C154.393 52.5782 155.545 53.3822 156.83 53.3822ZM158.912 31.672V50.8806C158.912 51.7741 158.203 52.4888 157.317 52.4888H156.83C155.944 52.4888 155.102 51.8634 154.703 50.97C152.754 46.1008 147.216 42.5718 141.59 42.5718H130.16C129.274 42.5718 128.565 41.857 128.565 40.9636V16.9304C128.565 16.037 129.274 15.3223 130.16 15.3223H151.646C152.621 15.3223 153.507 15.9477 153.817 16.8858L158.912 31.672Z" fill="#646464"/>
<path d="M163.829 52.3101H161.348V46.4581H162.101C163.076 46.4581 163.829 47.2175 163.829 48.2003V52.3101Z" fill="#DFDFDF"/>
<path d="M160.95 52.7568H164.272V48.2004C164.272 47.6196 164.051 47.0389 163.652 46.6369C163.254 46.2348 162.678 46.0115 162.102 46.0115H160.95V52.7568ZM163.386 51.8634H161.792V46.9049H162.102C162.456 46.9049 162.766 47.0389 163.032 47.2623C163.298 47.5303 163.431 47.843 163.431 48.2004V51.8634H163.386Z" fill="#646464"/>
<path d="M15.0623 40.3381H112.704V44.5819H15.0623V40.3381Z" fill="#DFDFDF"/>
<path d="M14.6196 45.0287H113.147V39.8915H14.6196V45.0287ZM112.261 44.1353H15.5056V40.7849H112.261V44.1353Z" fill="#646464"/>
<path d="M12.0508 49.6298H9.34835C8.3737 49.6298 7.62057 50.4338 7.62057 51.3719V51.7293C7.62057 52.7121 8.41801 53.4715 9.34835 53.4715H12.0508V49.6298Z" fill="#DFDFDF"/>
<path d="M9.30377 53.9183H12.4492V49.1831H9.30377C8.10761 49.1831 7.13297 50.1659 7.13297 51.372V51.7294C7.13297 52.9355 8.10761 53.9183 9.30377 53.9183ZM11.6075 53.0248H9.34807C8.63924 53.0248 8.06331 52.4441 8.06331 51.7294V51.372C8.06331 50.6573 8.63924 50.0765 9.34807 50.0765H11.6075V53.0248Z" fill="#646464"/>
<path d="M11.3848 43.7778C23.0806 43.7778 115.052 43.7778 123.779 43.7778V58.1173C114.653 58.1173 76.0216 58.1173 74.2938 58.1173V58.0727C74.2938 50.7466 68.4017 44.7606 61.0918 44.7606C54.3579 44.7606 48.1113 49.8978 47.8898 58.1173H43.6368V58.0727C43.6368 50.7912 37.7446 44.7606 30.4348 44.7606C23.7008 44.7606 17.4542 49.8978 17.2327 58.162H9.61275V45.5647C9.61275 44.5819 10.4102 43.7778 11.3848 43.7778Z" fill="#DFDFDF"/>
<path d="M9.17007 58.6088H17.6761V58.1621C17.8533 51.9081 22.3721 45.2074 30.4351 45.2074C37.4791 45.2074 43.1941 50.97 43.1941 58.0727V58.5194L43.6371 58.5641H48.3331V58.1174C48.5104 51.8634 53.0292 45.2074 61.0922 45.2074C68.1362 45.2074 73.8512 50.97 73.8512 58.0727V58.5641H124.223V43.3312H11.3852C10.189 43.3312 9.21439 44.3139 9.21439 45.5201V58.6088H9.17007ZM16.8343 57.7153H10.0561V45.5647C10.0561 44.85 10.632 44.2693 11.3409 44.2693H123.337V57.7153H74.7372C74.5157 50.2999 68.4906 44.3586 61.0922 44.3586C54.757 44.3586 47.9344 49.0491 47.4914 57.7153H44.0801C43.8586 50.2999 37.8335 44.3586 30.4351 44.3586C23.0366 44.3139 17.2774 50.0319 16.8343 57.7153Z" fill="#646464"/>
<path d="M122.362 28.4556C122.362 35.2456 116.913 40.6955 110.224 40.6955H12.626C5.89207 40.6955 0.487213 35.201 0.487213 28.4556V16.1263C0.487213 9.33626 5.93637 3.88635 12.626 3.88635H110.179C116.913 3.88635 122.318 9.38093 122.318 16.1263V28.4556H122.362Z" fill="#DFDFDF"/>
<path d="M12.6257 41.1423H110.179C117.134 41.1423 122.761 35.4244 122.761 28.4557V16.1264C122.761 9.11296 117.09 3.4397 110.179 3.4397H12.5814C5.62598 3.4397 -0.000396729 9.15763 -0.000396729 16.1264V28.4557C-0.000396729 35.4691 5.67027 41.1423 12.6257 41.1423ZM110.179 4.28845C116.647 4.28845 121.875 9.60434 121.875 16.0817V28.411C121.875 34.933 116.603 40.2042 110.179 40.2042H12.5814C6.1133 40.2042 0.885643 34.8883 0.885643 28.411V16.1264C0.885643 9.60434 6.15761 4.33312 12.5814 4.33312H110.179V4.28845Z" fill="#646464"/>
<path d="M74.2057 3.84168H89.5342C89.5342 1.96548 88.0279 0.446655 86.1672 0.446655H77.5726C75.7562 0.446655 74.2057 1.96548 74.2057 3.84168Z" fill="#DFDFDF"/>
<path d="M73.763 4.28845H89.9775V3.84174C89.9775 1.74218 88.2498 0 86.1676 0H77.5729C75.4908 0 73.763 1.74218 73.763 3.84174V4.28845ZM89.0915 3.39502H74.7376C74.9591 1.96554 76.1553 0.893427 77.6173 0.893427H86.2119C87.6295 0.893427 88.87 1.96554 89.0915 3.39502Z" fill="#646464"/>
<path d="M53.7379 3.84168H69.0664C69.0664 1.96548 67.5601 0.446655 65.6995 0.446655H57.1048C55.2441 0.446655 53.7379 1.96548 53.7379 3.84168Z" fill="#DFDFDF"/>
<path d="M53.2952 4.28845H69.5098V3.84174C69.5098 1.74218 67.782 0 65.6998 0H57.1052C55.023 0 53.2952 1.74218 53.2952 3.84174V4.28845ZM68.5794 3.39502H54.2255C54.4471 1.96554 55.6432 0.893427 57.1052 0.893427H65.6998C67.1618 0.893427 68.3579 1.96554 68.5794 3.39502Z" fill="#646464"/>
<path d="M33.2701 3.84168H48.5986C48.5986 1.96548 47.0924 0.446655 45.2317 0.446655H36.6371C34.7764 0.446655 33.2701 1.96548 33.2701 3.84168Z" fill="#DFDFDF"/>
<path d="M32.8274 4.28845H49.042V3.84174C49.042 1.74218 47.3142 0 45.232 0H36.6374C34.5552 0 32.8274 1.74218 32.8274 3.84174V4.28845ZM48.1116 3.39502H33.7578C33.9793 1.96554 35.1754 0.893427 36.6374 0.893427H45.232C46.694 0.893427 47.8901 1.96554 48.1116 3.39502Z" fill="#646464"/>
<path d="M7.48679 59.6362C7.48679 60.6189 8.28423 61.3783 9.21457 61.3783H12.4929C13.4676 61.3783 14.2207 60.5743 14.2207 59.6362V56.6432C14.2207 55.6604 13.4233 54.901 12.4929 54.901H9.21457C8.23992 54.901 7.48679 55.7051 7.48679 56.6432V59.6362Z" fill="#DFDFDF"/>
<path d="M9.21491 61.8251H12.4933C13.6894 61.8251 14.6641 60.8423 14.6641 59.6362V56.6432C14.6641 55.4371 13.6894 54.4543 12.4933 54.4543H9.21491C8.01875 54.4543 7.04411 55.4371 7.04411 56.6432V59.6362C7.04411 60.8423 8.01875 61.8251 9.21491 61.8251ZM12.4933 55.3478C13.2021 55.3478 13.778 55.9285 13.778 56.6432V59.6362C13.778 60.351 13.2021 60.9317 12.4933 60.9317H9.21491C8.50607 60.9317 7.93015 60.351 7.93015 59.6362V56.6432C7.93015 55.9285 8.50607 55.3478 9.21491 55.3478H12.4933Z" fill="#646464"/>
<path d="M97.198 60.6191C97.198 61.6019 97.9955 62.3613 98.9258 62.3613H119.26C120.235 62.3613 120.988 61.5572 120.988 60.6191V48.3791C120.988 47.3964 120.191 46.637 119.26 46.637H98.9258C97.9512 46.637 97.198 47.441 97.198 48.3791V60.6191Z" fill="#DFDFDF"/>
<path d="M98.9262 62.8526H119.261C120.457 62.8526 121.432 61.8698 121.432 60.6637V48.4238C121.432 47.2176 120.457 46.2349 119.261 46.2349H98.9262C97.73 46.2349 96.7554 47.2176 96.7554 48.4238V60.6637C96.7554 61.8698 97.73 62.8526 98.9262 62.8526ZM119.261 47.1283C119.97 47.1283 120.546 47.709 120.546 48.4238V60.6637C120.546 61.3785 119.97 61.9592 119.261 61.9592H98.9262C98.2173 61.9592 97.6414 61.3785 97.6414 60.6637V48.4238C97.6414 47.709 98.2173 47.1283 98.9262 47.1283H119.261Z" fill="#646464"/>
<path d="M101.983 62.5846C101.983 63.1653 102.47 63.6567 103.046 63.6567C103.622 63.6567 104.109 63.1653 104.109 62.5846V46.6816C104.109 46.1009 103.622 45.6095 103.046 45.6095C102.47 45.6095 101.983 46.1009 101.983 46.6816V62.5846Z" fill="#DFDFDF"/>
<path d="M103.046 64.1481C103.888 64.1481 104.553 63.478 104.553 62.6292V46.7262C104.553 45.8775 103.888 45.2074 103.046 45.2074C102.205 45.2074 101.54 45.8775 101.54 46.7262V62.6292C101.54 63.4333 102.205 64.1481 103.046 64.1481ZM103.046 46.0562C103.401 46.0562 103.667 46.3242 103.667 46.6816V62.5846C103.667 62.9419 103.401 63.21 103.046 63.21C102.692 63.21 102.426 62.9419 102.426 62.5846V46.6816C102.426 46.3242 102.692 46.0562 103.046 46.0562Z" fill="#646464"/>
<path d="M108.052 62.5846C108.052 63.1653 108.54 63.6567 109.115 63.6567C109.691 63.6567 110.179 63.1653 110.179 62.5846V46.6816C110.179 46.1009 109.691 45.6095 109.115 45.6095C108.54 45.6095 108.052 46.1009 108.052 46.6816V62.5846Z" fill="#DFDFDF"/>
<path d="M109.116 64.1481C109.958 64.1481 110.622 63.478 110.622 62.6292V46.7262C110.622 45.8775 109.958 45.2074 109.116 45.2074C108.274 45.2074 107.61 45.8775 107.61 46.7262V62.6292C107.61 63.4333 108.274 64.1481 109.116 64.1481ZM109.116 46.0562C109.47 46.0562 109.736 46.3242 109.736 46.6816V62.5846C109.736 62.9419 109.47 63.21 109.116 63.21C108.761 63.21 108.496 62.9419 108.496 62.5846V46.6816C108.496 46.3242 108.761 46.0562 109.116 46.0562Z" fill="#646464"/>
<path d="M114.078 62.5846C114.078 63.1653 114.565 63.6567 115.141 63.6567C115.717 63.6567 116.204 63.1653 116.204 62.5846V46.6816C116.204 46.1009 115.717 45.6095 115.141 45.6095C114.565 45.6095 114.078 46.1009 114.078 46.6816V62.5846Z" fill="#DFDFDF"/>
<path d="M115.141 64.1481C115.983 64.1481 116.647 63.478 116.647 62.6292V46.7262C116.647 45.8775 115.983 45.2074 115.141 45.2074C114.299 45.2074 113.635 45.8775 113.635 46.7262V62.6292C113.635 63.4333 114.344 64.1481 115.141 64.1481ZM115.141 46.0562C115.496 46.0562 115.761 46.3242 115.761 46.6816V62.5846C115.761 62.9419 115.496 63.21 115.141 63.21C114.787 63.21 114.521 62.9419 114.521 62.5846V46.6816C114.521 46.3242 114.831 46.0562 115.141 46.0562Z" fill="#646464"/>
<path d="M28.3089 27.8302C28.5747 27.8302 28.752 27.6516 28.752 27.3835V3.84173C28.752 3.57371 28.5747 3.39502 28.3089 3.39502C28.0431 3.39502 27.8659 3.57371 27.8659 3.84173V27.3835C27.8659 27.6516 28.0431 27.8302 28.3089 27.8302Z" fill="#646464"/>
<path d="M17.6761 27.9196C17.9419 27.9196 18.1191 27.7409 18.1191 27.4729V3.93109C18.1191 3.66306 17.9419 3.48438 17.6761 3.48438C17.4103 3.48438 17.2331 3.66306 17.2331 3.93109V27.4729C17.2331 27.7409 17.4546 27.9196 17.6761 27.9196Z" fill="#646464"/>
<path d="M18.075 9.64904H28.0873C28.3531 9.64904 28.5303 9.47036 28.5303 9.20233C28.5303 8.9343 28.3531 8.75562 28.0873 8.75562H18.075C17.8092 8.75562 17.632 8.9343 17.632 9.20233C17.632 9.47036 17.8535 9.64904 18.075 9.64904Z" fill="#646464"/>
<path d="M18.075 16.4838H28.0873C28.3531 16.4838 28.5303 16.3051 28.5303 16.037C28.5303 15.769 28.3531 15.5903 28.0873 15.5903H18.075C17.8092 15.5903 17.632 15.769 17.632 16.037C17.632 16.3051 17.8535 16.4838 18.075 16.4838Z" fill="#646464"/>
<path d="M18.075 23.2738H28.0873C28.3531 23.2738 28.5303 23.0951 28.5303 22.8271C28.5303 22.5591 28.3531 22.3804 28.0873 22.3804H18.075C17.8092 22.3804 17.632 22.5591 17.632 22.8271C17.632 23.0951 17.8535 23.2738 18.075 23.2738Z" fill="#646464"/>
<path d="M129.628 58.028C129.628 64.3267 134.678 69.4192 140.925 69.4192C147.171 69.4192 152.222 64.3267 152.222 58.028C152.222 51.7294 147.171 46.6368 140.925 46.6368C134.722 46.6368 129.628 51.7294 129.628 58.028Z" fill="#DFDFDF"/>
<path d="M140.925 69.866C147.393 69.866 152.665 64.5501 152.665 58.0281C152.665 51.5061 147.393 46.1902 140.925 46.1902C134.457 46.1902 129.185 51.5061 129.185 58.0281C129.185 64.5501 134.457 69.866 140.925 69.866ZM140.925 47.0836C146.906 47.0836 151.779 51.9975 151.779 58.0281C151.779 64.0587 146.906 68.9726 140.925 68.9726C134.944 68.9726 130.071 64.0587 130.071 58.0281C130.071 51.9975 134.944 47.0836 140.925 47.0836Z" fill="#646464"/>
<path d="M133.305 58.0281C133.305 62.2718 136.717 65.7562 140.97 65.7562C145.178 65.7562 148.634 62.3165 148.634 58.0281C148.634 53.7843 145.223 50.2999 140.97 50.2999C136.717 50.2999 133.305 53.7843 133.305 58.0281Z" fill="#DFDFDF"/>
<path d="M140.925 66.203C145.399 66.203 149.032 62.5399 149.032 58.0281C149.032 53.5163 145.399 49.8533 140.925 49.8533C136.45 49.8533 132.818 53.5163 132.818 58.0281C132.862 62.5399 136.495 66.203 140.925 66.203ZM140.925 50.7467C144.912 50.7467 148.146 54.0077 148.146 58.0281C148.146 62.0485 144.912 65.3096 140.925 65.3096C136.938 65.3096 133.704 62.0485 133.704 58.0281C133.748 54.0077 136.982 50.7467 140.925 50.7467Z" fill="#646464"/>
<path d="M134.767 58.028C134.767 61.4677 137.514 64.2374 140.925 64.2374C144.336 64.2374 147.083 61.4677 147.083 58.028C147.083 54.5883 144.336 51.8187 140.925 51.8187C137.558 51.8187 134.767 54.5883 134.767 58.028Z" fill="#DFDFDF"/>
<path d="M140.925 64.6841C144.558 64.6841 147.526 61.6911 147.526 58.0281C147.526 54.365 144.558 51.3721 140.925 51.3721C137.293 51.3721 134.324 54.365 134.324 58.0281C134.324 61.6911 137.293 64.6841 140.925 64.6841ZM140.925 52.2655C144.071 52.2655 146.64 54.8564 146.64 58.0281C146.64 61.1998 144.071 63.7907 140.925 63.7907C137.78 63.7907 135.21 61.1998 135.21 58.0281C135.21 54.8564 137.78 52.2655 140.925 52.2655Z" fill="#646464"/>
<path d="M137.38 58.0282C137.38 59.9937 138.975 61.6019 140.924 61.6019C142.874 61.6019 144.513 59.9937 144.513 58.0282C144.513 56.0626 142.918 54.4098 140.924 54.4098C138.975 54.4545 137.38 56.0626 137.38 58.0282Z" fill="#DFDFDF"/>
<path d="M140.925 62.0932C143.14 62.0932 144.956 60.2617 144.956 58.0728C144.956 55.8839 143.14 54.0077 140.925 54.0077C138.709 54.0077 136.937 55.8392 136.937 58.0728C136.937 60.3063 138.754 62.0932 140.925 62.0932ZM140.925 54.9011C142.652 54.9011 144.07 56.3306 144.07 58.0728C144.07 59.815 142.652 61.1998 140.925 61.1998C139.197 61.1998 137.823 59.7703 137.823 58.0728C137.823 56.3753 139.241 54.9011 140.925 54.9011Z" fill="#646464"/>
<path d="M49.7956 58.1621C49.7956 64.4607 54.846 69.5533 61.0926 69.5533C67.3392 69.5533 72.3896 64.4607 72.3896 58.1621C72.3896 51.8634 67.3392 46.7709 61.0926 46.7709C54.846 46.7709 49.7956 51.8634 49.7956 58.1621Z" fill="#DFDFDF"/>
<path d="M61.0929 70C67.5611 70 72.833 64.6841 72.833 58.1621C72.833 51.6401 67.5611 46.3242 61.0929 46.3242C54.6248 46.3242 49.3529 51.6401 49.3529 58.1621C49.3529 64.6841 54.6248 70 61.0929 70ZM61.0929 47.2176C67.0737 47.2176 71.947 52.1315 71.947 58.1621C71.947 64.1928 67.0737 69.1066 61.0929 69.1066C55.1122 69.1066 50.2389 64.1928 50.2389 58.1621C50.2389 52.1315 55.1122 47.2176 61.0929 47.2176Z" fill="#646464"/>
<path d="M53.4283 58.1621C53.4283 62.4059 56.8396 65.8902 61.0926 65.8902C65.3013 65.8902 68.7568 62.4506 68.7568 58.1621C68.7568 53.9183 65.3456 50.434 61.0926 50.434C56.8396 50.434 53.4283 53.8737 53.4283 58.1621Z" fill="#DFDFDF"/>
<path d="M61.0929 66.2923C65.5674 66.2923 69.2002 62.6293 69.2002 58.1175C69.2002 53.6057 65.5674 49.9426 61.0929 49.9426C56.6184 49.9426 52.9856 53.6057 52.9856 58.1175C52.9856 62.6293 56.6184 66.2923 61.0929 66.2923ZM61.0929 50.8807C65.0801 50.8807 68.3142 54.1417 68.3142 58.1622C68.3142 62.1826 65.0801 65.4436 61.0929 65.4436C57.1057 65.4436 53.8717 62.1826 53.8717 58.1622C53.8717 54.1417 57.1057 50.8807 61.0929 50.8807Z" fill="#646464"/>
<path d="M54.891 58.1621C54.891 61.6018 57.6378 64.3714 61.049 64.3714C64.4603 64.3714 67.207 61.6018 67.207 58.1621C67.207 54.7224 64.4603 51.9528 61.049 51.9528C57.6821 51.9081 54.891 54.7224 54.891 58.1621Z" fill="#DFDFDF"/>
<path d="M61.0933 64.8182C64.7261 64.8182 67.6943 61.8252 67.6943 58.1621C67.6943 54.4991 64.7261 51.5061 61.0933 51.5061C57.4605 51.5061 54.4923 54.4991 54.4923 58.1621C54.448 61.8252 57.4162 64.8182 61.0933 64.8182ZM61.0933 52.3549C64.2388 52.3549 66.8083 54.9458 66.8083 58.1175C66.8083 61.2891 64.2388 63.8801 61.0933 63.8801C57.9479 63.8801 55.3783 61.2891 55.3783 58.1175C55.334 54.9458 57.9036 52.3549 61.0933 52.3549Z" fill="#646464"/>
<path d="M57.5041 58.1621C57.5041 60.1277 59.099 61.7805 61.0483 61.7805C62.9975 61.7805 64.6367 60.1724 64.6367 58.1621C64.6367 56.1966 63.0418 54.5884 61.0483 54.5884C59.099 54.5438 57.5041 56.1519 57.5041 58.1621Z" fill="#DFDFDF"/>
<path d="M61.0925 62.1826C63.3076 62.1826 65.124 60.351 65.124 58.1175C65.124 55.8839 63.3076 54.097 61.0925 54.097C58.8774 54.097 57.1053 55.9286 57.1053 58.1175C57.1053 60.3064 58.8774 62.1826 61.0925 62.1826ZM61.0925 54.9905C62.8203 54.9905 64.238 56.42 64.238 58.1175C64.238 59.815 62.8203 61.2891 61.0925 61.2891C59.3647 61.2891 57.9914 59.8597 57.9914 58.1175C57.9914 56.3753 59.3647 54.9905 61.0925 54.9905Z" fill="#646464"/>
<path d="M19.0934 58.1621C19.0934 64.4607 24.1439 69.5533 30.3905 69.5533C36.6371 69.5533 41.6875 64.4607 41.6875 58.1621C41.6875 51.8634 36.6371 46.7709 30.3905 46.7709C24.1439 46.7709 19.0934 51.8634 19.0934 58.1621Z" fill="#DFDFDF"/>
<path d="M30.3908 70C36.8589 70 42.1309 64.6841 42.1309 58.1621C42.1309 51.6401 36.8589 46.3242 30.3908 46.3242C23.9227 46.3242 18.6507 51.6401 18.6507 58.1621C18.6507 64.6841 23.9227 70 30.3908 70ZM30.3908 47.2176C36.3716 47.2176 41.2448 52.1315 41.2448 58.1621C41.2448 64.1928 36.3716 69.1066 30.3908 69.1066C24.41 69.1066 19.5368 64.1928 19.5368 58.1621C19.5368 52.1315 24.41 47.2176 30.3908 47.2176Z" fill="#646464"/>
<path d="M22.7262 58.1621C22.7262 62.4059 26.1374 65.8902 30.3904 65.8902C34.5991 65.8902 38.0547 62.4506 38.0547 58.1621C38.0547 53.9183 34.6434 50.434 30.3904 50.434C26.1817 50.434 22.7262 53.8737 22.7262 58.1621Z" fill="#DFDFDF"/>
<path d="M30.3908 66.2923C34.8653 66.2923 38.498 62.6293 38.498 58.1175C38.498 53.6057 34.8653 49.9426 30.3908 49.9426C25.9162 49.9426 22.2835 53.6057 22.2835 58.1175C22.2835 62.6293 25.9162 66.2923 30.3908 66.2923ZM30.3908 50.8807C34.3779 50.8807 37.612 54.1417 37.612 58.1622C37.612 62.1826 34.3779 65.4436 30.3908 65.4436C26.4036 65.4436 23.1695 62.1826 23.1695 58.1622C23.1695 54.1417 26.4036 50.8807 30.3908 50.8807Z" fill="#646464"/>
<path d="M24.2328 58.1621C24.2328 61.6018 26.9796 64.3714 30.3908 64.3714C33.8021 64.3714 36.5488 61.6018 36.5488 58.1621C36.5488 54.7224 33.8021 51.9528 30.3908 51.9528C26.9796 51.9081 24.2328 54.7224 24.2328 58.1621Z" fill="#DFDFDF"/>
<path d="M30.3912 64.8182C34.0239 64.8182 36.9922 61.8252 36.9922 58.1621C36.9922 54.4991 34.0239 51.5061 30.3912 51.5061C26.7584 51.5061 23.7902 54.4991 23.7902 58.1621C23.7902 61.8252 26.7584 64.8182 30.3912 64.8182ZM30.3912 52.3549C33.5366 52.3549 36.1061 54.9458 36.1061 58.1175C36.1061 61.2891 33.5366 63.8801 30.3912 63.8801C27.2457 63.8801 24.6762 61.2891 24.6762 58.1175C24.6762 54.9458 27.2457 52.3549 30.3912 52.3549Z" fill="#646464"/>
<path d="M26.8459 58.1621C26.8459 60.1277 28.4407 61.7805 30.39 61.7805C32.3393 61.7805 33.9785 60.1724 33.9785 58.1621C33.9785 56.1966 32.3836 54.5884 30.39 54.5884C28.4407 54.5438 26.8459 56.1519 26.8459 58.1621Z" fill="#DFDFDF"/>
<path d="M30.3904 62.1826C32.6055 62.1826 34.4219 60.351 34.4219 58.1175C34.4219 55.8839 32.6055 54.097 30.3904 54.097C28.1753 54.097 26.4032 55.9286 26.4032 58.1175C26.4032 60.3064 28.1753 62.1826 30.3904 62.1826ZM30.3904 54.9905C32.1182 54.9905 33.5358 56.42 33.5358 58.1175C33.5358 59.815 32.1182 61.2891 30.3904 61.2891C28.6626 61.2891 27.2892 59.8597 27.2892 58.1175C27.2892 56.3753 28.6626 54.9905 30.3904 54.9905Z" fill="#646464"/>
</g>
<defs>
<clipPath id="clip0_761_3683">
<rect width="166" height="70" fill="white" transform="matrix(-1 0 0 1 166 0)"/>
</clipPath>
</defs>
</svg>
