<svg width="169" height="70" viewBox="0 0 169 70" fill="none" xmlns="http://www.w3.org/2000/svg">
<g clip-path="url(#clip0_761_3903)">
<path d="M21.5654 43.8488H65.3643V47.4831H21.5654V43.8488Z" fill="#DFDFDF"/>
<path d="M21.1738 47.9176H65.7568V43.4537H21.1738V47.9176ZM64.9726 47.1276H21.958V44.2438H64.9726V47.1276Z" fill="#646464"/>
<path d="M93.6358 9.6783C93.2437 3.35776 75.9516 -0.671584 55.0128 0.671531C34.0741 2.01465 17.4485 8.25618 17.8407 14.5767C18.2328 20.8973 35.5249 24.9266 56.4636 23.5835C77.4024 22.2009 94.0279 15.9988 93.6358 9.6783Z" fill="#DFDFDF"/>
<path d="M48.3469 24.2155C50.9741 24.2155 53.7188 24.1365 56.5028 23.939C66.6585 23.2675 76.1476 21.4898 83.2056 18.8431C90.4205 16.1569 94.2632 12.8781 94.0279 9.6388C93.5966 3.00223 76.4613 -1.10612 55.0128 0.276497C33.5643 1.65912 17.0564 7.94016 17.4878 14.5767C17.8407 20.3442 30.8587 24.2155 48.3469 24.2155ZM93.2437 9.6783C93.4397 12.5225 89.6755 15.5643 82.9311 18.0925C75.9516 20.6997 66.5409 22.5169 56.4636 23.149C36.1522 24.4526 18.6249 20.5022 18.272 14.4977C17.8799 8.4932 34.7406 2.33067 55.052 1.02706C75.3634 -0.237047 92.8908 3.71329 93.2437 9.6783Z" fill="#646464"/>
<path d="M112.027 3.08128C112.811 3.00228 113.438 3.67383 113.321 4.4639L113.242 5.05645C113.125 5.96503 112.38 6.67609 111.478 6.7551L101.44 7.86119L95.2052 43.6118C95.0483 44.4808 94.3033 45.1524 93.4015 45.1524H1.56898C0.78476 45.1524 0.235809 44.4018 0.431862 43.6513L7.88198 15.6039C8.11725 14.6953 8.90147 14.0632 9.80332 13.9447L112.027 3.08128Z" fill="#DFDFDF"/>
<path d="M1.56877 45.5079H93.4013C94.4992 45.5079 95.401 44.7178 95.5971 43.6512L101.753 8.21671L111.517 7.15012C112.576 7.03161 113.438 6.20204 113.634 5.09594L113.713 4.50339C113.791 4.02935 113.634 3.51581 113.281 3.16028C112.928 2.80475 112.458 2.60723 111.987 2.68624L9.80311 13.5102C8.74441 13.6287 7.80334 14.4187 7.52887 15.4458L0.0787506 43.4932C-0.0388794 43.9673 0.0395355 44.4808 0.353226 44.8759C0.627701 45.3104 1.05903 45.5079 1.56877 45.5079ZM112.144 3.47631C112.379 3.47631 112.576 3.55531 112.732 3.71333C112.889 3.91084 112.968 4.14786 112.928 4.38488L112.85 4.97743C112.732 5.6885 112.144 6.28105 111.438 6.36005L101.087 7.50565L94.8129 43.5327C94.6952 44.2438 94.1071 44.7178 93.4013 44.7178H1.56877C1.3335 44.7178 1.09824 44.5993 0.941391 44.4018C0.784546 44.2043 0.745338 43.9673 0.823761 43.7303L8.27388 15.6829C8.46993 14.9323 9.09731 14.3792 9.88154 14.3002L112.066 3.47631C112.105 3.47631 112.105 3.47631 112.144 3.47631Z" fill="#646464"/>
<path d="M15.1357 52.0654H12.7439C11.8812 52.0654 11.2146 52.7765 11.2146 53.6061V53.9221C11.2146 54.7912 11.9204 55.4627 12.7439 55.4627H15.1357V52.0654Z" fill="#DFDFDF"/>
<path d="M12.7043 55.8972H15.4883V51.7098H12.7043C11.6456 51.7098 10.7829 52.5789 10.7829 53.6455V53.9615C10.7829 55.0281 11.6456 55.8972 12.7043 55.8972ZM14.7433 55.1071H12.7435C12.1161 55.1071 11.6064 54.5936 11.6064 53.9615V53.6455C11.6064 53.0135 12.1161 52.4999 12.7435 52.4999H14.7433V55.1071Z" fill="#646464"/>
<path d="M12.3912 41.8342C13.293 41.8342 14.0772 41.2021 14.3125 40.333L20.2334 17.5791C20.4295 16.868 19.8413 16.157 19.0963 16.2755L12.352 17.0655C11.4501 17.184 10.6659 17.8161 10.4306 18.7247L4.50973 40.3725C4.31367 41.1231 4.86262 41.8737 5.64685 41.8737H12.3912V41.8342Z" fill="#DFDFDF"/>
<path d="M5.64652 42.2291H12.3908C13.4888 42.2291 14.4298 41.4786 14.7043 40.4515L20.6252 17.6975C20.7428 17.2235 20.6252 16.7495 20.3115 16.3939C19.9978 16.0384 19.5273 15.8409 19.0567 15.9199L12.3124 16.7099C11.2145 16.8285 10.3519 17.6185 10.0382 18.6851L4.11729 40.333C3.99965 40.807 4.07808 41.3206 4.39177 41.7156C4.70546 42.0316 5.13678 42.2291 5.64652 42.2291ZM19.2528 16.6309C19.4488 16.6309 19.6057 16.7099 19.7625 16.868C19.9194 17.026 19.9586 17.263 19.9194 17.4605L13.9985 40.2145C13.8024 40.9255 13.1751 41.3996 12.4693 41.3996H5.72495C5.48968 41.3996 5.25441 41.2811 5.09757 41.0835C4.94072 40.886 4.90152 40.649 4.97994 40.412L10.9008 18.7641C11.0969 18.0136 11.7635 17.4605 12.5085 17.3815L19.2528 16.5914C19.1744 16.6704 19.2136 16.6309 19.2528 16.6309Z" fill="#646464"/>
<path d="M25.3307 41.8341C26.2326 41.8341 27.0168 41.202 27.2521 40.3329L33.1729 16.3939C33.369 15.6433 32.7808 14.9718 31.9966 15.0508L25.3307 15.6828C24.4289 15.7618 23.6446 16.4334 23.4094 17.342L17.4885 40.4119C17.2924 41.1625 17.8806 41.9131 18.6256 41.9131H25.3307V41.8341Z" fill="#DFDFDF"/>
<path d="M18.6255 42.2291H25.2914C26.3893 42.2291 27.3304 41.4785 27.5656 40.4119L33.4865 16.4729C33.6041 15.9988 33.4865 15.5248 33.1728 15.1297C32.8591 14.7742 32.3886 14.5767 31.9181 14.6162L25.2522 15.2482C24.1543 15.3668 23.2524 16.1173 22.9779 17.1839L17.057 40.2539C16.9394 40.7279 17.0178 41.2415 17.3315 41.6365C17.6844 42.0315 18.155 42.2291 18.6255 42.2291ZM32.1141 15.4063C32.3102 15.4063 32.5062 15.4853 32.6239 15.6433C32.7807 15.8013 32.8199 16.0383 32.7807 16.2753L26.8598 40.2144C26.703 40.9254 26.0364 41.3995 25.3306 41.3995H18.6647C18.4294 41.3995 18.1942 41.281 18.0373 41.0835C17.8805 40.8859 17.8413 40.6489 17.8805 40.3724L23.8014 17.3814C23.9974 16.6309 24.6248 16.1173 25.3698 16.0383L32.0357 15.4063C32.0357 15.4063 32.0749 15.4063 32.1141 15.4063Z" fill="#646464"/>
<path d="M38.2311 41.834C39.1329 41.834 39.9171 41.2019 40.1132 40.3328L46.0341 15.1692C46.1909 14.4186 45.6028 13.7471 44.8577 13.7866L38.1918 14.4186C37.29 14.4976 36.5058 15.1692 36.3097 16.0778L30.3888 40.3328C30.1928 41.0834 30.7809 41.834 31.5652 41.834H38.2311Z" fill="#DFDFDF"/>
<path d="M31.5649 42.2291H38.2308C39.3287 42.2291 40.2698 41.4785 40.5051 40.4119L46.426 15.2482C46.5436 14.7742 46.426 14.3002 46.1123 13.9051C45.7986 13.5496 45.328 13.3521 44.8575 13.3916L38.1916 14.0236C37.0937 14.1421 36.1919 14.8927 35.9566 15.9593L30.0357 40.2144C29.9181 40.6884 30.0357 41.202 30.3102 41.597C30.5847 42.0315 31.0552 42.2291 31.5649 42.2291ZM44.9752 14.2212C45.1712 14.2212 45.3673 14.3002 45.5241 14.4582C45.681 14.6162 45.7202 14.8532 45.6809 15.0902L39.7601 40.2539C39.6032 40.9649 38.9758 41.439 38.2308 41.439H31.5649C31.3297 41.439 31.0944 41.3205 30.9376 41.123C30.7807 40.9254 30.7415 40.6489 30.7807 40.4119L36.7016 16.1963C36.8977 15.4458 37.525 14.9322 38.27 14.8532L44.9359 14.2212C44.9359 14.2212 44.9359 14.2212 44.9752 14.2212Z" fill="#646464"/>
<path d="M51.1305 41.834C52.0323 41.834 52.8166 41.202 53.0126 40.3329L58.9335 13.9841C59.0903 13.2336 58.5022 12.562 57.7572 12.6015L51.0913 13.2336C50.1894 13.3126 49.4052 13.9841 49.2091 14.8927L43.2882 40.3329C43.0922 41.123 43.6804 41.834 44.4646 41.834H51.1305Z" fill="#DFDFDF"/>
<path d="M44.465 42.2291H51.1309C52.2288 42.2291 53.1307 41.4785 53.4051 40.4119L59.326 14.0632C59.4436 13.5891 59.326 13.0756 58.9731 12.7201C58.6594 12.3645 58.1889 12.167 57.7184 12.2065L51.0525 12.8386C49.9546 12.9571 49.0527 13.7077 48.8174 14.7742L42.8965 40.2144C42.7789 40.6885 42.8965 41.202 43.2102 41.597C43.5239 42.0316 43.9552 42.2291 44.465 42.2291ZM57.8752 12.9966C58.0713 12.9966 58.2673 13.0756 58.4242 13.2336C58.581 13.3916 58.6202 13.6286 58.581 13.8657L52.6601 40.2144C52.5033 40.9255 51.8759 41.3995 51.1701 41.3995H44.5042C44.2689 41.3995 44.0337 41.281 43.8376 41.0835C43.6808 40.886 43.6416 40.6095 43.6808 40.3724L49.6016 14.9323C49.7585 14.1817 50.3859 13.6681 51.1309 13.5891L57.7968 12.9571C57.7968 12.9966 57.836 12.9966 57.8752 12.9966Z" fill="#646464"/>
<path d="M64.0709 41.8342C64.9728 41.8342 65.757 41.2021 65.9531 40.333L71.874 12.7992C72.0308 12.0486 71.4426 11.3375 70.6584 11.4165L63.9925 12.0486C63.0907 12.1276 62.3064 12.7992 62.1104 13.7077L56.1895 40.333C56.0327 41.1231 56.6208 41.8342 57.4051 41.8342H64.0709Z" fill="#DFDFDF"/>
<path d="M57.4048 42.2291H64.0707C65.1294 42.2291 66.1096 41.4786 66.3057 40.412L72.2266 12.8781C72.3442 12.4041 72.1874 11.8905 71.8737 11.535C71.56 11.1795 71.0894 10.982 70.5797 11.0215L63.9138 11.6535C62.8159 11.772 61.9532 12.5621 61.718 13.6287L55.7971 40.254C55.6795 40.728 55.7971 41.2416 56.1108 41.6366C56.4245 42.0316 56.895 42.2291 57.4048 42.2291ZM70.7365 11.8115C70.9326 11.8115 71.1287 11.8905 71.2855 12.0486C71.4423 12.2461 71.5208 12.4436 71.4423 12.6806L65.5215 40.2145C65.3646 40.9255 64.7372 41.3996 64.0314 41.3996H57.3655C57.0911 41.3996 56.8558 41.2811 56.699 41.0835C56.5421 40.886 56.4637 40.6095 56.5421 40.3725L62.463 13.7472C62.6198 12.9966 63.2472 12.4831 63.9922 12.4041L70.6581 11.772C70.6973 11.8115 70.6973 11.8115 70.7365 11.8115Z" fill="#646464"/>
<path d="M76.9709 41.8341C77.8727 41.8341 78.657 41.202 78.8138 40.3329L84.6955 11.614C84.8523 10.8634 84.225 10.1524 83.4799 10.2314L76.814 10.8634C75.9122 10.9424 75.1672 11.614 74.9711 12.5226L69.0502 40.3724C68.8934 41.1625 69.4816 41.8736 70.2658 41.8736H76.9709V41.8341Z" fill="#DFDFDF"/>
<path d="M70.3053 42.2291H76.9712C78.0299 42.2291 78.971 41.439 79.2062 40.4119L85.0879 11.6929C85.2055 11.2189 85.0487 10.7054 84.735 10.3498C84.4213 9.9943 83.9508 9.79678 83.441 9.83628L76.7751 10.4683C75.6772 10.5868 74.8146 11.3769 74.5793 12.4435L68.6584 40.2934C68.5408 40.7674 68.6584 41.281 68.9721 41.676C69.3642 42.0315 69.7956 42.2291 70.3053 42.2291ZM83.6371 10.5868C83.8331 10.5868 84.0292 10.6659 84.186 10.8239C84.3429 11.0214 84.4213 11.2584 84.3429 11.4954L78.4612 40.2144C78.3044 40.9254 77.7162 41.3995 77.0104 41.3995H70.3445C70.07 41.3995 69.8348 41.281 69.6779 41.0835C69.5211 40.8859 69.4427 40.6094 69.5211 40.3724L75.442 12.5225C75.5988 11.8115 76.2262 11.2584 76.932 11.1794L83.5979 10.5473C83.5587 10.5868 83.5979 10.5868 83.6371 10.5868Z" fill="#646464"/>
<path d="M89.9113 41.8341C90.8132 41.8341 91.5582 41.202 91.7542 40.3329L97.6359 10.3894C97.7928 9.63881 97.1654 8.92775 96.4204 9.00676L89.7545 9.63881C88.8526 9.71782 88.1076 10.3894 87.9116 11.298L82.0299 40.3329C81.873 41.123 82.4612 41.8341 83.2454 41.8341H89.9113Z" fill="#DFDFDF"/>
<path d="M83.2456 42.2291H89.9115C90.9702 42.2291 91.9113 41.4391 92.1466 40.3725L98.0282 10.4289C98.1067 9.95486 97.989 9.44132 97.6753 9.08579C97.3616 8.73026 96.8911 8.53274 96.3814 8.57225L89.7155 9.2043C88.6568 9.32281 87.7549 10.1129 87.5196 11.1795L81.638 40.2145C81.5203 40.6885 81.6772 41.202 81.9909 41.5971C82.2654 42.0316 82.7359 42.2291 83.2456 42.2291ZM96.499 9.40182C96.6951 9.40182 96.9303 9.48082 97.048 9.63884C97.2048 9.83635 97.2832 10.0734 97.244 10.3104L91.3623 40.254C91.2447 40.965 90.6173 41.4391 89.9115 41.4391H83.2456C82.9712 41.4391 82.7359 41.3205 82.579 41.123C82.4222 40.9255 82.3438 40.649 82.383 40.412L88.2647 11.377C88.4215 10.6659 89.0097 10.1129 89.7547 10.0339L96.4206 9.40182C96.4598 9.40182 96.499 9.40182 96.499 9.40182Z" fill="#646464"/>
<path d="M14.5469 46.8905C24.8986 46.8905 95.4395 46.8905 103.164 46.8905V59.5711C95.0866 59.5711 71.7559 59.5711 70.2267 59.5711V59.5316C70.2267 53.053 65.0116 47.7596 58.5418 47.7596C52.5817 47.7596 47.0529 52.3025 46.8569 59.5711H43.0926V59.5316C43.0926 53.0925 37.8775 47.7596 31.4077 47.7596C25.4476 47.7596 19.9188 52.3025 19.7228 59.6106H14.5077C13.645 59.6106 12.9784 58.8995 12.9784 58.07V48.4706C12.9784 47.6016 13.6842 46.8905 14.5469 46.8905Z" fill="#DFDFDF"/>
<path d="M14.5081 60.0056H20.1153V59.6106C20.2722 54.0801 24.2717 48.1546 31.4081 48.1546C37.6427 48.1546 42.701 53.2506 42.701 59.5316V59.9266L43.0931 59.9661H47.2494V59.5711C47.4063 54.0406 51.4058 48.1546 58.5422 48.1546C64.7768 48.1546 69.8351 53.2506 69.8351 59.5316V59.9661H103.557V46.4955H14.5474C13.4887 46.4955 12.626 47.3646 12.626 48.4311V58.07C12.5868 59.1366 13.4494 60.0056 14.5081 60.0056ZM19.3703 59.2156H14.5081C13.8808 59.2156 13.371 58.702 13.371 58.07V48.4707C13.371 47.8386 13.8808 47.3251 14.5081 47.3251H102.733V59.2156H70.5801C70.384 52.658 65.0513 47.4041 58.503 47.4041C52.8959 47.4041 46.8573 51.5519 46.4652 59.2156H43.446C43.2499 52.658 37.9172 47.4041 31.3689 47.4041C24.8599 47.3646 19.7624 52.421 19.3703 59.2156Z" fill="#646464"/>
<path d="M104.498 17.7369H140.101C140.807 17.7369 141.395 18.3295 141.395 19.0405C141.395 19.8306 140.964 20.5812 140.258 20.9367L139.082 21.5293L140.297 33.1828L160.021 35.9085C160.883 36.027 161.55 36.8171 161.55 37.6861V59.8871H154.021C153.982 58.7415 153.904 57.2008 153.629 56.0552C152.492 51.3938 147.434 47.7595 142.14 47.7595C135.474 47.7595 130.416 53.2505 130.455 59.571C127.985 59.571 115.712 59.571 104.537 59.571V17.7369H104.498Z" fill="#DFDFDF"/>
<path d="M153.63 60.2821H161.942V37.6862C161.942 36.6196 161.158 35.6715 160.099 35.5135L140.69 32.8272L139.514 21.7663L140.455 21.2923C141.278 20.8577 141.827 19.9491 141.827 19.0406C141.827 18.0925 141.043 17.3419 140.141 17.3419H104.184V60.0056H130.848V59.6105C130.809 56.6083 132.024 53.685 134.142 51.5518C136.259 49.3792 139.082 48.1941 142.141 48.1941C147.277 48.1941 152.14 51.7099 153.238 56.1737C153.512 57.2798 153.59 58.8205 153.63 59.9266V60.2821ZM161.158 59.492H154.414C154.375 58.3859 154.257 57.0033 154.022 55.9762C152.845 51.1568 147.63 47.404 142.141 47.404C138.886 47.404 135.867 48.6681 133.593 50.9593C131.436 53.1715 130.142 56.1342 130.064 59.2155H104.89V18.132H140.102C140.612 18.132 141.004 18.527 141.004 19.0406C141.004 19.6726 140.651 20.3047 140.063 20.6207L138.651 21.3318L139.945 33.5383L159.982 36.3035C160.648 36.4221 161.158 37.0146 161.158 37.6862V59.492Z" fill="#646464"/>
<path d="M117.124 24.8476C117.124 23.9786 117.83 23.307 118.653 23.307H130.73C131.593 23.307 132.338 23.9786 132.416 24.8476L133.004 31.6422C133.083 32.4718 132.416 33.1829 131.593 33.1829H118.653C117.791 33.1829 117.124 32.4718 117.124 31.6422V24.8476Z" fill="#DFDFDF"/>
<path d="M118.653 33.5779H131.593C132.102 33.5779 132.573 33.3804 132.926 32.9854C133.279 32.6298 133.436 32.1163 133.396 31.6027L132.808 24.8081C132.73 23.7416 131.828 22.912 130.73 22.912H118.653C117.594 22.912 116.732 23.7811 116.732 24.8477V31.6422C116.732 32.7088 117.594 33.5779 118.653 33.5779ZM130.73 23.7021C131.397 23.7021 131.946 24.2156 132.024 24.8872L132.612 31.6817C132.651 31.9583 132.534 32.2348 132.338 32.4718C132.142 32.6693 131.867 32.7878 131.593 32.7878H118.653C118.026 32.7878 117.516 32.2743 117.516 31.6422V24.8477C117.516 24.2156 118.026 23.7021 118.653 23.7021H130.73Z" fill="#646464"/>
<path d="M137.396 31.6422L136.808 24.8476C136.729 23.9786 136.808 23.307 138.141 23.307H138.807C139.67 23.307 140.415 23.9786 140.493 24.8476L141.082 31.6422C141.16 32.4718 140.493 33.1829 139.67 33.1829H138.729C137.749 33.1829 137.474 32.4718 137.396 31.6422Z" fill="#DFDFDF"/>
<path d="M138.69 33.5779H139.631C140.141 33.5779 140.611 33.3804 140.964 32.9854C141.317 32.6298 141.474 32.1163 141.435 31.6027L140.846 24.8081C140.768 23.7416 139.866 22.912 138.807 22.912H138.141C137.474 22.912 137.043 23.07 136.768 23.386C136.376 23.7811 136.416 24.3736 136.455 24.8872L137.043 31.6817C137.121 33.2619 137.984 33.5779 138.69 33.5779ZM138.807 23.7021C139.474 23.7021 140.023 24.2156 140.101 24.8872L140.69 31.6817C140.729 31.9583 140.611 32.2348 140.415 32.4718C140.219 32.6693 139.945 32.7878 139.67 32.7878H138.729C138.298 32.7878 137.906 32.6298 137.827 31.6027L137.239 24.8081C137.2 24.4526 137.2 24.0576 137.357 23.8996C137.513 23.7416 137.866 23.7021 138.18 23.7021H138.807Z" fill="#646464"/>
<path d="M106.575 24.0971C106.575 23.228 107.281 22.5564 108.104 22.5169L111.006 22.4774C111.869 22.4774 112.535 23.149 112.535 24.018V31.6027C112.535 32.4718 111.829 33.1433 111.006 33.1433H108.104C107.242 33.1433 106.575 32.4323 106.575 31.6027V24.0971Z" fill="#DFDFDF"/>
<path d="M108.105 33.5778H111.006C112.065 33.5778 112.928 32.7087 112.928 31.6421V24.0575C112.928 23.5439 112.732 23.0699 112.379 22.6749C112.026 22.3193 111.516 22.1218 111.006 22.1218L108.105 22.1613C107.046 22.1613 106.183 23.0699 106.183 24.1365V31.6816C106.183 32.7087 107.046 33.5778 108.105 33.5778ZM111.046 22.9119C111.359 22.9119 111.634 23.0304 111.83 23.2279C112.065 23.4254 112.183 23.7415 112.183 24.018V31.6026C112.183 32.2347 111.673 32.7482 111.046 32.7482H108.144C107.517 32.7482 107.007 32.2347 107.007 31.6026V24.097C107.007 23.4649 107.517 22.9514 108.144 22.9119H111.046C111.006 22.9119 111.006 22.9119 111.046 22.9119Z" fill="#646464"/>
<path d="M117.005 36.8961C117.005 37.6071 117.554 38.1602 118.26 38.1602H120.809C121.515 38.1602 122.063 37.6071 122.063 36.8961C122.063 36.185 121.515 35.632 120.809 35.632H118.26C117.554 35.632 117.005 36.185 117.005 36.8961Z" fill="#DFDFDF"/>
<path d="M118.26 38.5552H120.809C121.711 38.5552 122.456 37.8047 122.456 36.8961C122.456 35.9875 121.711 35.2369 120.809 35.2369H118.26C117.359 35.2369 116.614 35.9875 116.614 36.8961C116.614 37.8047 117.359 38.5552 118.26 38.5552ZM120.809 36.027C121.28 36.027 121.672 36.422 121.672 36.8961C121.672 37.3701 121.28 37.7652 120.809 37.7652H118.26C117.79 37.7652 117.398 37.3701 117.398 36.8961C117.398 36.422 117.79 36.027 118.26 36.027H120.809Z" fill="#646464"/>
<path d="M116.379 56.7663H124.966C126.142 56.7663 127.122 55.9367 127.436 54.7516C128.299 51.0383 130.495 48.4311 133.867 46.93C135.121 46.3769 135.788 45.5078 135.788 44.4807V33.1433L134.769 23.0304C134.651 21.8058 133.631 20.8972 132.416 20.8972H116.418C115.202 20.8972 114.222 21.8848 114.222 23.1094V54.5146C114.222 55.7392 115.202 56.7663 116.379 56.7663ZM135.004 33.2223V44.4807C135.004 45.3893 134.22 45.9029 133.553 46.2189C129.946 47.799 127.632 50.6038 126.691 54.5936C126.495 55.4232 125.789 55.9762 125.005 55.9762H116.418C115.634 55.9762 115.006 55.3442 115.006 54.5541V23.1094C115.006 22.3193 115.634 21.6873 116.418 21.6873H132.416C133.239 21.6873 133.906 22.3193 133.984 23.1094L135.004 33.2223Z" fill="#646464"/>
<path d="M158.844 59.8871H167.078C167.941 59.8871 168.607 59.176 168.607 58.3464V48.3916C168.607 47.5225 167.902 46.851 167.078 46.851H158.844V59.8871Z" fill="#DFDFDF"/>
<path d="M158.452 60.2821H167.079C168.137 60.2821 169 59.413 169 58.3465V48.3916C169 47.325 168.137 46.4559 167.079 46.4559H158.452V60.2821ZM167.079 47.2065C167.706 47.2065 168.216 47.72 168.216 48.3521V58.307C168.216 58.939 167.706 59.4525 167.079 59.4525H159.236V47.167H167.079V47.2065Z" fill="#646464"/>
<path d="M163.824 46.8114H161.628V37.6861C161.628 37.3701 162.06 37.2516 162.216 37.5676L163.275 40.1748C163.667 41.1229 163.863 42.15 163.863 43.1771V46.8114H163.824Z" fill="#DFDFDF"/>
<path d="M161.276 47.2065H164.256V43.1772C164.256 42.1106 164.06 41.044 163.668 40.0564L162.609 37.4492C162.491 37.1331 162.178 36.9751 161.825 37.0146C161.511 37.0936 161.276 37.3702 161.276 37.6862V47.2065ZM163.432 46.4164H162.021V38.1997L162.883 40.3724C163.236 41.281 163.432 42.2291 163.432 43.2167V46.4164Z" fill="#646464"/>
<path d="M90.303 61.8227C90.303 62.6918 91.0088 63.3633 91.8322 63.3633H109.83C110.693 63.3633 111.359 62.6523 111.359 61.8227V50.9988C111.359 50.1297 110.654 49.4581 109.83 49.4581H91.8322C90.9696 49.4581 90.303 50.1692 90.303 50.9988V61.8227Z" fill="#DFDFDF"/>
<path d="M91.8327 63.7584H109.831C110.889 63.7584 111.752 62.8893 111.752 61.8227V50.9988C111.752 49.9322 110.889 49.0631 109.831 49.0631H91.8327C90.774 49.0631 89.9114 49.9322 89.9114 50.9988V61.8227C89.9114 62.8893 90.774 63.7584 91.8327 63.7584ZM109.831 49.8532C110.458 49.8532 110.968 50.3667 110.968 50.9988V61.8227C110.968 62.4548 110.458 62.9683 109.831 62.9683H91.8327C91.2053 62.9683 90.6956 62.4548 90.6956 61.8227V50.9988C90.6956 50.3667 91.2053 49.8532 91.8327 49.8532H109.831Z" fill="#646464"/>
<path d="M94.5378 63.5608C94.5378 64.0744 94.9691 64.5089 95.4789 64.5089C95.9886 64.5089 96.4199 64.0744 96.4199 63.5608V49.4976C96.4199 48.9841 95.9886 48.5496 95.4789 48.5496C94.9691 48.5496 94.5378 48.9841 94.5378 49.4976V63.5608Z" fill="#DFDFDF"/>
<path d="M95.4793 64.904C96.2243 64.904 96.8125 64.3114 96.8125 63.5609V49.4977C96.8125 48.7471 96.2243 48.1545 95.4793 48.1545C94.7343 48.1545 94.1461 48.7471 94.1461 49.4977V63.5609C94.1461 64.3114 94.7343 64.904 95.4793 64.904ZM95.4793 48.9051C95.793 48.9051 96.0283 49.1421 96.0283 49.4582V63.5214C96.0283 63.8374 95.793 64.0744 95.4793 64.0744C95.1656 64.0744 94.9304 63.8374 94.9304 63.5214V49.4582C94.9304 49.1816 95.1656 48.9051 95.4793 48.9051Z" fill="#646464"/>
<path d="M99.8708 63.5608C99.8708 64.0744 100.302 64.5089 100.812 64.5089C101.322 64.5089 101.753 64.0744 101.753 63.5608V49.4976C101.753 48.9841 101.322 48.5496 100.812 48.5496C100.302 48.5496 99.8708 48.9841 99.8708 49.4976V63.5608Z" fill="#DFDFDF"/>
<path d="M100.812 64.904C101.557 64.904 102.146 64.3114 102.146 63.5609V49.4977C102.146 48.7471 101.557 48.1545 100.812 48.1545C100.067 48.1545 99.4791 48.7471 99.4791 49.4977V63.5609C99.4791 64.3114 100.107 64.904 100.812 64.904ZM100.812 48.9051C101.126 48.9051 101.361 49.1421 101.361 49.4582V63.5214C101.361 63.8374 101.126 64.0744 100.812 64.0744C100.499 64.0744 100.263 63.8374 100.263 63.5214V49.4582C100.263 49.1816 100.538 48.9051 100.812 48.9051Z" fill="#646464"/>
<path d="M105.243 63.5608C105.243 64.0744 105.674 64.5089 106.184 64.5089C106.694 64.5089 107.125 64.0744 107.125 63.5608V49.4976C107.125 48.9841 106.694 48.5496 106.184 48.5496C105.674 48.5496 105.243 48.9841 105.243 49.4976V63.5608Z" fill="#DFDFDF"/>
<path d="M106.184 64.904C106.929 64.904 107.518 64.3114 107.518 63.5609V49.4977C107.518 48.7471 106.929 48.1545 106.184 48.1545C105.439 48.1545 104.851 48.7471 104.851 49.4977V63.5609C104.851 64.3114 105.439 64.904 106.184 64.904ZM106.184 48.9051C106.498 48.9051 106.733 49.1421 106.733 49.4582V63.5214C106.733 63.8374 106.498 64.0744 106.184 64.0744C105.871 64.0744 105.635 63.8374 105.635 63.5214V49.4582C105.635 49.1816 105.871 48.9051 106.184 48.9051Z" fill="#646464"/>
<path d="M166.607 55.3838C165.549 55.3838 164.725 54.5147 164.725 53.4876C164.725 52.421 165.588 51.5914 166.607 51.5914V55.3838Z" fill="#DFDFDF"/>
<path d="M166.608 55.7788H167V51.1569H166.608C165.353 51.1569 164.334 52.1839 164.334 53.4481C164.294 54.7517 165.353 55.7788 166.608 55.7788ZM166.216 52.0259V54.9492C165.588 54.7912 165.118 54.1986 165.118 53.4876C165.079 52.7765 165.549 52.1839 166.216 52.0259Z" fill="#646464"/>
<path d="M132.259 59.5315C132.259 65.1015 136.729 69.6049 142.258 69.6049C147.787 69.6049 152.257 65.1015 152.257 59.5315C152.257 53.9615 147.787 49.4581 142.258 49.4581C136.729 49.4581 132.259 53.9615 132.259 59.5315Z" fill="#DFDFDF"/>
<path d="M142.258 69.9999C147.983 69.9999 152.649 65.299 152.649 59.5315C152.649 53.764 147.983 49.0631 142.258 49.0631C136.534 49.0631 131.868 53.764 131.868 59.5315C131.868 65.299 136.534 69.9999 142.258 69.9999ZM142.258 49.8532C147.552 49.8532 151.865 54.1986 151.865 59.5315C151.865 64.8645 147.552 69.2098 142.258 69.2098C136.965 69.2098 132.652 64.8645 132.652 59.5315C132.652 54.1986 136.965 49.8532 142.258 49.8532Z" fill="#646464"/>
<path d="M135.475 59.5315C135.475 63.2843 138.494 66.3656 142.258 66.3656C146.023 66.3656 149.042 63.3238 149.042 59.5315C149.042 55.7787 146.023 52.6974 142.258 52.6974C138.494 52.6974 135.475 55.7787 135.475 59.5315Z" fill="#DFDFDF"/>
<path d="M142.259 66.7606C146.219 66.7606 149.435 63.5213 149.435 59.5315C149.435 55.5416 146.219 52.3024 142.259 52.3024C138.299 52.3024 135.083 55.5416 135.083 59.5315C135.083 63.5213 138.299 66.7606 142.259 66.7606ZM142.259 53.0924C145.788 53.0924 148.65 55.9762 148.65 59.5315C148.65 63.0868 145.788 65.9705 142.259 65.9705C138.73 65.9705 135.868 63.0868 135.868 59.5315C135.868 55.9762 138.73 53.0924 142.259 53.0924Z" fill="#646464"/>
<path d="M136.807 59.5315C136.807 62.5733 139.238 65.0225 142.258 65.0225C145.277 65.0225 147.708 62.5733 147.708 59.5315C147.708 56.4897 145.277 54.0405 142.258 54.0405C139.238 54.0405 136.807 56.4897 136.807 59.5315Z" fill="#DFDFDF"/>
<path d="M142.258 65.4175C145.473 65.4175 148.101 62.7708 148.101 59.5315C148.101 56.2922 145.473 53.6455 142.258 53.6455C139.043 53.6455 136.416 56.2922 136.416 59.5315C136.416 62.8103 139.043 65.4175 142.258 65.4175ZM142.258 54.4356C145.042 54.4356 147.316 56.7268 147.316 59.5315C147.316 62.3363 145.042 64.6275 142.258 64.6275C139.474 64.6275 137.2 62.3363 137.2 59.5315C137.2 56.7268 139.474 54.4356 142.258 54.4356Z" fill="#646464"/>
<path d="M139.083 59.5316C139.083 61.2697 140.494 62.6918 142.219 62.6918C143.945 62.6918 145.396 61.2697 145.396 59.5316C145.396 57.7934 143.984 56.3318 142.219 56.3318C140.494 56.3713 139.083 57.7934 139.083 59.5316Z" fill="#DFDFDF"/>
<path d="M142.259 63.1263C144.219 63.1263 145.827 61.5067 145.827 59.571C145.827 57.5958 144.219 55.9762 142.259 55.9762C140.298 55.9762 138.73 57.5958 138.73 59.571C138.691 61.5067 140.298 63.1263 142.259 63.1263ZM142.259 56.7663C143.788 56.7663 145.043 58.0304 145.043 59.571C145.043 61.1116 143.788 62.3362 142.259 62.3362C140.73 62.3362 139.514 61.0721 139.514 59.571C139.475 57.9909 140.73 56.7663 142.259 56.7663Z" fill="#646464"/>
<path d="M48.5433 59.5315C48.5433 65.1015 53.0134 69.6049 58.5422 69.6049C64.0709 69.6049 68.541 65.1015 68.541 59.5315C68.541 53.9615 64.0709 49.4581 58.5422 49.4581C53.0134 49.4581 48.5433 53.9615 48.5433 59.5315Z" fill="#DFDFDF"/>
<path d="M58.5426 69.9999C64.2675 69.9999 68.9336 65.299 68.9336 59.5315C68.9336 53.764 64.2675 49.0631 58.5426 49.0631C52.8178 49.0631 48.1517 53.764 48.1517 59.5315C48.1517 65.299 52.8178 69.9999 58.5426 69.9999ZM58.5426 49.8532C63.8361 49.8532 68.1494 54.1986 68.1494 59.5315C68.1494 64.8645 63.8361 69.2098 58.5426 69.2098C53.2491 69.2098 48.9359 64.8645 48.9359 59.5315C48.9359 54.1986 53.2491 49.8532 58.5426 49.8532Z" fill="#646464"/>
<path d="M51.7591 59.5315C51.7591 63.2843 54.7784 66.3656 58.5426 66.3656C62.2677 66.3656 65.3262 63.3238 65.3262 59.5315C65.3262 55.7787 62.3069 52.6974 58.5426 52.6974C54.7784 52.6974 51.7591 55.7787 51.7591 59.5315Z" fill="#DFDFDF"/>
<path d="M58.5431 66.7606C62.5034 66.7606 65.7188 63.5213 65.7188 59.5315C65.7188 55.5416 62.5034 52.3024 58.5431 52.3024C54.5828 52.3024 51.3675 55.5416 51.3675 59.5315C51.3675 63.5213 54.5828 66.7606 58.5431 66.7606ZM58.5431 53.0924C62.0721 53.0924 64.9345 55.9762 64.9345 59.5315C64.9345 63.0868 62.0721 65.9705 58.5431 65.9705C55.0141 65.9705 52.1517 63.0868 52.1517 59.5315C52.1517 55.9762 55.0141 53.0924 58.5431 53.0924Z" fill="#646464"/>
<path d="M53.0524 59.5315C53.0524 62.5733 55.4835 65.0225 58.5028 65.0225C61.522 65.0225 63.9531 62.5733 63.9531 59.5315C63.9531 56.4897 61.522 54.0405 58.5028 54.0405C55.4835 54.0405 53.0524 56.4897 53.0524 59.5315Z" fill="#DFDFDF"/>
<path d="M58.5423 65.4175C61.7576 65.4175 64.3848 62.7708 64.3848 59.5315C64.3848 56.2922 61.7576 53.6455 58.5423 53.6455C55.327 53.6455 52.6998 56.2922 52.6998 59.5315C52.6606 62.8103 55.2878 65.4175 58.5423 65.4175ZM58.5423 54.4356C61.3263 54.4356 63.6005 56.7268 63.6005 59.5315C63.6005 62.3363 61.3263 64.6275 58.5423 64.6275C55.7583 64.6275 53.4841 62.3363 53.4841 59.5315C53.4449 56.7268 55.7191 54.4356 58.5423 54.4356Z" fill="#646464"/>
<path d="M55.3667 59.5316C55.3667 61.2697 56.7783 62.6918 58.5036 62.6918C60.2289 62.6918 61.6797 61.2697 61.6797 59.5316C61.6797 57.7934 60.2681 56.3318 58.5036 56.3318C56.7783 56.3713 55.3667 57.7934 55.3667 59.5316Z" fill="#DFDFDF"/>
<path d="M58.5431 63.1263C60.5037 63.1263 62.1113 61.5067 62.1113 59.571C62.1113 57.5958 60.5037 55.9762 58.5431 55.9762C56.5826 55.9762 55.0141 57.5958 55.0141 59.571C54.9749 61.5067 56.5826 63.1263 58.5431 63.1263ZM58.5431 56.7663C60.0723 56.7663 61.3271 58.0304 61.3271 59.571C61.3271 61.1116 60.0723 62.3362 58.5431 62.3362C57.0139 62.3362 55.7983 61.0721 55.7983 59.571C55.7591 57.9909 57.0139 56.7663 58.5431 56.7663Z" fill="#646464"/>
<path d="M21.4086 59.5315C21.4086 65.1015 25.8786 69.6049 31.4074 69.6049C36.9362 69.6049 41.4062 65.1015 41.4062 59.5315C41.4062 53.9615 36.9362 49.4581 31.4074 49.4581C25.8786 49.4581 21.4086 53.9615 21.4086 59.5315Z" fill="#DFDFDF"/>
<path d="M31.4079 69.9999C37.1327 69.9999 41.7988 65.299 41.7988 59.5315C41.7988 53.764 37.1327 49.0631 31.4079 49.0631C25.6831 49.0631 21.0169 53.764 21.0169 59.5315C21.0169 65.299 25.6831 69.9999 31.4079 69.9999ZM31.4079 49.8532C36.7014 49.8532 41.0146 54.1986 41.0146 59.5315C41.0146 64.8645 36.7014 69.2098 31.4079 69.2098C26.1144 69.2098 21.8011 64.8645 21.8011 59.5315C21.8011 54.1986 26.1144 49.8532 31.4079 49.8532Z" fill="#646464"/>
<path d="M24.6244 59.5315C24.6244 63.2843 27.6436 66.3656 31.4079 66.3656C35.1329 66.3656 38.1914 63.3238 38.1914 59.5315C38.1914 55.7787 35.1722 52.6974 31.4079 52.6974C27.6828 52.6974 24.6244 55.7787 24.6244 59.5315Z" fill="#DFDFDF"/>
<path d="M31.4084 66.7606C35.3687 66.7606 38.584 63.5213 38.584 59.5315C38.584 55.5416 35.3687 52.3024 31.4084 52.3024C27.448 52.3024 24.2327 55.5416 24.2327 59.5315C24.2327 63.5213 27.448 66.7606 31.4084 66.7606ZM31.4084 53.0924C34.9374 53.0924 37.7998 55.9762 37.7998 59.5315C37.7998 63.0868 34.9374 65.9705 31.4084 65.9705C27.8793 65.9705 25.0169 63.0868 25.0169 59.5315C25.0169 55.9762 27.8793 53.0924 31.4084 53.0924Z" fill="#646464"/>
<path d="M25.9567 59.5315C25.9567 62.5733 28.3878 65.0225 31.4071 65.0225C34.4263 65.0225 36.8574 62.5733 36.8574 59.5315C36.8574 56.4897 34.4263 54.0405 31.4071 54.0405C28.3878 54.0405 25.9567 56.4897 25.9567 59.5315Z" fill="#DFDFDF"/>
<path d="M31.4075 65.4175C34.6229 65.4175 37.25 62.7708 37.25 59.5315C37.25 56.2922 34.6229 53.6455 31.4075 53.6455C28.1922 53.6455 25.5651 56.2922 25.5651 59.5315C25.5651 62.8103 28.1922 65.4175 31.4075 65.4175ZM31.4075 54.4356C34.1915 54.4356 36.4658 56.7268 36.4658 59.5315C36.4658 62.3363 34.1915 64.6275 31.4075 64.6275C28.6236 64.6275 26.3493 62.3363 26.3493 59.5315C26.3493 56.7268 28.6236 54.4356 31.4075 54.4356Z" fill="#646464"/>
<path d="M28.271 59.5316C28.271 61.2697 29.6826 62.6918 31.4079 62.6918C33.1332 62.6918 34.584 61.2697 34.584 59.5316C34.584 57.7934 33.1724 56.3318 31.4079 56.3318C29.6826 56.3713 28.271 57.7934 28.271 59.5316Z" fill="#DFDFDF"/>
<path d="M31.4083 63.1263C33.3689 63.1263 34.9766 61.5067 34.9766 59.571C34.9766 57.5958 33.3689 55.9762 31.4083 55.9762C29.4478 55.9762 27.8793 57.5958 27.8793 59.571C27.8793 61.5067 29.4478 63.1263 31.4083 63.1263ZM31.4083 56.7663C32.9376 56.7663 34.1923 58.0304 34.1923 59.571C34.1923 61.1116 32.9376 62.3362 31.4083 62.3362C29.8791 62.3362 28.6636 61.0721 28.6636 59.571C28.6636 57.9909 29.8791 56.7663 31.4083 56.7663Z" fill="#646464"/>
</g>
<defs>
<clipPath id="clip0_761_3903">
<rect width="169" height="70" fill="white" transform="matrix(-1 0 0 1 169 0)"/>
</clipPath>
</defs>
</svg>
