<svg width="156" height="70" viewBox="0 0 156 70" fill="none" xmlns="http://www.w3.org/2000/svg">
<g clip-path="url(#clip0_761_3792)">
<path d="M149.726 57.9584H153.689C154.726 57.9584 155.528 57.1151 155.528 56.1311V53.3667C155.528 52.3359 154.679 51.5394 153.689 51.5394H149.773V57.9584H149.726Z" fill="#DFDFDF"/>
<path d="M149.254 58.427H153.689C154.962 58.427 156 57.3962 156 56.1312V53.3668C156 52.1017 154.962 51.0709 153.689 51.0709H149.301V58.427H149.254ZM153.689 52.008C154.443 52.008 155.057 52.6171 155.057 53.3668V56.1312C155.057 56.8808 154.443 57.4899 153.689 57.4899H150.245V52.008H153.689Z" fill="#646464"/>
<path d="M5.18945 48.7283H2.31193C1.27413 48.7283 0.472187 49.5716 0.472187 50.5556V50.9304C0.472187 51.9612 1.32131 52.7577 2.31193 52.7577H5.18945V48.7283Z" fill="#DFDFDF"/>
<path d="M2.31189 53.2263H5.66113V48.2598H2.31189C1.03822 48.2598 0.000413418 49.2906 0.000413418 50.5556V50.9304C0.000413418 52.1955 1.03822 53.2263 2.31189 53.2263ZM4.71768 52.2892H2.31189C1.55712 52.2892 0.943867 51.6801 0.943867 50.9304V50.5556C0.943867 49.806 1.55712 49.1968 2.31189 49.1968H4.71768V52.2892Z" fill="#646464"/>
<path d="M153.688 51.5395H151.047V45.4016H151.802C152.839 45.4016 153.641 46.1981 153.641 47.2289V51.5395H153.688Z" fill="#DFDFDF"/>
<path d="M150.622 52.0081H154.16V47.229C154.16 46.6199 153.924 46.0576 153.5 45.5891C153.075 45.1674 152.462 44.9331 151.849 44.9331H150.622V52.0081ZM153.217 51.071H151.518V45.8702H151.849C152.226 45.8702 152.556 46.0108 152.839 46.2919C153.122 46.5261 153.264 46.901 153.264 47.2758V51.071H153.217Z" fill="#646464"/>
<path d="M15.8977 39.0294H98.9688V42.7777H15.8977V39.0294Z" fill="#DFDFDF"/>
<path d="M15.4731 43.2463H99.4404V38.5609H15.4259V43.2463H15.4731ZM98.497 42.3092H16.3694V39.498H98.497V42.3092Z" fill="#646464"/>
<path d="M4.48157 42.5903C16.9352 42.5903 101.799 42.5903 111.092 42.5903V57.6305C101.374 57.6305 73.3065 57.6305 71.4668 57.6305V57.5836C71.4668 49.8996 65.1928 43.6211 57.4093 43.6211C50.2391 43.6211 43.5877 49.0093 43.3518 57.6305H38.8233V57.5836C38.8233 49.9464 32.5493 43.6211 24.7658 43.6211C17.6427 43.6211 10.9442 49.0093 10.7084 57.6773H2.5475V44.4176C2.64185 43.3869 3.49094 42.5903 4.48157 42.5903Z" fill="#DFDFDF"/>
<path d="M2.16978 58.0991H11.2269V57.6305C11.4156 51.071 16.2272 44.0428 24.8127 44.0428C32.3131 44.0428 38.3984 50.087 38.3984 57.5368V58.0522H43.8704V57.5837C44.0591 51.0241 48.8707 44.0428 57.4561 44.0428C64.9566 44.0428 71.0419 50.087 71.0419 57.5368V58.0522H111.61V42.1218H4.5284C3.25475 42.1218 2.21695 43.1526 2.21695 44.4177V58.0991H2.16978ZM10.3307 57.162H3.11323V44.4177C3.11323 43.668 3.72647 43.0589 4.48123 43.0589H110.62V57.162H71.9381C71.7023 49.3842 65.2868 43.1526 57.409 43.1526C50.6633 43.1526 43.3987 48.0723 42.9269 57.162H39.2947C39.0588 49.3842 32.6433 43.1526 24.7655 43.1526C16.9348 43.1526 10.7552 49.1499 10.3307 57.162Z" fill="#646464"/>
<path d="M4.85912 29.3306H108.592V39.2636H4.85912V29.3306Z" fill="#DFDFDF"/>
<path d="M4.43452 39.7322H109.063V28.8621H4.38734V39.7322H4.43452ZM108.12 38.7951H5.3308V29.7991H108.12V38.7951Z" fill="#646464"/>
<path d="M2.45331 16.5863H108.592V26.5194H2.45331V16.5863Z" fill="#DFDFDF"/>
<path d="M1.98154 26.9879H109.063V16.1178H1.98154V26.9879ZM108.12 26.0509H2.925V17.0549H108.12V26.0509Z" fill="#646464"/>
<path d="M2.45331 3.84204H108.592V13.7751H2.45331V3.84204Z" fill="#DFDFDF"/>
<path d="M1.98154 14.2437H109.063V3.37354H1.98154V14.2437ZM108.12 13.3066H2.925V4.31062H108.12V13.3066Z" fill="#646464"/>
<path d="M77.929 40.435C76.8912 40.435 76.0893 39.5917 76.0893 38.6077V2.29582C76.0893 1.26503 76.9384 0.468506 77.929 0.468506H80.9952C82.033 0.468506 82.835 1.31188 82.835 2.29582V38.6077C82.835 39.6385 81.9859 40.435 80.9952 40.435H77.929Z" fill="#DFDFDF"/>
<path d="M77.929 40.9036H80.9952C82.2688 40.9036 83.3066 39.8728 83.3066 38.6078V2.29585C83.3066 1.03079 82.2688 0 80.9952 0H77.929C76.6553 0 75.6175 1.03079 75.6175 2.29585V38.6078C75.6175 39.8728 76.6553 40.9036 77.929 40.9036ZM80.9952 0.937082C81.7499 0.937082 82.3632 1.54618 82.3632 2.29585V38.6078C82.3632 39.3574 81.7499 39.9665 80.9952 39.9665H77.929C77.1742 39.9665 76.561 39.3574 76.561 38.6078V2.29585C76.561 1.54618 77.1742 0.937082 77.929 0.937082H80.9952Z" fill="#646464"/>
<path d="M103.78 40.435C102.742 40.435 101.94 39.5917 101.94 38.6077V2.29582C101.94 1.26503 102.789 0.468506 103.78 0.468506H106.846C107.884 0.468506 108.686 1.31188 108.686 2.29582V38.6077C108.686 39.6385 107.836 40.435 106.846 40.435H103.78Z" fill="#DFDFDF"/>
<path d="M103.78 40.9036H106.846C108.119 40.9036 109.157 39.8728 109.157 38.6078V2.29585C109.157 1.03079 108.119 0 106.846 0H103.78C102.506 0 101.468 1.03079 101.468 2.29585V38.6078C101.468 39.8728 102.506 40.9036 103.78 40.9036ZM106.846 0.937082C107.601 0.937082 108.214 1.54618 108.214 2.29585V38.6078C108.214 39.3574 107.601 39.9665 106.846 39.9665H103.78C103.025 39.9665 102.412 39.3574 102.412 38.6078V2.29585C102.412 1.54618 103.025 0.937082 103.78 0.937082H106.846Z" fill="#646464"/>
<path d="M52.0784 40.435C51.0406 40.435 50.2387 39.5917 50.2387 38.6077V2.29582C50.2387 1.26503 51.0878 0.468506 52.0784 0.468506H55.1446C56.1824 0.468506 56.9844 1.31188 56.9844 2.29582V38.6077C56.9844 39.6385 56.1353 40.435 55.1446 40.435H52.0784Z" fill="#DFDFDF"/>
<path d="M52.0784 40.9036H55.1446C56.4183 40.9036 57.4561 39.8728 57.4561 38.6078V2.29585C57.4561 1.03079 56.4183 0 55.1446 0H52.0784C50.8047 0 49.7669 1.03079 49.7669 2.29585V38.6078C49.7669 39.8728 50.8047 40.9036 52.0784 40.9036ZM55.1446 0.937082C55.8994 0.937082 56.5126 1.54618 56.5126 2.29585V38.6078C56.5126 39.3574 55.8994 39.9665 55.1446 39.9665H52.0784C51.3236 39.9665 50.7104 39.3574 50.7104 38.6078V2.29585C50.7104 1.54618 51.3236 0.937082 52.0784 0.937082H55.1446Z" fill="#646464"/>
<path d="M26.2278 40.435C25.19 40.435 24.3881 39.5917 24.3881 38.6077V2.29582C24.3881 1.26503 25.2372 0.468506 26.2278 0.468506H29.2941C30.3319 0.468506 31.1338 1.31188 31.1338 2.29582V38.6077C31.1338 39.6385 30.2847 40.435 29.2941 40.435H26.2278Z" fill="#DFDFDF"/>
<path d="M26.2278 40.9036H29.294C30.5677 40.9036 31.6055 39.8728 31.6055 38.6078V2.29585C31.6055 1.03079 30.5677 0 29.294 0H26.2278C24.9541 0 23.9163 1.03079 23.9163 2.29585V38.6078C23.9163 39.8728 24.9541 40.9036 26.2278 40.9036ZM29.294 0.937082C30.0488 0.937082 30.662 1.54618 30.662 2.29585V38.6078C30.662 39.3574 30.0488 39.9665 29.294 39.9665H26.2278C25.473 39.9665 24.8598 39.3574 24.8598 38.6078V2.29585C24.8598 1.54618 25.473 0.937082 26.2278 0.937082H29.294Z" fill="#646464"/>
<path d="M4.29229 40.435C3.25449 40.435 2.45256 39.5917 2.45256 38.6077V2.29582C2.45256 1.26503 3.30166 0.468506 4.29229 0.468506H7.35851C8.39631 0.468506 9.19824 1.31188 9.19824 2.29582V38.6077C9.19824 39.6385 8.34914 40.435 7.35851 40.435H4.29229Z" fill="#DFDFDF"/>
<path d="M4.29224 40.9036H7.35846C8.63213 40.9036 9.66992 39.8728 9.66992 38.6078V2.29585C9.66992 1.03079 8.63213 0 7.35846 0H4.29224C3.01858 0 1.98078 1.03079 1.98078 2.29585V38.6078C1.98078 39.8728 3.01858 40.9036 4.29224 40.9036ZM7.31129 0.937082C8.06605 0.937082 8.67931 1.54618 8.67931 2.29585V38.6078C8.67931 39.3574 8.06605 39.9665 7.31129 39.9665H4.24507C3.4903 39.9665 2.87706 39.3574 2.87706 38.6078V2.29585C2.87706 1.54618 3.4903 0.937082 4.24507 0.937082H7.31129Z" fill="#646464"/>
<path d="M0.612967 59.2235C0.612967 60.2543 1.46207 61.0508 2.4527 61.0508H5.94347C6.98127 61.0508 7.7832 60.2074 7.7832 59.2235V56.0843C7.7832 55.0535 6.9341 54.257 5.94347 54.257H2.4527C1.4149 54.257 0.612967 55.1003 0.612967 56.0843V59.2235Z" fill="#DFDFDF"/>
<path d="M2.45265 61.5194H5.94343C7.21709 61.5194 8.25488 60.4886 8.25488 59.2235V56.0843C8.25488 54.8192 7.21709 53.7885 5.94343 53.7885H2.45265C1.17899 53.7885 0.141193 54.8192 0.141193 56.0843V59.2235C0.141193 60.4886 1.17899 61.5194 2.45265 61.5194ZM5.94343 54.7255C6.69819 54.7255 7.31143 55.3346 7.31143 56.0843V59.2235C7.31143 59.9732 6.69819 60.5823 5.94343 60.5823H2.45265C1.69789 60.5823 1.08465 59.9732 1.08465 59.2235V56.0843C1.08465 55.3346 1.69789 54.7255 2.45265 54.7255H5.94343Z" fill="#646464"/>
<path d="M82.6937 60.2543C82.6937 61.2851 83.5428 62.0816 84.5334 62.0816H106.186C107.223 62.0816 108.025 61.2383 108.025 60.2543V47.4163C108.025 46.3855 107.176 45.589 106.186 45.589H84.5334C83.4956 45.589 82.6937 46.4324 82.6937 47.4163V60.2543Z" fill="#DFDFDF"/>
<path d="M84.5802 62.5971H106.232C107.506 62.5971 108.544 61.5663 108.544 60.3012V47.4632C108.544 46.1981 107.506 45.1674 106.232 45.1674H84.5802C83.3066 45.1674 82.2688 46.1981 82.2688 47.4632V60.3012C82.2216 61.5194 83.3066 62.5971 84.5802 62.5971ZM106.232 46.0576C106.987 46.0576 107.6 46.6667 107.6 47.4164V60.2544C107.6 61.004 106.987 61.6131 106.232 61.6131H84.5802C83.8255 61.6131 83.2122 61.004 83.2122 60.2544V47.4164C83.2122 46.6667 83.8255 46.0576 84.5802 46.0576H106.232Z" fill="#646464"/>
<path d="M87.7884 62.3159C87.7884 62.925 88.3073 63.4404 88.9206 63.4404C89.5338 63.4404 90.0527 62.925 90.0527 62.3159V45.6359C90.0527 45.0267 89.5338 44.5114 88.9206 44.5114C88.3073 44.5114 87.7884 45.0267 87.7884 45.6359V62.3159Z" fill="#DFDFDF"/>
<path d="M88.9674 63.909C89.8637 63.909 90.5713 63.2062 90.5713 62.3159V45.6359C90.5713 44.7457 89.8637 44.0428 88.9674 44.0428C88.0711 44.0428 87.3635 44.7457 87.3635 45.6359V62.3159C87.3164 63.2062 88.0711 63.909 88.9674 63.909ZM88.9674 44.9799C89.3448 44.9799 89.6278 45.2611 89.6278 45.6359V62.3159C89.6278 62.6908 89.3448 62.9719 88.9674 62.9719C88.59 62.9719 88.307 62.6908 88.307 62.3159V45.6359C88.2598 45.2611 88.59 44.9799 88.9674 44.9799Z" fill="#646464"/>
<path d="M94.2504 62.3159C94.2504 62.925 94.7693 63.4404 95.3825 63.4404C95.9957 63.4404 96.5146 62.925 96.5146 62.3159V45.6359C96.5146 45.0267 95.9957 44.5114 95.3825 44.5114C94.7693 44.5114 94.2504 45.0267 94.2504 45.6359V62.3159Z" fill="#DFDFDF"/>
<path d="M95.3825 63.909C96.2787 63.909 96.9863 63.2062 96.9863 62.3159V45.6359C96.9863 44.7457 96.2787 44.0428 95.3825 44.0428C94.4862 44.0428 93.7786 44.7457 93.7786 45.6359V62.3159C93.7786 63.2062 94.4862 63.909 95.3825 63.909ZM95.3825 44.9799C95.7598 44.9799 96.0429 45.2611 96.0429 45.6359V62.3159C96.0429 62.6908 95.7598 62.9719 95.3825 62.9719C95.0051 62.9719 94.722 62.6908 94.722 62.3159V45.6359C94.722 45.2611 95.0051 44.9799 95.3825 44.9799Z" fill="#646464"/>
<path d="M100.713 62.3159C100.713 62.925 101.232 63.4404 101.845 63.4404C102.459 63.4404 102.978 62.925 102.978 62.3159V45.6359C102.978 45.0267 102.459 44.5114 101.845 44.5114C101.232 44.5114 100.713 45.0267 100.713 45.6359V62.3159Z" fill="#DFDFDF"/>
<path d="M101.845 63.909C102.742 63.909 103.449 63.2062 103.449 62.3159V45.6359C103.449 44.7457 102.742 44.0428 101.845 44.0428C100.949 44.0428 100.241 44.7457 100.241 45.6359V62.3159C100.241 63.2062 100.949 63.909 101.845 63.909ZM101.845 44.9799C102.223 44.9799 102.506 45.2611 102.506 45.6359V62.3159C102.506 62.6908 102.223 62.9719 101.845 62.9719C101.468 62.9719 101.185 62.6908 101.185 62.3159V45.6359C101.185 45.2611 101.468 44.9799 101.845 44.9799Z" fill="#646464"/>
<path d="M117.413 57.5368C117.413 64.1432 122.79 69.4846 129.442 69.4846C136.093 69.4846 141.471 64.1432 141.471 57.5368C141.471 50.9304 136.093 45.589 129.442 45.589C122.79 45.589 117.413 50.9304 117.413 57.5368Z" fill="#DFDFDF"/>
<path d="M129.442 69.9531C136.329 69.9531 141.942 64.3775 141.942 57.5368C141.942 50.6961 136.329 45.1205 129.442 45.1205C122.554 45.1205 116.941 50.6961 116.941 57.5368C116.941 64.3775 122.554 69.9531 129.442 69.9531ZM129.442 46.0576C135.81 46.0576 140.999 51.2115 140.999 57.5368C140.999 63.8621 135.81 69.0161 129.442 69.0161C123.073 69.0161 117.884 63.8621 117.884 57.5368C117.884 51.2115 123.073 46.0576 129.442 46.0576Z" fill="#646464"/>
<path d="M121.281 57.5368C121.281 61.9879 124.913 65.6425 129.442 65.6425C133.923 65.6425 137.603 62.0348 137.603 57.5368C137.603 53.0857 133.97 49.431 129.442 49.431C124.913 49.431 121.281 53.0857 121.281 57.5368Z" fill="#DFDFDF"/>
<path d="M129.442 66.1111C134.206 66.1111 138.074 62.2691 138.074 57.5368C138.074 52.8046 134.206 48.9625 129.442 48.9625C124.677 48.9625 120.809 52.8046 120.809 57.5368C120.809 62.2691 124.677 66.1111 129.442 66.1111ZM129.442 49.8996C133.687 49.8996 137.131 53.32 137.131 57.5368C137.131 61.7537 133.687 65.174 129.442 65.174C125.196 65.174 121.752 61.7537 121.752 57.5368C121.752 53.32 125.196 49.8996 129.442 49.8996Z" fill="#646464"/>
<path d="M122.885 57.5368C122.885 61.1445 125.81 64.0495 129.442 64.0495C133.074 64.0495 135.999 61.1445 135.999 57.5368C135.999 53.929 133.074 51.024 129.442 51.024C125.81 51.024 122.885 53.929 122.885 57.5368Z" fill="#DFDFDF"/>
<path d="M129.442 64.5181C133.31 64.5181 136.471 61.3788 136.471 57.5368C136.471 53.6948 133.31 50.5555 129.442 50.5555C125.574 50.5555 122.413 53.6948 122.413 57.5368C122.413 61.3788 125.574 64.5181 129.442 64.5181ZM129.442 51.4926C132.791 51.4926 135.527 54.2102 135.527 57.5368C135.527 60.8634 132.791 63.581 129.442 63.581C126.093 63.581 123.357 60.8634 123.357 57.5368C123.357 54.2102 126.093 51.4926 129.442 51.4926Z" fill="#646464"/>
<path d="M125.621 57.5368C125.621 59.5983 127.319 61.2851 129.395 61.2851C131.47 61.2851 133.216 59.5983 133.216 57.5368C133.216 55.4752 131.518 53.7416 129.395 53.7416C127.319 53.7884 125.621 55.4752 125.621 57.5368Z" fill="#DFDFDF"/>
<path d="M129.442 61.8005C131.8 61.8005 133.734 59.8795 133.734 57.5837C133.734 55.2878 131.8 53.3199 129.442 53.3199C127.083 53.3199 125.196 55.241 125.196 57.5837C125.196 59.9264 127.083 61.8005 129.442 61.8005ZM129.442 54.257C131.281 54.257 132.791 55.7564 132.791 57.5837C132.791 59.411 131.281 60.8634 129.442 60.8634C127.602 60.8634 126.14 59.3641 126.14 57.5837C126.14 55.8032 127.602 54.257 129.442 54.257Z" fill="#646464"/>
<path d="M45.3804 57.5837C45.3804 64.1901 50.7581 69.5314 57.4094 69.5314C64.0608 69.5314 69.4385 64.1901 69.4385 57.5837C69.4385 50.9772 64.0608 45.6359 57.4094 45.6359C50.7581 45.6359 45.3804 50.9772 45.3804 57.5837Z" fill="#DFDFDF"/>
<path d="M57.4094 70C64.2966 70 69.9102 64.4244 69.9102 57.5837C69.9102 50.743 64.2966 45.1674 57.4094 45.1674C50.5222 45.1674 44.9086 50.743 44.9086 57.5837C44.9086 64.4244 50.5222 70 57.4094 70ZM57.4094 46.1044C63.7777 46.1044 68.9667 51.2584 68.9667 57.5837C68.9667 63.909 63.7777 69.0629 57.4094 69.0629C51.0411 69.0629 45.8521 63.909 45.8521 57.5837C45.8521 51.2584 51.0411 46.1044 57.4094 46.1044Z" fill="#646464"/>
<path d="M49.2486 57.5837C49.2486 62.0348 52.8809 65.6894 57.4094 65.6894C61.8908 65.6894 65.5703 62.0817 65.5703 57.5837C65.5703 53.1325 61.938 49.4779 57.4094 49.4779C52.928 49.4779 49.2486 53.0857 49.2486 57.5837Z" fill="#DFDFDF"/>
<path d="M57.4094 66.158C62.1738 66.158 66.042 62.316 66.042 57.5837C66.042 52.8514 62.1738 49.0094 57.4094 49.0094C52.645 49.0094 48.7768 52.8514 48.7768 57.5837C48.7768 62.316 52.645 66.158 57.4094 66.158ZM57.4094 49.9465C61.6549 49.9465 65.0985 53.3668 65.0985 57.5837C65.0985 61.8006 61.6549 65.2209 57.4094 65.2209C53.1639 65.2209 49.7202 61.8006 49.7202 57.5837C49.7202 53.3668 53.1639 49.9465 57.4094 49.9465Z" fill="#646464"/>
<path d="M50.8528 57.5837C50.8528 61.1915 53.7775 64.0964 57.4098 64.0964C61.0421 64.0964 63.9668 61.1915 63.9668 57.5837C63.9668 53.9759 61.0421 51.071 57.4098 51.071C53.7775 51.0241 50.8528 53.9759 50.8528 57.5837Z" fill="#DFDFDF"/>
<path d="M57.4098 64.5649C61.2779 64.5649 64.4385 61.4257 64.4385 57.5837C64.4385 53.7416 61.2779 50.6024 57.4098 50.6024C53.5416 50.6024 50.381 53.7416 50.381 57.5837C50.381 61.4257 53.5416 64.5649 57.4098 64.5649ZM57.4098 51.4926C60.759 51.4926 63.495 54.2102 63.495 57.5368C63.495 60.8635 60.759 63.581 57.4098 63.581C54.0605 63.581 51.3245 60.8635 51.3245 57.5368C51.3245 54.2102 54.0605 51.4926 57.4098 51.4926Z" fill="#646464"/>
<path d="M53.6357 57.5836C53.6357 59.6452 55.3339 61.332 57.4095 61.332C59.4851 61.332 61.2305 59.6452 61.2305 57.5836C61.2305 55.5221 59.5323 53.7885 57.4095 53.7885C55.3339 53.7885 53.6357 55.4752 53.6357 57.5836Z" fill="#DFDFDF"/>
<path d="M57.4094 61.8005C59.7681 61.8005 61.7021 59.8795 61.7021 57.5837C61.7021 55.241 59.7681 53.3199 57.4094 53.3199C55.0508 53.3199 53.1639 55.241 53.1639 57.5837C53.1639 59.9264 55.0508 61.8005 57.4094 61.8005ZM57.4094 54.257C59.2492 54.257 60.7587 55.7564 60.7587 57.5837C60.7587 59.411 59.2492 60.8634 57.4094 60.8634C55.5697 60.8634 54.1073 59.3641 54.1073 57.5837C54.1073 55.7564 55.5697 54.257 57.4094 54.257Z" fill="#646464"/>
<path d="M12.9722 57.5837C12.9722 64.1901 18.3499 69.5314 25.0012 69.5314C31.6526 69.5314 37.0303 64.1901 37.0303 57.5837C37.0303 50.9772 31.6526 45.6359 25.0012 45.6359C18.3499 45.6359 12.9722 50.9772 12.9722 57.5837Z" fill="#DFDFDF"/>
<path d="M25.0012 70C31.8884 70 37.502 64.4244 37.502 57.5837C37.502 50.743 31.8884 45.1674 25.0012 45.1674C18.114 45.1674 12.5004 50.743 12.5004 57.5837C12.5004 64.4244 18.114 70 25.0012 70ZM25.0012 46.1044C31.3695 46.1044 36.5585 51.2584 36.5585 57.5837C36.5585 63.909 31.3695 69.0629 25.0012 69.0629C18.6329 69.0629 13.4439 63.909 13.4439 57.5837C13.4439 51.2584 18.6329 46.1044 25.0012 46.1044Z" fill="#646464"/>
<path d="M16.8404 57.5837C16.8404 62.0348 20.4727 65.6894 25.0012 65.6894C29.4826 65.6894 33.1621 62.0817 33.1621 57.5837C33.1621 53.1325 29.5298 49.4779 25.0012 49.4779C20.5198 49.4779 16.8404 53.0857 16.8404 57.5837Z" fill="#DFDFDF"/>
<path d="M25.0012 66.158C29.7656 66.158 33.6338 62.316 33.6338 57.5837C33.6338 52.8514 29.7656 49.0094 25.0012 49.0094C20.2367 49.0094 16.3686 52.8514 16.3686 57.5837C16.3686 62.316 20.2367 66.158 25.0012 66.158ZM25.0012 49.9465C29.2467 49.9465 32.6903 53.3668 32.6903 57.5837C32.6903 61.8006 29.2467 65.2209 25.0012 65.2209C20.7556 65.2209 17.312 61.8006 17.312 57.5837C17.312 53.3668 20.7556 49.9465 25.0012 49.9465Z" fill="#646464"/>
<path d="M18.4446 57.5837C18.4446 61.1915 21.3693 64.0964 25.0016 64.0964C28.6339 64.0964 31.5586 61.1915 31.5586 57.5837C31.5586 53.9759 28.6339 51.071 25.0016 51.071C21.3693 51.0241 18.4446 53.9759 18.4446 57.5837Z" fill="#DFDFDF"/>
<path d="M25.0015 64.5649C28.8697 64.5649 32.0303 61.4257 32.0303 57.5837C32.0303 53.7416 28.8697 50.6024 25.0015 50.6024C21.1334 50.6024 17.9728 53.7416 17.9728 57.5837C17.9728 61.4257 21.1334 64.5649 25.0015 64.5649ZM25.0015 51.4926C28.3508 51.4926 31.0868 54.2102 31.0868 57.5368C31.0868 60.8635 28.3508 63.581 25.0015 63.581C21.6523 63.581 18.9163 60.8635 18.9163 57.5368C18.9163 54.2102 21.6523 51.4926 25.0015 51.4926Z" fill="#646464"/>
<path d="M21.2275 57.5836C21.2275 59.6452 22.9257 61.332 25.0013 61.332C27.0769 61.332 28.8223 59.6452 28.8223 57.5836C28.8223 55.5221 27.124 53.7885 25.0013 53.7885C22.9257 53.7885 21.2275 55.4752 21.2275 57.5836Z" fill="#DFDFDF"/>
<path d="M25.0012 61.8005C27.3599 61.8005 29.2939 59.8795 29.2939 57.5837C29.2939 55.241 27.3599 53.3199 25.0012 53.3199C22.6426 53.3199 20.7557 55.241 20.7557 57.5837C20.7557 59.9264 22.6426 61.8005 25.0012 61.8005ZM25.0012 54.257C26.841 54.257 28.3505 55.7564 28.3505 57.5837C28.3505 59.411 26.841 60.8634 25.0012 60.8634C23.1615 60.8634 21.6991 59.3641 21.6991 57.5837C21.6991 55.7564 23.1615 54.257 25.0012 54.257Z" fill="#646464"/>
<path d="M115.668 53.6948H115.762C115.385 54.9599 115.196 56.2718 115.196 57.6305C112.554 57.6305 116.375 57.6305 111.281 57.6305V9.79252C111.281 8.76173 112.13 7.96521 113.121 7.96521H141.518C142.603 7.96521 143.594 8.66802 143.971 9.69881L149.868 26.2852L151.283 29.7992V57.9585H143.5C143.453 56.5997 143.358 54.7256 143.028 53.4137C141.66 47.8849 135.575 43.5743 129.206 43.5743C122.649 43.5743 117.366 47.9786 115.715 53.6479H115.668V53.6948Z" fill="#DFDFDF"/>
<path d="M143.075 58.4271H151.755V29.7055L150.293 26.1446L144.396 9.55828C143.971 8.34008 142.792 7.4967 141.471 7.4967H113.073C111.8 7.4967 110.762 8.52749 110.762 9.79255V58.0991H111.234L112.696 57.6306L111.705 57.3026V9.79255C111.705 9.04289 112.319 8.43379 113.073 8.43379H141.518C142.415 8.43379 143.217 8.99603 143.547 9.83941L149.443 26.4258L150.811 29.893V57.49H143.971C143.924 56.3187 143.83 54.5851 143.5 53.32C142.084 47.6038 135.811 43.1527 129.206 43.1527C122.697 43.1527 117.083 47.3227 115.243 53.6011C114.913 54.7725 114.724 55.9907 114.677 57.2089H114.111V58.146H115.621V57.6774C115.621 56.4124 115.809 55.1473 116.14 53.8822C117.885 47.9786 123.121 44.0429 129.206 44.0429C135.386 44.0429 141.235 48.2129 142.556 53.5074C142.934 54.9599 143.028 57.0683 143.028 57.9586L143.075 58.4271Z" fill="#646464"/>
<path d="M118.64 16.2115C118.64 15.1807 119.489 14.3842 120.48 14.3842H139.018C140.103 14.3842 141.141 15.087 141.519 16.1178L145.151 26.0508C145.481 26.8942 144.821 27.7844 143.924 27.7844H120.48C119.442 27.7844 118.64 26.9411 118.64 25.9571V16.2115Z" fill="#DFDFDF"/>
<path d="M120.48 28.2061H143.924C144.49 28.2061 145.057 27.925 145.387 27.4565C145.717 26.9879 145.811 26.3788 145.623 25.8634L141.943 15.9304C141.519 14.7122 140.339 13.9156 139.018 13.9156H120.48C119.206 13.9156 118.168 14.9464 118.168 16.2115V25.9103C118.168 27.1754 119.206 28.2061 120.48 28.2061ZM139.018 14.8527C139.915 14.8527 140.764 15.415 141.047 16.2584L144.679 26.1446C144.773 26.3788 144.726 26.66 144.585 26.8942C144.443 27.1285 144.16 27.2222 143.924 27.2222H120.48C119.725 27.2222 119.112 26.6131 119.112 25.8634V16.2115C119.112 15.4618 119.725 14.8527 120.48 14.8527H139.018Z" fill="#646464"/>
<path d="M118.546 30.9236C118.546 31.767 119.206 32.423 120.055 32.423H123.121C123.97 32.423 124.631 31.767 124.631 30.9236C124.631 30.0803 123.97 29.4243 123.121 29.4243H120.055C119.206 29.4243 118.546 30.1271 118.546 30.9236Z" fill="#DFDFDF"/>
<path d="M120.055 32.9384H123.121C124.206 32.9384 125.103 32.0482 125.103 30.9706C125.103 29.8929 124.206 29.0027 123.121 29.0027H120.055C118.97 29.0027 118.074 29.8929 118.074 30.9706C118.074 32.0482 118.97 32.9384 120.055 32.9384ZM123.121 29.8929C123.687 29.8929 124.159 30.3615 124.159 30.9237C124.159 31.486 123.687 31.9545 123.121 31.9545H120.055C119.489 31.9545 119.017 31.486 119.017 30.9237C119.017 30.3615 119.489 29.8929 120.055 29.8929H123.121Z" fill="#646464"/>
<path d="M146.424 52.664H146.943C148.406 52.664 149.585 51.4927 149.585 50.0402V29.7055L149.538 29.6118L144.113 14.0562C143.641 12.6975 142.368 11.8073 140.905 11.8073H118.026C116.564 11.8073 115.385 12.9786 115.385 14.4311V39.5917C115.385 41.0442 116.564 42.2155 118.026 42.2155H130.197C135.811 42.2155 141.33 45.6828 143.311 50.4619C143.83 51.8206 145.056 52.664 146.424 52.664ZM148.642 29.8929V50.0402C148.642 50.9773 147.887 51.7269 146.943 51.7269H146.424C145.481 51.7269 144.585 51.071 144.16 50.1339C142.085 45.0268 136.188 41.2785 130.197 41.2785H118.026C117.083 41.2785 116.328 40.5288 116.328 39.5917V14.4311C116.328 13.494 117.083 12.7443 118.026 12.7443H140.905C141.943 12.7443 142.886 13.4003 143.217 14.3842L148.642 29.8929Z" fill="#646464"/>
</g>
<defs>
<clipPath id="clip0_761_3792">
<rect width="156" height="70" fill="white" transform="matrix(-1 0 0 1 156 0)"/>
</clipPath>
</defs>
</svg>
