<svg width="250" height="70" viewBox="0 0 250 70" fill="none" xmlns="http://www.w3.org/2000/svg">
<g clip-path="url(#clip0_761_3347)">
<path d="M219.554 60.1435C219.554 65.3879 223.818 69.6281 229.092 69.6281C234.366 69.6281 238.63 65.3879 238.63 60.1435C238.63 54.8991 234.366 50.6589 229.092 50.6589C223.818 50.6589 219.554 54.8991 219.554 60.1435Z" fill="#DFDFDF"/>
<path d="M229.092 70.0001C234.553 70.0001 239.004 65.5739 239.004 60.1435C239.004 54.7131 234.553 50.287 229.092 50.287C223.631 50.287 219.18 54.7131 219.18 60.1435C219.18 65.5739 223.594 70.0001 229.092 70.0001ZM229.092 51.0309C234.142 51.0309 238.256 55.1223 238.256 60.1435C238.256 65.1648 234.142 69.2562 229.092 69.2562C224.043 69.2562 219.929 65.1648 219.929 60.1435C219.929 55.1223 224.005 51.0309 229.092 51.0309Z" fill="#646464"/>
<path d="M222.621 60.1435C222.621 63.677 225.501 66.5782 229.092 66.5782C232.645 66.5782 235.562 63.7142 235.562 60.1435C235.562 56.61 232.682 53.7089 229.092 53.7089C225.501 53.7089 222.621 56.61 222.621 60.1435Z" fill="#DFDFDF"/>
<path d="M229.092 66.9501C232.869 66.9501 235.937 63.9001 235.937 60.1435C235.937 56.3869 232.869 53.3369 229.092 53.3369C225.314 53.3369 222.247 56.3869 222.247 60.1435C222.247 63.9001 225.314 66.9501 229.092 66.9501ZM229.092 54.0808C232.458 54.0808 235.188 56.796 235.188 60.1435C235.188 63.491 232.458 66.2062 229.092 66.2062C225.726 66.2062 222.995 63.491 222.995 60.1435C222.995 56.796 225.726 54.0808 229.092 54.0808Z" fill="#646464"/>
<path d="M223.856 60.1435C223.856 63.0075 226.175 65.3136 229.055 65.3136C231.935 65.3136 234.254 63.0075 234.254 60.1435C234.254 57.2796 231.935 54.9735 229.055 54.9735C226.212 54.9735 223.856 57.2796 223.856 60.1435Z" fill="#DFDFDF"/>
<path d="M229.092 65.6855C232.159 65.6855 234.665 63.1935 234.665 60.1435C234.665 57.0936 232.159 54.6016 229.092 54.6016C226.025 54.6016 223.519 57.0936 223.519 60.1435C223.519 63.1935 225.988 65.6855 229.092 65.6855ZM229.092 55.3455C231.748 55.3455 233.917 57.5027 233.917 60.1435C233.917 62.7843 231.748 64.9416 229.092 64.9416C226.436 64.9416 224.267 62.7843 224.267 60.1435C224.267 57.5027 226.399 55.3455 229.092 55.3455Z" fill="#646464"/>
<path d="M226.063 60.1435C226.063 61.78 227.41 63.119 229.055 63.119C230.701 63.119 232.085 61.78 232.085 60.1435C232.085 58.5069 230.738 57.1307 229.055 57.1307C227.41 57.1679 226.063 58.5069 226.063 60.1435Z" fill="#DFDFDF"/>
<path d="M229.092 63.5282C230.963 63.5282 232.496 62.0032 232.496 60.1807C232.496 58.321 230.963 56.796 229.092 56.796C227.222 56.796 225.726 58.321 225.726 60.1807C225.689 62.0032 227.222 63.5282 229.092 63.5282ZM229.092 57.5399C230.551 57.5399 231.748 58.7301 231.748 60.1807C231.748 61.6313 230.551 62.7843 229.092 62.7843C227.634 62.7843 226.474 61.5941 226.474 60.1807C226.437 58.6929 227.634 57.5399 229.092 57.5399Z" fill="#646464"/>
<path d="M248.69 51.9235C248.69 52.7418 248.017 53.3741 247.232 53.3741H246.596V48.5016H247.232C248.055 48.5016 248.69 49.1339 248.69 49.9522V51.9235Z" fill="#DFDFDF"/>
<path d="M246.222 53.746H247.232C248.242 53.746 249.064 52.9277 249.064 51.9235V49.9522C249.064 49.4686 248.877 49.0223 248.541 48.6504C248.204 48.3156 247.718 48.1296 247.232 48.1296H246.259V53.746H246.222ZM247.232 48.8735C247.531 48.8735 247.793 48.9851 248.017 49.2083C248.242 49.4314 248.354 49.6918 248.354 49.9894V51.9607C248.354 52.5558 247.868 53.0393 247.269 53.0393H247.007V48.9107L247.232 48.8735Z" fill="#646464"/>
<path d="M245.437 59.9576C245.437 60.3667 245.773 60.7015 246.185 60.7015H248.841C249.289 60.7015 249.626 60.3295 249.626 59.9204V54.7876C249.626 54.3412 249.252 54.0065 248.841 54.0065H246.185C245.773 54.0065 245.437 54.3412 245.437 54.7504V59.9576Z" fill="#DFDFDF"/>
<path d="M246.185 61.0362H248.841C249.476 61.0362 250 60.5155 250 59.8832V54.7503C250 54.118 249.476 53.5973 248.841 53.5973H246.185C245.586 53.5973 245.063 54.0808 245.063 54.7131V59.9575C245.063 60.5527 245.549 61.0362 246.185 61.0362ZM248.841 54.3412C249.065 54.3412 249.252 54.5271 249.252 54.7503V59.8832C249.252 60.1063 249.065 60.2923 248.841 60.2923H246.185C245.998 60.2923 245.811 60.1435 245.811 59.9204V54.6759C245.811 54.49 245.961 54.304 246.185 54.304H248.841V54.3412Z" fill="#646464"/>
<path d="M134.164 45.5632H184.508V48.6132H134.164V45.5632Z" fill="#DFDFDF"/>
<path d="M133.827 48.9851H184.882V45.1913H133.79V48.9851H133.827ZM184.134 48.2412H134.538V45.9352H184.134V48.2412Z" fill="#646464"/>
<path d="M18.29 45.3401H92.123V48.6132H18.29V45.3401Z" fill="#DFDFDF"/>
<path d="M17.9534 48.9851H92.4971V44.9681H17.916V48.9851H17.9534ZM91.749 48.2413H18.664V45.712H91.749V48.2413Z" fill="#646464"/>
<path d="M125.673 53.2253H123.391C122.568 53.2253 121.933 53.8948 121.933 54.6759V54.9735C121.933 55.7918 122.606 56.4241 123.391 56.4241H125.673V53.2253Z" fill="#DFDFDF"/>
<path d="M123.391 56.796H126.047V52.8534H123.391C122.381 52.8534 121.559 53.6717 121.559 54.6759V54.9735C121.559 55.9777 122.381 56.796 123.391 56.796ZM125.299 56.0521H123.391C122.793 56.0521 122.307 55.5686 122.307 54.9735V54.6759C122.307 54.0808 122.793 53.5973 123.391 53.5973H125.299V56.0521Z" fill="#646464"/>
<path d="M125.113 48.3528C134.987 48.3528 197.113 48.3528 204.481 48.3528V60.2922C196.776 60.2922 179.683 60.2922 178.225 60.2922V60.255C178.225 54.1551 173.25 49.1711 167.079 49.1711C161.393 49.1711 156.12 53.4484 155.933 60.2922H152.342V60.255C152.342 54.1923 147.367 49.1711 141.196 49.1711C135.548 49.1711 130.237 53.4484 130.05 60.3294H125.075C124.253 60.3294 123.617 59.6599 123.617 58.8788V49.8406C123.654 49.0223 124.327 48.3528 125.113 48.3528Z" fill="#DFDFDF"/>
<path d="M125.113 60.7013H130.461V60.3294C130.611 55.1222 134.426 49.543 141.233 49.543C147.18 49.543 152.005 54.3411 152.005 60.255V60.6642H156.344V60.2922C156.493 55.085 160.308 49.543 167.116 49.543C173.063 49.543 177.888 54.3411 177.888 60.255V60.6642H204.893V47.9808H125.15C124.14 47.9808 123.317 48.7991 123.317 49.8034V58.8416C123.28 59.8459 124.103 60.7013 125.113 60.7013ZM129.75 59.9575H125.113C124.514 59.9575 124.028 59.4739 124.028 58.8788V49.8406C124.028 49.2454 124.514 48.7619 125.113 48.7619H204.107V59.9575H178.598C178.411 53.7832 173.325 48.8363 167.078 48.8363C161.73 48.8363 155.97 52.7417 155.596 59.9575H152.716C152.529 53.7832 147.442 48.8363 141.196 48.8363C134.987 48.7991 130.087 53.56 129.75 59.9575Z" fill="#646464"/>
<path d="M226.997 20.8289H206.575V12.5345C206.575 11.7534 207.248 11.1211 208.034 11.1955L216.262 12.237C217.198 12.3114 218.095 12.7205 218.731 13.4272L226.997 20.8289Z" fill="#DFDFDF"/>
<path d="M206.164 21.2008H227.97L218.956 13.1296C218.282 12.3857 217.31 11.9394 216.263 11.865L208.071 10.8236C207.585 10.7864 207.099 10.9352 206.725 11.2699C206.388 11.6047 206.164 12.051 206.164 12.5345V21.2008ZM226.025 20.4569H206.949V12.5345C206.949 12.2742 207.062 12.0138 207.249 11.8278C207.436 11.6419 207.697 11.5675 207.997 11.5675L216.188 12.6089C217.048 12.6833 217.834 13.0552 218.432 13.6875L226.025 20.4569Z" fill="#646464"/>
<path d="M218.358 57.1679H218.432C218.133 58.1721 217.984 59.2136 217.984 60.2922C215.889 60.2922 208.595 60.2922 204.519 60.2922V22.3167C204.519 21.4984 205.192 20.8661 205.977 20.8661H238.854C239.715 20.8661 240.5 21.424 240.799 22.2423L245.475 35.4091L246.597 38.1987V60.5526H240.463C240.425 59.474 240.35 57.9862 240.089 56.9447C239.004 52.5558 234.179 49.1339 229.13 49.1339C223.931 49.1339 219.742 52.6302 218.432 57.1307H218.358V57.1679Z" fill="#DFDFDF"/>
<path d="M240.089 60.9245H246.971V38.1243L245.811 35.2975L241.136 22.1307C240.799 21.1636 239.864 20.4941 238.817 20.4941H205.94C204.93 20.4941 204.107 21.3124 204.107 22.3167V60.6642H218.32V60.2922C218.32 59.288 218.47 58.2837 218.732 57.2795C220.078 52.6674 224.23 49.543 229.055 49.543C233.955 49.543 238.592 52.8533 239.64 57.0563C239.939 58.2093 240.014 59.8831 240.014 60.5898L240.089 60.9245ZM246.223 60.1806H240.799C240.762 59.2508 240.687 57.8746 240.425 56.8703C239.303 52.3326 234.329 48.7991 229.092 48.7991C223.931 48.7991 219.48 52.1094 218.021 57.0935C217.759 58.0234 217.61 58.9904 217.572 59.9575H204.855V22.3167C204.855 21.7216 205.341 21.238 205.94 21.238H238.854C239.565 21.238 240.201 21.6844 240.463 22.3539L245.138 35.5579L246.223 38.2731V60.1806Z" fill="#646464"/>
<path d="M220.377 26.9287C220.377 26.1105 221.05 25.4781 221.836 25.4781H236.535C237.395 25.4781 238.218 26.0361 238.517 26.8543L241.397 34.7024C241.659 35.3719 241.135 36.0786 240.425 36.0786H221.836C221.013 36.0786 220.377 35.4091 220.377 34.628V26.9287Z" fill="#DFDFDF"/>
<path d="M221.836 36.4505H240.425C240.874 36.4505 241.323 36.2273 241.584 35.8554C241.846 35.4835 241.921 34.9999 241.771 34.5908L238.891 26.7056C238.555 25.7385 237.62 25.1062 236.572 25.1062H221.873C220.863 25.1062 220.04 25.9245 220.04 26.9287V34.5908C220.003 35.6322 220.826 36.4505 221.836 36.4505ZM236.535 25.8129C237.246 25.8129 237.919 26.2592 238.143 26.9287L241.023 34.814C241.098 34.9999 241.061 35.2231 240.949 35.4091C240.836 35.595 240.612 35.6694 240.425 35.6694H221.836C221.237 35.6694 220.751 35.1859 220.751 34.5908V26.9287C220.751 26.3336 221.237 25.8501 221.836 25.8501H236.535V25.8129Z" fill="#646464"/>
<path d="M220.303 38.6078C220.303 39.2773 220.827 39.798 221.5 39.798H223.931C224.604 39.798 225.128 39.2773 225.128 38.6078C225.128 37.9383 224.604 37.4176 223.931 37.4176H221.5C220.864 37.4176 220.303 37.9383 220.303 38.6078Z" fill="#DFDFDF"/>
<path d="M221.5 40.17H223.931C224.791 40.17 225.502 39.4633 225.502 38.6078C225.502 37.7524 224.791 37.0457 223.931 37.0457H221.5C220.64 37.0457 219.929 37.7524 219.929 38.6078C219.929 39.4633 220.64 40.17 221.5 40.17ZM223.931 37.7895C224.38 37.7895 224.754 38.1615 224.754 38.6078C224.754 39.0542 224.38 39.4261 223.931 39.4261H221.5C221.051 39.4261 220.677 39.0542 220.677 38.6078C220.677 38.1615 221.051 37.7895 221.5 37.7895H223.931Z" fill="#646464"/>
<path d="M242.407 55.866H242.819C243.978 55.866 244.913 54.9362 244.913 53.7831V37.6407L244.876 37.5664L240.537 25.1806C240.163 24.102 239.153 23.3953 237.994 23.3953H219.853C218.694 23.3953 217.759 24.3251 217.759 25.4782V45.4516C217.759 46.6046 218.694 47.5345 219.853 47.5345H229.578C234.029 47.5345 238.405 50.2869 239.976 54.0807C240.387 55.1965 241.36 55.866 242.407 55.866ZM244.165 37.7523V53.746C244.165 54.4898 243.567 55.085 242.819 55.085H242.407C241.659 55.085 240.948 54.5642 240.612 53.8203C238.966 49.7661 234.291 46.8278 229.541 46.8278H219.891C219.143 46.8278 218.544 46.2327 218.544 45.4888V25.5153C218.544 24.7715 219.143 24.1763 219.891 24.1763H238.031C238.854 24.1763 239.602 24.6971 239.864 25.4782L244.165 37.7523Z" fill="#646464"/>
<path d="M208.446 25.4409H214.393C215.216 25.4409 215.852 26.1104 215.852 26.8915V34.5908C215.852 35.409 215.178 36.0413 214.393 36.0413H208.446C207.623 36.0413 206.987 35.3718 206.987 34.5908V26.9287C206.987 26.1104 207.66 25.4409 208.446 25.4409Z" fill="#DFDFDF"/>
<path d="M208.446 36.4505H214.393C215.403 36.4505 216.226 35.6322 216.226 34.628V26.9287C216.226 25.9245 215.403 25.1062 214.393 25.1062H208.446C207.436 25.1062 206.613 25.9245 206.613 26.9287V34.5908C206.613 35.6322 207.436 36.4505 208.446 36.4505ZM214.393 25.8129C214.991 25.8129 215.478 26.2964 215.478 26.8915V34.5908C215.478 35.1859 214.991 35.6694 214.393 35.6694H208.446C207.847 35.6694 207.361 35.1859 207.361 34.5908V26.9287C207.361 26.3336 207.847 25.8501 208.446 25.8501H214.393V25.8129Z" fill="#646464"/>
<path d="M1.90768 46.1211H199.731C200.778 46.1211 201.676 45.2657 201.676 44.187V1.93411C201.676 0.892667 200.816 0 199.731 0H1.90768C0.860413 0 -0.037262 0.855473 -0.037262 1.93411V44.2242C0.000152588 45.2657 0.860413 46.1211 1.90768 46.1211ZM199.731 0.743889C200.367 0.743889 200.928 1.26461 200.928 1.93411V44.2242C200.928 44.8565 200.404 45.4145 199.731 45.4145H1.90768C1.27185 45.4145 0.7108 44.8937 0.7108 44.2242V1.93411C0.7108 1.30181 1.23444 0.743889 1.90768 0.743889H199.731Z" fill="#646464"/>
<path d="M3.89017 44.0011H197.749C198.721 44.0011 199.544 43.22 199.544 42.2158V3.90545C199.544 2.9384 198.758 2.12012 197.749 2.12012H3.89017C2.91771 2.12012 2.09482 2.9012 2.09482 3.90545V42.253C2.09482 43.22 2.91771 44.0011 3.89017 44.0011ZM197.749 2.86401C198.31 2.86401 198.796 3.31034 198.796 3.90545V42.253C198.796 42.8109 198.347 43.2944 197.749 43.2944H3.89017C3.32913 43.2944 2.84288 42.8481 2.84288 42.253V3.90545C2.84288 3.34753 3.29173 2.86401 3.89017 2.86401H197.749Z" fill="#646464"/>
<path d="M188.698 37.3432C188.698 38.1615 189.371 38.7938 190.156 38.7938C190.979 38.7938 191.652 38.1615 191.652 37.3432V8.51748C191.652 7.6992 190.979 7.06689 190.194 7.06689C189.371 7.06689 188.698 7.6992 188.698 8.51748V37.3432Z" fill="#DFDFDF"/>
<path d="M190.193 39.1657C191.203 39.1657 192.063 38.3474 192.063 37.3432V8.51748C192.063 7.51322 191.241 6.69495 190.231 6.69495C189.221 6.69495 188.361 7.51322 188.361 8.51748V37.3432C188.323 38.3474 189.146 39.1657 190.193 39.1657ZM190.193 7.43884C190.792 7.43884 191.278 7.92236 191.278 8.51748V37.3432C191.278 37.9383 190.792 38.4218 190.156 38.4218C189.557 38.4218 189.071 37.9383 189.071 37.3432V8.51748C189.071 7.92236 189.595 7.43884 190.193 7.43884Z" fill="#646464"/>
<path d="M27.7903 37.3432C27.7903 38.1615 28.4635 38.7938 29.249 38.7938C30.0719 38.7938 30.7451 38.1615 30.7451 37.3432V8.51748C30.7451 7.6992 30.0719 7.06689 29.2864 7.06689C28.4636 7.06689 27.7903 7.6992 27.7903 8.51748V37.3432Z" fill="#DFDFDF"/>
<path d="M29.249 39.1657C30.2589 39.1657 31.1191 38.3474 31.1191 37.3432V8.51748C31.1191 7.51322 30.2963 6.69495 29.2864 6.69495C28.2765 6.69495 27.4163 7.51322 27.4163 8.51748V37.3432C27.4163 38.3474 28.2391 39.1657 29.249 39.1657ZM29.2864 7.43884C29.8849 7.43884 30.3711 7.92236 30.3711 8.51748V37.3432C30.3711 37.9383 29.8848 38.4218 29.249 38.4218C28.6506 38.4218 28.1643 37.9383 28.1643 37.3432V8.51748C28.1643 7.92236 28.688 7.43884 29.2864 7.43884Z" fill="#646464"/>
<path d="M11.7073 37.3432C11.7073 38.1615 12.3805 38.7938 13.166 38.7938C13.9889 38.7938 14.6621 38.1615 14.6621 37.3432V8.51748C14.6621 7.6992 13.9889 7.06689 13.2034 7.06689C12.3806 7.06689 11.7073 7.6992 11.7073 8.51748V37.3432Z" fill="#DFDFDF"/>
<path d="M13.166 39.1657C14.1759 39.1657 15.0361 38.3474 15.0361 37.3432V8.51748C15.0361 7.51322 14.2133 6.69495 13.2034 6.69495C12.1935 6.69495 11.3333 7.51322 11.3333 8.51748V37.3432C11.3333 38.3474 12.1561 39.1657 13.166 39.1657ZM13.2034 7.43884C13.8019 7.43884 14.2881 7.92236 14.2881 8.51748V37.3432C14.2881 37.9383 13.8018 38.4218 13.166 38.4218C12.5676 38.4218 12.0813 37.9383 12.0813 37.3432V8.51748C12.0813 7.92236 12.5676 7.43884 13.2034 7.43884Z" fill="#646464"/>
<path d="M43.8733 37.3432C43.8733 38.1615 44.5466 38.7938 45.332 38.7938C46.1549 38.7938 46.8281 38.1615 46.8281 37.3432V8.51748C46.8281 7.6992 46.1549 7.06689 45.3694 7.06689C44.5466 7.06689 43.8733 7.6992 43.8733 8.51748V37.3432Z" fill="#DFDFDF"/>
<path d="M45.3691 39.1657C46.379 39.1657 47.2393 38.3474 47.2393 37.3432V8.51748C47.2393 7.51322 46.4164 6.69495 45.4065 6.69495C44.3966 6.69495 43.5364 7.51322 43.5364 8.51748V37.3432C43.499 38.3474 44.3218 39.1657 45.3691 39.1657ZM45.3691 7.43884C45.9676 7.43884 46.4538 7.92236 46.4538 8.51748V37.3432C46.4538 37.9383 45.9676 38.4218 45.3317 38.4218C44.7333 38.4218 44.247 37.9383 44.247 37.3432V8.51748C44.247 7.92236 44.7707 7.43884 45.3691 7.43884Z" fill="#646464"/>
<path d="M59.9944 37.3432C59.9944 38.1615 60.6677 38.7938 61.4531 38.7938C62.276 38.7938 62.9492 38.1615 62.9492 37.3432V8.51748C62.9492 7.6992 62.276 7.06689 61.4905 7.06689C60.6677 7.06689 59.9944 7.6992 59.9944 8.51748V37.3432Z" fill="#DFDFDF"/>
<path d="M61.4531 39.1657C62.463 39.1657 63.3232 38.3474 63.3232 37.3432V8.51748C63.3232 7.51322 62.5004 6.69495 61.4905 6.69495C60.4806 6.69495 59.6204 7.51322 59.6204 8.51748V37.3432C59.6204 38.3474 60.4432 39.1657 61.4531 39.1657ZM61.4531 7.43884C62.0515 7.43884 62.5378 7.92236 62.5378 8.51748V37.3432C62.5378 37.9383 62.0515 38.4218 61.4157 38.4218C60.8173 38.4218 60.331 37.9383 60.331 37.3432V8.51748C60.3684 7.92236 60.8547 7.43884 61.4531 7.43884Z" fill="#646464"/>
<path d="M76.0774 37.3432C76.0774 38.1615 76.7507 38.7938 77.5361 38.7938C78.359 38.7938 79.0322 38.1615 79.0322 37.3432V8.51748C79.0322 7.6992 78.359 7.06689 77.5735 7.06689C76.7507 7.06689 76.0774 7.6992 76.0774 8.51748V37.3432Z" fill="#DFDFDF"/>
<path d="M77.5361 39.1657C78.546 39.1657 79.4062 38.3474 79.4062 37.3432V8.51748C79.4062 7.51322 78.5834 6.69495 77.5735 6.69495C76.5636 6.69495 75.7034 7.51322 75.7034 8.51748V37.3432C75.7034 38.3474 76.5262 39.1657 77.5361 39.1657ZM77.5735 7.43884C78.172 7.43884 78.6582 7.92236 78.6582 8.51748V37.3432C78.6582 37.9383 78.172 38.4218 77.5361 38.4218C76.9377 38.4218 76.4514 37.9383 76.4514 37.3432V8.51748C76.4514 7.92236 76.9377 7.43884 77.5735 7.43884Z" fill="#646464"/>
<path d="M92.1604 37.3432C92.1604 38.1615 92.8337 38.7938 93.6191 38.7938C94.442 38.7938 95.1152 38.1615 95.1152 37.3432V8.51748C95.1152 7.6992 94.442 7.06689 93.6565 7.06689C92.8337 7.06689 92.1604 7.6992 92.1604 8.51748V37.3432Z" fill="#DFDFDF"/>
<path d="M93.6191 39.1657C94.629 39.1657 95.4893 38.3474 95.4893 37.3432V8.51748C95.4893 7.51322 94.6664 6.69495 93.6565 6.69495C92.6467 6.69495 91.7864 7.51322 91.7864 8.51748V37.3432C91.7864 38.3474 92.6092 39.1657 93.6191 39.1657ZM93.6565 7.43884C94.255 7.43884 94.7412 7.92236 94.7412 8.51748V37.3432C94.7412 37.9383 94.255 38.4218 93.6191 38.4218C93.0207 38.4218 92.5344 37.9383 92.5344 37.3432V8.51748C92.5344 7.92236 93.0207 7.43884 93.6565 7.43884Z" fill="#646464"/>
<path d="M108.243 37.3432C108.243 38.1615 108.917 38.7938 109.702 38.7938C110.525 38.7938 111.198 38.1615 111.198 37.3432V8.51748C111.198 7.6992 110.525 7.06689 109.74 7.06689C108.917 7.06689 108.243 7.6992 108.243 8.51748V37.3432Z" fill="#DFDFDF"/>
<path d="M109.702 39.1657C110.712 39.1657 111.572 38.3474 111.572 37.3432V8.51748C111.572 7.51322 110.749 6.69495 109.74 6.69495C108.73 6.69495 107.869 7.51322 107.869 8.51748V37.3432C107.869 38.3474 108.692 39.1657 109.702 39.1657ZM109.74 7.43884C110.338 7.43884 110.824 7.92236 110.824 8.51748V37.3432C110.824 37.9383 110.338 38.4218 109.702 38.4218C109.104 38.4218 108.617 37.9383 108.617 37.3432V8.51748C108.617 7.92236 109.141 7.43884 109.74 7.43884Z" fill="#646464"/>
<path d="M124.327 37.3432C124.327 38.1615 125.001 38.7938 125.786 38.7938C126.609 38.7938 127.282 38.1615 127.282 37.3432V8.51748C127.282 7.6992 126.609 7.06689 125.824 7.06689C125.001 7.06689 124.327 7.6992 124.327 8.51748V37.3432Z" fill="#DFDFDF"/>
<path d="M125.823 39.1657C126.833 39.1657 127.693 38.3474 127.693 37.3432V8.51748C127.693 7.51322 126.871 6.69495 125.861 6.69495C124.851 6.69495 123.99 7.51322 123.99 8.51748V37.3432C123.953 38.3474 124.813 39.1657 125.823 39.1657ZM125.823 7.43884C126.422 7.43884 126.908 7.92236 126.908 8.51748V37.3432C126.908 37.9383 126.422 38.4218 125.786 38.4218C125.187 38.4218 124.701 37.9383 124.701 37.3432V8.51748C124.701 7.92236 125.225 7.43884 125.823 7.43884Z" fill="#646464"/>
<path d="M140.448 37.3432C140.448 38.1615 141.121 38.7938 141.906 38.7938C142.729 38.7938 143.402 38.1615 143.402 37.3432V8.51748C143.402 7.6992 142.729 7.06689 141.944 7.06689C141.121 7.06689 140.448 7.6992 140.448 8.51748V37.3432Z" fill="#DFDFDF"/>
<path d="M141.906 39.1657C142.916 39.1657 143.776 38.3474 143.776 37.3432V8.51748C143.776 7.51322 142.954 6.69495 141.944 6.69495C140.934 6.69495 140.073 7.51322 140.073 8.51748V37.3432C140.073 38.3474 140.896 39.1657 141.906 39.1657ZM141.906 7.43884C142.505 7.43884 142.991 7.92236 142.991 8.51748V37.3432C142.991 37.9383 142.505 38.4218 141.869 38.4218C141.27 38.4218 140.784 37.9383 140.784 37.3432V8.51748C140.822 7.92236 141.308 7.43884 141.906 7.43884Z" fill="#646464"/>
<path d="M156.531 37.3432C156.531 38.1615 157.204 38.7938 157.989 38.7938C158.812 38.7938 159.485 38.1615 159.485 37.3432V8.51748C159.485 7.6992 158.812 7.06689 158.027 7.06689C157.204 7.06689 156.531 7.6992 156.531 8.51748V37.3432Z" fill="#DFDFDF"/>
<path d="M157.989 39.1657C158.999 39.1657 159.859 38.3474 159.859 37.3432V8.51748C159.859 7.51322 159.037 6.69495 158.027 6.69495C157.017 6.69495 156.157 7.51322 156.157 8.51748V37.3432C156.157 38.3474 156.979 39.1657 157.989 39.1657ZM158.027 7.43884C158.625 7.43884 159.111 7.92236 159.111 8.51748V37.3432C159.111 37.9383 158.625 38.4218 157.989 38.4218C157.391 38.4218 156.905 37.9383 156.905 37.3432V8.51748C156.905 7.92236 157.391 7.43884 158.027 7.43884Z" fill="#646464"/>
<path d="M172.614 37.3432C172.614 38.1615 173.287 38.7938 174.072 38.7938C174.895 38.7938 175.568 38.1615 175.568 37.3432V8.51748C175.568 7.6992 174.895 7.06689 174.11 7.06689C173.287 7.06689 172.614 7.6992 172.614 8.51748V37.3432Z" fill="#DFDFDF"/>
<path d="M174.072 39.1657C175.082 39.1657 175.942 38.3474 175.942 37.3432V8.51748C175.942 7.51322 175.12 6.69495 174.11 6.69495C173.1 6.69495 172.24 7.51322 172.24 8.51748V37.3432C172.24 38.3474 173.062 39.1657 174.072 39.1657ZM174.11 7.43884C174.708 7.43884 175.194 7.92236 175.194 8.51748V37.3432C175.194 37.9383 174.708 38.4218 174.072 38.4218C173.474 38.4218 172.988 37.9383 172.988 37.3432V8.51748C172.988 7.92236 173.474 7.43884 174.11 7.43884Z" fill="#646464"/>
<path d="M16.9434 53.1509H14.6618C13.8389 53.1509 13.2031 53.8204 13.2031 54.6015V54.899C13.2031 55.7173 13.8763 56.3496 14.6618 56.3496H16.9434V53.1509Z" fill="#DFDFDF"/>
<path d="M14.6618 56.7215H17.3174V52.7789H14.6618C13.6519 52.7789 12.8291 53.5972 12.8291 54.6015V54.899C12.7916 55.9033 13.6519 56.7215 14.6618 56.7215ZM16.5693 55.9777H14.6618C14.0633 55.9777 13.5771 55.4941 13.5771 54.899V54.6015C13.5771 54.0064 14.0633 53.5228 14.6618 53.5228H16.5693V55.9777Z" fill="#646464"/>
<path d="M16.4949 48.2784C24.5365 48.2784 89.8417 48.2784 97.7337 48.2784C98.5565 48.2784 99.1924 48.9479 99.1924 49.729V58.7673C99.1924 59.5856 98.5191 60.2179 97.7337 60.2179C97.0604 60.2179 96.462 60.2179 95.4521 60.2179V60.1807C95.4521 54.0808 90.4775 49.0967 84.3061 49.0967C78.6209 49.0967 73.3471 53.3741 73.1601 60.2179C68.0359 60.2179 74.6188 60.2179 69.5694 60.2179C69.5694 50.5101 58.2364 45.7492 51.2047 51.7375C48.9231 53.6716 47.3896 56.6472 47.3148 60.2179H45.5194H43.7241C43.7241 53.9692 38.6373 49.0967 32.5781 49.0967C26.9303 49.0967 21.6191 53.3741 21.4321 60.2551H16.4575C15.6346 60.2551 14.9988 59.5856 14.9988 58.8045V49.7662C14.9614 48.9107 15.672 48.2784 16.4949 48.2784Z" fill="#DFDFDF"/>
<path d="M16.4575 60.627H21.8061V60.255C21.9557 55.0478 25.7708 49.4686 32.5781 49.4686C38.5251 49.4686 43.3501 54.3039 43.3501 60.2178V60.5898H47.6888V60.2178C47.7636 56.9075 49.1101 53.9692 51.4665 51.9979C54.6831 49.2455 59.0966 48.6503 62.9865 50.4357C66.8764 52.221 69.1954 55.8661 69.1954 60.1806V60.5526H73.5341V60.1806C73.6837 54.9734 77.4988 49.4314 84.3061 49.4314C90.2531 49.4314 95.0781 54.2295 95.0781 60.1434V60.5154L95.4521 60.5526H97.7337C98.7435 60.5526 99.5664 59.7343 99.5664 58.73V49.6918C99.5664 48.6875 98.7435 47.8693 97.7337 47.8693H16.4949C15.4476 47.8693 14.6248 48.6875 14.6248 49.6918V58.73C14.5874 59.8087 15.4102 60.627 16.4575 60.627ZM21.058 59.8831H16.4201C15.8216 59.8831 15.3354 59.3996 15.3354 58.8044V49.7662C15.3354 49.1711 15.859 48.6875 16.4575 48.6875H97.7337C98.3321 48.6875 98.8184 49.1711 98.8184 49.7662V58.7672C98.8184 59.3624 98.3321 59.8459 97.7337 59.8459H95.8261C95.6391 53.6716 90.5523 48.7247 84.3061 48.7247C78.9575 48.7247 73.1975 52.6302 72.8234 59.8459H69.9434C69.8312 55.3825 67.3626 51.6631 63.2857 49.8034C59.134 47.9065 54.3839 48.5388 50.9802 51.4771C48.5491 53.5228 47.1277 56.4984 46.9407 59.8831H44.0607C43.8737 53.7088 38.7869 48.7619 32.5407 48.7619C26.2944 48.7247 21.4321 53.4856 21.058 59.8831Z" fill="#646464"/>
<path d="M181.927 62.4495C181.927 63.2678 182.601 63.9001 183.386 63.9001H200.554C201.377 63.9001 202.013 63.2306 202.013 62.4495V52.2582C202.013 51.4399 201.339 50.8076 200.554 50.8076H183.386C182.563 50.8076 181.927 51.4771 181.927 52.2582V62.4495Z" fill="#DFDFDF"/>
<path d="M183.386 64.272H200.554C201.564 64.272 202.387 63.4537 202.387 62.4495V52.2582C202.387 51.2539 201.564 50.4357 200.554 50.4357H183.386C182.376 50.4357 181.553 51.2539 181.553 52.2582V62.4495C181.553 63.4537 182.376 64.272 183.386 64.272ZM200.554 51.1796C201.152 51.1796 201.639 51.6631 201.639 52.2582V62.4495C201.639 63.0446 201.152 63.5281 200.554 63.5281H183.386C182.788 63.5281 182.301 63.0446 182.301 62.4495V52.2582C182.301 51.6631 182.788 51.1796 183.386 51.1796H200.554Z" fill="#646464"/>
<path d="M185.967 64.086C185.967 64.5696 186.379 64.9787 186.865 64.9787C187.351 64.9787 187.763 64.5696 187.763 64.086V50.8448C187.763 50.3613 187.351 49.9521 186.865 49.9521C186.379 49.9521 185.967 50.3613 185.967 50.8448V64.086Z" fill="#DFDFDF"/>
<path d="M186.865 65.3507C187.576 65.3507 188.137 64.7927 188.137 64.086V50.8448C188.137 50.1381 187.576 49.5802 186.865 49.5802C186.154 49.5802 185.593 50.1381 185.593 50.8448V64.086C185.593 64.7555 186.154 65.3507 186.865 65.3507ZM186.865 50.2869C187.164 50.2869 187.389 50.5101 187.389 50.8076V64.0488C187.389 64.3464 187.164 64.5696 186.865 64.5696C186.566 64.5696 186.341 64.3464 186.341 64.0488V50.8076C186.341 50.5473 186.566 50.2869 186.865 50.2869Z" fill="#646464"/>
<path d="M191.091 64.086C191.091 64.5696 191.503 64.9787 191.989 64.9787C192.475 64.9787 192.887 64.5696 192.887 64.086V50.8448C192.887 50.3613 192.475 49.9521 191.989 49.9521C191.503 49.9521 191.091 50.3613 191.091 50.8448V64.086Z" fill="#DFDFDF"/>
<path d="M191.989 65.3507C192.7 65.3507 193.261 64.7927 193.261 64.086V50.8448C193.261 50.1381 192.7 49.5802 191.989 49.5802C191.278 49.5802 190.717 50.1381 190.717 50.8448V64.086C190.717 64.7555 191.278 65.3507 191.989 65.3507ZM191.989 50.2869C192.288 50.2869 192.513 50.5101 192.513 50.8076V64.0488C192.513 64.3464 192.288 64.5696 191.989 64.5696C191.69 64.5696 191.465 64.3464 191.465 64.0488V50.8076C191.465 50.5473 191.69 50.2869 191.989 50.2869Z" fill="#646464"/>
<path d="M196.178 64.086C196.178 64.5696 196.59 64.9787 197.076 64.9787C197.562 64.9787 197.974 64.5696 197.974 64.086V50.8448C197.974 50.3613 197.562 49.9521 197.076 49.9521C196.59 49.9521 196.178 50.3613 196.178 50.8448V64.086Z" fill="#DFDFDF"/>
<path d="M197.076 65.3507C197.787 65.3507 198.348 64.7927 198.348 64.086V50.8448C198.348 50.1381 197.787 49.5802 197.076 49.5802C196.365 49.5802 195.804 50.1381 195.804 50.8448V64.086C195.804 64.7555 196.403 65.3507 197.076 65.3507ZM197.076 50.2869C197.375 50.2869 197.6 50.5101 197.6 50.8076V64.0488C197.6 64.3464 197.375 64.5696 197.076 64.5696C196.777 64.5696 196.552 64.3464 196.552 64.0488V50.8076C196.552 50.5473 196.814 50.2869 197.076 50.2869Z" fill="#646464"/>
<path d="M157.69 60.1435C157.69 65.3879 161.954 69.6281 167.228 69.6281C172.502 69.6281 176.766 65.3879 176.766 60.1435C176.766 54.8991 172.502 50.6589 167.228 50.6589C161.954 50.6589 157.69 54.8991 157.69 60.1435Z" fill="#DFDFDF"/>
<path d="M167.228 70.0001C172.689 70.0001 177.14 65.5739 177.14 60.1435C177.14 54.7131 172.689 50.287 167.228 50.287C161.767 50.287 157.316 54.7131 157.316 60.1435C157.316 65.5739 161.767 70.0001 167.228 70.0001ZM167.228 51.0309C172.277 51.0309 176.392 55.1223 176.392 60.1435C176.392 65.1648 172.277 69.2562 167.228 69.2562C162.179 69.2562 158.064 65.1648 158.064 60.1435C158.064 55.1223 162.179 51.0309 167.228 51.0309Z" fill="#646464"/>
<path d="M160.757 60.1435C160.757 63.677 163.637 66.5782 167.228 66.5782C170.781 66.5782 173.698 63.7142 173.698 60.1435C173.698 56.61 170.818 53.7089 167.228 53.7089C163.674 53.7089 160.757 56.61 160.757 60.1435Z" fill="#DFDFDF"/>
<path d="M167.228 66.9501C171.005 66.9501 174.072 63.9001 174.072 60.1435C174.072 56.3869 171.005 53.3369 167.228 53.3369C163.45 53.3369 160.383 56.3869 160.383 60.1435C160.383 63.9001 163.45 66.9501 167.228 66.9501ZM167.228 54.0808C170.594 54.0808 173.324 56.796 173.324 60.1435C173.324 63.491 170.594 66.2062 167.228 66.2062C163.861 66.2062 161.131 63.491 161.131 60.1435C161.131 56.796 163.861 54.0808 167.228 54.0808Z" fill="#646464"/>
<path d="M162.029 60.1435C162.029 63.0075 164.348 65.3136 167.228 65.3136C170.108 65.3136 172.427 63.0075 172.427 60.1435C172.427 57.2796 170.108 54.9735 167.228 54.9735C164.348 54.9735 162.029 57.2796 162.029 60.1435Z" fill="#DFDFDF"/>
<path d="M167.228 65.6855C170.295 65.6855 172.801 63.1935 172.801 60.1435C172.801 57.0936 170.295 54.6016 167.228 54.6016C164.161 54.6016 161.655 57.0936 161.655 60.1435C161.655 63.1935 164.161 65.6855 167.228 65.6855ZM167.228 55.3455C169.883 55.3455 172.053 57.5027 172.053 60.1435C172.053 62.7843 169.883 64.9416 167.228 64.9416C164.572 64.9416 162.403 62.7843 162.403 60.1435C162.403 57.5027 164.572 55.3455 167.228 55.3455Z" fill="#646464"/>
<path d="M164.236 60.1435C164.236 61.78 165.582 63.119 167.228 63.119C168.874 63.119 170.258 61.78 170.258 60.1435C170.258 58.5069 168.911 57.1307 167.228 57.1307C165.582 57.1679 164.236 58.5069 164.236 60.1435Z" fill="#DFDFDF"/>
<path d="M167.228 63.5282C169.098 63.5282 170.632 62.0032 170.632 60.1807C170.632 58.321 169.098 56.796 167.228 56.796C165.358 56.796 163.862 58.321 163.862 60.1807C163.862 62.0032 165.358 63.5282 167.228 63.5282ZM167.228 57.5399C168.687 57.5399 169.884 58.7301 169.884 60.1807C169.884 61.6313 168.687 62.7843 167.228 62.7843C165.769 62.7843 164.61 61.5941 164.61 60.1807C164.61 58.6929 165.769 57.5399 167.228 57.5399Z" fill="#646464"/>
<path d="M131.62 60.1435C131.62 65.3879 135.884 69.6281 141.158 69.6281C146.431 69.6281 150.695 65.3879 150.695 60.1435C150.695 54.8991 146.431 50.6589 141.158 50.6589C135.884 50.6589 131.62 54.8991 131.62 60.1435Z" fill="#DFDFDF"/>
<path d="M141.158 70.0001C146.618 70.0001 151.069 65.5739 151.069 60.1435C151.069 54.7131 146.618 50.287 141.158 50.287C135.697 50.287 131.246 54.7131 131.246 60.1435C131.246 65.5739 135.697 70.0001 141.158 70.0001ZM141.158 51.0309C146.207 51.0309 150.321 55.1223 150.321 60.1435C150.321 65.1648 146.207 69.2562 141.158 69.2562C136.108 69.2562 131.994 65.1648 131.994 60.1435C131.994 55.1223 136.108 51.0309 141.158 51.0309Z" fill="#646464"/>
<path d="M134.687 60.1435C134.687 63.677 137.567 66.5782 141.157 66.5782C144.711 66.5782 147.628 63.7142 147.628 60.1435C147.628 56.61 144.748 53.7089 141.157 53.7089C137.604 53.7089 134.687 56.61 134.687 60.1435Z" fill="#DFDFDF"/>
<path d="M141.157 66.9501C144.935 66.9501 148.002 63.9001 148.002 60.1435C148.002 56.3869 144.935 53.3369 141.157 53.3369C137.38 53.3369 134.313 56.3869 134.313 60.1435C134.313 63.9001 137.38 66.9501 141.157 66.9501ZM141.157 54.0808C144.524 54.0808 147.254 56.796 147.254 60.1435C147.254 63.491 144.524 66.2062 141.157 66.2062C137.791 66.2062 135.061 63.491 135.061 60.1435C135.061 56.796 137.791 54.0808 141.157 54.0808Z" fill="#646464"/>
<path d="M135.958 60.1435C135.958 63.0075 138.277 65.3136 141.157 65.3136C144.037 65.3136 146.356 63.0075 146.356 60.1435C146.356 57.2796 144.037 54.9735 141.157 54.9735C138.277 54.9735 135.958 57.2796 135.958 60.1435Z" fill="#DFDFDF"/>
<path d="M141.157 65.6855C144.224 65.6855 146.73 63.1935 146.73 60.1435C146.73 57.0936 144.224 54.6016 141.157 54.6016C138.09 54.6016 135.584 57.0936 135.584 60.1435C135.584 63.1935 138.09 65.6855 141.157 65.6855ZM141.157 55.3455C143.813 55.3455 145.982 57.5027 145.982 60.1435C145.982 62.7843 143.813 64.9416 141.157 64.9416C138.502 64.9416 136.333 62.7843 136.333 60.1435C136.333 57.5027 138.502 55.3455 141.157 55.3455Z" fill="#646464"/>
<path d="M138.166 60.1435C138.166 61.78 139.512 63.119 141.158 63.119C142.804 63.119 144.188 61.78 144.188 60.1435C144.188 58.5069 142.841 57.1307 141.158 57.1307C139.512 57.1679 138.166 58.5069 138.166 60.1435Z" fill="#DFDFDF"/>
<path d="M141.158 63.5282C143.028 63.5282 144.562 62.0032 144.562 60.1807C144.562 58.321 143.028 56.796 141.158 56.796C139.288 56.796 137.792 58.321 137.792 60.1807C137.792 62.0032 139.288 63.5282 141.158 63.5282ZM141.158 57.5399C142.617 57.5399 143.813 58.7301 143.813 60.1807C143.813 61.6313 142.617 62.7843 141.158 62.7843C139.699 62.7843 138.54 61.5941 138.54 60.1807C138.54 58.6929 139.699 57.5399 141.158 57.5399Z" fill="#646464"/>
<path d="M74.8426 60.1435C74.8426 65.3879 79.1065 69.6281 84.3803 69.6281C89.6541 69.6281 93.918 65.3879 93.918 60.1435C93.918 54.8991 89.6541 50.6589 84.3803 50.6589C79.1065 50.6589 74.8426 54.8991 74.8426 60.1435Z" fill="#DFDFDF"/>
<path d="M84.3803 70.0001C89.8411 70.0001 94.292 65.5739 94.292 60.1435C94.292 54.7131 89.8411 50.287 84.3803 50.287C78.9195 50.287 74.4685 54.7131 74.4685 60.1435C74.4685 65.5739 78.9195 70.0001 84.3803 70.0001ZM84.3803 51.0309C89.4296 51.0309 93.5439 55.1223 93.5439 60.1435C93.5439 65.1648 89.4296 69.2562 84.3803 69.2562C79.3309 69.2562 75.2166 65.1648 75.2166 60.1435C75.2166 55.1223 79.3309 51.0309 84.3803 51.0309Z" fill="#646464"/>
<path d="M77.9092 60.1435C77.9092 63.677 80.7893 66.5782 84.3799 66.5782C87.9332 66.5782 90.8506 63.7142 90.8506 60.1435C90.8506 56.61 87.9706 53.7089 84.3799 53.7089C80.7893 53.7089 77.9092 56.61 77.9092 60.1435Z" fill="#DFDFDF"/>
<path d="M84.3799 66.9501C88.1576 66.9501 91.2246 63.9001 91.2246 60.1435C91.2246 56.3869 88.1576 53.3369 84.3799 53.3369C80.6022 53.3369 77.5352 56.3869 77.5352 60.1435C77.5352 63.9001 80.6022 66.9501 84.3799 66.9501ZM84.3799 54.0808C87.7462 54.0808 90.4766 56.796 90.4766 60.1435C90.4766 63.491 87.7462 66.2062 84.3799 66.2062C81.0137 66.2062 78.2833 63.491 78.2833 60.1435C78.2833 56.796 81.0137 54.0808 84.3799 54.0808Z" fill="#646464"/>
<path d="M79.1811 60.1435C79.1811 63.0075 81.5001 65.3136 84.3801 65.3136C87.2601 65.3136 89.5791 63.0075 89.5791 60.1435C89.5791 57.2796 87.2601 54.9735 84.3801 54.9735C81.5001 54.9735 79.1811 57.2796 79.1811 60.1435Z" fill="#DFDFDF"/>
<path d="M84.3801 65.6855C87.4471 65.6855 89.9531 63.1935 89.9531 60.1435C89.9531 57.0936 87.4471 54.6016 84.3801 54.6016C81.3131 54.6016 78.8071 57.0936 78.8071 60.1435C78.8071 63.1935 81.3131 65.6855 84.3801 65.6855ZM84.3801 55.3455C87.0357 55.3455 89.2051 57.5027 89.2051 60.1435C89.2051 62.7843 87.0357 64.9416 84.3801 64.9416C81.7245 64.9416 79.5552 62.7843 79.5552 60.1435C79.5552 57.5027 81.7245 55.3455 84.3801 55.3455Z" fill="#646464"/>
<path d="M81.3512 60.1435C81.3512 61.78 82.6977 63.119 84.3434 63.119C85.9891 63.119 87.373 61.78 87.373 60.1435C87.373 58.5069 86.0265 57.1307 84.3434 57.1307C82.7351 57.1679 81.3512 58.5069 81.3512 60.1435Z" fill="#DFDFDF"/>
<path d="M84.3805 63.5282C86.2507 63.5282 87.7842 62.0032 87.7842 60.1807C87.7842 58.321 86.2507 56.796 84.3805 56.796C82.5104 56.796 81.0143 58.321 81.0143 60.1807C80.9769 62.0032 82.5104 63.5282 84.3805 63.5282ZM84.3805 57.5399C85.8392 57.5399 87.0361 58.7301 87.0361 60.1807C87.0361 61.6313 85.8392 62.7843 84.3805 62.7843C82.9218 62.7843 81.7623 61.5941 81.7623 60.1807C81.7249 58.6929 82.9218 57.5399 84.3805 57.5399Z" fill="#646464"/>
<path d="M48.8484 60.1435C48.8484 65.3879 53.1123 69.6281 58.3861 69.6281C63.6599 69.6281 67.9238 65.3879 67.9238 60.1435C67.9238 54.8991 63.6599 50.6589 58.3861 50.6589C53.1123 50.6589 48.8484 54.8991 48.8484 60.1435Z" fill="#DFDFDF"/>
<path d="M58.3861 70.0001C63.8469 70.0001 68.2979 65.5739 68.2979 60.1435C68.2979 54.7131 63.8469 50.287 58.3861 50.287C52.9253 50.287 48.4744 54.7131 48.4744 60.1435C48.4744 65.5739 52.8879 70.0001 58.3861 70.0001ZM58.3861 51.0309C63.4355 51.0309 67.5498 55.1223 67.5498 60.1435C67.5498 65.1648 63.4355 69.2562 58.3861 69.2562C53.3368 69.2562 49.2225 65.1648 49.2225 60.1435C49.2225 55.1223 53.2993 51.0309 58.3861 51.0309Z" fill="#646464"/>
<path d="M51.9151 60.1435C51.9151 63.677 54.7951 66.5782 58.3858 66.5782C61.939 66.5782 64.8564 63.7142 64.8564 60.1435C64.8564 56.61 61.9764 53.7089 58.3858 53.7089C54.7951 53.7089 51.9151 56.61 51.9151 60.1435Z" fill="#DFDFDF"/>
<path d="M58.3858 66.9501C62.1634 66.9501 65.2305 63.9001 65.2305 60.1435C65.2305 56.3869 62.1634 53.3369 58.3858 53.3369C54.6081 53.3369 51.5411 56.3869 51.5411 60.1435C51.5411 63.9001 54.6081 66.9501 58.3858 66.9501ZM58.3858 54.0808C61.752 54.0808 64.4824 56.796 64.4824 60.1435C64.4824 63.491 61.752 66.2062 58.3858 66.2062C55.0195 66.2062 52.2891 63.491 52.2891 60.1435C52.2891 56.796 55.0195 54.0808 58.3858 54.0808Z" fill="#646464"/>
<path d="M53.1499 60.1435C53.1499 63.0075 55.4688 65.3136 58.3489 65.3136C61.2289 65.3136 63.5479 63.0075 63.5479 60.1435C63.5479 57.2796 61.2289 54.9735 58.3489 54.9735C55.5063 54.9735 53.1499 57.2796 53.1499 60.1435Z" fill="#DFDFDF"/>
<path d="M58.386 65.6855C61.453 65.6855 63.959 63.1935 63.959 60.1435C63.959 57.0936 61.453 54.6016 58.386 54.6016C55.319 54.6016 52.813 57.0936 52.813 60.1435C52.813 63.1935 55.2815 65.6855 58.386 65.6855ZM58.386 55.3455C61.0416 55.3455 63.2109 57.5027 63.2109 60.1435C63.2109 62.7843 61.0416 64.9416 58.386 64.9416C55.7304 64.9416 53.561 62.7843 53.561 60.1435C53.561 57.5027 55.693 55.3455 58.386 55.3455Z" fill="#646464"/>
<path d="M55.357 60.1435C55.357 61.78 56.7035 63.119 58.3493 63.119C59.995 63.119 61.3789 61.78 61.3789 60.1435C61.3789 58.5069 60.0324 57.1307 58.3493 57.1307C56.7035 57.1679 55.357 58.5069 55.357 60.1435Z" fill="#DFDFDF"/>
<path d="M58.3864 63.5282C60.2565 63.5282 61.79 62.0032 61.79 60.1807C61.79 58.321 60.2565 56.796 58.3864 56.796C56.5163 56.796 55.0202 58.321 55.0202 60.1807C54.9827 62.0032 56.5163 63.5282 58.3864 63.5282ZM58.3864 57.5399C59.8451 57.5399 61.042 58.7301 61.042 60.1807C61.042 61.6313 59.8451 62.7843 58.3864 62.7843C56.9277 62.7843 55.7682 61.5941 55.7682 60.1807C55.7308 58.6929 56.9277 57.5399 58.3864 57.5399Z" fill="#646464"/>
<path d="M22.9656 60.1435C22.9656 65.3879 27.2295 69.6281 32.5033 69.6281C37.7771 69.6281 42.041 65.3879 42.041 60.1435C42.041 54.8991 37.7771 50.6589 32.5033 50.6589C27.2295 50.6589 22.9656 54.8991 22.9656 60.1435Z" fill="#DFDFDF"/>
<path d="M32.5033 70.0001C37.9641 70.0001 42.415 65.5739 42.415 60.1435C42.415 54.7131 37.9641 50.287 32.5033 50.287C27.0425 50.287 22.5916 54.7131 22.5916 60.1435C22.5916 65.5739 27.0425 70.0001 32.5033 70.0001ZM32.5033 51.0309C37.5527 51.0309 41.667 55.1223 41.667 60.1435C41.667 65.1648 37.5527 69.2562 32.5033 69.2562C27.4539 69.2562 23.3396 65.1648 23.3396 60.1435C23.3396 55.1223 27.4539 51.0309 32.5033 51.0309Z" fill="#646464"/>
<path d="M26.0323 60.1435C26.0323 63.677 28.9123 66.5782 32.503 66.5782C36.0562 66.5782 38.9736 63.7142 38.9736 60.1435C38.9736 56.61 36.0936 53.7089 32.503 53.7089C28.9123 53.7089 26.0323 56.61 26.0323 60.1435Z" fill="#DFDFDF"/>
<path d="M32.503 66.9501C36.2806 66.9501 39.3477 63.9001 39.3477 60.1435C39.3477 56.3869 36.2806 53.3369 32.503 53.3369C28.7253 53.3369 25.6583 56.3869 25.6583 60.1435C25.6583 63.9001 28.7253 66.9501 32.503 66.9501ZM32.503 54.0808C35.8692 54.0808 38.5996 56.796 38.5996 60.1435C38.5996 63.491 35.8692 66.2062 32.503 66.2062C29.1367 66.2062 26.4063 63.491 26.4063 60.1435C26.4063 56.796 29.1367 54.0808 32.503 54.0808Z" fill="#646464"/>
<path d="M27.3042 60.1435C27.3042 63.0075 29.6231 65.3136 32.5032 65.3136C35.3832 65.3136 37.7021 63.0075 37.7021 60.1435C37.7021 57.2796 35.3832 54.9735 32.5032 54.9735C29.6231 54.9735 27.3042 57.2796 27.3042 60.1435Z" fill="#DFDFDF"/>
<path d="M32.5032 65.6855C35.5702 65.6855 38.0762 63.1935 38.0762 60.1435C38.0762 57.0936 35.5702 54.6016 32.5032 54.6016C29.4361 54.6016 26.9301 57.0936 26.9301 60.1435C26.9301 63.1935 29.4361 65.6855 32.5032 65.6855ZM32.5032 55.3455C35.1587 55.3455 37.3281 57.5027 37.3281 60.1435C37.3281 62.7843 35.1587 64.9416 32.5032 64.9416C29.8476 64.9416 27.6782 62.7843 27.6782 60.1435C27.6782 57.5027 29.8476 55.3455 32.5032 55.3455Z" fill="#646464"/>
<path d="M29.4743 60.1435C29.4743 61.78 30.8208 63.119 32.4665 63.119C34.1122 63.119 35.4961 61.78 35.4961 60.1435C35.4961 58.5069 34.1496 57.1307 32.4665 57.1307C30.8208 57.1679 29.4743 58.5069 29.4743 60.1435Z" fill="#DFDFDF"/>
<path d="M32.5036 63.5282C34.3737 63.5282 35.9072 62.0032 35.9072 60.1807C35.9072 58.321 34.3737 56.796 32.5036 56.796C30.6334 56.796 29.1373 58.321 29.1373 60.1807C29.0999 62.0032 30.6334 63.5282 32.5036 63.5282ZM32.5036 57.5399C33.9623 57.5399 35.1592 58.7301 35.1592 60.1807C35.1592 61.6313 33.9623 62.7843 32.5036 62.7843C31.0449 62.7843 29.8854 61.5941 29.8854 60.1807C29.848 58.6929 31.0449 57.5399 32.5036 57.5399Z" fill="#646464"/>
</g>
<defs>
<clipPath id="clip0_761_3347">
<rect width="250" height="70" fill="white" transform="matrix(-1 0 0 1 250 0)"/>
</clipPath>
</defs>
</svg>
