<svg width="210" height="66" viewBox="0 0 210 66" fill="none" xmlns="http://www.w3.org/2000/svg">
<g clip-path="url(#clip0_761_2150)">
<path d="M147.111 5.0662C147.111 5.0662 143.174 6.63632 138.596 11.6922C134.018 16.7481 131.351 22.4334 133.324 23.9453C134.082 24.52 135.83 24.6295 139.002 21.7561C141.929 19.2097 144.227 16.0177 145.715 12.4311C147.763 7.42652 147.111 5.12777 147.111 5.07304M172.168 14.162C167.081 11.5485 163.363 8.3467 159.494 6.36608C155.803 4.46757 153.417 3.67395 150.433 4.07418C150.017 4.14852 149.606 4.25139 149.204 4.38205C149.204 4.38205 150.74 9.63975 144.625 18.4721C138.432 27.4277 132.812 27.3661 131.214 24.9066C129.542 22.3102 131.703 17.0183 135.312 12.3079C139.091 7.38205 145.728 3.29767 145.728 3.29767C145.728 3.29767 143.611 2.0012 138.415 4.95331C133.345 7.8199 124.618 14.6614 116.52 26.1996C108.421 37.7378 106.817 44.0867 105.656 49.0844C104.495 54.0822 105.55 59.4356 111.081 59.4356C116.612 59.4356 123.051 50.983 124.868 48.0445C128.244 42.5713 130.446 34.1768 125.851 35.3296C123.587 35.8974 121.754 38.4083 120.596 40.8267C119.866 42.3801 119.307 44.009 118.93 45.6842C117.324 46.3473 115.816 47.2266 114.447 48.2977C112.925 49.4278 111.501 50.6867 110.193 52.0605C110.193 52.0605 110.214 48.0651 113.392 41.5998C116.571 35.1346 122.406 32.1825 125.711 31.9054C128.688 31.666 132.563 34.1973 129.279 43.536C125.994 52.8746 116.305 64.2281 106.127 64.3684C96.7346 64.4984 90.589 52.4881 103.662 31.5291C118.131 8.37406 135.103 1.26916 140.614 0.478969C146.124 -0.311225 147.917 2.12435 147.917 2.12435C151.234 0.760857 154.816 0.169041 158.395 0.39345C165.124 0.84841 170.327 5.62036 177.197 8.9727C175.411 10.6831 173.708 12.479 172.171 14.162M202.4 6.36608C197.737 9.36266 191.284 12.0787 185.084 11.4972C183.513 13.1221 181.833 15.0035 180.15 17.0559C190.901 19.1871 200.321 12.5132 205.33 6.83131C207.156 4.78847 208.724 2.52868 210 0.102686C207.72 2.48232 205.168 4.5846 202.397 6.36608M188.081 36.715C188.163 36.573 188.229 36.4228 188.279 36.2669C188.247 36.0202 188.132 35.7919 187.952 35.6201C187.773 35.4483 187.54 35.3434 187.293 35.3228C186.268 35.2749 184.872 35.4698 181.208 39.5337C178.169 42.8897 175.554 46.6074 173.421 50.6033C171.324 54.4413 170.474 57.3011 171.679 58.04C172.071 58.2432 172.525 58.2897 172.95 58.17C173.766 57.975 174.691 57.2087 176.097 55.577C176.756 54.8108 177.487 53.7264 178.361 52.5257C180.785 49.2213 186.876 38.8188 188.081 36.715ZM150.027 41.1346C150.638 39.5337 151.416 36.39 149.798 35.1551C148.06 33.845 143.628 36.9202 143.605 40.0742C143.574 43.3034 146.725 44.764 147.48 44.9693C147.91 45.0856 148.06 45.0685 148.268 44.723C148.937 43.5691 149.524 42.3701 150.027 41.1346ZM146.674 47.008C145.576 46.5 144.551 45.8452 143.628 45.0616C142.703 44.2839 141.93 43.3409 141.348 42.2806C141.286 42.1779 141.225 42.2566 141.157 42.349C141.088 42.4413 140.815 42.6911 138.453 46.1597C136.09 49.6283 132.461 56.8153 135.745 58.04C137.848 58.8233 141.348 55.1323 143.256 52.6865C144.557 50.9793 145.735 49.1824 146.783 47.3091C146.882 47.1004 146.783 47.0525 146.677 47.008M183.933 55.3102C183.042 56.7401 182.024 59.4835 184.957 57.7766C188.546 55.7002 193.657 47.9316 193.657 47.9316H195.975C193.865 51.1813 191.517 54.2686 188.948 57.1677C185.312 61.2042 180.877 64.8712 177.753 64.5086C174.104 64.081 175.247 59.2817 175.247 59.2817C175.247 59.2817 170.027 64.8507 166.415 64.4505C161.536 63.91 163.024 57.8689 163.024 57.8689C163.024 57.8689 157.507 64.6523 153.748 64.4436C147.855 64.1015 149.337 56.918 150.976 51.8587C151.853 49.1529 152.666 47.0286 152.666 47.0286C152.666 47.0286 152.082 47.1825 150.826 47.3706C150.17 47.463 148.975 47.5314 148.975 47.5314C148.975 47.5314 146.52 51.8689 144.557 54.4756C142.594 57.0822 134.25 66.0685 129.34 64.2692C124.799 62.6067 126.301 55.642 128.944 50.1072C132.802 42.0377 143.652 30.4448 149.911 31.9773C156.398 33.5542 150.057 45.414 150.057 45.414C150.057 45.414 150.057 45.4584 150.126 45.4892C150.255 45.5371 150.593 45.5748 151.375 45.4208C152.186 45.2552 152.98 45.0183 153.748 44.7127C153.748 44.7127 160.269 31.0297 167.473 22.0776C174.677 13.1255 189.047 -2.29184 194.688 1.43678C196.053 2.35354 195.439 5.5109 193.582 9.34214C192.745 9.61439 191.895 9.84276 191.035 10.0263C192.277 7.76517 193.1 5.85981 193.346 4.52914C194.196 -0.0957176 183.417 9.66027 175.715 20.1415C171.076 26.4601 166.954 33.1444 163.39 40.1289C164.781 39.2787 166.109 38.3286 167.364 37.2863C170.8 34.432 174.065 31.3777 177.142 28.1392C180.106 25.0995 182.885 21.8851 185.466 18.5132C186.286 18.4734 187.103 18.3889 187.914 18.26C185.1 22.0866 182.032 25.7185 178.73 29.1312C175.657 32.2441 172.332 35.593 169.443 38.0252C166.863 40.2233 164.142 42.2494 161.297 44.0901C161.297 44.0901 154.561 57.7013 158.224 58.5736C160.378 59.0936 164.633 52.5291 164.633 52.5291C164.633 52.5291 170.184 44.0423 173.53 40.2144C178.095 35.0149 182.024 32.0046 185.951 31.9499C188.238 31.9088 189.587 34.3444 189.587 34.3444L190.662 32.6751H197.286C197.286 32.6751 184.916 53.7059 183.926 55.2897M202.397 6.36608C197.733 9.36266 191.28 12.0787 185.08 11.4972C183.51 13.1221 181.83 15.0035 180.147 17.0559C190.898 19.1871 200.318 12.5132 205.326 6.83131C207.153 4.78866 208.723 2.52886 210 0.102686C207.72 2.48232 205.168 4.5846 202.397 6.36608ZM109.377 16.6831H103.078L99.5172 22.447H105.816L109.377 16.6831ZM79.551 36.6432C82.2311 32.9624 89.6262 20.0628 89.6262 20.0628C89.595 19.8164 89.4804 19.5882 89.3014 19.4163C89.1224 19.2445 88.89 19.1394 88.643 19.1187C87.6187 19.0708 85.9116 19.4163 82.5213 23.6683C79.131 27.9202 76.4987 31.3034 74.5799 34.8233C72.4768 38.6648 71.5584 41.3741 72.767 42.1095C73.1592 42.3064 73.6097 42.3526 74.0336 42.2395C74.8189 42.0411 75.8466 41.2509 77.2566 39.6261C77.919 38.8667 78.6701 37.8438 79.551 36.6432ZM45.7505 19.1973C44.0093 17.8803 39.581 20.9624 39.5571 24.1095C39.5298 27.3421 43.5415 28.3307 44.0605 28.3547C44.2131 28.3674 44.3661 28.3353 44.5009 28.2623C44.5935 28.2082 44.6673 28.1271 44.7126 28.0297C45.1842 27.1011 45.6082 26.1489 45.9827 25.1768C46.5938 23.5759 47.3688 20.4322 45.7505 19.1973ZM43.125 30.325C41.9243 29.9492 40.7769 29.4204 39.7108 28.7515C38.6777 28.0767 37.8376 27.1442 37.2731 26.0457C37.2116 25.9431 37.1433 26.0217 37.0819 26.1141C37.0204 26.2064 36.6653 26.6511 34.2959 30.1335C31.9264 33.6158 28.4166 40.7378 31.7045 41.9624C33.8008 42.7595 37.3413 39.0377 39.2635 36.6021C40.702 34.6881 42.0311 32.694 43.2445 30.6295C43.323 30.4208 43.2445 30.3729 43.1284 30.3353M94.5734 32.4698H96.8814C96.8814 32.4698 85.3175 49.2315 78.7862 48.4516C75.1398 48.024 76.2221 43.5155 76.2221 43.5155C76.2221 43.5155 71.1009 49.5223 66.3961 48.3045C62.1284 47.2065 64.8836 40.0947 64.8836 40.0947C64.3988 40.2897 55.1634 50.7196 48.673 48.219C41.8822 45.5919 45.4091 36.8587 46.6996 34.2315C47.7956 32.0183 49.0076 29.8632 49.0076 29.8632C49.0076 29.8632 47.9663 30.1574 47.3005 30.3079C46.6348 30.4584 45.672 30.65 45.672 30.65C45.672 30.65 42.4592 35.8803 40.496 38.4904C38.5329 41.1004 30.1886 50.0696 25.2722 48.284C20.3557 46.4984 21.5746 39.6055 24.3367 34.1323C28.8161 25.2555 39.4445 14.3467 45.8461 16.0023C52.3126 17.6546 46.9591 28.1631 46.9591 28.1631C46.9591 28.1631 48.2463 28.3307 51.3293 26.2236C55.7677 23.1893 61.6265 15.0274 67.97 15.9852C70.9609 16.4368 73.7468 19.4984 69.9366 25.3136C68.7212 27.1814 66.6829 28.8507 65.1226 27.1985C64.1496 26.1722 64.9997 24.3011 66.0205 23.0217C66.4179 22.5002 66.9371 22.0845 67.5324 21.8113C68.1278 21.5381 68.7811 21.4158 69.4347 21.455C69.4347 21.455 70.4829 19.0605 67.8164 19.0947C65.6586 19.1358 60.1959 24.1745 57.1129 29.2646C54.286 33.9374 50.0012 41.8974 54.303 43.6318C58.2464 45.2258 65.7508 36.3011 69.2265 31.6249C72.7021 26.9488 80.623 16.3513 87.267 15.9271C89.5546 15.7766 90.9168 17.8667 90.9168 17.8667L91.685 16.6489H98.329C98.329 16.6489 85.816 37.5702 84.8396 39.154C84.0714 40.3923 83.0505 43.1768 85.8638 41.6169C88.6771 40.0571 94.5734 32.4698 94.5734 32.4698ZM90.9578 65.9932C86.0658 62.6003 80.2079 60.8876 74.2624 61.1118C72.6532 61.1558 71.0769 61.5792 69.6616 62.3477C68.2462 63.1161 67.0315 64.2081 66.1161 65.5348C63.5828 61.105 58.5742 58.3855 50.8308 58.447C38.3178 58.5907 25.9072 64.3718 16.0743 64.3649C6.65118 64.3649 -0.221581 58.4299 0.000341015 47.8906C0.413458 29.3946 16.0129 12.7389 27.6553 5.24408C34.3676 0.93735 39.9805 -0.342011 43.6508 0.0718996C46.3275 0.369505 49.5471 3.46871 47.5156 8.03541C44.5316 14.7093 40.4107 14.162 40.5643 10.9704C40.6497 8.89402 42.029 7.58729 43.0669 6.86551C43.7259 6.41055 44.8901 6.28057 45.4978 6.26688C46.0885 5.76745 46.5221 2.11409 41.7422 3.31477C36.9624 4.51546 31.1582 9.2361 25.6477 15.3353C20.1372 21.4345 11.5574 32.9624 9.43716 45.0685C8.44705 50.6819 9.09574 60.9202 22.3804 60.8039C33.6472 60.7116 50.2538 53.2783 65.5152 53.4322C71.4389 53.4904 76.5943 55.0913 80.6128 57.5748C84.5596 60.0103 89.2917 63.5679 90.9714 65.9966" fill="#DFDFDF"/>
</g>
<defs>
<clipPath id="clip0_761_2150">
<rect width="210" height="66" fill="white"/>
</clipPath>
</defs>
</svg>
