<svg width="210" height="49" viewBox="0 0 210 49" fill="none" xmlns="http://www.w3.org/2000/svg">
<g clip-path="url(#clip0_761_2134)">
<path d="M25.5859 0L185.539 0.0108889C191.106 0.00141877 196.51 1.89642 200.858 5.38274C206.514 9.88348 210.042 17.0066 209.997 24.2695C210.118 30.253 207.86 36.2291 203.89 40.6882C199.339 45.9239 192.482 48.9528 185.57 48.9819L30.6042 48.9873C26.2503 48.9564 21.795 49.2777 17.5697 47.9656C9.65848 45.7043 3.13399 39.1601 0.932615 31.2039C-0.769109 25.4691 -0.146351 19.1663 2.4533 13.7944C5.80606 6.80556 12.6492 1.64422 20.2761 0.362963C22.0268 0.0653333 23.8136 0 25.5841 0H25.5859Z" fill="#DFDFDF"/>
<path d="M181.244 11.6023C187.453 9.78749 194.568 13.1866 197.153 19.1047C199.039 23.1155 198.75 28.0336 196.422 31.8084C193.923 36.037 188.99 38.7138 184.081 38.3636C177.717 38.2057 172.024 32.9046 171.278 26.589C170.246 20.014 174.804 13.1957 181.246 11.6059L181.244 11.6023Z" fill="#222222"/>
<path d="M24.7407 9.30103C30.6932 8.26115 37.1144 11.1848 40.288 16.3371C41.8232 18.847 39.5783 22.5982 36.6094 22.1717C34.9384 22.3895 33.7617 21.0701 32.8656 19.8578C30.6823 17.1392 26.5348 16.4333 23.5423 18.1882C20.519 19.8143 18.8082 23.7905 20.0556 27.059C20.9969 30.2258 24.2773 32.5706 27.583 32.2421C30.2496 32.3583 32.2899 30.4273 33.9554 28.5798C36.1694 26.4329 40.2156 28.2622 40.4057 31.2476C40.7134 33.8845 38.3726 35.7393 36.5768 37.2365C30.6932 41.8733 21.5473 41.2726 16.3009 35.9298C10.9314 30.8846 10.0371 21.9067 14.3331 15.9051C16.7082 12.3935 20.5733 9.9707 24.7425 9.28833L24.7407 9.30103ZM54.7146 9.37726C62.6801 7.71489 71.2394 13.5404 72.6986 21.5819C74.737 29.8937 68.5076 38.9442 60.1167 40.1837C52.2779 41.7554 43.9394 36.1911 42.2794 28.3729C39.9983 19.9885 46.2042 10.6821 54.7164 9.37907L54.7146 9.37726ZM56.2136 17.3588C52.5259 17.8996 49.6312 21.5111 49.9643 25.2496C50.1145 29.0734 53.6266 32.4944 57.4808 32.2657C61.7225 32.478 65.4065 28.3148 64.9177 24.1226C64.6715 19.9123 60.3375 16.5149 56.2136 17.3588ZM75.5354 13.0668C75.4014 9.96889 79.4747 7.9127 81.8281 9.909L91.4194 19.4259L100.607 10.2466C101.738 9.12137 103.594 8.73663 105.042 9.46618C106.577 10.1558 107.553 11.8799 107.472 13.5531L107.457 36.3908C107.488 38.7446 105.187 40.7899 102.853 40.3924C100.906 40.1801 99.3233 38.3671 99.3559 36.3998V22.9829L94.1475 28.1406C92.8079 29.4437 90.5993 29.6215 89.1148 28.4546C87.1125 26.8086 85.4814 24.756 83.557 23.0138L83.5118 36.5886C83.5226 38.9478 81.0497 40.877 78.7777 40.3561C76.9312 40.0385 75.3616 38.26 75.5263 36.34L75.5372 13.0523L75.5354 13.0668ZM110.794 13.212C110.718 10.9344 112.816 8.978 115.055 9.11592L131.222 9.12681C132.701 9.12681 134.14 10.0342 134.799 11.3772C136.091 13.6747 134.392 17.0703 131.694 17.1356L118.868 17.181V22.1408L129.694 22.1463C132.235 22.0501 134.515 24.687 133.785 27.1987C133.383 29.068 131.546 30.4019 129.665 30.3202C126.068 30.3456 122.469 30.3093 118.871 30.3257L118.835 36.732C118.705 39.1965 115.962 41.0403 113.64 40.2273C112.488 39.9587 111.762 38.9696 111.063 38.1003C110.585 35.85 110.823 33.5379 110.777 31.2585L110.795 13.1938L110.794 13.212ZM136.94 13.5822C136.528 10.9144 139.366 8.44989 141.926 9.22663C143.697 9.74203 144.714 11.399 146.018 12.575L151.847 18.3533L160.18 10.0633C161.749 8.6114 164.356 8.84007 165.734 10.4262C167.182 11.9325 167.128 14.5186 165.633 15.9614L155.857 25.8122L155.842 36.3454C155.933 38.2292 154.43 39.9678 152.613 40.2963C150.248 40.8516 147.667 38.7664 147.837 36.3037L147.826 25.814L139.846 17.7381C138.669 16.5222 137.004 15.4188 136.942 13.564L136.94 13.5822Z" fill="#222222"/>
</g>
<defs>
<clipPath id="clip0_761_2134">
<rect width="210" height="49" fill="white"/>
</clipPath>
</defs>
</svg>
