<svg width="80" height="30" viewBox="0 0 80 30" fill="none" xmlns="http://www.w3.org/2000/svg">
<g clip-path="url(#clip0_991_579)">
<path fill-rule="evenodd" clip-rule="evenodd" d="M39.8496 8.65039H41.3996V21.4504H39.8496V8.65039Z" fill="#DFDFDF"/>
<path fill-rule="evenodd" clip-rule="evenodd" d="M32.3496 8.65039H33.8496V12.7504H37.2996V8.65039H38.7996V21.4504H37.2996V14.2504H33.8496V21.4504H32.3496V14.2504V12.7504V8.65039Z" fill="#DFDFDF"/>
<path fill-rule="evenodd" clip-rule="evenodd" d="M54.4496 8.65039H55.9996L52.2996 21.4504H50.7996L51.3996 19.3004L47.8496 8.65039H49.3996L52.1496 16.6004L54.4496 8.65039Z" fill="#DFDFDF"/>
<path fill-rule="evenodd" clip-rule="evenodd" d="M57.1992 13.7002L59.2992 21.4502H60.9992L57.1992 8.2002L53.4492 21.4502H55.0992L57.1992 13.7002Z" fill="#DFDFDF"/>
<path fill-rule="evenodd" clip-rule="evenodd" d="M73.5996 8.65039H75.0996V12.7504H78.5496V8.65039H80.0496V21.4504H78.5496V14.2504H75.0996V21.4004H73.5996C73.5996 17.1504 73.5996 12.9004 73.5996 8.65039Z" fill="#DFDFDF"/>
<path fill-rule="evenodd" clip-rule="evenodd" d="M66.5494 8.5C70.0494 8.5 72.9494 11.45 72.9494 15C72.9494 18.6 70.0994 21.5 66.5494 21.5C63.0494 21.5 60.1494 18.55 60.1494 15C60.1494 11.45 63.0494 8.5 66.5494 8.5ZM66.5494 10.05C69.2494 10.05 71.4494 12.3 71.4494 15.05C71.4494 17.8 69.2494 20.05 66.5494 20.05C63.8494 20.05 61.6494 17.8 61.6494 15.05C61.6494 12.3 63.8494 10.05 66.5494 10.05Z" fill="#DFDFDF"/>
<path fill-rule="evenodd" clip-rule="evenodd" d="M43.9992 10.1504V10.9004C46.8492 10.9004 49.1492 13.2504 49.1492 16.1504C49.1492 19.0504 46.8492 21.4004 43.9992 21.4004H42.4492V8.65039H47.7492V10.1504H43.9992ZM43.9992 12.4004V19.9004C45.9992 19.9004 47.6492 18.2004 47.6492 16.1504C47.6992 14.1004 46.0492 12.4004 43.9992 12.4004Z" fill="#DFDFDF"/>
<path fill-rule="evenodd" clip-rule="evenodd" d="M14.6 0L29.2 8.6V10.65L14.55 19.25L0 10.65L14.55 2.1L29.2 10.65V12.65L16.65 20.1L12.5 22.5L14.55 23.7L29.15 15.1V17.1C23.65 20.35 18.25 23.6 12.75 26.85L14.5 27.9L29.1 19.3V21.35L14.6 30L0 21.4V19.35L11.05 25.85L12.85 24.8L0 17.15V15.15L10.75 21.5L12.8 20.3L0 12.65V10.65V8.6L14.6 0Z" fill="#DFDFDF"/>
<path fill-rule="evenodd" clip-rule="evenodd" d="M14.5502 5.1001C11.5002 7.8001 11.3002 12.1001 12.7502 15.6001C12.2502 15.6001 11.7502 15.6001 11.2502 15.6001C9.9502 12.4501 6.6002 10.4001 3.2002 11.9001C2.8502 11.6501 2.4002 11.4001 1.9502 11.1001C4.8002 9.3501 8.3502 10.0001 10.5502 12.0501C10.2502 8.7501 11.7002 5.4001 14.5502 3.3501C17.3002 5.3001 18.8502 8.7001 18.5502 12.0501C20.7502 10.0501 24.3002 9.4001 27.1502 11.1001C26.7002 11.4001 26.2502 11.6501 25.9002 11.9001C22.5002 10.4001 19.1502 12.5001 17.8502 15.6001C17.3502 15.6001 16.8502 15.6001 16.3502 15.6001C17.8002 12.0001 17.5502 7.7501 14.5502 5.1001Z" fill="#DFDFDF"/>
</g>
<defs>
<clipPath id="clip0_991_579">
<rect width="80" height="30" fill="white"/>
</clipPath>
</defs>
</svg>
