<svg width="210" height="75" viewBox="0 0 210 75" fill="none" xmlns="http://www.w3.org/2000/svg">
<g clip-path="url(#clip0_761_2154)">
<path fill-rule="evenodd" clip-rule="evenodd" d="M91.9277 12.7229C91.9277 12.7229 91.9277 12.7229 96.3447 12.7229C97.9542 12.7229 98.765 13.5181 98.765 15.3133C98.765 15.3133 98.765 15.3133 98.765 21.6747C98.765 21.6747 98.765 21.6747 107.417 21.6747C107.417 21.6747 107.417 21.6747 107.417 15.3133C107.417 13.5181 108.216 12.7229 110.031 12.7229C110.031 12.7229 110.031 12.7229 114.255 12.7229C114.255 12.7229 114.255 12.7229 114.255 16.9036C114.255 16.9036 114.255 16.9036 112.452 16.9036L112.246 17.1084C112.246 17.1084 112.246 17.1084 112.246 35.0121C112.246 35.0121 112.246 35.0121 107.417 35.0121C107.417 35.0121 107.417 35.0121 107.417 26.0603C107.417 26.0603 107.417 26.0603 98.765 26.0603C98.765 26.0603 98.765 26.0603 98.765 35.0121C98.765 35.0121 98.765 35.0121 93.9366 35.0121C93.9366 35.0121 93.9366 35.0121 93.9366 17.1084C93.9366 17.1084 93.9366 16.9036 93.7308 16.9036C93.7308 16.9036 93.7308 16.9036 91.9277 16.9036C91.9277 16.9036 91.9277 16.9036 91.9277 12.7229Z" fill="#DFDFDF"/>
<path fill-rule="evenodd" clip-rule="evenodd" d="M126.924 12.3252L127.033 12.3372V16.9276L126.924 16.9035C123.306 16.9035 120.487 19.8915 120.487 23.6746C120.487 27.6505 123.306 30.8312 126.924 30.8312L127.033 30.8071V35.3975L126.924 35.4095C120.487 35.4095 115.259 30.2409 115.259 23.6746C115.259 17.3011 120.487 12.3252 126.924 12.3252Z" fill="#DFDFDF"/>
<path fill-rule="evenodd" clip-rule="evenodd" d="M127.033 12.3374L129.272 12.5543C134.584 13.5904 138.59 18.0964 138.59 23.6748C138.59 29.4097 134.584 34.0964 129.272 35.1687L127.033 35.3976V30.8073L129.49 30.2772C131.862 29.1928 133.568 26.6507 133.568 23.6748C133.568 20.8314 131.862 18.4458 129.49 17.4338L127.033 16.9278V12.3374Z" fill="#DFDFDF"/>
<path fill-rule="evenodd" clip-rule="evenodd" d="M139.595 12.7229C139.595 12.7229 139.595 12.7229 146.335 12.7229H149.554V16.9036H149.252C148.852 16.9036 148.041 16.9036 146.432 16.9036C146.432 16.9036 146.432 16.9036 146.432 21.4819C146.432 21.4819 146.432 21.4819 147.799 21.4819H149.554V25.4578H148.525C148.017 25.4578 147.34 25.4578 146.432 25.4578C146.432 25.4578 146.432 25.4578 146.432 30.4337C146.432 30.6386 146.432 30.6386 146.638 30.6386C146.638 30.6386 146.638 30.6386 148.078 30.6386H149.554V35.0121H149.131C148.404 35.0121 146.94 35.0121 144.024 35.0121C142.414 35.0121 141.616 34.2169 141.616 32.4217V16.9036C141.616 16.9036 141.616 16.9036 139.595 16.9036C139.595 16.9036 139.595 16.9036 139.595 12.7229Z" fill="#DFDFDF"/>
<path fill-rule="evenodd" clip-rule="evenodd" d="M149.554 12.7229H149.651C154.08 12.7229 156.693 15.1084 156.693 18.6988C156.693 20.8795 155.689 22.2771 154.685 23.2771C156.5 24.0723 157.698 26.0602 157.698 28.241C157.698 32.4217 154.479 35.0121 149.856 35.0121C149.856 35.0121 149.856 35.0121 149.772 35.0121H149.554V30.6386H150.05C151.659 30.6386 152.676 29.6386 152.676 28.0482C152.676 26.4578 151.659 25.4578 150.05 25.4578C150.05 25.4578 150.05 25.4578 149.602 25.4578H149.554V21.4819H149.651C151.066 21.4819 151.865 20.4819 151.865 19.0964C151.865 17.6988 151.066 16.9036 149.651 16.9036C149.651 16.9036 149.651 16.9036 149.602 16.9036H149.554V12.7229Z" fill="#DFDFDF"/>
<path fill-rule="evenodd" clip-rule="evenodd" d="M166.956 12.7229C166.956 12.7229 166.956 12.7229 168.989 12.7229H169.364V19.0964C169.17 19.494 168.964 20.0844 168.964 20.6868C168.964 20.6868 168.964 20.6868 167.355 25.2651C167.355 25.2651 167.355 25.2651 169.061 25.2651H169.364V29.4337H168.275C167.657 29.4337 166.956 29.4337 166.157 29.4337C166.157 29.4337 166.157 29.4337 164.741 33.0241C164.342 34.4096 163.543 35.0121 161.934 35.0121C161.934 35.0121 161.934 35.0121 158.908 35.0121C158.908 35.0121 158.908 35.0121 158.908 30.6386C158.908 30.6386 158.908 30.6386 159.913 30.6386C160.324 30.6386 160.324 30.6386 160.518 30.4337C160.518 30.4337 160.518 30.4337 166.956 12.7229Z" fill="#DFDFDF"/>
<path fill-rule="evenodd" clip-rule="evenodd" d="M169.364 12.7229H171.785C171.785 12.7229 171.785 12.7229 178.222 30.4337C178.416 30.6386 178.416 30.6386 178.815 30.6386C178.815 30.6386 178.815 30.6386 179.626 30.6386C179.626 30.6386 179.626 30.6386 179.626 35.0121C179.626 35.0121 179.626 35.0121 176.807 35.0121C175.197 35.0121 174.398 34.4096 173.987 32.8193C173.987 32.8193 173.987 32.8193 172.583 29.4337C172.583 29.4337 172.583 29.4337 169.873 29.4337H169.364V25.2651H171.373C171.373 25.2651 171.373 25.2651 169.776 20.6868C169.776 20.0844 169.57 19.494 169.364 19.0964V12.7229Z" fill="#DFDFDF"/>
<path fill-rule="evenodd" clip-rule="evenodd" d="M91.9277 41.3735C91.9277 41.3735 91.9277 41.3735 109.426 41.3735C111.036 41.3735 112.04 42.1687 112.04 43.9639C112.04 43.9639 112.04 43.9639 112.04 59.0844C112.04 59.2772 112.04 59.2772 112.246 59.2772C112.246 59.2772 112.246 59.2772 113.855 59.2772C113.855 59.2772 113.855 59.2772 113.855 63.6627C113.855 63.6627 113.855 63.6627 109.632 63.6627C107.817 63.6627 107.018 62.8675 107.018 61.0723C107.018 61.0723 107.018 61.0723 107.018 45.7591C107.018 45.7591 107.018 45.5543 106.812 45.5543C106.812 45.5543 106.812 45.5543 98.765 45.5543C98.765 45.5543 98.765 45.5543 98.765 63.6627C98.765 63.6627 98.765 63.6627 93.9366 63.6627C93.9366 63.6627 93.9366 63.6627 93.9366 45.5543C93.9366 45.5543 93.9366 45.5543 91.9277 45.5543C91.9277 45.5543 91.9277 45.5543 91.9277 41.3735Z" fill="#DFDFDF"/>
<path fill-rule="evenodd" clip-rule="evenodd" d="M126.525 40.9758L126.622 40.9879V45.5782L126.525 45.5541C122.894 45.5541 120.087 48.5421 120.087 52.3252C120.087 56.3011 122.894 59.4819 126.525 59.4819L126.622 59.4578V64.0481L126.525 64.0602C120.087 64.0602 115.053 58.8794 115.053 52.3252C115.053 45.9517 120.087 40.9758 126.525 40.9758Z" fill="#DFDFDF"/>
<path fill-rule="evenodd" clip-rule="evenodd" d="M126.622 40.988L128.933 41.2049C134.343 42.2411 138.191 46.7471 138.191 52.3254C138.191 58.0603 134.343 62.7471 128.933 63.8194L126.622 64.0483V59.4579L129.175 58.9278C131.584 57.8435 133.169 55.3013 133.169 52.3254C133.169 49.482 131.584 47.0965 129.175 46.0844L126.622 45.5784V40.988Z" fill="#DFDFDF"/>
<path fill-rule="evenodd" clip-rule="evenodd" d="M139.195 41.3735C139.195 41.3735 139.195 41.3735 143.624 41.3735C145.234 41.3735 146.033 42.1687 146.033 43.9639C146.033 43.9639 146.033 43.9639 146.033 59.0844C146.033 59.2772 146.033 59.2772 146.238 59.2772C146.238 59.2772 146.238 59.2772 152.071 59.2772C152.071 59.2772 152.071 59.2772 152.071 41.3735C152.071 41.3735 152.071 41.3735 156.9 41.3735C156.9 41.3735 156.9 41.3735 156.9 59.2772C156.9 59.2772 156.9 59.2772 162.732 59.2772C162.938 59.2772 162.938 59.2772 162.938 59.0844C162.938 59.0844 162.938 59.0844 162.938 43.9639C162.938 42.1687 163.737 41.3735 165.346 41.3735C165.346 41.3735 165.346 41.3735 169.775 41.3735C169.775 41.3735 169.775 41.3735 169.775 45.5543C169.775 45.5543 169.775 45.5543 167.96 45.5543C167.754 45.5543 167.754 45.7591 167.754 45.7591C167.754 45.7591 167.754 45.7591 167.754 61.0723C167.754 62.8675 166.956 63.6627 165.346 63.6627C165.346 63.6627 165.346 63.6627 143.818 63.6627C142.015 63.6627 141.204 62.8675 141.204 61.0723C141.204 61.0723 141.204 61.0723 141.204 45.7591C141.204 45.7591 141.204 45.5543 141.011 45.5543C141.011 45.5543 141.011 45.5543 139.195 45.5543C139.195 45.5543 139.195 45.5543 139.195 41.3735Z" fill="#DFDFDF"/>
<path fill-rule="evenodd" clip-rule="evenodd" d="M173.588 41.3735C173.588 41.3735 173.588 41.3735 188.678 41.3735C190.493 41.3735 191.098 42.1687 191.098 43.7591C191.098 43.7591 191.098 43.7591 191.098 47.5422H186.669C186.669 47.5422 186.669 47.5422 186.669 45.7591C186.669 45.5543 186.669 45.5543 186.463 45.5543C186.463 45.5543 186.463 45.5543 183.656 45.5543C183.656 45.5543 183.656 45.5543 183.656 63.6627C183.656 63.6627 183.656 63.6627 178.815 63.6627C178.815 63.6627 178.815 63.6627 178.815 45.5543C178.815 45.5543 178.815 45.5543 176.008 45.5543C175.802 45.5543 175.802 45.5543 175.802 45.7591C175.802 45.7591 175.802 45.7591 175.802 47.5422C175.802 47.5422 175.802 47.5422 171.373 47.5422C171.373 47.5422 171.373 47.5422 171.373 43.7591C171.373 42.1687 171.978 41.3735 173.588 41.3735Z" fill="#DFDFDF"/>
<path fill-rule="evenodd" clip-rule="evenodd" d="M197.33 41.3735C197.33 41.3735 197.33 41.3735 199.363 41.3735H199.738V47.747C199.532 48.1446 199.338 48.735 199.338 49.3374C199.338 49.3374 199.338 49.3374 197.729 53.9157C197.729 53.9157 197.729 53.9157 199.423 53.9157H199.738V58.0844H198.649C198.031 58.0844 197.33 58.0844 196.519 58.0844C196.519 58.0844 196.519 58.0844 195.115 61.4699C194.716 63.0603 193.905 63.6627 192.295 63.6627C192.295 63.6627 192.295 63.6627 189.282 63.6627C189.282 63.6627 189.282 63.6627 189.282 59.2772C189.282 59.2772 189.282 59.2772 190.287 59.2772C190.698 59.2772 190.698 59.2772 190.892 59.0844C190.892 59.0844 190.892 59.0844 197.33 41.3735Z" fill="#DFDFDF"/>
<path fill-rule="evenodd" clip-rule="evenodd" d="M199.738 41.3735H202.146C202.146 41.3735 202.146 41.3735 208.596 59.0844C208.79 59.2772 208.79 59.2772 209.201 59.2772H210C210 59.2772 210 59.2772 210 63.6627C210 63.6627 210 63.6627 207.181 63.6627C205.571 63.6627 204.772 63.0603 204.361 61.4699C204.361 61.4699 204.361 61.4699 202.957 58.0844C202.957 58.0844 202.957 58.0844 200.247 58.0844H199.738V53.9157H201.747C201.747 53.9157 201.747 53.9157 200.138 49.3374C200.138 48.735 199.944 48.1446 199.738 47.747V41.3735Z" fill="#DFDFDF"/>
<path fill-rule="evenodd" clip-rule="evenodd" d="M60.924 22.2049C61.1539 22.1326 61.4564 22.2772 61.759 22.6748C61.759 22.6748 61.759 22.6748 75.4334 36.0001C76.2321 36.7953 76.2321 38.0001 75.4334 38.5905C75.4334 38.5905 75.4334 38.5905 61.759 52.1206C61.4564 52.5182 61.1539 52.6146 60.924 52.4941C60.694 52.3736 60.5488 52.0242 60.5488 51.5182V23.0724C60.5488 22.5784 60.694 22.2772 60.924 22.2049Z" fill="#DFDFDF"/>
<path fill-rule="evenodd" clip-rule="evenodd" d="M37.5324 0H38.5005L39.4323 0.385544C39.4323 0.385544 39.4323 0.385543 53.5061 14.3133C54.1112 15.1084 53.9055 15.7108 52.9011 15.7108C52.9011 15.7108 52.9011 15.7108 47.0682 15.7108C46.0638 15.7108 45.2651 16.506 45.2651 17.506C45.2651 17.506 45.2651 17.506 45.2651 27.8434C45.2651 28.8434 44.4544 29.6386 43.2442 29.6386C43.2442 29.6386 43.2442 29.6386 32.9944 29.6386C31.99 29.6386 31.1792 28.8434 31.1792 27.8434C31.1792 27.8434 31.1792 27.8434 31.1792 17.506C31.1792 16.506 30.3805 15.7108 29.364 15.7108H23.1319C22.1274 15.7108 21.9217 15.1084 22.5268 14.3133C22.5268 14.3133 22.5268 14.3133 36.6127 0.385544L37.5324 0Z" fill="#DFDFDF"/>
<path fill-rule="evenodd" clip-rule="evenodd" d="M15.4836 21.9035C15.7377 22.024 15.8951 22.3734 15.8951 22.8794V51.9156C15.8951 52.4216 15.7377 52.7228 15.4836 52.8192C15.2416 52.9156 14.8907 52.8192 14.4792 52.518C14.4792 52.518 14.4792 52.518 0.599015 38.5903C-0.199672 37.9999 -0.199672 36.7951 0.599015 35.9999C0.599015 35.9999 0.599016 35.9999 14.4792 22.277C14.8907 21.8794 15.2416 21.783 15.4836 21.9035Z" fill="#DFDFDF"/>
<path fill-rule="evenodd" clip-rule="evenodd" d="M32.9947 44.759C32.9947 44.759 32.9947 44.759 43.2445 44.759C44.4546 44.759 45.2654 45.5542 45.2654 46.5542C45.2654 46.5542 45.2654 46.5542 45.2654 57.494C45.2654 58.6867 46.0641 59.4819 47.0685 59.4819H52.502C53.5064 59.4819 53.9057 60.0723 53.1071 60.6747C53.1071 60.6747 53.1071 60.6747 39.4326 74.3976C39.0211 74.7952 38.525 75 38.0167 75C37.5206 75 37.0123 74.7952 36.613 74.3976C36.613 74.3976 36.613 74.3976 22.9385 60.6747C22.1277 60.0723 22.5271 59.4819 23.5315 59.4819C23.5315 59.4819 23.5315 59.4819 29.3643 59.4819C30.3808 59.4819 31.1795 58.6867 31.1795 57.494C31.1795 57.494 31.1795 57.494 31.1795 46.5542C31.1795 45.5542 31.9903 44.759 32.9947 44.759Z" fill="#DFDFDF"/>
</g>
<defs>
<clipPath id="clip0_761_2154">
<rect width="210" height="75" fill="white"/>
</clipPath>
</defs>
</svg>
