<svg width="80" height="20" viewBox="0 0 80 20" fill="none" xmlns="http://www.w3.org/2000/svg">
<g clip-path="url(#clip0_991_539)">
<path d="M6.95639 0.758796C4.61431 0.758796 1.86817 2.4526 1.86817 4.00096C1.86817 4.54893 2.32719 5.0177 3.27165 5.09375C3.15606 5.59724 3.07673 6.18115 3.07673 6.84897C3.07673 6.88897 3.07821 6.92831 3.07862 6.96811C1.74161 6.95277 0.90088 6.28321 0.90088 5.3115C0.90088 5.00055 0.965719 4.79567 0.982835 4.73633L0.935118 4.71796C0.869278 4.83208 0.60568 5.34933 0.60568 5.87937C0.60568 6.80606 1.48711 7.66931 3.11529 7.76534C3.17586 8.50022 3.30775 9.19504 3.50242 9.84016C3.4939 9.84018 3.48531 9.8407 3.4768 9.8407C1.23244 9.8407 0.399912 8.79377 0.299426 8.20867H0.253596C0.202964 9.31073 1.32117 10.548 3.77012 10.6015C4.06077 11.3226 4.43382 11.9676 4.87112 12.5215C4.78918 12.5241 4.70694 12.5271 4.6266 12.5271C3.22519 12.5271 2.02439 12.1213 1.41472 11.587L1.37563 11.6159C1.61856 12.0515 2.76912 13.1239 4.97249 13.1239C5.11373 13.1239 5.25572 13.1203 5.39817 13.1139C5.99084 13.7044 6.66915 14.1501 7.40202 14.4201C6.55797 14.5121 5.6697 14.4844 4.75843 14.2959L4.7401 14.3534C5.00401 14.4508 5.8994 14.8273 7.26534 14.8273C10.3549 14.8273 12.4435 12.9036 13.2842 11.4414L13.2241 11.4006C12.9273 11.764 12.5541 12.1298 12.1169 12.4772C12.0196 11.9164 11.8834 11.3645 11.7165 10.8249C12.3698 10.3243 12.9285 9.76168 13.3465 9.15422C13.4691 9.74092 13.5218 10.3312 13.4942 10.9105L13.5691 10.9302C13.6647 10.6245 13.7183 10.2036 13.7225 9.52407C13.7225 9.24251 13.6953 8.95413 13.646 8.6628C13.9835 8.0403 14.1757 7.38049 14.1757 6.70091C14.1757 6.2345 14.0711 5.9367 14.0509 5.87045L13.9989 5.88315C14.0084 6.59402 13.8142 7.27342 13.4681 7.90798C13.2847 7.30266 13.0054 6.69572 12.6445 6.11386C12.9354 5.56787 13.099 5.00201 13.099 4.43429C13.099 3.52192 12.5212 3.03942 12.425 2.96625L12.3878 2.9984C12.4607 3.13022 12.5895 3.42666 12.5895 3.90235C12.5895 4.39833 12.4334 4.90669 12.1562 5.4074C11.7401 4.86524 11.2505 4.35946 10.7007 3.91396C10.8805 3.5408 10.9792 3.16153 10.9792 2.78687C10.9792 1.70893 9.96082 1.12283 9.25383 1.00166L9.24062 1.04354C9.4605 1.11325 10.2661 1.48867 10.2661 2.4489C10.2661 2.75441 10.1741 3.07753 10.0063 3.40499C9.51584 3.08306 8.98722 2.81116 8.42835 2.60046C8.54805 2.35967 8.61383 2.12002 8.61383 1.89102C8.61383 1.151 7.90452 0.758796 6.95639 0.758796ZM6.50726 0.978165C7.6685 0.978165 7.8916 1.57048 7.8916 1.84753C7.8916 2.02133 7.84155 2.20083 7.75222 2.38055C7.14361 2.21449 6.50503 2.12147 5.84272 2.12147L5.8349 2.17415C6.45576 2.24782 7.05303 2.39536 7.62255 2.60127C7.42717 2.89004 7.13556 3.17331 6.78224 3.42931C6.3412 3.08139 5.91106 2.80139 5.50897 2.60344L5.45748 2.63937C5.80389 2.92427 6.16013 3.25146 6.51912 3.60869C6.1454 3.84566 5.71984 4.04833 5.27685 4.20007C5.14443 3.73996 5.03225 3.30017 4.94445 2.89142L4.87489 2.9125C4.877 3.33421 4.92082 3.79693 4.99944 4.28652C4.5742 4.40839 4.13948 4.48172 3.72213 4.48184C3.92383 3.6291 4.18326 3.09456 4.25861 2.93249L4.20389 2.91088C4.11236 3.04963 3.73772 3.57795 3.44499 4.46807C2.78356 4.40152 2.42891 4.0877 2.42891 3.60518C2.42891 2.40276 4.72612 0.978165 6.50726 0.978165ZM8.27415 2.86684C8.81286 3.11467 9.32043 3.41824 9.79328 3.76484C9.48609 4.22024 9.0421 4.67415 8.50033 5.09132C8.10317 4.63357 7.69804 4.22148 7.29608 3.86183C7.70933 3.55412 8.04513 3.21308 8.27415 2.86684ZM6.97769 4.08201C7.35262 4.48277 7.72711 4.91816 8.09514 5.38282C7.48607 5.79573 6.78218 6.15987 6.0255 6.43455C5.81445 5.87558 5.62352 5.32605 5.45748 4.79766C6.01505 4.61806 6.53069 4.36983 6.97769 4.08201ZM10.4737 4.31489C10.9976 4.78135 11.4659 5.30309 11.8683 5.86316C11.4608 6.43888 10.9002 6.99544 10.2308 7.50086C9.86943 6.88939 9.47778 6.31542 9.0697 5.78725C9.6551 5.33605 10.1392 4.83541 10.4737 4.31489ZM5.11267 4.89762C5.22676 5.43989 5.3798 6.00781 5.56639 6.58692C4.89079 6.79377 4.18289 6.92803 3.47034 6.96108C3.46854 6.8869 3.46656 6.81276 3.46656 6.73847C3.46656 6.1256 3.51992 5.58097 3.59812 5.10483C4.11672 5.10014 4.62717 5.02536 5.11267 4.89762ZM8.63917 6.09712C9.03627 6.64192 9.42078 7.21745 9.78142 7.82073C9.0081 8.34297 8.1226 8.79685 7.18366 9.14126C6.88298 8.51584 6.60189 7.87827 6.34362 7.24394C7.17137 6.95341 7.95693 6.55855 8.63917 6.09712ZM12.3479 6.5988C12.688 7.1801 12.9587 7.79047 13.1529 8.41183C12.7192 9.03391 12.1427 9.60552 11.4744 10.1119C11.2444 9.48547 10.9746 8.87917 10.674 8.29999C11.3555 7.78456 11.9294 7.20857 12.3479 6.5988ZM5.84865 7.40333C6.08545 8.0433 6.35924 8.6882 6.66389 9.31902C5.78906 9.59632 4.88022 9.77474 3.98363 9.82476C3.7596 9.16863 3.60397 8.47756 3.5256 7.77264C4.29233 7.76142 5.08212 7.629 5.84865 7.40333ZM10.2333 8.61472C10.545 9.18907 10.8337 9.7823 11.0911 10.3897C10.3266 10.9156 9.46664 11.3597 8.58202 11.7053C8.23607 11.1493 7.90078 10.5583 7.58265 9.94282C8.53846 9.60378 9.44265 9.14851 10.2333 8.61472ZM7.06719 10.1114C7.39676 10.7272 7.75419 11.3202 8.13261 11.8723C7.21817 12.192 6.29098 12.4032 5.42594 12.4864C4.97756 11.9287 4.59221 11.2897 4.2853 10.5963C5.21147 10.5614 6.15606 10.3897 7.06719 10.1114ZM49.8626 10.5493C47.5189 10.5493 45.6896 11.1119 45.6896 13.195C45.6896 14.3205 46.2653 15.221 47.6595 15.4578L50.9137 15.9984C51.2969 16.0656 51.4286 16.3021 51.4286 16.5385C51.4286 16.9213 51.1857 17.1917 50.2966 17.1917C49.8522 17.1917 49.5388 17.1353 49.3272 17.0226C49.1248 16.8986 49.0336 16.7184 49.0239 16.4485H45.5883C45.5982 18.8128 47.9932 19.1506 50.1858 19.1506C53.3892 19.1506 54.8241 18.2274 54.8241 16.2678C54.8241 14.9058 53.9348 14.163 52.4997 13.9266L49.0945 13.3638C48.8116 13.319 48.7209 13.172 48.7209 12.9472C48.7209 12.6092 49.0139 12.3732 49.8626 12.3732C50.1762 12.3732 50.4992 12.4179 50.752 12.5415C51.0142 12.6539 51.186 12.8571 51.186 13.1836H54.5006C54.3994 11.4834 53.0755 10.5493 49.8626 10.5493ZM64.4236 10.5493C62.6958 10.5493 59.4926 10.6844 59.4926 14.8502C59.4926 19.0152 62.6958 19.1506 64.4236 19.1506C66.1613 19.1506 67.2531 18.8241 67.9499 18.2386C68.6573 17.6533 68.9808 16.7976 69.1628 15.7393V15.7391H65.9495C65.7171 16.7072 65.1814 17.1236 64.2818 17.1236C63.2411 17.1236 62.5236 16.4824 62.5236 14.85C62.5236 13.2171 63.261 12.5755 64.4236 12.5755C65.5246 12.5755 65.8686 13.4083 65.9495 13.983H69.1628C68.7886 10.7965 66.141 10.5493 64.4236 10.5493ZM74.7912 10.5493C73.0628 10.5493 69.8596 10.6843 69.8596 14.8502C69.8596 19.0151 73.0628 19.1506 74.7912 19.1506C76.5192 19.1506 79.7223 19.0152 79.7223 14.8502C79.7223 10.6844 76.5192 10.5493 74.7912 10.5493ZM17.8001 10.8308V18.8691H20.6494V16.3693H23.7017C25.7224 16.3693 26.4499 15.1765 26.4499 13.6343C26.4499 11.844 25.7017 10.8308 23.6809 10.8308H17.8001ZM27.3896 10.8308V18.8691H35.0586V16.9102H30.2392V15.8296H34.7157V13.8701H30.2392V12.7892H35.0586V10.8308H27.3896ZM36.2513 10.8308V18.8691H39.1009V16.3693H42.1523C44.1736 16.3693 44.9013 15.1765 44.9013 13.6343C44.9013 11.844 44.1533 10.8308 42.1321 10.8308H36.2513ZM55.7534 10.8308V18.8691H58.6027V10.8308H55.7534ZM11.3674 11.0799C11.5634 11.5992 11.7359 12.1266 11.8791 12.6593C11.3427 13.0554 10.7226 13.4198 10.0375 13.7158C9.68213 13.3097 9.33051 12.8448 8.98748 12.3372C9.84432 12.0051 10.6532 11.5782 11.3674 11.0799ZM8.57662 12.488C8.95594 12.9867 9.35217 13.4406 9.75985 13.8315C9.16605 14.0662 8.52764 14.2491 7.85709 14.3583C7.15959 14.0814 6.51741 13.6375 5.9511 13.0723C6.83274 12.9844 7.72323 12.7838 8.57662 12.488ZM74.7912 12.5758C75.953 12.5758 76.691 13.2174 76.691 14.8502C76.691 16.4827 75.953 17.1239 74.7912 17.1239C73.629 17.1237 72.8912 16.4826 72.8912 14.8502C72.8912 13.2172 73.629 12.5758 74.7912 12.5758ZM20.6494 12.7217H22.4885C23.2061 12.7217 23.479 12.9697 23.479 13.5775C23.479 14.1628 23.206 14.4107 22.4885 14.4107H20.6494V12.7217ZM39.1009 12.7217H40.94C41.6575 12.7217 41.9305 12.9697 41.9305 13.5775C41.9305 14.1628 41.6575 14.4107 40.94 14.4107H39.1009V12.7217Z" fill="#DFDFDF"/>
</g>
<defs>
<clipPath id="clip0_991_539">
<rect width="80" height="19.2405" fill="white" transform="translate(0 0.379883)"/>
</clipPath>
</defs>
</svg>
