<svg width="40" height="40" viewBox="0 0 40 40" fill="none" xmlns="http://www.w3.org/2000/svg">
<g clip-path="url(#clip0_991_519)">
<path d="M21.8212 29.5458C22.0532 29.3684 22.5718 29.191 22.8584 29.0682C22.8447 28.6314 22.6673 28.222 22.7765 27.8536C22.9676 27.1985 23.4179 26.9119 23.8546 26.8573C23.8819 26.871 23.9092 26.9255 23.8819 26.9392C23.6363 27.1712 23.5408 27.4987 23.4998 27.8536C23.4862 27.99 23.4589 28.4131 23.5817 28.7133C23.841 28.5769 24.4688 28.3585 24.6735 28.3176C24.7008 27.8808 24.769 27.4578 24.8918 27.1439C25.1375 26.5298 25.6834 26.0385 26.2293 26.3251C26.2565 26.3387 26.2838 26.3933 26.2565 26.4069C25.9154 26.5298 25.697 26.8846 25.5059 27.294C25.4514 27.4168 25.2603 28.0719 25.4787 28.2084C25.4787 28.2084 25.4923 28.2084 25.4923 28.222C25.8881 28.1401 25.9563 28.1811 26.3794 28.1401C26.4476 27.7171 26.6387 27.3486 26.8024 27.0757C27.0481 26.598 27.6895 26.2159 28.2627 26.5571C28.29 26.5707 28.3173 26.6389 28.2763 26.6389C27.8806 26.7208 27.6213 26.9801 27.4848 27.2121C27.4166 27.3213 27.0481 27.8263 27.2391 28.031C27.2528 28.031 27.2801 28.031 27.3074 28.031C27.6486 28.0173 27.8942 28.0856 28.249 28.1538C28.3582 27.8945 28.4537 27.8672 28.5629 27.7307C28.9587 27.2531 29.6274 27.0893 29.8594 27.5397C29.8867 27.567 29.8867 27.6215 29.8594 27.6215C29.6547 27.6488 29.3135 27.758 29.1498 27.9627C29.1088 28.0037 28.9996 28.1265 28.8905 28.3585C29.3545 28.7133 29.6138 28.9999 29.7366 29.4776C29.7639 29.5595 29.8048 30.0508 29.6411 29.8051C28.8905 28.8634 27.8806 28.6587 26.3657 28.8089C24.7417 28.959 23.9911 29.2046 22.3671 30.078C23.2678 30.8832 21.9167 31.6748 21.6984 30.4875C20.9068 31.6884 20.0744 30.1736 21.1388 29.9552C20.0471 28.8907 21.5346 28.3994 21.8212 29.5458Z" fill="#DFDFDF"/>
<path d="M24.5916 24.3599C25.1785 24.1688 25.8199 23.9641 26.1474 23.8959C26.202 22.9406 27.1027 21.7533 28.1672 22.1627C28.2082 22.1763 28.2355 22.2309 28.1945 22.2446C27.9216 22.3264 27.0481 23.1589 27.3484 23.6912C27.5667 23.7048 28.1672 23.6912 28.3446 23.7048C28.5766 22.654 29.491 21.917 30.5282 22.3947C30.5691 22.4083 30.5964 22.4766 30.5555 22.4766C30.1461 22.5448 29.2181 23.1999 29.3272 23.7594C29.5183 23.7731 30.0369 23.9505 30.3644 24.1279C30.4872 23.8686 30.6237 23.773 30.7465 23.6366C31.1969 23.1589 32.1249 23.118 32.3979 23.582C32.4252 23.6093 32.4252 23.6639 32.3979 23.6639C32.0021 23.6502 31.6473 23.7048 31.3061 24.0051C31.2515 24.046 31.1423 24.2098 31.0195 24.4418C31.347 24.6192 31.7155 24.9604 31.7837 25.2879C31.8383 25.4517 31.8656 25.5881 31.8383 25.7519C31.8247 25.7928 31.7428 25.7519 31.7155 25.7246C30.8557 24.7829 28.9588 24.1961 27.1164 24.4281C25.8881 24.5782 24.6872 24.9194 23.6909 25.3561C24.0321 25.0559 24.3324 24.7284 24.5916 24.3599ZM21.8895 26.4888C21.8076 26.5707 21.7257 26.639 21.6575 26.7208C22.0942 27.3213 21.3982 27.799 21.1935 27.1985C20.6749 27.758 20.2655 27.103 20.6067 26.83C21.0434 26.7618 21.4801 26.6526 21.8895 26.4888Z" fill="#DFDFDF"/>
<path d="M21.5892 34.5411C21.712 34.4046 22.0122 34.1453 22.1623 34.0225C21.6983 33.2992 21.9576 32.3712 22.408 32.303C22.4353 32.3166 22.4489 32.3576 22.4353 32.3849C22.3125 32.5623 22.2579 33.5176 22.6127 33.7223C22.7901 33.5995 23.1313 33.3538 23.2814 33.3129C23.0221 32.4394 23.4725 31.2658 24.3459 31.4568C24.3732 31.4705 24.3868 31.5251 24.3732 31.5387C23.6635 31.9072 23.6499 32.999 23.8409 33.1218C24.1275 33.0399 24.4414 32.9171 24.7553 32.8898C24.8918 31.7298 25.9153 31.2112 26.4339 31.5114C26.4612 31.5251 26.4749 31.5933 26.4612 31.5933C26.1746 31.4295 25.0965 32.535 25.4513 32.8625C25.697 32.8489 25.9836 32.958 26.2701 33.0263C26.393 32.3849 27.2937 31.8526 27.6758 32.262C27.7031 32.2893 27.7031 32.3439 27.6895 32.3439C27.3483 32.4121 26.8979 32.726 26.8297 33.3265C27.553 33.6677 27.4711 34.3773 27.3483 34.1863C26.6659 33.2856 25.2193 33.4357 24.1139 33.6677C23.4725 33.8042 22.5718 34.4183 22.1896 34.855C23.3496 35.4009 22.2988 36.4244 21.8075 35.2644C21.0023 36.6837 20.2108 35.3872 21.1524 35.0051C20.0061 34.118 21.1934 33.5176 21.5892 34.5411Z" fill="#DFDFDF"/>
<path d="M9.90786 33.4626C8.76149 32.1388 7.79254 30.7059 7.01465 29.2593H19.5701V33.4626H9.90786Z" fill="#DFDFDF"/>
<path d="M25.6152 12.9238H34.8408V16.5403H25.6152V12.9238Z" fill="#DFDFDF"/>
<path d="M34.8415 7.4376L32.112 6.46865L28.9322 5.82723L25.3566 5.04934L22.0404 4.79004H19.5156V8.59761H34.8278L34.8415 7.4376Z" fill="#DFDFDF"/>
<path d="M6.42764 3.16574C6.79612 3.04291 7.16459 2.93373 7.54671 2.82455C7.68319 2.78361 7.81966 2.74267 7.96978 2.71538C8.1199 2.68808 8.27002 2.67444 8.42014 2.71538L8.47472 2.74267C8.52931 2.76997 8.55661 2.81091 8.5839 2.8655C8.62484 2.96103 8.63849 3.05656 8.65214 3.16574C8.67943 3.38409 8.67943 3.60245 8.65214 3.8208C8.63849 3.99822 8.6112 4.17563 8.54296 4.32575C8.51567 4.39399 8.47472 4.44857 8.42014 4.50316C8.37919 4.5441 8.33825 4.58505 8.29731 4.61234C8.20178 4.68058 8.1199 4.73517 8.01072 4.77611C7.76507 4.88528 7.51942 4.96717 7.26012 5.04905C6.82341 5.19917 6.3867 5.34929 5.94999 5.49941V6.3046C5.73163 6.38648 5.51328 6.48201 5.29492 6.56389V3.53421C5.67704 3.41139 6.04552 3.28856 6.42764 3.16574ZM5.94999 4.95352C6.3867 4.8034 6.82341 4.65328 7.27377 4.50316C7.41024 4.46222 7.54671 4.42128 7.66954 4.36669L7.76507 4.3121L7.80601 4.28481L7.84695 4.24387L7.88789 4.20292L7.91519 4.16198L7.95613 4.0801C7.96978 4.02551 7.98342 3.98457 7.98342 3.92998C7.99707 3.79351 7.99707 3.67068 7.95613 3.53421L7.92884 3.46597L7.90154 3.41139L7.8606 3.37044L7.80601 3.34315L7.75142 3.3295H7.69683H7.64224C7.50577 3.34315 7.38295 3.38409 7.24647 3.42503C6.80976 3.5615 6.37305 3.71162 5.93634 3.8481L5.94999 4.95352ZM11.5044 1.78737C11.8046 1.73278 12.0912 1.67819 12.3915 1.65089C12.487 1.63725 12.5825 1.63725 12.6781 1.63725C12.719 1.63725 12.7736 1.65089 12.8145 1.66454C12.8555 1.67819 12.8828 1.69184 12.9237 1.71913C12.951 1.74642 12.9783 1.76007 13.0056 1.78737C13.0329 1.81466 13.0465 1.8556 13.0602 1.8829C13.0875 1.93749 13.1011 1.97843 13.1011 2.03302C13.1284 2.21043 13.1421 2.40149 13.1557 2.59255C13.1694 2.81091 13.1694 3.01562 13.1557 3.22032C13.1557 3.30221 13.1557 3.39774 13.1421 3.47962C13.1284 3.64339 13.1284 3.80715 13.0875 3.97092C13.0738 4.01186 13.0602 4.0528 13.0465 4.0801C13.0192 4.13469 12.992 4.18928 12.951 4.24387L12.8691 4.36669L12.7463 4.44857C12.6917 4.47587 12.6508 4.48952 12.5962 4.51681C12.3778 4.58505 12.1595 4.62599 11.9411 4.68058C11.4908 4.77611 11.0404 4.85799 10.59 4.95352C10.3717 4.99446 10.1533 5.0354 9.93498 5.0627C9.88039 5.07635 9.81215 5.07635 9.75756 5.07635L9.62109 5.0627C9.58015 5.04905 9.55286 5.0354 9.52556 5.02176L9.45732 4.96717L9.40274 4.88528L9.32085 4.43493V3.22032C9.3345 3.08385 9.34815 2.93373 9.37544 2.79726L9.41638 2.67444C9.44368 2.6062 9.47097 2.55161 9.51191 2.49702L9.60744 2.38784L9.68933 2.31961C9.77121 2.26502 9.86674 2.21043 9.97592 2.16949L10.4672 2.01937C10.7811 1.92384 11.1359 1.8556 11.5044 1.78737ZM11.1632 2.40149L10.4536 2.56526C10.399 2.5789 10.3444 2.6062 10.2898 2.61985L10.2352 2.66079L10.1806 2.70173L10.1397 2.74267L10.0987 2.78361L10.0578 2.82455L10.0305 2.87914C10.0032 2.92009 9.98957 2.97467 9.97592 3.01562C9.93498 3.19303 9.93498 3.37044 9.93498 3.54786C9.93498 3.73892 9.93498 3.92998 9.96227 4.10739L9.98956 4.17563L10.0305 4.24387L10.0851 4.29845L10.1397 4.3394L10.2079 4.36669L10.2762 4.38034H10.358C10.4126 4.38034 10.4536 4.38034 10.4945 4.36669C10.7675 4.32575 11.0404 4.27116 11.3133 4.21657C11.5317 4.17563 11.7637 4.12104 11.9821 4.06645C12.023 4.0528 12.0776 4.03916 12.1185 4.02551L12.1868 3.98457L12.255 3.94363L12.3096 3.88904L12.3642 3.83445L12.4051 3.76621L12.4324 3.69798L12.4597 3.62974C12.5007 3.42503 12.487 3.23397 12.487 3.02926C12.487 2.92009 12.487 2.81091 12.4734 2.71538L12.4597 2.63349C12.4461 2.5789 12.4324 2.52432 12.4051 2.46973L12.3778 2.41514L12.3505 2.3742L12.3096 2.33325L12.2823 2.31961L12.2277 2.29231L12.1731 2.27867L12.0639 2.26502C11.9411 2.26502 11.8319 2.27867 11.7228 2.29231C11.5317 2.33325 11.3406 2.3742 11.1632 2.40149ZM15.6668 1.28242C16.008 1.25512 16.3492 1.22783 16.6904 1.22783C16.7586 1.22783 16.8405 1.22783 16.9087 1.22783C16.9906 1.22783 17.0588 1.24148 17.1271 1.28242C17.1544 1.29607 17.1816 1.30971 17.1953 1.32336C17.2499 1.3643 17.2908 1.40524 17.3181 1.47348C17.3454 1.51442 17.3591 1.56901 17.3727 1.60995C17.4 1.71913 17.4 1.84196 17.4 1.95113C17.4 2.10125 17.4 2.23772 17.3864 2.38784C17.3864 2.44243 17.3727 2.49702 17.3591 2.55161L17.3318 2.6062C17.3045 2.64714 17.2908 2.67444 17.2635 2.71538L17.1953 2.76997C17.168 2.78361 17.1407 2.81091 17.0998 2.82455C17.0588 2.8382 17.0042 2.85185 16.9633 2.8655L16.5948 2.94738L16.9633 3.15209C17.0179 3.19303 17.0588 3.22032 17.0998 3.26127L17.1407 3.31585C17.1953 3.39774 17.2362 3.47962 17.2772 3.57515C17.3318 3.73892 17.3591 3.90268 17.3591 4.06645C17.1407 4.0801 16.9224 4.0801 16.704 4.09375C16.6904 3.97092 16.6767 3.86174 16.6358 3.73892L16.5812 3.60245L16.5539 3.53421L16.5129 3.47962L16.472 3.42503L16.4174 3.38409L16.3492 3.34315C16.3082 3.3295 16.2673 3.31585 16.2263 3.31585C16.1445 3.30221 16.0489 3.31585 15.967 3.31585C15.544 3.34315 15.1346 3.38409 14.7115 3.42503L14.5477 3.43868V4.24387C14.3294 4.27116 14.111 4.29845 13.8927 4.3121V1.44619C14.4931 1.37795 15.08 1.32336 15.6668 1.28242ZM14.5614 2.94738C14.9981 2.90644 15.4348 2.8655 15.8715 2.8382C16.0216 2.82455 16.1718 2.81091 16.3219 2.79726C16.3628 2.79726 16.4038 2.78361 16.4447 2.76997L16.4993 2.75632L16.5539 2.72902L16.5948 2.70173L16.6358 2.66079L16.6631 2.61985L16.6904 2.5789C16.704 2.53796 16.7176 2.51067 16.7176 2.46973C16.7313 2.3469 16.7313 2.22408 16.7313 2.10125C16.7313 2.06031 16.7176 2.01937 16.704 1.96478L16.6767 1.92384L16.6494 1.8829L16.6085 1.84196L16.5675 1.81466L16.5266 1.78737L16.472 1.77372C16.4311 1.76007 16.3901 1.76007 16.3492 1.76007C16.1308 1.76007 15.9125 1.78737 15.7078 1.80101C15.3256 1.82831 14.9572 1.86925 14.575 1.89654L14.5614 2.94738ZM19.2014 3.61609C19.4471 3.61609 19.6927 3.61609 19.952 3.61609C20.1158 3.61609 20.2932 3.61609 20.4706 3.60245C20.5116 3.60245 20.5389 3.5888 20.5798 3.5888C20.6207 3.57515 20.648 3.5615 20.6753 3.54786L20.7163 3.52056L20.7436 3.47962L20.7709 3.43868L20.7845 3.39774L20.7982 3.30221V3.16574L20.7709 3.01562L20.7572 2.97467L20.7436 2.93373L20.7163 2.89279L20.6753 2.8655L20.6344 2.8382L20.5389 2.81091L20.3751 2.78361H20.1704H18.792C18.6555 2.78361 18.5191 2.78361 18.3963 2.75632C18.3553 2.74267 18.328 2.74267 18.3007 2.72902L18.2598 2.70173L18.2188 2.67444L18.1915 2.64714L18.1643 2.6062L18.137 2.56526C18.1097 2.51067 18.0824 2.45608 18.0687 2.40149C18.0414 2.25137 18.0414 2.0876 18.0414 1.93749C18.0414 1.74642 18.0551 1.55536 18.137 1.37795C18.1506 1.35066 18.1779 1.32336 18.1915 1.29607C18.2871 1.21418 18.4099 1.17324 18.5327 1.14595C18.6556 1.11865 18.792 1.11865 18.9148 1.11865C19.2151 1.11865 19.5153 1.11865 19.8156 1.11865C20.3069 1.11865 20.8118 1.1323 21.3031 1.14595V1.58266C20.648 1.56901 19.993 1.55536 19.3379 1.55536C19.1878 1.55536 19.0377 1.55536 18.8876 1.56901C18.8603 1.56901 18.8193 1.58266 18.792 1.58266L18.7374 1.60995L18.6965 1.65089L18.6692 1.70548L18.6555 1.76007L18.6419 1.8556C18.6419 1.93749 18.6419 2.00572 18.6419 2.0876L18.6555 2.14219L18.6692 2.19678L18.7101 2.25137L18.7784 2.29231L18.8466 2.30596C19.529 2.31961 20.225 2.33325 20.9073 2.36055L20.9892 2.3742C21.0984 2.40149 21.2076 2.44243 21.2895 2.52432C21.3304 2.56526 21.3577 2.6062 21.3713 2.64714C21.4396 2.79726 21.4532 2.97467 21.4532 3.13844C21.4532 3.3295 21.4532 3.52056 21.3986 3.69798C21.385 3.72527 21.385 3.75257 21.3713 3.77986L21.3304 3.83445C21.3031 3.87539 21.2758 3.90268 21.2349 3.92998C21.1666 3.97092 21.0984 4.01186 21.0302 4.02551C20.921 4.0528 20.7982 4.0528 20.689 4.06645C20.3478 4.0801 20.0203 4.0801 19.6791 4.0801C19.1468 4.0801 18.6146 4.09375 18.096 4.09375C18.096 3.94363 18.096 3.77986 18.096 3.62974C18.4508 3.61609 18.8057 3.61609 19.1605 3.61609H19.2014ZM23.7187 4.21657C23.4457 4.18928 23.1591 4.17563 22.8862 4.13469C22.7634 4.12104 22.6405 4.09375 22.5314 4.0528C22.4768 4.02551 22.4222 4.01186 22.3676 3.97092C22.3267 3.94363 22.2994 3.91633 22.2584 3.88904C22.2311 3.86174 22.2038 3.8208 22.1765 3.79351C22.1492 3.75257 22.1356 3.71162 22.1219 3.67068C22.081 3.52056 22.0674 3.3568 22.0674 3.19303C22.0537 2.79726 22.0537 2.41514 22.0674 2.01937V1.92384C22.081 1.74642 22.0946 1.56901 22.2038 1.41889C22.2448 1.37795 22.2721 1.33701 22.3267 1.30971C22.4631 1.24148 22.6269 1.21418 22.777 1.20054C22.9408 1.18689 23.0909 1.18689 23.2547 1.20054C23.5685 1.21418 23.8961 1.22783 24.21 1.25512C24.674 1.29607 25.1243 1.33701 25.5883 1.3916V1.91019C24.9742 1.8556 24.3737 1.80101 23.7596 1.76007C23.5686 1.74642 23.3638 1.73278 23.1591 1.74642L23.0636 1.76007L22.9954 1.77372L22.9408 1.80101L22.8862 1.84196L22.8316 1.89654L22.7907 1.95113L22.7634 2.01937C22.7497 2.06031 22.7361 2.10125 22.7361 2.14219C22.7088 2.33325 22.6951 2.53796 22.7088 2.74267C22.7088 2.90644 22.7088 3.0702 22.7361 3.23397C22.7497 3.27491 22.7497 3.31585 22.7634 3.3568L22.7907 3.42503L22.8316 3.47962L22.8862 3.53421L22.9408 3.57515L22.9954 3.60245L23.0636 3.62974C23.1182 3.64339 23.1728 3.65703 23.2274 3.65703C23.4048 3.68433 23.5958 3.69798 23.7733 3.71162C24.3874 3.76621 25.0152 3.8208 25.6293 3.88904C25.6293 4.0528 25.6293 4.20292 25.6293 4.36669V4.42128C25.2472 4.38034 24.8514 4.3394 24.4693 4.3121C24.2373 4.25751 23.978 4.24387 23.7187 4.21657ZM27.8947 2.92009C28.3997 3.01562 28.9046 3.11115 29.4096 3.20668V2.04666C29.6416 2.10125 29.8736 2.15584 30.1192 2.19678V5.18552C29.8872 5.13093 29.6552 5.07635 29.4096 5.02176V3.8481C29.0001 3.76621 28.6044 3.68433 28.195 3.60245C27.8265 3.53421 27.4444 3.46597 27.0759 3.39774V4.55775C26.8439 4.51681 26.6119 4.48952 26.3662 4.44857V1.54172C26.5982 1.56901 26.8439 1.59631 27.0759 1.63725V2.78361C27.3488 2.82455 27.6218 2.8655 27.8947 2.92009ZM33.2581 3.11115C33.5037 3.19303 33.7494 3.27491 34.0087 3.3568V3.8481C33.2854 3.60245 32.5484 3.37044 31.8115 3.13844L31.5658 3.0702V3.8208C32.0981 3.98457 32.6439 4.14833 33.1762 4.32575C33.4082 4.40763 33.6538 4.47587 33.8858 4.55775V4.99446C33.2035 4.76246 32.5075 4.5441 31.8115 4.3394L31.5658 4.27116V5.0627C32.0844 5.21282 32.603 5.37658 33.108 5.54035C33.4082 5.63588 33.7084 5.74506 34.0223 5.84059V6.34554C33.0397 6.018 32.0435 5.71777 31.0336 5.43117L30.9244 5.40388V2.40149C31.7023 2.61985 32.4802 2.8655 33.2581 3.11115Z" fill="#DFDFDF"/>
<path d="M5.25365 25.0699C4.81694 23.6097 4.58494 22.2449 4.57129 21.0713H13.7149C13.7422 22.6134 14.3836 24.0327 15.3935 25.0699H5.25365Z" fill="#DFDFDF"/>
<path d="M4.16211 3.02949L4.33952 2.96125C9.44358 1.07794 14.534 0.0953373 19.6381 -0.00019321C24.7421 -0.0820765 29.8325 0.723109 34.9366 2.44266L35.1276 2.5109V2.70196C35.0867 8.82956 35.0458 14.9572 35.0048 21.0848C34.9912 24.2509 33.3262 28.6999 30.1874 32.5894C27.6626 35.7282 24.1689 38.5123 19.8018 39.9862H19.6517C15.2437 38.8534 11.7636 36.1786 9.22523 33.0534C5.97719 29.0274 4.31223 24.2236 4.29858 20.9619C4.27129 18.0005 4.25764 15.039 4.23035 12.0912L4.16211 3.02949ZM10.1123 33.299H19.3924V29.5733H7.49203C7.45109 29.5051 7.41015 29.4369 7.38285 29.3686C8.02427 30.515 8.77487 31.6477 9.63464 32.7258C9.79841 32.9169 9.94853 33.108 10.1123 33.299ZM19.4061 33.763H10.5354C12.8281 36.2741 15.7895 38.3621 19.4061 39.372V33.763ZM10.3443 33.5583C10.3307 33.5447 10.3307 33.5447 10.3307 33.531C10.3307 33.5447 10.3443 33.5583 10.3443 33.5583ZM7.23273 29.0957H19.4061V26.8985C19.5016 26.8985 19.5971 26.8985 19.6926 26.8985C19.7609 26.8985 19.8155 26.8985 19.8837 26.8985V39.3857C19.8701 39.3857 19.8564 39.3993 19.8564 39.3993C24.0052 37.9527 27.3351 35.2779 29.7643 32.2618C32.7803 28.5225 34.3907 24.2646 34.4589 21.2076C34.4589 21.2212 34.4589 21.2212 34.4589 21.2349H25.6838C25.6838 21.1394 25.6974 21.0438 25.6974 20.9483V20.7572H34.4726C34.4862 19.4471 34.4862 18.137 34.4999 16.8405H25.6974V16.3765H34.4999C34.5135 15.312 34.5135 14.2612 34.5272 13.2103H25.6974V12.7463H25.6292V12.7327H34.5272C34.5408 11.4498 34.5408 10.1806 34.5545 8.89779H19.7472V12.7463H19.2696V5.00834C14.4112 5.09022 9.53911 6.05917 4.65341 7.95614L4.63976 7.46484C9.66194 5.52693 14.6841 4.57163 19.6926 4.53068C24.6602 4.48974 29.6142 5.34952 34.5545 7.05542C34.5545 7.21919 34.5545 7.38295 34.5545 7.54672C34.5681 5.99094 34.5818 4.43515 34.5818 2.89302C29.6005 1.2417 24.6193 0.463812 19.6517 0.545696C14.6022 0.627579 9.56641 1.59653 4.53058 3.4662L4.77623 12.0912C4.80353 14.9845 4.81718 17.8777 4.84447 20.7845C4.84447 20.7845 4.84447 20.7845 4.84447 20.7709H13.7288V20.9619C13.7288 21.0575 13.7288 21.153 13.7425 21.2485H4.83082C4.85812 22.3403 5.09012 23.6095 5.48589 24.9469C5.48589 24.9333 5.47224 24.9196 5.47224 24.906H15.2164C15.2982 25.0015 15.3801 25.097 15.4757 25.1789L15.7759 25.3836H5.62236C6.01813 26.5846 6.55037 27.8401 7.23273 29.0957ZM5.59507 25.2881C5.58142 25.2608 5.58142 25.2335 5.56777 25.2199C5.58142 25.2472 5.59507 25.2608 5.59507 25.2881ZM5.54048 25.1107C5.52683 25.0834 5.52683 25.0561 5.51318 25.0288C5.52683 25.0561 5.54048 25.0834 5.54048 25.1107ZM34.4453 20.9619V20.9756C34.4453 20.9756 34.4453 20.9756 34.4453 20.9619ZM34.4453 21.0438V21.0575C34.4453 21.0575 34.4453 21.0575 34.4453 21.0438ZM34.4453 21.0438C34.4453 21.0302 34.4453 21.0302 34.4453 21.0302V21.0438ZM34.4453 21.0029C34.4453 20.9892 34.4453 20.9892 34.4453 20.9892V21.0029ZM34.4453 20.7982C34.4453 20.7845 34.4453 20.7845 34.4453 20.7845V20.7982ZM19.7472 8.43379H34.5408C34.5408 8.51567 34.5408 8.58391 34.5408 8.66579C34.5408 8.29732 34.5408 7.92884 34.5408 7.56037C29.6142 5.84082 24.6875 4.98104 19.7472 5.00834V8.43379ZM19.7199 39.4403C19.7063 39.4403 19.7063 39.4403 19.6926 39.4539C19.7063 39.4539 19.7063 39.4539 19.7199 39.4403ZM19.5289 39.413C19.4879 39.3993 19.4606 39.3993 19.4197 39.3857C19.4606 39.3857 19.5016 39.3993 19.5289 39.413Z" fill="#DFDFDF"/>
<path d="M6.76916 10.5762C7.02846 10.4124 7.3014 10.2487 7.57434 10.1122C7.5334 9.68915 7.49246 9.03408 7.60164 8.67925C7.80635 8.02419 8.40683 7.49194 9.11648 7.61477C9.15742 7.62842 9.18472 7.66936 9.15742 7.683C8.76165 7.88771 8.44777 8.2016 8.27035 8.63831C8.21576 8.76114 8.0247 9.63456 8.31129 9.70279C8.33859 9.71644 8.36588 9.71644 8.40682 9.71644C8.92542 9.49808 9.45766 9.30702 10.0035 9.14326C10.0035 8.72019 10.0172 8.13336 10.1673 7.81948C10.4403 7.20535 11.1226 6.75499 11.8596 6.97335C11.9005 6.987 11.9278 7.04159 11.9005 7.05523C11.4638 7.20535 11.109 7.46465 10.877 7.87407C10.8087 7.99689 10.5221 8.82937 10.8224 8.93855H10.836C11.341 8.82937 11.8596 8.73384 12.4191 8.6656C12.4873 8.24254 12.5965 7.69665 12.7876 7.41006C13.197 6.80958 14.0158 6.40017 14.7801 6.68676C14.821 6.70041 14.8483 6.75499 14.8074 6.76864C14.3024 6.89147 13.8657 7.12347 13.5518 7.51924C13.4699 7.62842 13.0469 8.39266 13.2925 8.57007C13.3198 8.57007 13.3471 8.57007 13.3744 8.55643C13.8111 8.51549 14.3161 8.50184 14.7937 8.52913C14.9165 8.26984 15.0394 8.03783 15.1758 7.88771C15.6535 7.39641 16.7043 7.219 17.0182 7.64206C17.0455 7.66936 17.0592 7.72395 17.0182 7.72395C16.5679 7.73759 16.1039 7.80583 15.7627 8.11972C15.7081 8.1743 15.517 8.36537 15.4078 8.58372C16.1312 8.70655 16.7453 8.9522 16.9363 9.4162C17.0046 9.56632 17.0455 9.70279 17.0182 9.86656C17.0182 9.9075 16.9227 9.88021 16.8954 9.83927C15.981 8.99314 14.5208 8.89761 12.5692 9.23879C10.5904 9.57997 8.93907 10.1668 7.16493 11.0129C7.87458 11.8181 6.75551 12.4322 6.38704 11.5861C5.52726 12.6097 4.73572 11.1221 5.90938 10.9447C5.24067 9.9075 6.59174 9.86656 6.76916 10.5762Z" fill="#DFDFDF"/>
<path d="M7.01403 18.7376C7.24603 18.5602 7.54627 18.4101 7.79192 18.2599C7.54627 17.8642 7.39615 17.291 7.49168 16.9225C7.65545 16.2675 8.06487 15.9536 8.56981 15.9809C8.61076 15.9809 8.63805 16.0354 8.61076 16.0491C8.25593 16.2811 8.20134 16.5813 8.09216 17.0317C8.03757 17.2773 8.17404 17.6868 8.35146 17.8369C8.80182 17.5912 8.78817 17.6322 9.26582 17.4548C9.12935 17.0317 9.15664 16.4585 9.33406 16.1037C9.607 15.5305 10.0574 15.3121 10.5077 15.4077C10.5487 15.4213 10.576 15.4623 10.535 15.4759C10.1802 15.626 9.45688 16.1992 9.93454 17.2773C10.3712 17.1272 10.3985 17.0999 10.9581 16.9771C10.999 16.554 11.0127 16.0491 11.1764 15.7489C11.5176 15.1347 12.3228 14.8481 12.6913 14.9983C12.7322 15.0119 12.7595 15.0665 12.7186 15.0801C12.5139 15.2166 12.2409 15.3258 11.968 15.7352C11.8179 15.9536 11.5586 16.4585 11.6268 16.7997C12.0226 16.7451 12.5412 16.7178 12.9915 16.7315C13.087 16.4722 13.2781 16.1583 13.4009 16.0082C13.4828 15.9126 13.592 15.8307 13.7012 15.7898V17.3183C12.9506 17.2773 12.1181 17.3592 11.3266 17.5503C9.53877 17.9734 9.07476 18.3009 7.47804 19.1607C8.43334 19.7611 7.50533 20.6755 6.9185 19.7748C5.88131 20.9621 5.2126 19.4336 6.29073 19.2016C5.4719 18.2054 6.80932 17.6731 7.01403 18.7376Z" fill="#DFDFDF"/>
<path d="M6.55005 14.6703C6.823 14.5066 7.19147 14.3837 7.46442 14.2473C7.43712 13.8242 7.38253 13.4421 7.50536 13.0873C7.72371 12.4458 8.06489 12.1183 8.61078 12.1729C8.65172 12.1865 8.67902 12.2275 8.65172 12.2548C8.25595 12.4595 8.35148 12.7324 8.17407 13.1555C8.11948 13.2783 7.98301 13.7969 8.2696 13.8788C8.2969 13.8924 8.32419 13.8924 8.36513 13.8924C8.88373 13.6877 8.69266 13.7014 9.22491 13.5649C9.23855 13.1555 9.26585 12.596 9.40232 12.2957C9.68891 11.7089 10.2212 11.4223 10.7125 11.5451C10.7534 11.5588 10.8353 11.6543 10.7943 11.668C10.3986 11.7908 9.71621 12.596 10.0028 13.2237C10.344 13.1691 10.576 13.06 11.1901 12.9781C11.272 12.555 11.4085 12.132 11.6132 11.8454C12.0362 11.2585 12.6913 11.1357 13.0734 11.3131C13.1144 11.3268 13.169 11.436 13.128 11.4496C12.6231 11.5588 12.6094 11.5042 12.2819 11.9C12.1045 12.1047 11.7496 12.6642 12.0089 12.9235C12.4456 12.8962 12.7459 12.8416 13.2235 12.8826C13.3464 12.6369 13.4419 12.2957 13.5784 12.1593C14.056 11.668 14.8885 11.627 15.1614 11.9545C15.1887 11.9818 15.2024 12.0364 15.1614 12.0364C14.7111 12.0501 14.5473 12.1729 14.1925 12.4868C14.1516 12.5141 14.0697 12.6233 13.9741 12.7597H13.7148V13.6059C12.9779 13.5376 12.1727 13.5649 11.4221 13.6741C9.44326 13.9743 8.71996 14.4247 7.08229 15.2162C7.7783 16.0351 6.64558 16.6082 6.3044 15.7485C5.43098 16.7584 4.65309 15.2435 5.85404 15.0934C5.18533 14.0153 6.35899 13.7287 6.55005 14.6703Z" fill="#DFDFDF"/>
<path d="M25.3968 13.0327V20.9617C25.3968 24.0869 22.8448 26.6253 19.6923 26.6253C16.5534 26.6253 13.9878 24.0869 13.9878 20.9617V13.0327H25.3968ZM25.6698 12.7461H13.7012V20.9481C13.7012 24.2098 16.3897 26.8983 19.6787 26.8983C22.9813 26.8983 25.6561 24.2098 25.6561 20.9481L25.6698 12.7461Z" fill="#DFDFDF"/>
<path d="M19.4331 18.56C19.4877 18.6146 19.6105 18.5464 19.6515 18.4918C19.747 18.3417 19.7334 18.1506 19.747 17.9595C19.7607 17.7548 19.7607 17.5774 19.6924 17.3864C19.5833 17.0588 19.4331 16.7995 19.0647 16.7449C19.0237 16.7313 18.9418 16.8132 18.9691 16.8405C19.2148 17.0998 19.3103 17.0861 19.3785 17.4819C19.4468 17.864 19.4058 18.5327 19.4331 18.56ZM16.8538 23.3229C16.9084 23.3365 17.0312 23.1728 17.0722 23.0772C17.1131 22.9954 17.0995 22.8316 17.0995 22.818C17.0858 22.7907 16.9493 22.8452 16.8811 22.8452C16.8129 22.8452 16.7583 22.8316 16.6627 22.818C16.5672 22.8043 16.5809 22.5859 16.5672 22.4631C16.5399 22.1492 16.5263 21.8354 16.5399 21.5215C16.5399 21.4396 16.5672 21.3304 16.6355 21.2758C16.731 21.2212 16.8675 21.2349 16.9766 21.2485C17.195 21.2895 17.3997 21.3986 17.6317 21.4396C17.7545 21.4669 17.891 21.4532 18.0138 21.4123C18.123 21.385 18.2049 21.3031 18.3004 21.2622C18.355 21.2485 18.4232 21.2349 18.4642 21.2622C18.6416 21.3577 18.7644 21.5351 18.9418 21.6033C19.1738 21.6716 19.4195 21.6443 19.6651 21.6579C19.8562 21.6579 20.0473 21.6306 20.2383 21.6579C20.3202 21.6716 20.4567 21.6852 20.484 21.7808C20.5113 21.9036 20.3066 22.0128 20.3339 22.1356C20.3884 22.3267 20.6068 22.4222 20.7023 22.5859C20.7433 22.6542 20.7296 22.7361 20.7023 22.8043C20.675 22.8589 20.5795 22.8725 20.5386 22.9271C20.484 23.009 20.4703 23.1045 20.4157 23.1864C20.3611 23.2683 20.2793 23.3365 20.1974 23.4048C20.02 23.5413 19.8426 23.6777 19.6378 23.7869C19.5696 23.8278 19.4468 23.746 19.4195 23.8142C19.3649 23.937 19.3103 24.0871 19.2557 24.169C19.2011 24.2509 19.1329 24.2646 19.092 24.3055C19.051 24.3601 18.9964 24.4556 19.0237 24.4693C19.051 24.4829 19.3103 24.4829 19.4058 24.4693C19.5014 24.4556 19.556 24.442 19.5833 24.4283C19.6105 24.401 19.5696 24.3191 19.5423 24.1554C19.5287 23.9916 19.979 23.9234 20.1974 23.8006C20.4294 23.6504 20.6614 23.4867 20.8934 23.3502C20.9889 23.2956 21.1254 23.282 21.2073 23.2001C21.2482 23.1591 21.2346 23.0909 21.2346 23.0363C21.2346 22.8998 21.2073 22.7634 21.2073 22.6269C21.2073 22.5587 21.2073 22.4768 21.2619 22.4358C21.3028 22.3949 21.3847 22.3812 21.4256 22.4085C21.5075 22.4495 21.5212 22.5723 21.5894 22.6269C21.6986 22.7088 21.835 22.7361 21.9579 22.7907C22.067 22.8452 22.2581 22.8452 22.2718 22.9544C22.2991 23.1591 22.1626 23.3502 22.0807 23.5276C22.0398 23.6231 21.9442 23.6777 21.8896 23.7733C21.8623 23.8278 21.8623 23.8961 21.8214 23.937C21.7122 24.0462 21.5621 24.1144 21.4529 24.2236C21.371 24.3055 21.3028 24.3874 21.2619 24.4829C21.2346 24.5375 21.2209 24.5921 21.1936 24.6467C21.1527 24.7013 21.0844 24.7149 21.0435 24.7968C21.0026 24.8787 20.907 25.097 20.9889 25.0834C21.0708 25.0697 21.5485 24.9879 21.5621 24.9333C21.5757 24.8923 21.5348 24.7695 21.5075 24.6194C21.4802 24.4693 21.8214 24.3601 21.9852 24.2646C22.0807 24.21 22.2172 24.2373 22.2991 24.169C22.3536 24.1281 22.3263 24.0326 22.34 23.978C22.3809 23.8824 22.4082 23.7733 22.4901 23.6914C22.5856 23.5822 22.7494 23.5413 22.8313 23.4321C22.9132 23.2956 23.0087 23.1318 22.9814 22.9817C22.9541 22.8589 22.804 22.818 22.7221 22.7224C22.6539 22.6542 22.5856 22.5723 22.5583 22.4768C22.5174 22.3403 22.4901 22.2038 22.5311 22.0674C22.5856 21.9036 22.7494 21.7944 22.8449 21.6579C22.9268 21.5351 23.0496 21.4396 23.0906 21.3031C23.1315 21.1393 23.0496 20.9619 23.036 20.7982C23.036 20.7709 23.0087 20.7299 23.036 20.7026C23.1452 20.6071 23.268 20.4843 23.4181 20.457C23.5546 20.4433 23.6638 20.5798 23.8002 20.6071C23.9367 20.6207 24.1005 20.6344 24.237 20.5798C24.2779 20.5662 24.2915 20.4706 24.2643 20.4297C24.1687 20.3478 23.964 20.3751 23.9231 20.2659C23.8958 20.1704 24.0868 20.1431 24.1414 20.0476C24.2097 19.9247 24.2643 19.7883 24.2643 19.6381C24.2643 19.5836 24.1551 19.5836 24.1141 19.6109C24.0459 19.6518 24.0459 19.7473 23.9913 19.8019C23.9504 19.8429 23.8821 19.8565 23.8275 19.8565C23.773 19.8565 23.6911 19.8292 23.6638 19.7883C23.6228 19.7473 23.5955 19.6518 23.6365 19.6245C23.7457 19.5563 23.8958 19.5836 24.0186 19.5563C24.0732 19.5426 24.1414 19.529 24.1687 19.488C24.2097 19.4061 24.2097 19.3106 24.1687 19.2287C24.1551 19.1878 24.0868 19.1878 24.0459 19.2014C23.9913 19.2151 23.964 19.297 23.8958 19.297C23.8139 19.297 23.732 19.256 23.6774 19.2014C23.6365 19.1468 23.6228 19.065 23.6501 19.0104C23.6911 18.9148 23.8275 18.8876 23.8685 18.792C23.9231 18.6692 23.964 18.5191 23.9367 18.3826C23.9231 18.328 23.8139 18.3007 23.773 18.3417C23.7047 18.3826 23.7184 18.4781 23.6774 18.5327C23.6228 18.6146 23.5955 18.7374 23.5137 18.7784C23.4591 18.8057 23.3635 18.7511 23.3499 18.6828C23.3226 18.5737 23.3908 18.4645 23.4181 18.369C23.4591 18.2598 23.5137 18.1506 23.5819 18.0551C23.6501 17.9595 23.7866 17.9186 23.8412 17.8094C23.8821 17.7275 23.9231 17.6184 23.8685 17.5501C23.8275 17.4955 23.732 17.5365 23.6774 17.5774C23.6365 17.6047 23.6501 17.7002 23.6092 17.7275C23.4864 17.7821 23.3362 17.7412 23.2271 17.7958C23.1315 17.8504 23.0906 17.9459 23.036 18.0414C22.9405 18.2052 22.9268 18.4918 22.8859 18.5191C22.8449 18.56 22.7494 18.5464 22.7221 18.4918C22.6812 18.4235 22.7494 18.3144 22.6948 18.2461C22.6539 18.2052 22.5447 18.2052 22.5038 18.2461C22.4492 18.3007 22.4355 18.3826 22.4355 18.4645C22.4355 18.5873 22.4492 18.7101 22.5038 18.8193C22.5993 18.9967 22.7494 19.1332 22.8722 19.297C22.9951 19.4607 23.1452 19.6109 23.2134 19.8019C23.2544 19.9247 23.268 20.0749 23.2134 20.184C23.1725 20.2932 23.0633 20.4024 22.9541 20.4024C22.804 20.3887 22.6948 20.225 22.572 20.1431C22.4492 20.0612 22.3263 19.952 22.1899 19.9247C21.876 19.8702 21.5485 19.9247 21.2209 19.9247C20.9343 19.9247 20.6341 19.9657 20.3475 19.9247C20.211 19.9111 20.0609 19.8565 19.9654 19.761C19.8698 19.6654 19.8016 19.529 19.8016 19.4061C19.788 19.2287 19.8562 19.065 19.9244 18.9012C19.979 18.792 20.0609 18.6828 20.1701 18.6146C20.252 18.56 20.3884 18.5327 20.4703 18.56C20.5659 18.601 20.8252 18.9558 20.8797 18.9421C20.9343 18.9285 20.8934 18.6146 20.8661 18.5191C20.8115 18.369 20.6477 18.2871 20.6068 18.137C20.5931 18.096 20.6614 18.0414 20.7023 18.0414C20.7842 18.0414 20.8797 18.096 20.948 18.1643C20.9889 18.1915 21.1663 18.4508 21.2073 18.4372C21.2482 18.4235 21.18 18.0687 21.139 17.9595C21.0708 17.8094 20.8524 17.7002 20.8388 17.6593C20.8252 17.632 20.8388 17.6047 20.8797 17.5911C20.9616 17.5911 21.0435 17.632 21.1254 17.6593C21.1936 17.6866 21.3028 17.7685 21.3437 17.7548C21.3847 17.7412 21.3437 17.6184 21.3028 17.5638C21.1527 17.3864 20.948 17.2772 20.7979 17.1134C20.716 17.0315 20.6341 16.9224 20.6341 16.7995C20.6341 16.7313 20.716 16.6631 20.7842 16.6358C20.907 16.5812 21.0708 16.5539 21.18 16.4856C21.2209 16.4583 21.1936 16.4311 21.1527 16.4174C20.9753 16.3492 20.7842 16.3219 20.5931 16.3219C20.484 16.3219 20.3884 16.3901 20.2793 16.4174C20.211 16.4447 20.1428 16.4856 20.0609 16.4856C19.9244 16.4856 19.7743 16.4993 19.6788 16.4174C19.6242 16.3628 19.6924 16.2536 19.7334 16.1718C19.7743 16.1035 19.8426 16.0626 19.8971 16.008C19.9381 15.967 20.0609 15.9261 20.02 15.9125C19.979 15.8988 19.7607 15.8988 19.6378 15.9398C19.5287 15.967 19.4331 16.008 19.3513 16.0899C19.283 16.1581 19.2967 16.3082 19.2011 16.3492C19.0374 16.4447 18.9555 16.4174 18.7781 16.4993C18.7371 16.5266 18.6416 16.6358 18.6007 16.6494C18.3823 16.6767 17.9456 16.5675 17.9319 16.6085C17.9046 16.6494 18.2731 16.8541 18.3414 17.0452C18.3687 17.1271 18.1639 17.0042 18.0821 17.0179C17.9456 17.0315 17.8091 17.0588 17.6999 17.1134C17.5908 17.168 17.4952 17.2635 17.4133 17.3591C17.3315 17.4409 17.2905 17.5501 17.195 17.6184C17.154 17.6457 17.0585 17.6047 17.0312 17.6457C16.9903 17.7002 16.9766 17.8231 17.0449 17.8231L17.427 17.8504C17.4952 17.8504 17.3588 18.0005 17.3997 18.0687C17.427 18.1097 17.5225 18.096 17.5635 18.0687C17.6181 18.0414 17.6453 17.9595 17.7136 17.9186C17.7818 17.8777 17.8501 17.8231 17.9319 17.8231C18.0275 17.8231 18.1503 17.864 18.1912 17.9459C18.2322 18.0278 18.1367 18.1233 18.123 18.2052C18.1094 18.3007 18.1639 18.4235 18.0957 18.4918C17.891 18.6828 17.8228 18.5191 17.5225 18.9012C17.2769 19.2014 17.3861 19.0377 17.3042 19.4334C17.2905 19.5153 17.2769 19.5972 17.2086 19.6518C17.1404 19.6927 17.0312 19.72 16.963 19.6791C16.8265 19.6109 16.7446 19.4744 16.6491 19.3379C16.5945 19.2697 16.6218 19.1468 16.5536 19.0923C16.458 19.0377 16.3216 19.0377 16.2124 19.065C16.1305 19.0923 16.0896 19.1878 16.0486 19.256C15.9394 19.4061 15.8576 19.5836 15.762 19.7337C15.6801 19.8565 15.571 19.9657 15.5027 20.0885C15.4618 20.1567 15.4891 20.2386 15.4481 20.3069C15.3663 20.4979 15.298 20.6753 15.2025 20.8528C15.1616 20.921 15.0797 20.9619 15.0524 21.0438C15.0387 21.1257 15.066 21.3031 15.107 21.3031C15.1479 21.3031 15.2844 21.2076 15.3663 21.153C15.4618 21.112 15.6392 21.0575 15.6529 21.0302C15.6665 21.0029 15.5573 20.9073 15.5027 20.8391C15.4072 20.7163 15.6119 20.5389 15.6938 20.4024C15.7211 20.3478 15.7893 20.3342 15.8166 20.2796C15.8712 20.1704 15.8849 20.0339 15.9394 19.9247C16.0077 19.7746 16.0896 19.6245 16.1987 19.5153C16.2533 19.4607 16.3489 19.4198 16.4171 19.4744C16.5263 19.5426 16.5399 19.6927 16.6082 19.8156C16.6627 19.8974 16.731 19.9793 16.7583 20.0749C16.7856 20.1567 16.7037 20.2659 16.7583 20.3342C16.8265 20.416 16.963 20.4433 17.0722 20.457L17.3178 20.4843L17.3451 20.8255C17.3588 20.9483 17.0858 20.8528 16.963 20.88C16.8538 20.9073 16.7446 20.9483 16.6218 20.9756C16.5126 21.0029 16.3079 20.9073 16.2806 21.0302C16.1851 21.5078 16.3079 21.9855 16.3352 22.4631C16.3352 22.5859 16.267 22.7907 16.3898 22.8452L16.6218 22.9408C16.6628 23.0363 16.69 23.1591 16.7446 23.2274C16.731 23.2956 16.7992 23.3093 16.8538 23.3229Z" fill="#DFDFDF"/>
<path d="M24.374 14.2204C24.374 14.1248 24.3057 14.0839 24.1829 14.0839H23.7189C23.5961 14.0839 23.5278 14.1248 23.5278 14.2204C23.5278 14.3159 23.5961 14.3568 23.7189 14.3568H23.8144V15.2166C23.8144 15.3667 23.8554 15.435 23.9509 15.435C24.0464 15.435 24.0874 15.3667 24.0874 15.2166V14.3568H24.1829C24.3194 14.3568 24.374 14.3159 24.374 14.2204ZM23.0502 14.5206C23.0502 14.6298 22.9956 14.6844 22.8864 14.6844H22.7636V14.3568H22.8864C22.9956 14.3568 23.0502 14.4114 23.0502 14.5206ZM23.3504 15.2985C23.3504 15.2439 23.3231 15.1893 23.2685 15.1211L23.0502 14.8481C23.2276 14.8072 23.3368 14.6707 23.3368 14.4797C23.3368 14.234 23.173 14.0566 22.8864 14.0566H22.6817C22.5316 14.0566 22.4906 14.1248 22.4906 14.2749V15.203C22.4906 15.3531 22.5316 15.4213 22.6271 15.4213C22.7226 15.4213 22.7636 15.3531 22.7636 15.203V14.8754L23.0775 15.3258C23.1321 15.394 23.173 15.435 23.2276 15.435C23.2958 15.435 23.3504 15.3804 23.3504 15.2985ZM21.9038 14.8754H21.6172L21.7673 14.3841L21.9038 14.8754ZM22.2859 15.2848C22.2859 15.2575 22.2859 15.2303 22.2723 15.1893L21.972 14.234C21.9311 14.1248 21.8629 14.0566 21.7673 14.0566C21.6718 14.0566 21.6036 14.1248 21.5626 14.2477L21.2487 15.1893C21.2351 15.2166 21.2351 15.2439 21.2351 15.2712C21.2351 15.3531 21.2897 15.4213 21.3579 15.4213C21.4125 15.4213 21.4671 15.3804 21.4944 15.2848L21.5353 15.1484H21.972L21.9993 15.2712C22.0266 15.3667 22.0676 15.4213 22.1358 15.4213C22.2313 15.435 22.2859 15.3804 22.2859 15.2848ZM21.044 14.8072C21.044 14.6571 20.9894 14.6025 20.8803 14.6025H20.7029C20.5937 14.6025 20.5391 14.6434 20.5391 14.739C20.5391 14.8345 20.5937 14.8754 20.7029 14.8754H20.7847C20.7847 15.0392 20.7029 15.1484 20.5664 15.1484C20.4163 15.1484 20.3071 14.9846 20.3071 14.7253C20.3071 14.466 20.4163 14.3159 20.5664 14.3159C20.7165 14.3159 20.7847 14.4387 20.853 14.4387C20.9076 14.4387 20.9622 14.3705 20.9622 14.3022C20.9622 14.1658 20.812 14.0293 20.58 14.0293C20.2525 14.0293 20.0478 14.3022 20.0478 14.739C20.0478 15.162 20.2525 15.4486 20.5527 15.4486C20.853 15.4486 21.044 15.1757 21.044 14.8072ZM19.9796 14.2204C19.9796 14.1248 19.9113 14.0839 19.7885 14.0839H19.3245C19.2017 14.0839 19.1334 14.1248 19.1334 14.2204C19.1334 14.3159 19.2017 14.3568 19.3245 14.3568H19.42V15.2166C19.42 15.3667 19.461 15.435 19.5565 15.435C19.652 15.435 19.693 15.3667 19.693 15.2166V14.3568H19.7885C19.9113 14.3568 19.9796 14.3159 19.9796 14.2204ZM19.0788 14.2204C19.0788 14.1248 19.0106 14.0839 18.8878 14.0839H18.4238C18.3009 14.0839 18.2327 14.1248 18.2327 14.2204C18.2327 14.3159 18.3009 14.3568 18.4238 14.3568H18.5193V15.2166C18.5193 15.3667 18.5602 15.435 18.6558 15.435C18.7513 15.435 18.7922 15.3667 18.7922 15.2166V14.3568H18.8878C19.0106 14.3568 19.0788 14.3159 19.0788 14.2204ZM18.0689 14.8345V14.2749C18.0689 14.1248 18.028 14.0566 17.9325 14.0566C17.8369 14.0566 17.796 14.1248 17.796 14.2749V14.8072C17.796 15.0392 17.7141 15.162 17.564 15.162C17.4139 15.162 17.332 15.0392 17.332 14.8072V14.2749C17.332 14.1248 17.2911 14.0566 17.1955 14.0566C17.1 14.0566 17.059 14.1248 17.059 14.2749V14.8345C17.059 15.2303 17.2501 15.4486 17.564 15.4486C17.8642 15.4486 18.0689 15.2303 18.0689 14.8345ZM16.9499 14.2204C16.9499 14.1248 16.8816 14.0839 16.7588 14.0839H16.2948C16.172 14.0839 16.1037 14.1248 16.1037 14.2204C16.1037 14.3159 16.172 14.3568 16.2948 14.3568H16.3903V15.2166C16.3903 15.3667 16.4313 15.435 16.5268 15.435C16.6223 15.435 16.6633 15.3667 16.6633 15.2166V14.3568H16.7588C16.8816 14.3568 16.9499 14.3159 16.9499 14.2204ZM16.0082 14.9982C16.0082 14.7935 15.899 14.6707 15.6807 14.5888C15.5442 14.5342 15.4623 14.5206 15.4623 14.4251C15.4623 14.3568 15.5169 14.3159 15.5988 14.3159C15.667 14.3159 15.7489 14.3568 15.8035 14.3568C15.8854 14.3568 15.9263 14.3022 15.9263 14.234C15.9263 14.1248 15.8035 14.0429 15.5988 14.0429C15.3395 14.0429 15.1757 14.2204 15.1757 14.466C15.1757 14.6707 15.2849 14.7662 15.5033 14.8481C15.6261 14.8891 15.708 14.93 15.708 15.0392C15.708 15.1211 15.6534 15.1757 15.5715 15.1757C15.4487 15.1757 15.3531 15.1074 15.2849 15.1074C15.203 15.1074 15.1484 15.162 15.1484 15.2439C15.1484 15.3531 15.3122 15.4623 15.5306 15.4623C15.8308 15.4486 16.0082 15.2575 16.0082 14.9982Z" fill="#DFDFDF"/>
</g>
<defs>
<clipPath id="clip0_991_519">
<rect width="40" height="40" fill="white"/>
</clipPath>
</defs>
</svg>
