<svg width="48" height="40" viewBox="0 0 48 40" fill="none" xmlns="http://www.w3.org/2000/svg">
<g clip-path="url(#clip0_991_592)">
<path d="M12.6002 33.5998C10.7002 31.9998 10.4002 29.6998 9.6002 27.6998C9.1002 26.3998 8.2002 25.2998 7.3002 24.1998C8.5002 27.5998 7.8002 29.9998 10.7002 32.3998C10.2002 32.1998 9.7002 31.7998 9.3002 31.4998C7.0002 29.5998 3.6002 29.2998 2.2002 26.1998C2.6002 28.4998 4.4002 30.4998 6.3002 31.7998C8.2002 32.9998 10.6002 32.8998 12.6002 33.5998ZM17.6002 34.7998C17.9002 34.6998 18.3002 34.6998 18.7002 34.5998C17.3002 34.3998 16.0002 33.8998 15.0002 32.9998C13.5002 31.5998 12.2002 30.1998 10.6002 29.0998C12.3002 32.4998 12.9002 33.8998 15.7002 34.4998C15.7002 34.4998 14.9002 34.3998 14.5002 34.2998C11.5002 33.6998 7.9002 34.4998 5.7002 31.9998C6.6002 33.5998 8.3002 34.8998 9.9002 35.4998C12.5002 36.2998 15.2002 35.3998 17.6002 34.7998ZM21.6002 34.5998C16.8002 34.5998 14.3002 38.7998 9.6002 35.9998C11.9002 38.7998 15.6002 38.9998 18.6002 37.0998C19.8002 36.2998 20.9002 35.1998 22.4002 35.1998C24.7002 35.1998 27.2002 37.5998 29.3002 39.7998C29.7002 39.4998 30.0002 39.1998 30.3002 38.8998C28.1002 36.7998 24.9002 34.5998 21.6002 34.5998ZM8.1002 29.8998C8.1002 29.8998 7.5002 28.7998 7.3002 28.0998C6.6002 25.3998 7.0002 22.0998 5.8002 19.4998C6.0002 20.9998 5.4002 22.2998 5.3002 23.6998C5.1002 25.5998 5.8002 26.8998 6.3002 27.7998C6.3002 27.7998 5.6002 26.8998 5.3002 26.3998C3.9002 24.1998 1.0002 22.6998 0.800195 19.9998C0.400195 25.8998 4.5002 27.4998 8.1002 29.8998ZM6.7002 12.3998C7.1002 11.5998 7.3002 10.5998 7.5002 9.6998C7.3002 10.0998 7.1002 10.4998 6.8002 10.7998C4.9002 12.3998 3.8002 13.2998 3.3002 15.7998L3.5002 13.5998C3.7002 11.3998 2.5002 8.9998 3.8002 7.0998C2.5002 8.4998 1.8002 10.2998 1.8002 12.0998C1.8002 14.4998 3.2002 16.1998 3.3002 18.4998C3.7002 16.0998 5.7002 14.3998 6.7002 12.3998ZM6.0002 7.9998C6.9002 7.1998 8.0002 6.4998 8.8002 5.4998C9.7002 4.2998 10.5002 2.8998 11.7002 1.7998C10.1002 2.4998 8.3002 3.0998 7.2002 4.7998C6.6002 5.7998 6.5002 6.9998 6.0002 7.9998ZM4.0002 12.7998C4.4002 11.9998 5.1002 11.1998 5.8002 10.5998C7.6002 9.2998 9.4002 7.5998 9.5002 5.3998C8.5002 7.7998 5.4002 8.1998 4.7002 10.6998C4.7002 10.6998 5.1002 9.1998 5.2002 8.8998C5.7002 7.1998 5.6002 5.1998 7.3002 4.0998C4.0002 4.7998 3.8002 8.3998 4.0002 11.0998C4.0002 11.6998 4.1002 12.1998 4.0002 12.7998ZM4.5002 24.3998C4.5002 24.3998 4.3002 22.4998 4.6002 21.6998C5.4002 19.2998 6.2002 16.6998 6.1002 14.1998C5.3002 17.1998 2.8002 18.1998 3.9002 22.2998C3.5002 21.4998 3.4002 20.5998 3.1002 19.7998C2.5002 17.5998 0.800195 15.6998 1.3002 13.0998C0.500195 15.3998 0.500195 17.1998 1.3002 19.5998C1.8002 21.3998 3.6002 22.6998 4.5002 24.3998Z" fill="#DFDFDF"/>
<path d="M12.5998 33.5998C10.6998 31.9998 10.3998 29.6998 9.5998 27.6998C9.0998 26.3998 8.1998 25.2998 7.2998 24.1998C8.4998 27.5998 7.7998 29.9998 10.6998 32.3998C10.1998 32.1998 9.6998 31.7998 9.2998 31.4998C6.9998 29.5998 3.5998 29.2998 2.1998 26.1998C2.5998 28.4998 4.39981 30.4998 6.2998 31.7998C8.1998 32.9998 10.5998 32.8998 12.5998 33.5998ZM17.5998 34.7998C17.8998 34.6998 18.2998 34.6998 18.6998 34.5998C17.2998 34.3998 15.9998 33.8998 14.9998 32.9998C13.4998 31.5998 12.1998 30.1998 10.5998 29.0998C12.2998 32.4998 12.8998 33.8998 15.6998 34.4998C15.6998 34.4998 14.8998 34.3998 14.4998 34.2998C11.4998 33.6998 7.89981 34.4998 5.6998 31.9998C6.5998 33.5998 8.2998 34.8998 9.89981 35.4998C12.4998 36.2998 15.1998 35.3998 17.5998 34.7998ZM21.5998 34.5998C16.7998 34.5998 14.2998 38.7998 9.5998 35.9998C11.8998 38.7998 15.5998 38.9998 18.5998 37.0998C19.7998 36.2998 20.8998 35.1998 22.3998 35.1998C24.6998 35.1998 27.1998 37.5998 29.2998 39.7998C29.6998 39.4998 29.9998 39.1998 30.2998 38.8998C28.0998 36.7998 24.8998 34.5998 21.5998 34.5998ZM8.0998 29.8998C8.0998 29.8998 7.4998 28.7998 7.2998 28.0998C6.5998 25.3998 6.9998 22.0998 5.7998 19.4998C5.9998 20.9998 5.39981 22.2998 5.2998 23.6998C5.0998 25.5998 5.7998 26.8998 6.2998 27.7998C6.2998 27.7998 5.5998 26.8998 5.2998 26.3998C3.89981 24.1998 0.999804 22.6998 0.799805 19.9998C0.399805 25.8998 4.4998 27.4998 8.0998 29.8998ZM6.6998 12.3998C7.0998 11.5998 7.2998 10.5998 7.4998 9.6998C7.2998 10.0998 7.0998 10.4998 6.7998 10.7998C4.89981 12.3998 3.7998 13.2998 3.2998 15.7998L3.4998 13.5998C3.6998 11.3998 2.4998 8.9998 3.7998 7.0998C2.4998 8.4998 1.7998 10.2998 1.7998 12.0998C1.7998 14.4998 3.1998 16.1998 3.2998 18.4998C3.6998 16.0998 5.6998 14.3998 6.6998 12.3998ZM5.9998 7.9998C6.89981 7.1998 7.9998 6.4998 8.7998 5.4998C9.6998 4.2998 10.4998 2.8998 11.6998 1.7998C10.0998 2.4998 8.2998 3.0998 7.1998 4.7998C6.5998 5.7998 6.4998 6.9998 5.9998 7.9998ZM3.9998 12.7998C4.39981 11.9998 5.0998 11.1998 5.7998 10.5998C7.5998 9.2998 9.39981 7.5998 9.4998 5.3998C8.4998 7.7998 5.39981 8.1998 4.6998 10.6998C4.6998 10.6998 5.0998 9.1998 5.1998 8.8998C5.6998 7.1998 5.5998 5.1998 7.2998 4.0998C3.9998 4.7998 3.7998 8.3998 3.9998 11.0998C3.9998 11.6998 4.0998 12.1998 3.9998 12.7998ZM4.4998 24.3998C4.4998 24.3998 4.2998 22.4998 4.5998 21.6998C5.39981 19.2998 6.1998 16.6998 6.0998 14.1998C5.2998 17.1998 2.7998 18.1998 3.89981 22.2998C3.4998 21.4998 3.39981 20.5998 3.0998 19.7998C2.4998 17.5998 0.799805 15.6998 1.2998 13.0998C0.499804 15.3998 0.499804 17.1998 1.2998 19.5998C1.7998 21.3998 3.5998 22.6998 4.4998 24.3998Z" fill="#DFDFDF"/>
<path d="M24 33.2002C14.9 33.2002 7.5 25.8002 7.5 16.7002C7.5 7.6002 14.9 0.200195 24 0.200195C33.1 0.200195 40.5 7.6002 40.5 16.7002C40.5 25.8002 33.1 33.2002 24 33.2002ZM24 0.600195C15.12 0.600195 7.9 7.8202 7.9 16.7002C7.9 25.5802 15.12 32.8002 24 32.8002C32.88 32.8002 40.1 25.5802 40.1 16.7002C40.1 7.8202 32.88 0.600195 24 0.600195Z" fill="#DFDFDF"/>
<path d="M24.0004 29.8001C16.7804 29.8001 10.9004 23.9201 10.9004 16.7001C10.9004 9.4801 16.7804 3.6001 24.0004 3.6001C31.2204 3.6001 37.1004 9.4801 37.1004 16.7001C37.1004 23.9201 31.2204 29.8001 24.0004 29.8001ZM24.0004 4.0001C17.0004 4.0001 11.3004 9.7001 11.3004 16.7001C11.3004 23.7001 17.0004 29.4001 24.0004 29.4001C31.0004 29.4001 36.7004 23.7001 36.7004 16.7001C36.7004 9.7001 31.0004 4.0001 24.0004 4.0001Z" fill="#DFDFDF"/>
<path d="M24 26.7002C18.49 26.7002 14 22.2102 14 16.7002C14 11.1902 18.49 6.7002 24 6.7002C29.51 6.7002 34 11.1902 34 16.7002C34 22.2102 29.51 26.7002 24 26.7002ZM24 7.1002C18.71 7.1002 14.4 11.4102 14.4 16.7002C14.4 21.9902 18.71 26.3002 24 26.3002C29.29 26.3002 33.6 21.9902 33.6 16.7002C33.6 11.4102 29.29 7.1002 24 7.1002Z" fill="#DFDFDF"/>
<path d="M24.0004 23.3001C20.3604 23.3001 17.4004 20.3401 17.4004 16.7001C17.4004 13.0601 20.3604 10.1001 24.0004 10.1001C27.6404 10.1001 30.6004 13.0601 30.6004 16.7001C30.6004 20.3401 27.6404 23.3001 24.0004 23.3001ZM24.0004 10.5001C20.5804 10.5001 17.8004 13.2801 17.8004 16.7001C17.8004 20.1201 20.5804 22.9001 24.0004 22.9001C27.4204 22.9001 30.2004 20.1201 30.2004 16.7001C30.2004 13.2801 27.4204 10.5001 24.0004 10.5001Z" fill="#DFDFDF"/>
<path d="M24 20.2002C22.07 20.2002 20.5 18.6302 20.5 16.7002C20.5 14.7702 22.07 13.2002 24 13.2002C25.93 13.2002 27.5 14.7702 27.5 16.7002C27.5 18.6302 25.93 20.2002 24 20.2002ZM24 13.6002C22.29 13.6002 20.9 14.9902 20.9 16.7002C20.9 18.4102 22.29 19.8002 24 19.8002C25.71 19.8002 27.1 18.4102 27.1 16.7002C27.1 14.9902 25.71 13.6002 24 13.6002Z" fill="#DFDFDF"/>
<path d="M24.2002 33.0004H23.8002V20.0004H24.2002V33.0004ZM35.3602 28.3404L26.1602 19.1404L26.4402 18.8604L35.6402 28.0604L35.3602 28.3404ZM12.6402 28.3404L12.3602 28.0604L21.5602 18.8604L21.8402 19.1404L12.6402 28.3404ZM40.3002 16.9004H27.3002V16.5004H40.3002V16.9004ZM20.7002 16.9004H7.7002V16.5004H20.7002V16.9004ZM26.4402 14.5404L26.1602 14.2604L35.3602 5.06039L35.6402 5.34039L26.4402 14.5404ZM21.5602 14.5404L12.3602 5.34039L12.6402 5.06039L21.8402 14.2604L21.5602 14.5404ZM24.2002 13.4004H23.8002V0.400391H24.2002V13.4004Z" fill="#DFDFDF"/>
<path d="M23.2098 20.7199C23.2498 20.6399 23.3298 20.3199 23.4298 20.4199C23.5298 20.5199 23.5898 20.4199 23.5898 20.4199C23.5898 20.4199 23.6398 20.4699 23.6098 20.5699C23.5898 20.6699 23.5598 20.7699 23.4998 20.7899C23.4398 20.7999 23.3898 20.8399 23.3098 20.8499C23.2498 20.8599 23.2098 20.7199 23.2098 20.7199ZM24.0298 20.5899C24.0498 20.5699 24.0798 20.6699 24.1298 20.6499C24.1798 20.6399 24.1998 20.7399 24.1498 20.7399C24.0998 20.7399 24.0998 20.7999 24.0998 20.8299C24.0998 20.8599 24.0998 20.9199 24.0598 20.9599C24.0198 20.9999 23.9898 20.9699 23.9398 20.9499C23.8898 20.9199 23.8698 20.9199 23.7998 20.9199C23.7398 20.9199 23.7898 21.0199 23.7898 21.0199C23.7898 21.0199 23.5298 21.0099 23.5798 20.9699C23.6298 20.9299 23.6798 20.9199 23.6398 20.8899C23.5998 20.8599 23.6398 20.8399 23.6398 20.7899C23.6398 20.7399 23.7598 20.7599 23.7298 20.7299C23.6898 20.6899 23.7298 20.5499 23.7898 20.6299L23.8298 20.5399C23.7898 20.4999 23.8198 20.4899 23.7398 20.4599C23.6698 20.4299 23.7298 20.2799 23.7298 20.2799L23.7398 20.1799C23.7598 20.0499 24.0098 20.0399 24.0298 20.1499C24.0398 20.2599 24.0298 20.3399 24.0298 20.3399L24.0998 20.3699C24.0998 20.3699 24.0898 20.4499 24.0298 20.4499C23.9698 20.4499 24.0298 20.4899 23.9898 20.5299L24.0298 20.5899ZM33.2398 14.5099C33.1698 14.5799 33.0198 14.6099 33.0198 14.6099L32.9698 14.7999L32.8898 14.8699C32.8898 14.8699 32.9098 14.9199 32.8898 15.0399C32.8698 15.1599 32.7198 15.2299 32.7198 15.2299L32.6498 15.3099C32.6498 15.3099 32.2498 15.3299 32.1998 15.3099C32.0498 15.2399 32.1498 15.0399 32.2498 15.0599C32.3498 15.0799 32.2298 14.7699 32.2298 14.7699L32.3598 14.7499C32.3598 14.7499 32.3798 14.4499 32.4298 14.4499C32.4798 14.4499 32.4098 14.3499 32.3498 14.2999C32.2798 14.2499 32.1998 14.0799 32.1298 14.0999C32.0598 14.1199 31.7998 14.0999 31.7998 14.0999L31.7498 14.1999L31.5698 14.2299C31.5698 14.2299 31.5898 14.3599 31.5498 14.3999C31.4498 14.5199 31.0698 14.7699 31.2298 14.3499L31.2798 14.2499V14.0999L30.9798 14.0799C30.9798 14.0799 30.8298 14.0299 30.8298 13.9599C30.8298 13.8899 30.8098 13.8099 30.8098 13.8099L30.4598 13.4199L30.0398 13.3699L30.0098 13.2899L29.7598 13.2599C29.4598 13.1099 29.1898 13.2399 29.2398 13.4999C29.2898 13.7499 29.3698 13.8499 29.2098 13.8499C29.0398 13.8499 29.0098 13.7199 29.0098 13.7199C29.0098 13.7199 28.8798 13.6699 28.8798 13.7399C28.8798 13.8099 28.8298 13.9399 28.8798 14.0099C28.9298 14.0799 28.8098 14.1799 28.7598 14.1299C28.7098 14.0799 28.5798 13.9299 28.6098 13.8799C28.6398 13.8299 28.3798 13.5099 28.6398 13.4599C28.9098 13.4099 28.6198 13.2599 28.7198 13.2199L28.8498 13.1499H28.9798L29.0598 13.0799L28.8398 13.0499L28.7098 13.0299L28.4598 13.0099C28.2098 13.1799 28.1598 13.3799 28.1598 13.3799C28.0298 13.6299 27.7098 13.2799 27.8298 13.1399C27.9498 12.9999 27.4598 13.1199 27.3798 13.1899C27.2998 13.2599 27.0498 13.2199 27.0498 13.2199C26.9998 13.3699 26.7698 13.1999 26.8298 13.0999C26.8998 12.9999 26.8998 12.9299 26.8998 12.9299L26.8198 12.9099L26.7198 13.0999C26.4898 13.0999 26.4198 13.2299 26.4698 13.3199C26.5198 13.3999 26.3998 13.2999 26.3698 13.4199C26.3398 13.5399 26.3898 13.5399 26.4898 13.5899C26.5898 13.6399 26.4398 13.6399 26.5098 13.7199C26.5798 13.7999 26.7798 13.7199 26.6598 13.8399C26.5398 13.9599 26.3098 13.9099 26.3098 13.9099C26.2898 14.0599 25.9798 14.0299 25.9398 13.9799C25.9098 13.9299 25.6598 13.6299 25.6598 13.6299L25.3398 13.6099C25.3098 13.3699 25.4898 13.4899 25.5598 13.3099C25.6298 13.1199 25.6598 12.8199 25.6598 12.8199C25.6598 12.8199 25.3898 12.7999 25.3798 12.8899C25.3598 12.9699 25.1998 13.0299 25.1998 13.0299C25.1998 13.0299 25.0698 13.0799 25.1198 13.1499C25.1698 13.2199 25.0198 13.2499 25.0198 13.2499C25.0198 13.2499 25.0498 13.3599 24.9998 13.3999C24.8698 13.5399 24.5298 13.4199 24.4798 13.3699L24.2798 13.2899L24.0798 13.1599L23.8498 13.2599L23.7798 13.3299H23.5298L23.5098 13.5299L23.9598 13.5799L23.9898 13.9999L23.8098 13.9399H23.6898L23.6398 13.8399L23.5398 13.8199V14.1899L23.6398 14.2699L23.7198 14.3499L23.8898 14.3699L23.9198 14.5699L24.3398 14.5899L24.3898 14.6699L24.6398 14.6899L25.1198 15.1799L25.0898 15.3299L25.0098 15.3799C25.0398 15.4999 24.7898 15.4299 24.7898 15.4299V15.5299L24.9098 15.5499L25.0298 15.6199L25.1998 15.3299C25.3798 15.2099 25.4698 15.3799 25.4798 15.4799C25.4998 15.5799 25.3998 15.5599 25.3998 15.5599V15.7999L25.4998 15.8299C25.6698 16.0299 25.4298 16.1499 25.4298 16.1499L25.3798 16.3199C25.3298 16.4699 25.1498 16.4399 25.1498 16.4399L25.0798 16.5399L24.8798 16.5899L25.2698 16.6399C25.3098 16.4999 25.4098 16.4699 25.4598 16.5399C25.5098 16.6099 25.5098 16.7299 25.5098 16.7299L25.6098 16.7499L25.5898 16.9399L25.6898 16.9699V17.5099L25.8098 17.6399C26.0098 17.5599 26.0098 17.6899 25.9098 17.7599C25.8098 17.8299 25.8798 18.1299 25.8798 18.1299L25.7998 18.2099V18.3499L25.6998 18.4199V18.6099C25.5298 18.5299 25.3298 18.5599 25.2798 18.6099C25.1298 18.5099 24.8098 18.5399 24.8098 18.6299C24.9098 18.7599 24.6898 18.7999 24.6898 18.7999L24.5698 18.9299C24.6498 19.0999 24.4898 19.1199 24.4898 19.1199V19.4399L24.2898 19.6299L24.3098 20.0699C24.3098 20.1899 24.5598 20.1999 24.6098 20.1399C24.6598 20.0699 24.8598 20.2799 24.8598 20.2799H25.0098L25.0398 19.9799L24.9398 19.9299V19.4399L25.1098 19.2499C25.3098 19.1799 25.2398 19.6899 25.2398 19.7399C25.2598 19.9299 25.3398 19.9099 25.4198 19.8699C25.5898 19.7999 25.4498 20.0599 25.3198 20.0399C25.1898 20.0199 25.2698 20.2099 25.2698 20.2099L25.3498 20.2399L25.1998 20.3599L25.0698 20.5099L24.8998 20.4599L24.6998 20.4399L24.6298 20.3199L24.5098 20.2999L24.4898 20.5399L24.4098 20.6399L24.2098 20.8399C24.4798 20.8399 24.1798 21.0299 24.1098 21.0299C24.2598 21.0799 24.0898 21.2299 23.7098 21.1099V21.2299L23.5798 21.2499L23.6998 21.3799L23.8298 21.3999L23.7798 21.6899C23.7798 21.9099 23.2298 21.7599 23.1798 21.7099L23.1598 22.0099L23.0598 22.0299L23.0798 22.2299L23.0598 22.5199L23.2398 22.4899V22.6099L23.6898 22.6299L24.3398 21.9399L24.7198 21.8599C24.7498 21.6899 24.9198 21.8899 24.9198 21.8899C25.0898 21.8699 25.1198 21.9899 25.1198 21.9899L25.3398 22.0199C25.5198 22.0699 25.4098 22.0899 25.4198 22.1599C25.4398 22.2599 25.5198 22.2299 25.5198 22.2299L25.5498 22.0099L25.6498 22.0299L25.5498 21.9099L25.3698 21.8299L25.1698 21.7499C25.0398 21.5599 25.1998 21.5999 25.3398 21.6199H25.5598C25.5598 21.6199 25.8098 21.9599 25.8098 22.0399C25.8098 22.1199 25.9298 22.1399 25.9298 22.1399L26.0798 22.1199L26.1298 22.2399H26.2798L26.3298 22.3399H26.6298L26.6498 22.1899L26.3698 22.1399L26.3498 21.9699L26.1498 21.9199C26.0798 21.6299 26.1998 21.5499 26.2798 21.6799L26.3798 21.6999L26.3498 21.4499L26.4698 21.4199L26.4398 21.0699L26.3398 21.0399V20.9199L26.7598 20.9399C26.7298 20.7199 26.7798 20.6199 26.7798 20.6199H26.8998L26.9198 20.6999L27.4298 20.7499L27.7898 20.3399C27.7698 20.3099 27.8298 20.2899 27.7898 20.2499C27.7398 20.1999 27.6698 20.2499 27.5898 20.1999C27.5098 20.1499 27.5898 19.8599 27.5698 19.7999C27.5498 19.7299 27.8498 19.6299 27.7998 19.7799C27.7498 19.9299 27.7998 19.9999 27.7998 19.9999C28.0198 19.7999 28.1998 20.0199 28.1798 20.0699C28.1598 20.1199 28.2998 20.1699 28.3798 20.1199C28.4598 20.0699 28.5598 20.2699 28.5298 20.3699C28.4998 20.4699 28.1998 20.4499 28.1798 20.3499C28.1598 20.2499 28.1098 20.2799 28.0798 20.3299C28.0498 20.3799 27.8998 20.4099 27.8098 20.3599C27.7898 20.3499 27.7898 20.3399 27.7798 20.3299L27.4198 20.7399H27.4398C27.6398 20.8599 27.5398 21.0099 27.4698 21.0399C27.3998 21.0699 27.2898 21.0699 27.2898 21.0699L27.2598 21.1399L26.8298 21.1699L26.7998 21.3399C26.5798 21.3099 26.4998 21.5399 26.5498 21.6599C26.5998 21.7799 26.5498 21.8799 26.5498 21.8799L26.7298 21.9599L26.9598 21.8899C26.9898 21.7199 27.1398 21.6899 27.2798 21.5899C27.4098 21.4899 27.6298 21.7799 27.5598 21.9099C27.4898 22.0399 27.4898 22.0999 27.4898 22.0999L27.5098 22.2499L27.3398 22.3199L27.2098 22.3899L27.1898 22.4699H26.7398L26.6598 22.5499L26.4398 22.5699L26.3698 22.6699L26.2198 22.6899C26.2198 22.6899 25.9698 22.8099 26.0698 22.9399C26.1698 23.0799 25.6498 23.0599 25.5398 22.8699C25.5098 23.0399 25.3198 22.8899 25.3198 22.8899L25.1398 22.8399L25.1198 22.5899C25.0898 22.4199 24.7698 22.4199 24.7898 22.5399C24.8098 22.6599 24.1898 22.5899 24.1898 22.5899L23.9898 22.6899L23.8098 22.7999L23.7898 22.8799L23.4898 22.9099L23.3598 22.9799L23.3098 22.8799H23.1798L23.0498 23.0699C22.6998 23.0899 22.3698 23.2899 22.3998 23.3699C22.4298 23.4499 22.2698 23.5399 22.2698 23.5399L22.1198 23.5899L22.0198 23.7399L21.8198 23.8099L21.7898 24.1599L21.6898 24.2299V24.3799L21.5698 24.4099V24.4899L21.3998 24.5099L21.4998 24.7599L21.6298 24.8299C21.8598 24.8599 21.7598 25.1499 21.7598 25.1499L21.8898 25.1699L21.9598 25.3599L22.0898 25.6299C22.1398 25.8299 22.2898 25.7799 22.3598 25.7699C22.4298 25.7499 22.4898 25.9699 22.4898 25.9699L23.1498 25.9899C23.1498 25.9899 23.1198 26.0599 23.2298 26.0899C23.3498 26.1199 24.1098 26.1599 24.1398 26.1099C24.1098 25.9599 24.5598 25.9199 24.7398 26.0599C24.9198 26.1899 25.1698 26.1099 25.1698 26.1099L25.4198 26.4099L25.5898 26.7799L25.8698 26.8599L26.0698 26.9099L26.1398 27.1999L26.2898 27.2199L26.3398 27.4099C26.5198 27.5399 26.2898 27.8299 26.2898 27.8299V28.1999L26.4198 28.2699L26.3998 28.4099L26.6198 28.6299L26.8698 28.6499L27.4998 29.3199L27.9998 29.4699L28.0798 29.7399L28.2098 29.7199L28.3098 29.6399L28.7098 29.6199L28.9098 29.4299L29.1298 29.3999L30.9798 27.8299L30.8098 27.7299V27.3599C31.1098 27.1399 31.1298 26.7499 30.8398 26.7199C30.6298 26.6899 30.7198 26.4699 30.9198 26.4299L31.0398 26.3799V26.2299L31.4198 25.8799V25.6099L30.5898 24.9199C30.2198 24.7899 30.5898 23.9799 30.8398 23.9899C31.0898 24.0099 30.8198 22.7399 30.8198 22.7399L30.6898 22.6699L30.7198 22.2599H30.5398L30.2398 22.6499L30.1598 22.9199C30.1298 23.2699 29.0998 23.2099 29.0498 23.1599C28.9998 23.1099 28.6498 22.9599 28.6498 22.9599C28.6498 22.9599 28.3798 22.7399 28.3298 22.8099C28.2798 22.8799 28.0498 22.7299 28.0498 22.7799C28.0498 22.8299 27.8298 22.6599 27.8298 22.6599L27.4998 22.5399L27.7498 22.4899L27.6998 22.2899L28.1298 22.5099C28.1798 22.5799 28.3998 22.5599 28.3998 22.5599L28.4698 22.6399C28.4698 22.6399 28.5998 22.6199 28.6898 22.7199C28.7698 22.8199 29.2098 22.7399 29.2098 22.7399L29.3298 22.8399L29.5098 22.9099L30.0298 22.9299L30.0498 22.6099L30.1498 22.5099L30.1298 22.3099L30.2498 22.2099V22.0399L30.3498 22.0099L30.3698 21.6399L30.4498 21.6199V20.8099L30.1998 20.5699C30.1798 20.6499 29.9198 20.6499 29.9198 20.6499C29.9198 20.6499 29.8498 20.7699 29.7998 20.7699C29.7498 20.7699 29.8698 20.9199 29.8298 21.0199C29.7998 21.1199 29.6598 21.1199 29.6598 21.1199L29.4098 21.1899L29.3398 21.2699H29.0698L29.0398 21.0499L29.3398 20.9699L29.5098 20.8899L29.5898 20.7199C29.6098 20.5499 29.8098 20.5699 29.8098 20.5699C29.8098 20.5699 30.1898 20.2499 30.2098 20.0999C30.2298 19.9499 30.3598 19.5299 30.5898 19.5299H31.0198C31.1898 19.4599 31.1398 19.2399 31.1398 19.2399L31.3598 19.2099L31.3898 19.3299C31.3898 19.3299 31.6898 19.3599 31.7198 19.3099C31.7498 19.2599 31.8198 19.1399 31.8998 19.1899C31.9798 19.2399 32.2498 19.0699 32.2498 19.0699C32.2698 18.9499 32.6798 18.9999 32.6798 18.9999L32.7298 18.8499C32.7298 18.8499 32.4498 18.4599 32.3998 18.4599C32.3498 18.4599 32.0798 18.2199 32.0498 18.3099C31.7798 18.2399 31.7998 17.8699 31.7998 17.8699L31.6998 17.6299C31.6998 17.4899 31.4498 17.2099 31.3998 17.2399C31.1498 17.0499 31.3298 16.8399 31.3998 16.8199C31.4698 16.7999 31.6298 16.5699 31.6298 16.5699L31.7098 16.3299L31.9898 16.2499L32.0198 16.0299L31.8698 16.0099C31.8698 16.0099 32.0398 15.7099 32.1198 15.7099C32.1998 15.7099 32.7498 15.7099 32.7998 15.6799C32.8498 15.6499 32.9498 15.3799 32.9498 15.3299C32.9498 15.2799 33.0798 15.2599 33.1298 15.2499C33.1798 15.2299 33.2998 15.0999 33.3298 15.0299C33.4198 14.8599 33.3098 14.4399 33.2398 14.5099ZM37.8498 19.8999C37.8398 19.8699 37.8298 19.8399 37.7998 19.8299C37.7298 19.7999 37.5998 19.8499 37.5398 19.8899L37.5998 19.9699C37.6598 19.9299 37.7498 19.9099 37.7598 19.9199V19.9099L37.8498 19.8999ZM38.2798 21.9099L38.1798 21.8999C38.1698 21.9799 38.1898 22.0799 38.2698 22.0899L38.2898 21.9899C38.2898 21.9899 38.2798 21.9499 38.2798 21.9099ZM38.6498 21.5099C38.6798 21.6099 38.7098 21.7099 38.7098 21.7199L38.7998 21.6799C38.7998 21.6799 38.7598 21.5799 38.7398 21.4799L38.6498 21.5099ZM38.8698 21.4299V21.4099C38.8698 21.3799 38.8598 21.3399 38.8398 21.2999L38.7498 21.3499C38.7598 21.3699 38.7598 21.3999 38.7698 21.4199C38.7698 21.4499 38.7798 21.4799 38.7998 21.4999C38.8198 21.5099 38.8398 21.5199 38.8698 21.5099L38.8498 21.4099C38.8498 21.4199 38.8598 21.4199 38.8698 21.4299ZM38.0198 22.1499C38.0898 22.1099 38.1798 22.0199 38.1698 22.2099C38.1598 22.3999 38.0798 22.3399 38.0198 22.3999C37.9598 22.4599 37.9198 22.2099 38.0198 22.1499ZM34.0098 23.4499L34.0198 23.2999L34.1798 23.3199L34.1698 23.4599L34.0098 23.4499ZM34.0198 23.7799C33.9998 23.6899 33.8998 23.6599 33.8898 23.6599L33.8598 23.7599C33.8698 23.7599 33.8798 23.7699 33.8898 23.7799L33.9098 23.8699C33.8998 23.8799 33.8898 23.8899 33.8898 23.8999L33.9598 23.9699C34.0098 23.8899 34.0298 23.8399 34.0198 23.7799ZM21.5898 26.8999L21.4898 26.9899L21.4398 27.0299L21.4898 27.0699L21.6098 27.1499L21.6698 27.0699L21.5998 27.0199L21.6498 26.9799L21.5898 26.8999ZM22.7698 28.1099L22.7298 28.1999L22.8298 28.2499L22.7998 28.2899L22.8698 28.3599L22.9998 28.2299L22.9398 28.1899L22.7698 28.1099ZM18.1798 6.40986L18.2798 6.50986L18.2098 6.57986L18.1098 6.47986L18.1798 6.40986ZM21.1998 9.55986L21.2998 9.63986L21.2398 9.71986L21.1398 9.63986L21.1998 9.55986ZM20.8198 9.62986L20.8398 9.81986H21.0898C21.1898 9.81986 21.0098 9.69986 21.0098 9.69986C21.0098 9.69986 20.8098 9.71986 20.8198 9.62986ZM26.2998 4.92986L26.1298 4.90986L26.1198 5.00986L26.2598 5.01986L26.3698 5.18986L26.4498 5.12986L26.3398 4.94986L26.3198 4.92986H26.2998ZM26.7498 1.38986L26.6998 1.47986L26.8298 1.55986L26.8598 1.57986L26.8798 1.55986L27.0698 1.43986L27.0098 1.35986L26.8598 1.45986L26.7498 1.38986ZM27.6398 1.86986L27.5598 1.77986L27.4898 1.85986L27.6398 2.00986L27.6698 1.97986L27.8398 1.83986L27.7698 1.75986L27.6398 1.86986ZM22.1198 5.37986C22.1098 5.31986 22.4498 5.30986 22.4998 5.35986C22.5498 5.40986 22.5198 5.49986 22.6698 5.49986C22.8198 5.49986 22.7498 5.59986 22.7398 5.64986C22.7198 5.69986 22.5598 5.67986 22.5398 5.62986C22.5198 5.57986 22.2698 5.55986 22.2698 5.55986C22.2698 5.55986 22.1398 5.45986 22.1198 5.37986ZM24.0298 5.18986C24.2898 5.26986 24.3798 5.20986 24.3998 5.13986C24.4198 5.06986 24.4298 5.05986 24.5298 5.03986C24.6298 5.01986 24.5098 4.81986 24.4098 4.83986C24.3098 4.85986 24.2098 4.80986 24.1898 4.71986C24.1698 4.63986 24.0098 4.41986 23.9898 4.58986C23.9698 4.75986 23.8698 4.75986 23.8898 4.87986C23.9198 4.98986 23.9698 5.16986 24.0298 5.18986ZM25.6798 2.33986C25.6398 2.18986 25.4298 2.52986 25.6498 2.58986C25.8698 2.65986 26.0798 2.58986 26.0798 2.58986L26.1298 2.48986L26.9598 2.50986C27.0298 2.43986 27.0598 2.33986 27.0598 2.33986C27.0598 2.33986 27.2598 2.26986 27.3398 2.30986C27.4198 2.33986 27.3598 2.06986 27.2698 2.10986C27.1898 2.13986 27.0198 2.12986 27.0198 2.12986H26.7198C26.6998 2.00986 26.4398 2.05986 26.4198 2.12986C26.4098 2.18986 26.3098 2.20986 26.3098 2.20986L25.9298 2.23986C25.8898 2.33986 25.6998 2.40986 25.6798 2.33986ZM25.7098 3.16986L25.4898 2.94986V2.75986L25.4198 2.68986L25.3498 2.44986L25.1298 2.37986L24.9098 2.45986L24.6798 2.60986L24.4298 2.63986L24.2998 2.78986L24.8298 2.83986L24.9298 3.00986L25.3098 3.03986L25.5598 3.28986C25.7898 3.38986 25.8398 3.28986 25.7098 3.16986ZM26.4798 4.78986L26.5498 4.62986L26.6398 4.67986L26.5698 4.82986L26.4798 4.78986ZM31.4498 4.61986C31.4198 4.48986 31.7798 4.36986 31.8698 4.46986C31.9498 4.56986 32.1898 4.58986 32.2198 5.08986C32.2298 5.26986 31.9198 4.89986 31.9198 4.89986L31.6698 4.81986C31.5298 4.78986 31.4598 4.70986 31.4498 4.61986ZM29.6998 5.05986C29.6498 5.20986 29.6298 5.40986 29.5498 5.40986C29.4698 5.40986 29.4998 5.62986 29.4998 5.62986C29.4998 5.62986 29.7198 5.62986 29.7798 5.64986C29.8498 5.66986 29.8498 5.83986 29.8498 5.83986C30.0998 5.81986 30.1998 6.15986 30.1698 6.24986C30.1398 6.32986 30.2698 6.32986 30.2698 6.32986C30.2698 6.32986 30.2698 6.59986 30.2398 6.66986C30.2098 6.73986 30.4598 6.78986 30.5198 6.88986C30.5898 6.98986 30.4898 7.32986 30.4398 7.34986C30.3898 7.36986 30.5698 7.41986 30.5598 7.49986C30.5398 7.57986 30.6098 7.49986 30.6298 7.63986C30.6498 7.76986 30.6798 8.05986 30.6798 8.05986L30.9098 8.07986C30.9398 7.85986 31.3698 7.84986 31.4398 7.87986C31.7198 7.97986 31.9398 8.41986 31.9398 8.51986C31.9398 8.61986 31.7598 8.63986 31.7598 8.63986L31.7898 9.12986C32.0698 9.20986 32.3098 9.61986 32.2698 9.68986C32.2398 9.75986 32.4698 9.73986 32.4698 9.73986C32.4998 9.43986 32.7898 9.53986 32.7998 9.63986C32.8198 9.73986 32.8698 9.95986 32.8698 9.95986L32.9498 10.1099L33.0698 10.2299L33.2498 10.2099L33.2998 10.3099L33.5198 10.3399C33.5198 10.3399 33.6998 10.5399 33.7198 10.5899C33.7398 10.6399 33.9898 10.6199 34.0498 10.6399C34.1198 10.6599 34.2198 10.7099 34.2298 10.7899C34.2498 10.8699 34.3498 11.0099 34.3498 11.0099C34.3498 11.0099 34.5498 11.0599 34.5698 11.1299C34.5898 11.1999 34.6698 11.3499 34.6698 11.3499L34.8398 11.4899L34.8598 11.6399L35.0398 11.6599L35.0898 11.8599L35.3898 11.8399L35.5598 11.7199C35.7798 11.5999 35.9298 11.4499 35.9398 11.3799C35.9598 11.3099 35.9898 11.0599 36.1598 11.1099C36.3298 11.1599 36.2098 10.7399 36.2098 10.7399C36.2098 10.7399 35.9798 10.5699 35.9898 10.4899C36.0098 10.4099 35.7598 10.2399 35.7698 10.1699C35.7898 10.0999 35.5498 9.96986 35.5698 9.89986C35.5898 9.82986 35.4498 9.64986 35.4498 9.64986L35.1998 9.40986L35.1698 9.25986L34.9698 9.23986L34.5698 8.74986L34.5898 8.60986L34.4698 8.58986V8.39986L34.3498 8.32986L34.1698 8.30986L33.7998 7.90986L33.7698 7.71986H33.5898L33.6198 7.36986C33.7398 7.21986 33.6698 6.92986 33.6698 6.92986C33.6698 6.92986 33.4398 7.04986 33.3198 6.99986C33.1998 6.94986 33.3698 6.82986 33.3698 6.82986V6.69986L33.2698 6.59986C33.2698 6.59986 32.9898 6.62986 32.9698 6.57986C32.9498 6.52986 32.8998 6.30986 32.8998 6.30986L32.8798 6.01986L32.7598 5.96986L32.7398 5.86986L32.5598 5.88986V5.68986L32.4598 5.65986L32.3598 5.60986L32.3398 5.40986L31.9698 5.38986L31.8498 5.21986L31.7198 5.01986L31.2998 4.98986L31.1998 4.88986L31.0298 4.85986L30.9098 4.80986L30.8598 4.88986L30.5398 4.90986L30.5198 5.00986C30.3798 5.07986 29.7198 5.00986 29.6998 5.05986ZM26.6398 4.95986C26.6698 5.00986 26.8698 5.05986 26.8698 5.05986C26.9998 5.05986 27.0898 5.15986 27.0898 5.20986C27.0898 5.25986 27.2698 5.23986 27.2698 5.23986L27.2898 5.11986L27.1598 4.94986L27.0398 4.86986C27.0398 4.86986 26.8598 4.84986 26.8598 4.79986C26.8598 4.75986 26.6698 4.90986 26.6398 4.95986ZM26.6398 5.52986L26.5098 5.49986V5.64986L26.6898 5.66986L26.6398 5.52986ZM28.4898 7.38986V7.25986C28.4898 7.25986 28.4698 7.12986 28.3898 7.12986C28.3098 7.12986 28.1598 7.02986 28.1898 6.95986C28.2198 6.88986 27.9098 6.81986 27.9098 6.81986C27.9098 6.81986 27.6298 6.54986 27.7298 6.57986C27.8298 6.60986 27.7798 6.45986 27.7798 6.45986C27.7798 6.45986 27.5798 6.48986 27.5298 6.47986C27.4798 6.45986 27.4998 6.30986 27.4998 6.30986C27.4998 6.30986 27.2998 6.25986 27.2998 6.30986C27.2998 6.35986 27.3698 6.35986 27.3998 6.45986C27.4298 6.55986 27.4198 6.72986 27.5698 6.75986C27.7198 6.78986 27.7498 6.82986 27.7698 6.89986C27.7898 6.96986 27.9698 6.97986 27.9698 6.97986L28.0998 7.04986L28.4898 7.38986ZM28.6198 7.83986C28.5998 7.76986 28.5698 7.53986 28.6698 7.54986C28.7698 7.56986 28.6998 7.54986 28.8198 7.59986C28.9398 7.64986 28.9498 7.51986 28.9498 7.51986H29.1298L29.3598 7.70986L29.3298 7.85986L29.1598 7.87986C29.0798 7.74986 28.9098 7.79986 28.9398 7.90986C28.9698 8.02986 28.8598 8.24986 28.7898 8.25986C28.7198 8.27986 28.5098 8.27986 28.5198 8.17986C28.5498 8.07986 28.6198 7.83986 28.6198 7.83986ZM31.3598 10.1399L31.4798 9.76986C31.3098 9.73986 31.3498 9.54986 31.3498 9.54986C31.3298 9.39986 31.0998 9.22986 31.0198 9.27986C30.9398 9.32986 30.9698 8.92986 30.9698 8.92986C30.9698 8.92986 31.1198 8.82986 31.1898 8.87986C31.2598 8.92986 30.6198 8.03986 30.4898 8.11986C30.3598 8.19986 30.0598 8.03986 30.0698 7.87986C30.0898 7.72986 29.4698 7.21986 29.4698 7.21986C29.4698 7.21986 29.2698 7.08986 29.2398 7.18986C29.2098 7.28986 29.1398 7.35986 29.2398 7.40986C29.3398 7.45986 29.3198 7.32986 29.4398 7.43986C29.5598 7.55986 29.7698 7.70986 29.6898 7.80986C29.6098 7.90986 29.5098 7.94986 29.5098 7.94986L29.6298 8.08986H29.8098L29.8398 8.37986C29.8398 8.37986 30.0398 8.47986 30.0898 8.59986C30.1398 8.71986 30.1398 8.78986 30.0898 8.84986C30.0398 8.91986 29.9398 9.03986 29.9598 9.14986C29.9798 9.26986 30.1098 9.31986 30.1098 9.31986L30.2398 9.33986L30.3398 9.38986V9.60986C30.4698 9.57986 30.6898 9.75986 30.6698 9.87986C30.6498 9.99986 30.6998 9.92986 30.8698 10.0499C31.0398 10.1699 30.9898 10.1899 31.0998 10.2699C31.2098 10.3399 31.3098 10.2899 31.3598 10.1399ZM27.5398 12.2999C27.5398 12.3499 27.5098 12.4199 27.6098 12.4399C27.7098 12.4599 27.8898 12.3699 27.9098 12.4699C27.9298 12.5699 27.9298 12.6399 28.0598 12.6899C28.1898 12.7399 28.2798 12.7599 28.3798 12.7599C28.4798 12.7599 28.6998 12.7299 28.6998 12.7299C28.6998 12.7299 28.9398 12.7699 28.9798 12.8099C29.1598 12.9999 29.2798 13.0499 29.3298 12.9599C29.3798 12.8799 29.3098 12.6899 29.2998 12.6199C29.2798 12.5499 29.0498 12.2299 28.9698 12.2999C28.8898 12.3699 28.8698 12.2999 28.7198 12.3499C28.5698 12.3999 28.2498 12.3699 28.2398 12.2999C28.2198 12.2299 27.9898 12.1999 27.9898 12.1299C27.9898 12.0599 27.8198 11.9799 27.8398 12.0799C27.8598 12.1799 27.7198 12.2299 27.6898 12.1999C27.6398 12.1599 27.5398 12.2999 27.5398 12.2999ZM26.7098 12.4799L26.6898 12.5999L26.8698 12.6199C26.8698 12.6199 26.9498 12.6899 26.9498 12.7399C26.9498 12.7899 27.0698 12.8399 27.1298 12.8399C27.1998 12.8399 27.3798 12.6999 27.3798 12.6999C27.3798 12.6999 27.4598 12.4599 27.3998 12.4799C27.3298 12.4999 27.1998 12.5999 27.1798 12.4999C27.1598 12.3999 26.9598 12.4499 26.9598 12.4499L26.7098 12.4799ZM25.8498 12.6699L25.8998 12.6599L25.9298 12.7499L25.8798 12.7699L25.8498 12.6699ZM25.9098 12.5099L26.0098 12.4899L26.0398 12.6399L25.9498 12.6599L25.9098 12.5099ZM26.1898 12.5299L26.1998 12.6299L26.5598 12.6199V12.5199L26.1898 12.5299ZM29.4298 12.4499L29.5998 12.4299L29.6098 12.5299L29.4398 12.5499L29.4298 12.4499ZM29.8698 12.8199L29.9198 12.6999L30.0098 12.7399L29.9598 12.8599L29.8698 12.8199ZM31.3198 11.1299L31.4898 11.1199L31.4998 11.2199L31.3298 11.2299L31.3198 11.1299ZM31.5998 11.2299H31.6998V11.3099H31.5998V11.2299ZM31.8998 9.80986L31.7998 9.81986L31.7798 9.66986L31.8798 9.65986L31.8998 9.80986ZM31.7998 11.9099H31.8998V12.0299H31.7998V11.9099ZM32.0198 11.9699L32.1098 12.0099L32.0598 12.1199L31.9698 12.0699L32.0198 11.9699ZM31.5298 10.6399C31.6298 10.6399 31.4998 11.0299 31.7598 10.9899C32.0298 10.9599 31.7798 11.1099 31.9798 11.1199C32.1798 11.1399 32.1298 10.9699 32.1998 10.8499C32.2698 10.7299 32.2298 10.6599 32.1198 10.6299C31.9998 10.5999 31.9998 10.5999 31.9698 10.4599C31.9398 10.3299 31.7998 10.2899 31.7998 10.2899L31.7498 10.0899L31.5298 10.2199L31.3098 10.5099C31.3098 10.7499 31.4298 10.6399 31.5298 10.6399ZM32.1798 11.5599C32.3098 11.4899 32.5998 11.4899 32.5798 11.3899C32.5598 11.2899 32.7498 11.2599 32.7498 11.2599L32.7998 11.4599L32.9498 11.5599L32.9698 11.7499C32.9698 11.7499 33.0198 11.7199 32.8398 11.7699C32.6598 11.8199 32.7698 11.8999 32.7698 11.8999L32.3698 11.9199L32.3198 11.7499L32.1798 11.5599ZM30.0298 12.9699C30.1098 12.9499 30.3098 12.9399 30.3498 12.9899C30.3798 13.0399 30.2298 13.1099 30.2298 13.1099L30.0298 13.1399C29.9698 13.0599 29.9498 12.9899 30.0298 12.9699ZM31.0998 12.8199C31.1898 12.9099 30.5998 12.8899 30.5998 12.8199C30.5998 12.7499 30.6498 12.5199 30.7998 12.5699C30.9498 12.6199 30.9698 12.2699 30.9698 12.2699C30.9698 12.2699 30.8398 12.2899 30.9498 12.2199C31.0698 12.1499 30.9498 12.0499 30.8998 11.9999C30.8498 11.9499 30.7998 11.8599 30.7998 11.8599H31.0298C31.1298 11.7899 31.1598 11.4699 31.1598 11.4699C31.3598 11.5399 31.4598 11.3999 31.4598 11.3999C31.4598 11.3999 31.4898 11.4999 31.5598 11.5899C31.6298 11.6699 31.3898 11.7099 31.4798 11.7599C31.5598 11.8099 31.5998 11.9599 31.5598 12.0099C31.5298 12.0599 31.3398 12.0299 31.3398 11.9599C31.3398 11.8899 31.2698 12.0399 31.3398 12.1299C31.4098 12.2099 31.2598 12.3299 31.2198 12.3299C31.1898 12.3299 30.9698 12.3599 31.1498 12.4699C31.3298 12.5699 31.5298 12.5199 31.5298 12.5199C31.5298 12.5199 31.6798 12.4999 31.7298 12.5899C31.7798 12.6699 31.7098 12.6899 31.6298 12.6899C31.5498 12.6899 31.1498 12.6599 31.1498 12.6599C31.1498 12.6599 31.0498 12.7699 31.0998 12.8199ZM33.0398 10.9099C32.9898 10.8399 32.9398 10.7899 32.8698 10.7599C32.7998 10.7299 32.7498 10.6899 32.6898 10.6899C32.6198 10.6899 32.5598 10.6199 32.5898 10.5399C32.6198 10.4599 32.5398 10.4199 32.5398 10.3499C32.5398 10.2799 32.5898 10.2799 32.6698 10.3299C32.7498 10.3799 32.7398 10.3999 32.7998 10.4799C32.8698 10.5599 32.8998 10.6499 32.9698 10.6299C33.0398 10.6099 33.0898 10.7799 33.1498 10.7299C33.2198 10.6799 33.1998 10.8499 33.1998 10.8499L33.0398 10.9099ZM32.8798 11.0699C32.9298 11.1399 33.0298 11.1899 33.0298 11.2599C33.0298 11.3299 32.9998 11.3799 33.0998 11.3899C33.1998 11.4099 33.2698 11.3699 33.2998 11.4599C33.3298 11.5399 33.3298 11.6799 33.3198 11.7499C33.2998 11.8199 33.3398 11.9199 33.4198 11.9199C33.4998 11.9199 33.5198 11.9399 33.5198 11.9899C33.5198 12.0399 33.6198 11.7999 33.6198 11.7999C33.5398 11.7299 33.4698 11.5799 33.4698 11.5799C33.4698 11.5799 33.3898 11.3399 33.3898 11.3099C33.3898 11.2799 33.2698 11.2399 33.2198 11.2299C33.1698 11.2099 33.0898 11.0599 33.0898 11.0599L32.8798 11.0699ZM33.9598 13.7999L33.8898 13.6499C33.8898 13.6499 33.8898 13.5199 33.9198 13.4499C33.9498 13.3799 33.8498 13.3199 33.7998 13.2999C33.7498 13.2799 33.7698 13.1499 33.7498 13.0799C33.7298 13.0099 33.6198 12.9599 33.6198 12.9599C33.6198 12.9599 33.5898 12.7099 33.5898 12.6599C33.5898 12.6099 33.4398 12.5399 33.4898 12.4899C33.5398 12.4399 33.5698 12.3699 33.6198 12.3399C33.6698 12.3099 33.5698 12.0699 33.6498 12.1199C33.7298 12.1699 33.7298 12.2599 33.7698 12.3199C33.7998 12.3899 33.7498 12.6199 33.8398 12.6699C33.9198 12.7199 33.8198 12.8899 33.9598 12.8899C34.0898 12.8899 34.0098 13.2099 34.0098 13.2099C34.0098 13.2099 33.9798 13.4499 34.0598 13.4599C34.1398 13.4799 34.0898 13.8799 34.0898 13.8799L33.9598 13.7999ZM34.0098 15.0899L34.0598 14.9899L34.1498 15.0399L34.0998 15.1399L34.0098 15.0899ZM34.1198 14.5399L34.2198 14.5499L34.2098 14.6899L34.1098 14.6699L34.1198 14.5399ZM33.9098 13.9799L33.7798 13.9599L33.4798 14.0099L33.3098 14.3299C33.3098 14.3299 33.3898 14.3799 33.4598 14.4999C33.5298 14.6199 33.5598 15.3099 33.3598 15.4299C33.1598 15.5499 33.3798 15.4799 33.3798 15.4799L33.3498 15.8499C33.3998 16.0199 33.4798 15.9299 33.5298 15.8499C33.5798 15.7699 33.6298 15.7499 33.6998 15.6599C33.7698 15.5799 33.8698 15.4199 33.8798 15.3099C33.8998 15.1899 33.9798 15.0099 33.9298 14.9599C33.8798 14.9099 33.9798 14.6699 33.9798 14.6699C33.9798 14.6699 34.0498 14.5299 33.9798 14.3999C33.9098 14.2599 33.9998 14.1099 34.0498 14.0499L33.9098 13.9799ZM33.1798 12.2599H32.9298C32.9298 12.2599 33.0098 12.2899 32.7798 12.0699C32.5498 11.8499 32.3998 12.1199 32.3998 12.1199L32.1298 12.1499V12.4199L31.9998 12.4699L32.0198 12.6399L32.1998 12.6199C32.1998 12.6199 32.1998 12.8199 32.2498 12.7399C32.2998 12.6599 32.7198 12.7599 32.6798 12.9599C32.6698 13.0399 33.0998 13.2599 33.0498 13.5299C33.2698 13.5599 33.2198 13.7799 33.2198 13.7799L33.4998 13.8099L33.5798 13.6399L33.6598 13.6599V13.5599L33.4798 13.5099L33.4498 12.9699L33.3298 12.8899L33.3598 12.7499L33.2298 12.6999L33.2998 12.4799L33.1798 12.2599ZM32.5598 16.3999L32.6598 16.3599L32.6198 16.2799L32.5998 16.2199L32.5498 16.2499L32.4298 16.3199L32.3198 16.2499L32.2698 16.3399L32.3998 16.4199L32.4298 16.4399L32.4498 16.4199L32.5498 16.3699L32.5598 16.3999ZM32.9998 16.1799L33.1798 16.2099L33.1998 16.1099L33.0198 16.0799L32.9998 16.1799ZM32.6598 18.3399C32.5898 18.2399 32.9898 18.0699 33.0598 18.2699C33.1298 18.4699 33.0598 18.4399 32.9898 18.4199C32.9298 18.3999 32.7598 18.4699 32.6598 18.3399ZM30.9398 21.5899H31.0598V21.9099H30.9398V21.5899ZM31.7098 24.6799C31.6798 24.8099 31.5598 24.8799 31.4898 24.8299C31.4198 24.7799 31.5698 24.9099 31.6098 24.9799C31.6398 25.0499 31.7398 25.0499 31.7798 24.9799C31.8098 24.9099 31.7998 24.7599 31.8298 24.6899C31.8598 24.6299 31.7298 24.6099 31.7098 24.6799ZM32.0798 25.3599L32.2298 25.4299L32.2498 25.7199C32.4498 25.9199 33.0998 25.7499 33.0998 25.6999C33.0998 25.6499 33.0698 25.0799 33.0698 25.0799L32.9898 24.9999L32.9698 24.5799C33.0398 24.3599 32.6498 24.0399 32.6198 24.1099C32.5898 24.1799 32.3698 24.1299 32.3698 24.1899C32.3698 24.2599 32.2398 24.5899 32.2998 24.7099C32.3698 24.8299 32.2498 24.8299 32.2298 24.9499C32.2098 25.0499 32.0398 25.2499 32.0798 25.3599ZM27.3998 21.7499L27.3498 21.6699L27.2098 21.7499L27.2698 21.8399L27.3998 21.7499ZM24.8598 22.0799C24.7798 22.1599 24.7998 22.2299 24.8598 22.2899V22.0799ZM25.3798 22.4899L25.4898 22.2999L25.3998 22.2699L25.2798 22.3499L25.3298 22.3999L25.3798 22.4899ZM25.2798 17.2199C25.3498 17.3699 25.3298 17.5899 25.5798 17.7599C25.6598 17.8199 25.5298 17.9299 25.4498 17.8799C25.3698 17.8299 25.1298 17.4599 25.1298 17.4599V17.2399C25.1798 17.1099 25.2498 17.1599 25.2798 17.2199ZM24.3998 18.0999C24.4398 18.2499 24.4298 17.8599 24.4998 17.8799C24.5698 17.8999 24.5198 17.6399 24.5198 17.6399L24.2198 17.8599C24.3598 17.8799 24.3798 18.0299 24.3998 18.0999ZM23.4998 19.1799C23.4798 19.3799 23.2298 19.4499 23.2298 19.4499L23.0498 19.3999L22.9498 19.3199L22.9298 19.0799L23.0798 19.0599L23.1098 19.1599L23.4998 19.1799ZM23.2298 17.1399V16.8999L23.1998 16.6799L22.9498 16.5599L22.7698 16.7299L22.7398 16.9699V17.1199L22.5698 17.1499L22.5398 17.6099L22.4098 17.6599L22.4298 17.8299L22.0698 17.9299L22.0398 18.1499L21.9098 18.2299L21.8398 18.4299L21.7598 18.9199C21.7598 18.9199 21.9098 19.2099 21.9898 19.0699C22.0698 18.9399 22.2098 18.9199 22.2098 18.9199L22.2598 18.7999L22.7098 18.8199C22.7398 18.6299 22.9598 18.6999 22.9598 18.7899C22.9598 18.8699 23.1298 18.8099 23.1298 18.8099L23.2498 18.6199H23.4298L23.4498 18.4199L23.5298 18.3699V18.0699C23.7998 17.9899 23.7598 17.7299 23.7598 17.7299L23.8298 17.6499L23.7998 17.5299C23.6698 17.4799 23.7298 17.3599 23.8198 17.3899C23.8998 17.4199 23.6998 17.2399 23.6998 17.2399C23.5998 17.3199 23.5198 17.1399 23.5198 17.1399H23.2298ZM22.4698 16.4499L22.3398 16.4799L22.0398 16.7699L22.0198 16.8999L21.9398 17.0199L21.8398 17.2699L21.4898 17.2899L21.4198 17.5899L21.4698 17.8499L21.7698 17.9699L21.7998 17.7999L21.8998 17.7499L21.9198 17.5799L21.9898 17.4599L22.0898 17.3399L22.1198 17.2099L22.2898 17.1099L22.4898 17.0699L22.5698 16.9699L22.5998 16.7699L22.6198 16.6199L22.6898 16.5099L22.8898 16.4299V16.1099H22.7898L22.7698 15.9899L22.5898 15.9699L22.5498 16.0599H22.4698L22.4498 16.1899H22.5498L22.5698 16.2999L22.4998 16.3599L22.4698 16.4499ZM17.1898 18.4799C17.1898 18.5199 17.1598 18.5499 17.1198 18.5499C17.0798 18.5499 17.0498 18.5199 17.0498 18.4799C17.0498 18.4399 17.0798 18.4099 17.1198 18.4099C17.1598 18.4099 17.1898 18.4399 17.1898 18.4799ZM17.1798 20.4099C17.1798 20.4499 17.1498 20.4799 17.1098 20.4799C17.0698 20.4799 17.0398 20.4499 17.0398 20.4099C17.0398 20.3699 17.0698 20.3399 17.1098 20.3399C17.1498 20.3399 17.1798 20.3699 17.1798 20.4099ZM16.9998 20.1299C17.0398 20.1299 17.0698 20.0999 17.0698 20.0599C17.0698 20.0199 17.0398 19.9899 16.9998 19.9899C16.9598 19.9899 16.9298 20.0199 16.9298 20.0599C16.9298 20.0999 16.9598 20.1299 16.9998 20.1299ZM16.7998 20.5299L16.6598 20.5499V20.6699L16.7998 20.6499V20.5299ZM16.9498 19.6699L16.8298 19.6899L16.8198 19.8199L16.9498 19.8399V19.6699ZM16.9198 18.7599L16.9298 18.6399L16.6798 18.8099L16.5198 18.7099V19.1099L16.7798 19.4699L16.8798 19.2299L16.9198 19.0799L16.7998 19.0299L16.8198 18.7799L16.9198 18.7599ZM16.8198 17.3399L16.5198 17.3099L16.5398 17.4299H16.6198C16.7498 17.6699 16.6398 18.2399 16.6398 18.2399C16.6398 18.2399 16.4398 18.2599 16.4098 18.1599C16.3798 18.0599 16.2898 18.3799 16.3598 18.4299C16.4298 18.4799 16.6598 18.4299 16.6798 18.6199C16.6998 18.8099 16.8298 18.4999 16.8298 18.4999L16.8198 17.3399ZM23.5198 13.9999H23.3398L23.3098 13.6299L23.4098 13.5599V13.3699H22.8298L22.8098 13.1799L22.8898 13.1299L22.7598 13.0799L22.6598 13.2099L22.6298 13.3599L22.4598 13.3899V13.4699H22.3398V13.6899L21.8698 14.0799L20.9398 14.0499C20.8698 14.1999 20.7098 14.0299 20.7098 14.0299C20.6798 13.9299 20.4398 14.0299 20.4398 14.0299C20.4398 14.2199 20.1198 13.9499 20.1198 13.9499L19.5398 13.5299C19.2098 13.2299 18.7098 13.6099 18.6898 13.6999C18.7098 13.9399 18.3098 13.7499 18.3098 13.7499C18.3098 13.7499 17.9798 13.6499 17.9298 13.7799C17.8798 13.9099 17.6598 13.8799 17.6598 13.8799L17.6298 13.9499L17.4598 13.9799L17.4298 14.0799L17.2298 14.1099L17.7298 14.0899C17.8598 14.0699 17.6798 14.3799 17.5998 14.3599L17.3698 14.3799L17.2898 14.4599H17.0698L16.9698 14.5999L16.6498 14.5799C16.6498 14.5799 16.4698 14.7299 16.4798 14.7799C16.4998 14.8299 16.4498 14.9799 16.3998 14.9799C16.3498 14.9799 16.2498 15.1299 16.2798 15.1799C16.3098 15.2299 16.1798 15.3999 16.1798 15.3999L16.1498 15.5699L16.0498 15.5999V16.0599L15.8498 16.1999V16.3999L15.5498 16.7199L15.5798 16.9899L15.3298 17.2599L15.3598 17.5299L15.2098 17.5799L15.1798 17.6999L15.1098 18.0499L15.2798 18.0699C15.3598 18.0399 15.3498 18.2899 15.2798 18.3199C15.2098 18.3499 15.0298 18.4199 15.1298 18.4899C15.2298 18.5599 14.8598 18.5399 14.8598 18.4399C14.8598 18.3399 14.6598 18.2499 14.6098 18.2899C14.5598 18.3199 14.4798 18.1399 14.4798 18.1399C14.2998 17.9499 13.7298 18.1599 13.7298 18.1599L13.6498 18.4299C13.4698 18.4599 13.3498 18.7699 13.3498 18.7699C13.1998 18.8199 13.0798 19.0099 13.1298 19.0599C13.1798 19.1099 13.0498 19.1299 13.0498 19.1299V19.4999L12.9698 19.6199L12.9898 20.0199C13.0898 20.0199 13.0698 20.2099 13.0698 20.2099C12.8998 20.2299 12.9398 20.4499 12.9398 20.4499L12.5898 20.5699L12.5198 20.6699L12.0898 20.6499L11.9698 20.7699L11.8498 20.6499H11.0198L10.9898 20.5699L10.8198 20.5399L10.7998 20.3499L10.5498 20.3699L10.4998 20.4699L10.2298 20.4899C10.2498 20.6599 9.95981 20.9099 9.92981 20.8399C9.89981 20.7699 9.70981 20.5899 9.79981 20.5499C9.87981 20.5199 10.0998 20.4799 10.0998 20.4799V20.3599L9.47981 20.3399L9.40981 20.4399L9.15981 20.4599V20.7299L9.03981 20.7599C8.95981 20.8099 9.05981 20.9999 9.05981 20.9999C9.17981 21.1199 9.03981 21.2999 9.03981 21.2999C8.93981 21.3999 9.11981 21.5899 9.11981 21.5899C9.24981 21.6199 9.03981 21.7199 9.03981 21.7199C9.06981 21.8899 9.16981 21.9399 9.16981 21.9399C9.06981 22.1099 9.23981 22.1899 9.23981 22.1899L9.25981 22.4799L9.37981 22.5499V22.7399L9.44981 22.8599H9.71981L9.69981 22.4399C9.46981 22.1699 9.89981 22.0999 9.91981 22.1999C9.93981 22.2999 10.1198 22.3499 10.1198 22.3499C10.1498 22.5999 10.4398 22.7499 10.5198 22.4999C10.5998 22.2499 10.6698 22.3999 10.7198 22.5199C10.7698 22.6399 11.0898 22.9299 11.0898 22.9299H11.3398L11.3698 23.1699C11.6498 23.1499 11.7398 23.1899 11.8498 23.5699C11.9698 23.9599 12.2798 24.0599 12.2798 24.0599L12.5098 24.0399C12.5098 23.8399 12.7398 24.0699 12.7398 24.1799C12.7398 24.2799 13.1898 24.6699 13.1898 24.6699L13.6398 24.7699L14.0598 25.1099L14.3798 25.0799H14.5098C14.5898 24.7899 14.9898 25.0999 15.0298 25.1999C15.0598 25.2999 15.3298 25.4699 15.3598 25.3899C15.3898 25.3099 15.5798 25.3599 15.6098 25.6099C15.6398 25.8599 15.7598 25.8099 15.7598 25.8099L16.7098 25.7899L17.0398 25.4999L17.8898 25.4799C18.3198 25.4599 18.0598 24.8699 17.9698 24.8699C17.8198 24.7499 18.0198 24.2599 18.0198 24.2599L16.8098 23.1299C16.5298 23.1299 16.7798 22.7199 16.7798 22.7199C16.9998 22.5799 16.7298 22.3699 16.7298 22.3699C16.7598 22.1699 16.6098 21.9299 16.6098 21.9299C16.3098 21.7299 16.3898 21.3399 16.3898 21.3399V21.0699C16.1398 20.8299 16.4898 20.7999 16.4898 20.7999C16.6098 20.5999 16.4098 20.4499 16.4098 20.4499L16.3898 20.2299L16.1198 20.1999L16.0898 19.4099L15.4898 18.5499C15.3698 18.5199 15.4598 18.3099 15.4598 18.3099C15.6098 18.2299 15.4298 18.0199 15.4298 18.0199L15.4098 17.6499L15.7598 17.6199L15.8398 17.4899H16.0098L15.9898 17.0499C16.0698 16.8299 16.2698 16.9499 16.2698 16.9499L16.4998 16.9699L16.6298 16.7199L16.6598 16.5199L16.4798 16.4999C16.2798 16.3799 16.3798 15.9399 16.3798 15.9399C16.6998 15.4699 17.0598 15.7399 17.0598 15.7399L17.2898 15.7199C17.6398 15.9599 17.3198 16.3899 17.3198 16.3899C17.2498 16.4899 17.2898 16.8099 17.2898 16.8099L17.3698 17.3499L17.1498 17.5399C16.9698 17.6399 16.9698 17.8799 17.1698 17.9299C17.2998 17.9499 17.2498 18.2699 17.0498 18.0499C16.7498 18.0499 17.2198 18.3199 17.0798 18.2499C17.3798 18.3999 17.3098 18.1199 17.3098 18.1199L17.7098 17.7999C17.8598 17.6799 18.1298 18.0499 18.1298 18.0999C18.1298 18.1499 18.7898 18.1199 18.7898 18.1199C18.9698 18.2399 19.0398 18.5399 19.0398 18.5399C19.2198 18.2999 19.6098 18.5199 19.3198 18.6599C19.5898 18.8299 19.5898 18.9799 19.5898 18.9799C19.8098 18.9099 19.8098 19.0799 19.8098 19.1299C19.8098 19.1799 19.8798 18.8799 19.8798 18.8799C19.6298 18.6899 20.2098 18.6299 20.0498 18.9599L19.9498 19.1099L20.1198 19.2399L20.1398 19.6299C20.5098 19.5999 20.4098 19.1399 20.4098 19.1399L20.5798 19.1099C20.5798 18.9599 20.6998 19.0399 20.6998 19.0399C20.5798 18.4699 20.9698 18.3699 20.9698 18.3699C21.1898 18.3199 21.1998 17.8599 21.1998 17.8599C21.0498 17.7899 21.1298 17.5599 21.2998 17.7599C21.4698 17.9599 21.1998 17.3499 21.1998 17.3499L21.0698 17.2299L20.8898 17.2099L20.8698 17.0199H20.5698L20.5198 17.2599L20.4098 17.3099L20.3798 17.2399L20.3298 17.4299H20.0298L20.0098 17.2299L20.1898 17.1799L20.2598 17.0799L20.3098 16.8099H20.5298L20.8098 16.7299C20.8298 16.4399 20.9798 16.5099 20.9798 16.5099L21.2298 16.7099L21.2498 16.8099L21.1498 16.8599L21.1298 16.9999L21.1798 17.1899H21.3098C21.3598 16.9199 21.7098 16.9199 21.8098 17.0899L21.9098 16.8499C21.6798 16.7299 21.9098 16.5499 21.9698 16.6299C22.0398 16.7099 22.1898 16.4099 22.1898 16.4099C22.1898 16.4099 22.3098 16.5599 22.1898 16.3599C22.0698 16.1599 22.2698 16.0599 22.2698 16.0599C22.2398 15.8599 22.4898 15.8899 22.4898 15.8899L22.5098 15.6199L22.2798 15.5999C22.2298 15.8399 22.0298 15.6299 22.1298 15.5799C22.2298 15.5299 22.3298 15.4299 22.3298 15.4299V15.2599L22.4298 15.2299L22.4498 15.0599H22.6998L22.9198 14.9599L22.9698 14.8799L23.1998 14.8599L23.5298 14.5599L23.4998 14.4299C23.2998 14.4299 23.4998 14.2799 23.4998 14.2799L23.5198 13.9999ZM14.4898 29.1699L14.3598 28.9699L14.5598 28.9999L14.7698 29.1799L14.8598 29.3999L14.7398 29.4699L14.6698 29.3699L14.5098 29.3199L14.4898 29.1699ZM10.8198 24.1099L10.8998 24.3399L11.0198 24.4299L11.1298 24.6799L11.0698 24.7999L10.8798 24.6299L10.7498 24.4399L10.6798 24.2899L10.5698 23.9899L10.8198 24.1099ZM9.81981 23.2099H9.73981V23.3799H9.86981V23.5999H9.96981L9.94981 23.3499L9.81981 23.2999V23.2099ZM22.8998 12.9299L22.9998 12.9099L23.0198 13.0099L22.9198 13.0299L22.8998 12.9299ZM23.0198 12.8699L23.0498 12.7699L23.1798 12.8099L23.1598 12.9099L23.0198 12.8699ZM23.2598 12.7699L23.2698 12.6699L23.1598 12.6499L23.1398 12.7499L23.2598 12.7699ZM23.4298 12.5499H23.5598V12.6499H23.4298V12.5499ZM24.2798 12.6699L24.2898 12.5699L24.4098 12.5799L24.3898 12.6799L24.2798 12.6699ZM24.6098 12.7399L24.6198 12.6399L24.4998 12.6199L24.4898 12.7199L24.6098 12.7399ZM24.7298 12.7499H24.8598V12.8499H24.7298V12.7499ZM24.8798 12.9199V13.0399L24.9798 13.0299V12.9099L24.8798 12.9199Z" fill="#DFDFDF"/>
</g>
<defs>
<clipPath id="clip0_991_592">
<rect width="47" height="40" fill="white" transform="translate(0.5)"/>
</clipPath>
</defs>
</svg>
