<?xml version="1.0" encoding="utf-8"?>
<!-- Generator: Adobe Illustrator 27.0.1, SVG Export Plug-In . SVG Version: 6.00 Build 0)  -->
<svg version="1.1" id="Слой_1" xmlns="http://www.w3.org/2000/svg" xmlns:xlink="http://www.w3.org/1999/xlink" x="0px" y="0px"
	 viewBox="0 0 51.5 51" style="enable-background:new 0 0 51.5 51;" xml:space="preserve">
<style type="text/css">
	.st0{fill:#FFC825;}
</style>
<path class="st0" d="M51.5,0v32.8c0,5.9-2.9,11.2-7.3,14.6c-2.1,1.6-4.7,2.7-7.3,3.3c-1.2,0.2-2.4,0.4-3.7,0.4s-2.5-0.1-3.7-0.4
	c-1.3-0.3-2.5-0.6-3.7-1.1c-1.3-0.5-2.5-1.3-3.7-2.2c-1.4-1-2.6-2.3-3.7-3.7c-2.3-3.1-3.7-6.8-3.7-10.9V7.3H7.3v25.5
	c0,4.8,3.1,8.8,7.3,10.3c0.1,0,0.3,0.1,0.4,0.1c1.7,2.9,4.1,5.3,7,7.1c0.1,0.1,0.3,0.2,0.4,0.2c-0.1,0-0.3,0-0.4,0.1
	c-1.2,0.2-2.4,0.4-3.7,0.4s-2.5-0.1-3.7-0.4c-2.7-0.5-5.2-1.7-7.3-3.3C2.9,44.1,0,38.8,0,32.8V0h22.1v32.8c0,3.2,1.4,6.1,3.7,8.1
	c1.1,1,2.3,1.7,3.7,2.2c1.1,0.4,2.4,0.6,3.7,0.6c1.3,0,2.5-0.2,3.7-0.6c4.2-1.5,7.3-5.5,7.3-10.3V7.3h-7.4v25.5c0,3-0.7,5.8-2,8.4
	c-0.5,0.1-1.1,0.1-1.7,0.1c-1.3,0-2.6-0.3-3.7-0.8c-0.7-0.4-1.4-0.8-2-1.3c1.3-1.8,2-4,2-6.3V0H51.5z"/>
</svg>
