<svg width="254" height="70" viewBox="0 0 254 70" fill="none" xmlns="http://www.w3.org/2000/svg">
<g clip-path="url(#clip0_761_3524)">
<path d="M189.48 17.9618H225.094C225.8 17.9618 226.388 18.5513 226.388 19.2588C226.388 20.0449 225.956 20.7917 225.25 21.1454L224.074 21.735L225.29 33.2903L245.018 36.0022C245.881 36.1987 246.548 36.9455 246.548 37.8495V59.9382H239.017C238.978 58.7984 238.9 57.2656 238.625 56.1257C237.488 51.4879 232.428 47.872 227.133 47.872C220.465 47.872 215.406 53.3352 215.445 59.6238C212.974 59.6238 200.698 59.6238 189.519 59.6238V17.9618H189.48Z" fill="#DFDFDF"/>
<path d="M238.625 60.3312H246.94V37.8495C246.94 36.7883 246.156 35.845 245.097 35.6878L225.643 33.0151L224.466 22.0101L225.408 21.5384C226.231 21.1061 226.78 20.2021 226.78 19.2981C226.78 18.3548 225.996 17.608 225.094 17.608H189.128V60.0561H215.838V59.6631C215.798 56.676 217.014 53.7675 219.132 51.6058C221.25 49.4441 224.074 48.265 227.133 48.265C232.271 48.265 237.135 51.763 238.233 56.2043C238.508 57.3048 238.586 58.8377 238.625 59.9382V60.3312ZM246.156 59.5451H239.41C239.371 58.4446 239.253 57.069 239.018 56.0471C237.841 51.252 232.624 47.5182 227.133 47.5182C223.878 47.5182 220.858 48.7759 218.583 51.0555C216.426 53.2565 215.132 56.2043 215.053 59.27H189.873V18.3941H225.094C225.604 18.3941 225.996 18.7871 225.996 19.2981C225.996 19.927 225.643 20.5558 225.055 20.8702L223.643 21.5777L224.937 33.7226L244.979 36.4738C245.646 36.5917 246.156 37.1813 246.156 37.8495V59.5451Z" fill="#646464"/>
<path d="M202.11 25.0758C202.11 24.2111 202.816 23.543 203.64 23.543H215.72C216.583 23.543 217.328 24.2111 217.407 25.0758L217.956 31.8361C218.034 32.6614 217.367 33.3689 216.544 33.3689H203.6C202.738 33.3689 202.071 32.6614 202.071 31.8361V25.0758H202.11Z" fill="#DFDFDF"/>
<path d="M203.639 33.7619H216.582C217.092 33.7619 217.563 33.5654 217.916 33.1724C218.269 32.8186 218.426 32.3077 218.387 31.7967L217.798 25.0365C217.72 23.9753 216.818 23.1499 215.72 23.1499H203.639C202.58 23.1499 201.717 24.0146 201.717 25.0758V31.836C201.717 32.8972 202.58 33.7619 203.639 33.7619ZM215.72 23.8967C216.386 23.8967 216.935 24.4076 217.014 25.0758L217.563 31.836C217.602 32.1112 217.485 32.3863 217.288 32.6221C217.092 32.8186 216.818 32.9365 216.543 32.9365H203.6C202.973 32.9365 202.463 32.4256 202.463 31.7967V25.0758C202.463 24.4469 202.973 23.936 203.6 23.936H215.72V23.8967Z" fill="#646464"/>
<path d="M222.387 31.8361L221.799 25.0758C221.72 24.2111 221.799 23.543 223.132 23.543H223.799C224.662 23.543 225.407 24.2111 225.486 25.0758L226.035 31.8361C226.113 32.6614 225.446 33.3689 224.623 33.3689H223.681C222.74 33.3689 222.466 32.6614 222.387 31.8361Z" fill="#DFDFDF"/>
<path d="M223.681 33.7619H224.623C225.132 33.7619 225.603 33.5654 225.956 33.1724C226.309 32.8186 226.466 32.3077 226.427 31.7967L225.838 25.0365C225.76 23.9753 224.858 23.1499 223.76 23.1499H223.093C222.426 23.1499 221.995 23.3071 221.72 23.6215C221.328 24.0146 221.367 24.6041 221.406 25.1151L221.995 31.836C222.112 33.4082 222.975 33.7619 223.681 33.7619ZM223.799 23.8967C224.466 23.8967 225.015 24.4076 225.093 25.0758L225.642 31.836C225.682 32.1112 225.564 32.3863 225.368 32.6221C225.172 32.8186 224.897 32.9365 224.623 32.9365H223.681C223.25 32.9365 222.858 32.7793 222.779 31.7574L222.191 24.9972C222.152 24.6434 222.152 24.2504 222.308 24.0932C222.465 23.936 222.818 23.8967 223.132 23.8967H223.799Z" fill="#646464"/>
<path d="M191.559 24.3291C191.559 23.4644 192.265 22.7963 193.088 22.757L195.991 22.7177C196.854 22.7177 197.521 23.3858 197.521 24.2505V31.7968C197.521 32.6615 196.815 33.3297 195.991 33.3297H193.088C192.226 33.3297 191.559 32.6222 191.559 31.7968V24.3291Z" fill="#DFDFDF"/>
<path d="M193.089 33.762H195.991C197.05 33.762 197.913 32.8973 197.913 31.8361V24.2505C197.913 23.7395 197.717 23.2679 197.364 22.8748C197.011 22.5211 196.501 22.3246 195.991 22.3246L193.089 22.3639C192.03 22.3639 191.167 23.2679 191.167 24.3291V31.8361C191.167 32.8973 192.03 33.762 193.089 33.762ZM196.03 23.1107C196.344 23.1107 196.619 23.2286 196.815 23.4251C197.05 23.6216 197.168 23.936 197.168 24.2112V31.7575C197.168 32.3863 196.658 32.8973 196.03 32.8973H193.128C192.5 32.8973 191.991 32.3863 191.991 31.7575V24.3291C191.991 23.7002 192.5 23.1893 193.128 23.15L196.03 23.1107C195.991 23.1107 195.991 23.1107 196.03 23.1107Z" fill="#646464"/>
<path d="M201.991 37.0242C201.991 37.7317 202.54 38.2819 203.246 38.2819H205.796C206.502 38.2819 207.051 37.7317 207.051 37.0242C207.051 36.3167 206.502 35.7665 205.796 35.7665H203.246C202.54 35.7665 201.991 36.3167 201.991 37.0242Z" fill="#DFDFDF"/>
<path d="M203.247 38.6749H205.796C206.698 38.6749 207.443 37.9282 207.443 37.0242C207.443 36.1202 206.698 35.3734 205.796 35.3734H203.247C202.345 35.3734 201.599 36.1202 201.599 37.0242C201.599 37.9675 202.345 38.6749 203.247 38.6749ZM205.796 36.1595C206.267 36.1595 206.659 36.5525 206.659 37.0242C206.659 37.4958 206.267 37.8889 205.796 37.8889H203.247C202.776 37.8889 202.384 37.4958 202.384 37.0242C202.384 36.5525 202.776 36.1595 203.247 36.1595H205.796Z" fill="#646464"/>
<path d="M201.365 56.7939H209.954C211.131 56.7939 212.111 55.9685 212.425 54.7894C213.288 51.0948 215.484 48.5008 218.857 47.0073C220.113 46.457 220.779 45.5923 220.779 44.5704V33.2902L219.76 23.2285C219.642 22.0101 218.622 21.1061 217.406 21.1061H201.404C200.188 21.1061 199.207 22.0887 199.207 23.3071V54.5536C199.207 55.8113 200.188 56.7939 201.365 56.7939ZM219.995 33.3689V44.5704C219.995 45.5137 219.093 46.064 218.544 46.2998C214.935 47.8719 212.621 50.6625 211.68 54.6322C211.484 55.4576 210.778 56.0078 209.993 56.0078H201.404C200.619 56.0078 199.992 55.379 199.992 54.5929V23.3071C199.992 22.521 200.619 21.8922 201.404 21.8922H217.406C218.23 21.8922 218.897 22.521 218.975 23.3071L219.995 33.3689Z" fill="#646464"/>
<path d="M13.296 45.9462H64.9902V47.0467H13.296V45.9462Z" fill="#DFDFDF"/>
<path d="M12.9041 47.4397H65.3828V45.5531H12.9041V47.4397ZM64.5984 46.6536H13.6885V46.3392H64.5984V46.6536Z" fill="#646464"/>
<path d="M159.906 39.5396C159.906 40.4043 159.2 41.0724 158.377 41.0724H1.96028C1.09741 41.0724 0.430634 40.365 0.430634 39.5396V36.0809L5.84323 34.6659V33.8799L0.430634 33.251V30.0281C0.430634 29.1634 1.13663 28.4952 1.96028 28.4952H158.377C159.239 28.4952 159.906 29.2027 159.906 30.0281V39.5396Z" fill="#DFDFDF"/>
<path d="M1.96066 41.4654H158.377C159.436 41.4654 160.299 40.6008 160.299 39.5396V29.9888C160.299 28.9275 159.436 28.0629 158.377 28.0629H1.96066C0.901672 28.0629 0.0387878 28.9275 0.0387878 29.9888V33.5654L5.45139 34.1943V34.3122L0.0387878 35.7271V39.5003C-0.000442505 40.6008 0.862457 41.4654 1.96066 41.4654ZM158.377 28.8489C159.005 28.8489 159.514 29.3599 159.514 29.9888V39.5003C159.514 40.1291 159.005 40.6401 158.377 40.6401H1.96066C1.33311 40.6401 0.823227 40.1291 0.823227 39.5003V36.3167L6.23581 34.9017V33.4868L0.823227 32.8579V29.9888C0.823227 29.3599 1.33311 28.8489 1.96066 28.8489H158.377Z" fill="#646464"/>
<path d="M164.26 26.9231C164.26 27.7878 163.554 28.456 162.731 28.456H7.37337C6.5105 28.456 5.84372 27.7485 5.84372 26.9231V17.4116C5.84372 16.5469 6.54971 15.8788 7.37337 15.8788H163.79C164.653 15.8788 165.319 16.5863 165.319 17.4116V21.3027L164.221 22.1281V26.9231H164.26Z" fill="#DFDFDF"/>
<path d="M7.37358 28.8883H162.731C163.79 28.8883 164.653 28.0236 164.653 26.9624V22.3246L165.751 21.4992V17.4116C165.751 16.3504 164.888 15.4857 163.829 15.4857H7.4128C6.35381 15.4857 5.49095 16.3504 5.49095 17.4116V26.9231C5.45172 27.9843 6.31459 28.8883 7.37358 28.8883ZM164.967 21.1062L163.868 21.9315V26.9624C163.868 27.5913 163.358 28.1022 162.731 28.1022H7.37358C6.74603 28.1022 6.23615 27.5913 6.23615 26.9624V17.4116C6.23615 16.7827 6.74603 16.2718 7.37358 16.2718H163.79C164.417 16.2718 164.927 16.7827 164.927 17.4116V21.1062H164.967Z" fill="#646464"/>
<path d="M162.104 14.3459C162.104 15.2106 161.398 15.8787 160.574 15.8787H4.11835C3.25546 15.8787 2.58868 15.1712 2.58868 14.3459V4.83436C2.58868 3.96968 3.29468 3.30151 4.11835 3.30151H160.535C161.398 3.30151 162.064 4.00898 162.064 4.83436V6.56373L158.26 7.3105L162.064 9.90455V14.3459H162.104Z" fill="#DFDFDF"/>
<path d="M4.11789 16.2717H160.534C161.593 16.2717 162.456 15.407 162.456 14.3458V9.66869L159.279 7.50699L162.456 6.87813V4.83433C162.456 3.77313 161.593 2.90845 160.534 2.90845H4.07864C3.01967 2.90845 2.1568 3.77313 2.1568 4.83433V14.3458C2.19601 15.407 3.0589 16.2717 4.11789 16.2717ZM161.711 10.101V14.3458C161.711 14.9747 161.201 15.4857 160.573 15.4857H4.11789C3.49034 15.4857 2.98045 14.9747 2.98045 14.3458V4.83433C2.98045 4.20547 3.49034 3.69452 4.11789 3.69452H160.534C161.162 3.69452 161.672 4.20547 161.672 4.83433V6.24927L157.279 7.11395L161.711 10.101Z" fill="#646464"/>
<path d="M110.958 52.1561H108.565C107.703 52.1561 107.036 52.8636 107.036 53.689V54.0034C107.036 54.8681 107.742 55.5363 108.565 55.5363H110.958V52.1561Z" fill="#DFDFDF"/>
<path d="M108.566 55.9293H111.351V51.7631H108.566C107.507 51.7631 106.644 52.6277 106.644 53.6889V54.0034C106.644 55.0646 107.507 55.9293 108.566 55.9293ZM110.566 55.1432H108.566C107.938 55.1432 107.428 54.6322 107.428 54.0034V53.6889C107.428 53.0601 107.938 52.5491 108.566 52.5491H110.566V55.1432Z" fill="#646464"/>
<path d="M9.76562 52.1561H7.37311C6.51023 52.1561 5.84345 52.8636 5.84345 53.689V54.0034C5.84345 54.8681 6.54945 55.5363 7.37311 55.5363H9.76562V52.1561Z" fill="#DFDFDF"/>
<path d="M7.37347 55.9293H10.1582V51.7631H7.37347C6.31448 51.7631 5.45159 52.6277 5.45159 53.6889V54.0034C5.45159 55.0646 6.31448 55.9293 7.37347 55.9293ZM9.37377 55.1432H7.37347C6.74592 55.1432 6.23603 54.6322 6.23603 54.0034V53.6889C6.23603 53.0601 6.74592 52.5491 7.37347 52.5491H9.37377V55.1432Z" fill="#646464"/>
<path d="M129 46.1819H148.141V47.0466H129V46.1819Z" fill="#DFDFDF"/>
<path d="M128.609 47.4396H148.533V45.7888H128.609V47.4396ZM147.749 46.6535H129.393V46.5749H147.749V46.6535Z" fill="#646464"/>
<path d="M67.3825 47.0073C68.2453 47.0073 68.9121 47.7148 68.9121 48.5402V58.091C68.9121 58.9557 68.2061 59.6238 67.3825 59.6238C66.6765 59.6238 66.0489 59.6238 64.9899 59.6238V59.5845C64.9899 53.1387 59.7734 47.872 53.3018 47.872C47.3401 47.872 41.8099 52.3919 41.6138 59.6238H37.8485V59.5845C37.8485 53.178 32.632 47.872 26.1604 47.872C20.2379 47.872 14.6684 52.3919 14.4723 59.6631H9.25584C8.39296 59.6631 7.72618 58.9557 7.72618 58.1303V48.5795C7.72618 47.7148 8.43217 47.0466 9.29505 47.0466C16.8256 47.0073 46.9087 47.0073 67.3825 47.0073Z" fill="#DFDFDF"/>
<path d="M9.2562 60.0168H14.8649V59.6238C15.0218 54.1213 19.0224 48.2257 26.1608 48.2257C32.397 48.2257 37.4566 53.2959 37.4566 59.5452V59.9775H42.0064V59.5845C42.1632 54.082 46.1639 48.2257 53.3022 48.2257C59.5385 48.2257 64.5981 53.2959 64.5981 59.5452V59.9382L64.9903 59.9775H67.3828C68.4418 59.9775 69.3047 59.1129 69.3047 58.0516V48.5008C69.3047 47.4396 68.4418 46.575 67.3828 46.575H9.29541C8.1972 46.575 7.33432 47.4396 7.33432 48.5008V58.0516C7.33432 59.1522 8.19721 60.0168 9.2562 60.0168ZM14.1197 59.2308H9.2562C8.62865 59.2308 8.11876 58.7198 8.11876 58.091V48.5401C8.11876 47.9113 8.66786 47.4003 9.29541 47.4003H67.3828C68.0104 47.4003 68.5203 47.9113 68.5203 48.5401V58.091C68.5203 58.7198 68.0104 59.2308 67.3828 59.2308H65.3825C65.1864 52.7063 59.8522 47.4789 53.3022 47.4789C47.6935 47.4789 41.6533 51.6058 41.2611 59.2308H38.2411C38.045 52.7063 32.7108 47.4789 26.1608 47.4789C19.6107 47.4789 14.4727 52.5098 14.1197 59.2308Z" fill="#646464"/>
<path d="M188.146 47.1645H181.087V13.3633C181.087 12.4986 181.793 11.8304 182.616 11.8304H186.578C187.44 11.8304 188.107 12.5379 188.107 13.3633V47.1645H188.146Z" fill="#DFDFDF"/>
<path d="M180.734 47.5575H188.578V13.3633C188.578 12.3021 187.715 11.4374 186.656 11.4374H182.695C181.636 11.4374 180.773 12.3021 180.773 13.3633V47.5575H180.734ZM187.754 46.7715H181.479V13.3633C181.479 12.7344 181.989 12.2235 182.616 12.2235H186.578C187.205 12.2235 187.715 12.7344 187.715 13.3633V46.7715H187.754Z" fill="#646464"/>
<path d="M185.99 11.9091H183.284V1.7687C183.284 1.02193 183.872 0.393066 184.657 0.393066C185.402 0.393066 186.029 1.02193 186.029 1.7687V11.9091H185.99Z" fill="#DFDFDF"/>
<path d="M182.891 12.3021H186.382V1.76867C186.382 0.786075 185.597 0 184.617 0C183.636 0 182.852 0.786075 182.852 1.76867V12.3021H182.891ZM185.597 11.516H183.676V1.76867C183.676 1.21842 184.107 0.786075 184.656 0.786075C185.205 0.786075 185.637 1.21842 185.637 1.76867V11.516H185.597Z" fill="#646464"/>
<path d="M141.237 45.9068H147.003V12.8523C147.003 11.9876 146.297 11.3195 145.473 11.3195H142.767C141.904 11.3195 141.237 12.0269 141.237 12.8523V45.9068Z" fill="#DFDFDF"/>
<path d="M140.845 46.2998H147.396V12.8523C147.396 11.7911 146.533 10.9264 145.474 10.9264H142.767C141.708 10.9264 140.845 11.7911 140.845 12.8523V46.2998ZM146.611 45.5137H141.63V12.8523C141.63 12.2234 142.14 11.7125 142.767 11.7125H145.474C146.101 11.7125 146.611 12.2234 146.611 12.8523V45.5137Z" fill="#646464"/>
<path d="M129.823 45.9068H135.589V12.8523C135.589 11.9876 134.883 11.3195 134.059 11.3195H131.353C130.49 11.3195 129.823 12.0269 129.823 12.8523V45.9068Z" fill="#DFDFDF"/>
<path d="M129.431 46.2998H135.981V12.8523C135.981 11.7911 135.119 10.9264 134.06 10.9264H131.353C130.294 10.9264 129.431 11.7911 129.431 12.8523V46.2998ZM135.197 45.5137H130.216V12.8523C130.216 12.2234 130.726 11.7125 131.353 11.7125H134.06C134.687 11.7125 135.197 12.2234 135.197 12.8523V45.5137Z" fill="#646464"/>
<path d="M110.37 47.0073C120.724 47.0073 180.42 47.0073 188.186 47.0073V59.6238C180.106 59.6238 167.633 59.6238 166.104 59.6238V59.5845C166.104 53.1387 160.887 47.872 154.416 47.872C148.454 47.872 142.924 52.3919 142.728 59.6238H138.962V59.5845C138.962 53.178 133.746 47.872 127.274 47.872C121.352 47.872 115.782 52.3919 115.586 59.6631H110.37C109.507 59.6631 108.84 58.9557 108.84 58.1303V48.5795C108.84 47.6755 109.507 47.0073 110.37 47.0073Z" fill="#DFDFDF"/>
<path d="M110.37 60.0168H115.979V59.6238C116.136 54.1213 120.136 48.2257 127.275 48.2257C133.511 48.2257 138.57 53.2959 138.57 59.5452V59.9382L138.963 59.9775H143.12V59.5845C143.277 54.082 147.278 48.2257 154.416 48.2257C160.652 48.2257 165.712 53.2959 165.712 59.5452V59.9382L166.104 59.9775H188.578V46.575H110.37C109.311 46.575 108.448 47.4396 108.448 48.5008V58.0516C108.448 59.1522 109.311 60.0168 110.37 60.0168ZM115.233 59.2308H110.37C109.742 59.2308 109.233 58.7198 109.233 58.091V48.5401C109.233 47.9113 109.742 47.4003 110.37 47.4003H187.794V59.2308H166.496C166.3 52.7063 160.966 47.4789 154.416 47.4789C148.807 47.4789 142.767 51.6058 142.375 59.2308H139.355C139.159 52.7063 133.825 47.4789 127.275 47.4789C120.725 47.4789 115.586 52.5098 115.233 59.2308Z" fill="#646464"/>
<path d="M17.8067 45.9068H23.5723V12.8523C23.5723 11.9876 22.8663 11.3195 22.0426 11.3195H19.3363C18.4734 11.3195 17.8067 12.0269 17.8067 12.8523V45.9068Z" fill="#DFDFDF"/>
<path d="M17.4148 46.2998H23.9648V12.8523C23.9648 11.7911 23.102 10.9264 22.043 10.9264H19.3367C18.2777 10.9264 17.4148 11.7911 17.4148 12.8523V46.2998ZM23.2196 45.5137H18.2385V12.8523C18.2385 12.2234 18.7483 11.7125 19.3759 11.7125H22.0822C22.7098 11.7125 23.2196 12.2234 23.2196 12.8523V45.5137Z" fill="#646464"/>
<path d="M29.2588 45.3959H35.0244V12.3021C35.0244 11.4375 34.3184 10.7693 33.4948 10.7693H30.7885C29.9256 10.7693 29.2588 11.4768 29.2588 12.3021V45.3959Z" fill="#DFDFDF"/>
<path d="M28.867 45.7889H35.417V12.3021C35.417 11.2409 34.5541 10.3762 33.4951 10.3762H30.7888C29.7298 10.3762 28.867 11.2409 28.867 12.3021V45.7889ZM34.6326 45.0028H29.6514V12.3021C29.6514 11.6732 30.1613 11.1623 30.7888 11.1623H33.4951C34.1227 11.1623 34.6326 11.6732 34.6326 12.3021V45.0028Z" fill="#646464"/>
<path d="M243.841 59.9383H252.078C252.941 59.9383 253.607 59.2308 253.607 58.4054V48.5009C253.607 47.6362 252.901 46.968 252.078 46.968H243.841V59.9383Z" fill="#DFDFDF"/>
<path d="M243.449 60.3313H252.078C253.137 60.3313 254 59.4666 254 58.4054V48.5008C254 47.4396 253.137 46.575 252.078 46.575H243.449V60.3313ZM252.078 47.3217C252.706 47.3217 253.216 47.8327 253.216 48.4615V58.3661C253.216 58.9949 252.706 59.5059 252.078 59.5059H244.234V47.2824H252.078V47.3217Z" fill="#646464"/>
<path d="M248.706 46.9287H246.549V37.8495C246.549 37.5351 246.98 37.4172 247.137 37.7316L248.196 40.3257C248.588 41.2689 248.784 42.2908 248.784 43.3127V46.9287H248.706Z" fill="#DFDFDF"/>
<path d="M246.156 47.3217H249.137V43.3127C249.137 42.2515 248.941 41.1903 248.548 40.2077L247.489 37.6137C247.372 37.2993 247.058 37.142 246.705 37.1814C246.391 37.26 246.156 37.5351 246.156 37.8495V47.3217ZM248.313 46.5356H246.94V38.3212L247.803 40.4829C248.156 41.3869 248.352 42.3301 248.352 43.3127V46.5356H248.313Z" fill="#646464"/>
<path d="M175.204 61.8248C175.204 62.6895 175.91 63.3576 176.733 63.3576H194.736C195.599 63.3576 196.266 62.6502 196.266 61.8248V51.0949C196.266 50.2302 195.56 49.562 194.736 49.562H176.733C175.87 49.562 175.204 50.2695 175.204 51.0949V61.8248Z" fill="#DFDFDF"/>
<path d="M176.734 63.7506H194.736C195.795 63.7506 196.658 62.886 196.658 61.8248V51.0948C196.658 50.0336 195.795 49.1689 194.736 49.1689H176.734C175.675 49.1689 174.812 50.0336 174.812 51.0948V61.8641C174.812 62.886 175.675 63.7506 176.734 63.7506ZM194.736 49.9157C195.364 49.9157 195.874 50.4267 195.874 51.0555V61.8248C195.874 62.4536 195.364 62.9646 194.736 62.9646H176.734C176.106 62.9646 175.596 62.4536 175.596 61.8248V51.0948C175.596 50.466 176.106 49.955 176.734 49.955H194.736V49.9157Z" fill="#646464"/>
<path d="M179.439 63.5542C179.439 64.0652 179.87 64.4975 180.38 64.4975C180.89 64.4975 181.321 64.0652 181.321 63.5542V49.5621C181.321 49.0511 180.89 48.6188 180.38 48.6188C179.87 48.6188 179.439 49.0511 179.439 49.5621V63.5542Z" fill="#DFDFDF"/>
<path d="M180.38 64.8905C181.126 64.8905 181.714 64.3009 181.714 63.5542V49.562C181.714 48.8153 181.126 48.2257 180.38 48.2257C179.635 48.2257 179.047 48.8153 179.047 49.562V63.5542C179.047 64.3009 179.635 64.8905 180.38 64.8905ZM180.38 49.0118C180.694 49.0118 180.929 49.2476 180.929 49.562V63.5542C180.929 63.8686 180.694 64.1044 180.38 64.1044C180.067 64.1044 179.831 63.8686 179.831 63.5542V49.562C179.831 49.2476 180.067 49.0118 180.38 49.0118Z" fill="#646464"/>
<path d="M184.774 63.5542C184.774 64.0652 185.205 64.4975 185.715 64.4975C186.225 64.4975 186.656 64.0652 186.656 63.5542V49.5621C186.656 49.0511 186.225 48.6188 185.715 48.6188C185.205 48.6188 184.774 49.0511 184.774 49.5621V63.5542Z" fill="#DFDFDF"/>
<path d="M185.754 64.8905C186.5 64.8905 187.088 64.3009 187.088 63.5542V49.562C187.088 48.8153 186.5 48.2257 185.754 48.2257C185.009 48.2257 184.421 48.8153 184.421 49.562V63.5542C184.382 64.3009 185.009 64.8905 185.754 64.8905ZM185.754 49.0118C186.068 49.0118 186.303 49.2476 186.303 49.562V63.5542C186.303 63.8686 186.068 64.1044 185.754 64.1044C185.441 64.1044 185.205 63.8686 185.205 63.5542V49.562C185.166 49.2476 185.441 49.0118 185.754 49.0118Z" fill="#646464"/>
<path d="M190.147 63.5542C190.147 64.0652 190.578 64.4975 191.088 64.4975C191.598 64.4975 192.029 64.0652 192.029 63.5542V49.5621C192.029 49.0511 191.598 48.6188 191.088 48.6188C190.578 48.6188 190.147 49.0511 190.147 49.5621V63.5542Z" fill="#DFDFDF"/>
<path d="M191.088 64.8905C191.834 64.8905 192.422 64.3009 192.422 63.5542V49.562C192.422 48.8153 191.834 48.2257 191.088 48.2257C190.343 48.2257 189.755 48.8153 189.755 49.562V63.5542C189.755 64.3009 190.343 64.8905 191.088 64.8905ZM191.088 49.0118C191.402 49.0118 191.637 49.2476 191.637 49.562V63.5542C191.637 63.8686 191.402 64.1044 191.088 64.1044C190.775 64.1044 190.539 63.8686 190.539 63.5542V49.562C190.539 49.2476 190.775 49.0118 191.088 49.0118Z" fill="#646464"/>
<path d="M166.496 45.5138C166.496 46.3785 165.79 47.0467 164.966 47.0467H8.55013C7.68726 47.0467 7.02048 46.3392 7.02048 45.5138V41.0332H164.966C165.829 41.0332 166.496 41.7407 166.496 42.5661V45.5138Z" fill="#DFDFDF"/>
<path d="M8.55051 47.479H164.967C166.026 47.479 166.889 46.6143 166.889 45.5531V42.6446C166.889 41.5834 166.026 40.7188 164.967 40.7188H6.58942V45.5924C6.62863 46.6143 7.49152 47.479 8.55051 47.479ZM164.967 41.4655C165.594 41.4655 166.104 41.9765 166.104 42.6053V45.5138C166.104 46.1427 165.594 46.6536 164.967 46.6536H8.55051C7.92296 46.6536 7.41307 46.1427 7.41307 45.5138V41.4262H164.967V41.4655Z" fill="#646464"/>
<path d="M251.607 55.4576C250.548 55.4576 249.725 54.5929 249.725 53.571C249.725 52.5098 250.588 51.6844 251.607 51.6844V55.4576Z" fill="#DFDFDF"/>
<path d="M251.608 55.8506H252V51.2521H251.608C250.353 51.2521 249.333 52.274 249.333 53.5317C249.333 54.8287 250.353 55.8506 251.608 55.8506ZM251.216 52.0775V54.9859C250.588 54.8287 250.117 54.2392 250.117 53.5317C250.117 52.8635 250.588 52.274 251.216 52.0775Z" fill="#646464"/>
<path d="M217.249 59.5845C217.249 65.1263 221.72 69.6069 227.25 69.6069C232.781 69.6069 237.252 65.1263 237.252 59.5845C237.252 54.0426 232.781 49.562 227.25 49.562C221.72 49.562 217.249 54.0426 217.249 59.5845Z" fill="#DFDFDF"/>
<path d="M227.251 69.9999C232.977 69.9999 237.645 65.3228 237.645 59.5844C237.645 53.8461 232.977 49.1689 227.251 49.1689C221.524 49.1689 216.857 53.8461 216.857 59.5844C216.857 65.3228 221.524 69.9999 227.251 69.9999ZM227.251 49.955C232.546 49.955 236.86 54.2784 236.86 59.5844C236.86 64.8905 232.546 69.2139 227.251 69.2139C221.956 69.2139 217.641 64.8905 217.641 59.5844C217.641 54.2784 221.956 49.955 227.251 49.955Z" fill="#646464"/>
<path d="M220.465 59.5845C220.465 63.3183 223.485 66.384 227.251 66.384C230.977 66.384 234.036 63.3576 234.036 59.5845C234.036 55.8506 231.016 52.7849 227.251 52.7849C223.485 52.7849 220.465 55.8113 220.465 59.5845Z" fill="#DFDFDF"/>
<path d="M227.251 66.7377C231.213 66.7377 234.429 63.5148 234.429 59.5451C234.429 55.5754 231.213 52.3525 227.251 52.3525C223.29 52.3525 220.074 55.5754 220.074 59.5451C220.074 63.5148 223.29 66.7377 227.251 66.7377ZM227.251 53.1779C230.781 53.1779 233.644 56.0471 233.644 59.5844C233.644 63.1218 230.781 65.9909 227.251 65.9909C223.721 65.9909 220.858 63.1218 220.858 59.5844C220.858 56.0471 223.721 53.1779 227.251 53.1779Z" fill="#646464"/>
<path d="M221.799 59.5844C221.799 62.6108 224.23 65.0476 227.25 65.0476C230.27 65.0476 232.702 62.6108 232.702 59.5844C232.702 56.558 230.27 54.1212 227.25 54.1212C224.23 54.0819 221.799 56.558 221.799 59.5844Z" fill="#DFDFDF"/>
<path d="M227.251 65.4407C230.467 65.4407 233.095 62.8073 233.095 59.5844C233.095 56.3615 230.467 53.7281 227.251 53.7281C224.035 53.7281 221.407 56.3615 221.407 59.5844C221.407 62.8073 224.035 65.4407 227.251 65.4407ZM227.251 54.4749C230.035 54.4749 232.31 56.7545 232.31 59.5451C232.31 62.3357 230.035 64.6153 227.251 64.6153C224.466 64.6153 222.191 62.3357 222.191 59.5451C222.191 56.7545 224.466 54.4749 227.251 54.4749Z" fill="#646464"/>
<path d="M224.074 59.5845C224.074 61.3139 225.486 62.7288 227.212 62.7288C228.937 62.7288 230.389 61.3139 230.389 59.5845C230.389 57.8551 228.977 56.4009 227.212 56.4009C225.486 56.4009 224.074 57.8158 224.074 59.5845Z" fill="#DFDFDF"/>
<path d="M227.251 63.1218C229.212 63.1218 230.82 61.5103 230.82 59.5845C230.82 57.6586 229.212 56.0078 227.251 56.0078C225.29 56.0078 223.721 57.6193 223.721 59.5845C223.721 61.5496 225.29 63.1218 227.251 63.1218ZM227.251 56.7939C228.781 56.7939 230.036 58.0516 230.036 59.5845C230.036 61.1173 228.781 62.3357 227.251 62.3357C225.721 62.3357 224.506 61.078 224.506 59.5845C224.506 58.0909 225.721 56.7939 227.251 56.7939Z" fill="#646464"/>
<path d="M144.375 59.5845C144.375 65.1263 148.846 69.6069 154.376 69.6069C159.907 69.6069 164.378 65.1263 164.378 59.5845C164.378 54.0426 159.907 49.562 154.376 49.562C148.846 49.562 144.375 54.0426 144.375 59.5845Z" fill="#DFDFDF"/>
<path d="M154.377 69.9999C160.103 69.9999 164.771 65.3228 164.771 59.5844C164.771 53.8461 160.103 49.1689 154.377 49.1689C148.65 49.1689 143.983 53.8461 143.983 59.5844C143.983 65.3228 148.65 69.9999 154.377 69.9999ZM154.377 49.955C159.672 49.955 163.986 54.2784 163.986 59.5844C163.986 64.8905 159.672 69.2139 154.377 69.2139C149.082 69.2139 144.767 64.8905 144.767 59.5844C144.767 54.2784 149.082 49.955 154.377 49.955Z" fill="#646464"/>
<path d="M147.591 59.5845C147.591 63.3183 150.611 66.384 154.377 66.384C158.142 66.384 161.162 63.3576 161.162 59.5845C161.162 55.8506 158.142 52.7849 154.377 52.7849C150.611 52.7849 147.591 55.8113 147.591 59.5845Z" fill="#DFDFDF"/>
<path d="M154.377 66.7377C158.339 66.7377 161.555 63.5148 161.555 59.5451C161.555 55.5754 158.339 52.3525 154.377 52.3525C150.416 52.3525 147.2 55.5754 147.2 59.5451C147.2 63.5148 150.416 66.7377 154.377 66.7377ZM154.377 53.1779C157.907 53.1779 160.77 56.0471 160.77 59.5844C160.77 63.1218 157.907 65.9909 154.377 65.9909C150.847 65.9909 147.984 63.1218 147.984 59.5844C147.984 56.0471 150.847 53.1779 154.377 53.1779Z" fill="#646464"/>
<path d="M148.924 59.5844C148.924 62.6108 151.356 65.0476 154.376 65.0476C157.396 65.0476 159.828 62.6108 159.828 59.5844C159.828 56.558 157.396 54.1212 154.376 54.1212C151.356 54.0819 148.924 56.558 148.924 59.5844Z" fill="#DFDFDF"/>
<path d="M154.377 65.4407C157.593 65.4407 160.221 62.8073 160.221 59.5844C160.221 56.3615 157.593 53.7281 154.377 53.7281C151.16 53.7281 148.533 56.3615 148.533 59.5844C148.533 62.8073 151.16 65.4407 154.377 65.4407ZM154.377 54.4749C157.161 54.4749 159.436 56.7545 159.436 59.5451C159.436 62.3357 157.161 64.6153 154.377 64.6153C151.592 64.6153 149.317 62.3357 149.317 59.5451C149.317 56.7545 151.592 54.4749 154.377 54.4749Z" fill="#646464"/>
<path d="M151.2 59.5845C151.2 61.3139 152.612 62.7288 154.338 62.7288C156.063 62.7288 157.515 61.3139 157.515 59.5845C157.515 57.8551 156.103 56.4009 154.338 56.4009C152.651 56.4009 151.2 57.8158 151.2 59.5845Z" fill="#DFDFDF"/>
<path d="M154.377 63.1218C156.338 63.1218 157.946 61.5103 157.946 59.5845C157.946 57.6586 156.338 56.0078 154.377 56.0078C152.416 56.0078 150.847 57.6193 150.847 59.5845C150.847 61.5496 152.416 63.1218 154.377 63.1218ZM154.377 56.7939C155.907 56.7939 157.162 58.0516 157.162 59.5845C157.162 61.1173 155.907 62.3357 154.377 62.3357C152.847 62.3357 151.632 61.078 151.632 59.5845C151.632 58.0909 152.847 56.7939 154.377 56.7939Z" fill="#646464"/>
<path d="M117.312 59.5845C117.312 65.1263 121.784 69.6069 127.314 69.6069C132.844 69.6069 137.315 65.1263 137.315 59.5845C137.315 54.0426 132.844 49.562 127.314 49.562C121.784 49.562 117.312 54.0426 117.312 59.5845Z" fill="#DFDFDF"/>
<path d="M127.314 69.9999C133.041 69.9999 137.708 65.3228 137.708 59.5844C137.708 53.8461 133.041 49.1689 127.314 49.1689C121.588 49.1689 116.92 53.8461 116.92 59.5844C116.92 65.3228 121.588 69.9999 127.314 69.9999ZM127.314 49.955C132.609 49.955 136.924 54.2784 136.924 59.5844C136.924 64.8905 132.609 69.2139 127.314 69.2139C122.019 69.2139 117.705 64.8905 117.705 59.5844C117.705 54.2784 122.019 49.955 127.314 49.955Z" fill="#646464"/>
<path d="M120.529 59.5845C120.529 63.3183 123.549 66.384 127.314 66.384C131.04 66.384 134.1 63.3576 134.1 59.5845C134.1 55.8506 131.08 52.7849 127.314 52.7849C123.549 52.7849 120.529 55.8113 120.529 59.5845Z" fill="#DFDFDF"/>
<path d="M127.315 66.7377C131.276 66.7377 134.492 63.5148 134.492 59.5451C134.492 55.5754 131.276 52.3525 127.315 52.3525C123.353 52.3525 120.137 55.5754 120.137 59.5451C120.137 63.5148 123.353 66.7377 127.315 66.7377ZM127.315 53.1779C130.845 53.1779 133.708 56.0471 133.708 59.5844C133.708 63.1218 130.845 65.9909 127.315 65.9909C123.785 65.9909 120.921 63.1218 120.921 59.5844C120.921 56.0471 123.785 53.1779 127.315 53.1779Z" fill="#646464"/>
<path d="M121.862 59.5844C121.862 62.6108 124.294 65.0476 127.314 65.0476C130.334 65.0476 132.766 62.6108 132.766 59.5844C132.766 56.558 130.334 54.1212 127.314 54.1212C124.294 54.0819 121.862 56.558 121.862 59.5844Z" fill="#DFDFDF"/>
<path d="M127.314 65.4407C130.53 65.4407 133.158 62.8073 133.158 59.5844C133.158 56.3615 130.53 53.7281 127.314 53.7281C124.098 53.7281 121.47 56.3615 121.47 59.5844C121.47 62.8073 124.098 65.4407 127.314 65.4407ZM127.314 54.4749C130.099 54.4749 132.374 56.7545 132.374 59.5451C132.374 62.3357 130.099 64.6153 127.314 64.6153C124.529 64.6153 122.255 62.3357 122.255 59.5451C122.255 56.7545 124.529 54.4749 127.314 54.4749Z" fill="#646464"/>
<path d="M124.137 59.5845C124.137 61.3139 125.549 62.7288 127.275 62.7288C129.001 62.7288 130.452 61.3139 130.452 59.5845C130.452 57.8551 129.04 56.4009 127.275 56.4009C125.549 56.4009 124.137 57.8158 124.137 59.5845Z" fill="#DFDFDF"/>
<path d="M127.315 63.1218C129.276 63.1218 130.884 61.5103 130.884 59.5845C130.884 57.6586 129.276 56.0078 127.315 56.0078C125.354 56.0078 123.785 57.6193 123.785 59.5845C123.785 61.5496 125.354 63.1218 127.315 63.1218ZM127.315 56.7939C128.844 56.7939 130.099 58.0516 130.099 59.5845C130.099 61.1173 128.844 62.3357 127.315 62.3357C125.785 62.3357 124.569 61.078 124.569 59.5845C124.569 58.0909 125.785 56.7939 127.315 56.7939Z" fill="#646464"/>
<path d="M43.2616 59.5845C43.2616 65.1263 47.7328 69.6069 53.2631 69.6069C58.7934 69.6069 63.2646 65.1263 63.2646 59.5845C63.2646 54.0426 58.7934 49.562 53.2631 49.562C47.7328 49.562 43.2616 54.0426 43.2616 59.5845Z" fill="#DFDFDF"/>
<path d="M53.2635 69.9999C58.9898 69.9999 63.6572 65.3228 63.6572 59.5844C63.6572 53.8461 58.9898 49.1689 53.2635 49.1689C47.5371 49.1689 42.8697 53.8461 42.8697 59.5844C42.8697 65.3228 47.5371 69.9999 53.2635 69.9999ZM53.2635 49.955C58.5584 49.955 62.8728 54.2784 62.8728 59.5844C62.8728 64.8905 58.5584 69.2139 53.2635 69.2139C47.9685 69.2139 43.6541 64.8905 43.6541 59.5844C43.6541 54.2784 47.9685 49.955 53.2635 49.955Z" fill="#646464"/>
<path d="M46.4781 59.5845C46.4781 63.3183 49.4982 66.384 53.2635 66.384C56.9895 66.384 60.0488 63.3576 60.0488 59.5845C60.0488 55.8506 57.0288 52.7849 53.2635 52.7849C49.4982 52.7849 46.4781 55.8113 46.4781 59.5845Z" fill="#DFDFDF"/>
<path d="M53.2638 66.7377C57.2252 66.7377 60.4414 63.5148 60.4414 59.5451C60.4414 55.5754 57.2252 52.3525 53.2638 52.3525C49.3024 52.3525 46.0863 55.5754 46.0863 59.5451C46.0863 63.5148 49.3024 66.7377 53.2638 66.7377ZM53.2638 53.1779C56.7938 53.1779 59.657 56.0471 59.657 59.5844C59.657 63.1218 56.7938 65.9909 53.2638 65.9909C49.7339 65.9909 46.8707 63.1218 46.8707 59.5844C46.8707 56.0471 49.7339 53.1779 53.2638 53.1779Z" fill="#646464"/>
<path d="M47.8112 59.5844C47.8112 62.6108 50.2429 65.0476 53.263 65.0476C56.2831 65.0476 58.7148 62.6108 58.7148 59.5844C58.7148 56.558 56.2831 54.1212 53.263 54.1212C50.2429 54.0819 47.8112 56.558 47.8112 59.5844Z" fill="#DFDFDF"/>
<path d="M53.2634 65.4407C56.4796 65.4407 59.1074 62.8073 59.1074 59.5844C59.1074 56.3615 56.4796 53.7281 53.2634 53.7281C50.0472 53.7281 47.4193 56.3615 47.4193 59.5844C47.4193 62.8073 50.0472 65.4407 53.2634 65.4407ZM53.2634 54.4749C56.0481 54.4749 58.323 56.7545 58.323 59.5451C58.323 62.3357 56.0481 64.6153 53.2634 64.6153C50.4786 64.6153 48.2038 62.3357 48.2038 59.5451C48.2038 56.7545 50.4786 54.4749 53.2634 54.4749Z" fill="#646464"/>
<path d="M50.0867 59.5845C50.0867 61.3139 51.4986 62.7288 53.2244 62.7288C54.9502 62.7288 56.4014 61.3139 56.4014 59.5845C56.4014 57.8551 54.9894 56.4009 53.2244 56.4009C51.4986 56.4009 50.0867 57.8158 50.0867 59.5845Z" fill="#DFDFDF"/>
<path d="M53.2638 63.1218C55.2249 63.1218 56.833 61.5103 56.833 59.5845C56.833 57.6586 55.2249 56.0078 53.2638 56.0078C51.3028 56.0078 49.7339 57.6193 49.7339 59.5845C49.7339 61.5496 51.3028 63.1218 53.2638 63.1218ZM53.2638 56.7939C54.7935 56.7939 56.0486 58.0516 56.0486 59.5845C56.0486 61.1173 54.7935 62.3357 53.2638 62.3357C51.7342 62.3357 50.5183 61.078 50.5183 59.5845C50.5183 58.0909 51.7342 56.7939 53.2638 56.7939Z" fill="#646464"/>
<path d="M16.3162 59.5845C16.3162 65.1263 20.7875 69.6069 26.3178 69.6069C31.8481 69.6069 36.3193 65.1263 36.3193 59.5845C36.3193 54.0426 31.8481 49.562 26.3178 49.562C20.7875 49.562 16.3162 54.0426 16.3162 59.5845Z" fill="#DFDFDF"/>
<path d="M26.3182 69.9999C32.0445 69.9999 36.7119 65.3228 36.7119 59.5844C36.7119 53.8461 32.0445 49.1689 26.3182 49.1689C20.5918 49.1689 15.9244 53.8461 15.9244 59.5844C15.9244 65.3228 20.5918 69.9999 26.3182 69.9999ZM26.3182 49.955C31.6131 49.955 35.9275 54.2784 35.9275 59.5844C35.9275 64.8905 31.6131 69.2139 26.3182 69.2139C21.0232 69.2139 16.7088 64.8905 16.7088 59.5844C16.7088 54.2784 21.0232 49.955 26.3182 49.955Z" fill="#646464"/>
<path d="M19.5328 59.5845C19.5328 63.3183 22.5529 66.384 26.3182 66.384C30.0442 66.384 33.1035 63.3576 33.1035 59.5845C33.1035 55.8506 30.0834 52.7849 26.3182 52.7849C22.5529 52.7849 19.5328 55.8113 19.5328 59.5845Z" fill="#DFDFDF"/>
<path d="M26.3185 66.7377C30.2799 66.7377 33.4961 63.5148 33.4961 59.5451C33.4961 55.5754 30.2799 52.3525 26.3185 52.3525C22.3571 52.3525 19.1409 55.5754 19.1409 59.5451C19.1409 63.5148 22.3571 66.7377 26.3185 66.7377ZM26.3185 53.1779C29.8485 53.1779 32.7117 56.0471 32.7117 59.5844C32.7117 63.1218 29.8485 65.9909 26.3185 65.9909C22.7886 65.9909 19.9254 63.1218 19.9254 59.5844C19.9254 56.0471 22.7886 53.1779 26.3185 53.1779Z" fill="#646464"/>
<path d="M20.8659 59.5844C20.8659 62.6108 23.2976 65.0476 26.3177 65.0476C29.3378 65.0476 31.7695 62.6108 31.7695 59.5844C31.7695 56.558 29.3378 54.1212 26.3177 54.1212C23.2976 54.0819 20.8659 56.558 20.8659 59.5844Z" fill="#DFDFDF"/>
<path d="M26.3181 65.4407C29.5342 65.4407 32.1621 62.8073 32.1621 59.5844C32.1621 56.3615 29.5342 53.7281 26.3181 53.7281C23.1019 53.7281 20.474 56.3615 20.474 59.5844C20.474 62.8073 23.1019 65.4407 26.3181 65.4407ZM26.3181 54.4749C29.1028 54.4749 31.3777 56.7545 31.3777 59.5451C31.3777 62.3357 29.1028 64.6153 26.3181 64.6153C23.5333 64.6153 21.2584 62.3357 21.2584 59.5451C21.2584 56.7545 23.5333 54.4749 26.3181 54.4749Z" fill="#646464"/>
<path d="M23.1414 59.5845C23.1414 61.3139 24.5533 62.7288 26.2791 62.7288C28.0049 62.7288 29.4561 61.3139 29.4561 59.5845C29.4561 57.8551 28.0441 56.4009 26.2791 56.4009C24.5533 56.4009 23.1414 57.8158 23.1414 59.5845Z" fill="#DFDFDF"/>
<path d="M26.3185 63.1218C28.2796 63.1218 29.8877 61.5103 29.8877 59.5845C29.8877 57.6586 28.2796 56.0078 26.3185 56.0078C24.3574 56.0078 22.7886 57.6193 22.7886 59.5845C22.7886 61.5496 24.3574 63.1218 26.3185 63.1218ZM26.3185 56.7939C27.8482 56.7939 29.1033 58.0516 29.1033 59.5845C29.1033 61.1173 27.8482 62.3357 26.3185 62.3357C24.7889 62.3357 23.573 61.078 23.573 59.5845C23.573 58.0909 24.7889 56.7939 26.3185 56.7939Z" fill="#646464"/>
</g>
<defs>
<clipPath id="clip0_761_3524">
<rect width="254" height="70" fill="white" transform="matrix(-1 0 0 1 254 0)"/>
</clipPath>
</defs>
</svg>
