<svg width="254" height="70" viewBox="0 0 254 70" fill="none" xmlns="http://www.w3.org/2000/svg">
<g clip-path="url(#clip0_761_2672)">
<path d="M64.5198 17.9619H28.9064C28.2004 17.9619 27.6121 18.5515 27.6121 19.2589C27.6121 20.045 28.0436 20.7918 28.7496 21.1455L29.9262 21.7351L28.7103 33.2904L8.9818 36.0023C8.11892 36.1989 7.45215 36.9456 7.45215 37.8496V59.9383H14.9827C15.0219 58.7985 15.1004 57.2657 15.3749 56.1259C16.5124 51.488 21.572 47.8721 26.8669 47.8721C33.5346 47.8721 38.5942 53.3353 38.555 59.6239C41.026 59.6239 53.3024 59.6239 64.4806 59.6239V17.9619H64.5198Z" fill="#DFDFDF"/>
<path d="M15.3746 60.3313H7.05957V37.8496C7.05957 36.7884 7.84401 35.8451 8.90299 35.6879L28.357 33.0152L29.5336 22.0102L28.5923 21.5385C27.7687 21.1062 27.2195 20.2022 27.2195 19.2982C27.2195 18.3549 28.004 17.6082 28.9061 17.6082H64.8724V60.0562H38.1624V59.6632C38.2016 56.6761 36.9858 53.7676 34.8678 51.6059C32.7498 49.4442 29.9258 48.2651 26.8666 48.2651C21.7285 48.2651 16.865 51.7631 15.7668 56.2044C15.4922 57.3049 15.4138 58.8378 15.3746 59.9383V60.3313ZM7.84401 59.5453H14.5901C14.6294 58.4448 14.747 57.0691 14.9824 56.0472C16.159 51.2522 21.3755 47.5183 26.8666 47.5183C30.122 47.5183 33.142 48.776 35.4169 51.0556C37.5741 53.2567 38.8684 56.2044 38.9468 59.2701H64.1272V18.3942H28.9061C28.3962 18.3942 28.004 18.7873 28.004 19.2982C28.004 19.9271 28.357 20.5559 28.9453 20.8704L30.3573 21.5778L29.063 33.7227L9.02066 36.474C8.35389 36.5919 7.84401 37.1814 7.84401 37.8496V59.5453Z" fill="#646464"/>
<path d="M51.89 25.0758C51.89 24.2111 51.184 23.543 50.3603 23.543H38.28C37.4171 23.543 36.6719 24.2111 36.5935 25.0758L36.0444 31.8361C35.9659 32.6614 36.6327 33.3689 37.4563 33.3689H50.3995C51.2624 33.3689 51.9292 32.6614 51.9292 31.8361V25.0758H51.89Z" fill="#DFDFDF"/>
<path d="M50.3607 33.7619H37.4175C36.9076 33.7619 36.437 33.5654 36.084 33.1724C35.731 32.8186 35.5741 32.3077 35.6133 31.7967L36.2016 25.0365C36.2801 23.9753 37.1822 23.1499 38.2804 23.1499H50.3607C51.4197 23.1499 52.2825 24.0146 52.2825 25.0758V31.836C52.2825 32.8972 51.4197 33.7619 50.3607 33.7619ZM38.2804 23.8967C37.6136 23.8967 37.0645 24.4076 36.9861 25.0758L36.437 31.836C36.3977 32.1112 36.5154 32.3863 36.7115 32.6221C36.9076 32.8186 37.1822 32.9365 37.4567 32.9365H50.3999C51.0274 32.9365 51.5373 32.4256 51.5373 31.7967V25.0758C51.5373 24.4469 51.0274 23.936 50.3999 23.936H38.2804V23.8967Z" fill="#646464"/>
<path d="M31.6129 31.8361L32.2012 25.0758C32.2797 24.2111 32.2012 23.543 30.8677 23.543H30.2009C29.338 23.543 28.5928 24.2111 28.5144 25.0758L27.9653 31.8361C27.8868 32.6614 28.5536 33.3689 29.3772 33.3689H30.3186C31.2599 33.3689 31.5344 32.6614 31.6129 31.8361Z" fill="#DFDFDF"/>
<path d="M30.3188 33.7619H29.3775C28.8676 33.7619 28.3969 33.5654 28.0439 33.1724C27.6909 32.8186 27.534 32.3077 27.5733 31.7967L28.1616 25.0365C28.24 23.9753 29.1421 23.1499 30.2403 23.1499H30.9071C31.5739 23.1499 32.0053 23.3071 32.2799 23.6215C32.6721 24.0146 32.6329 24.6041 32.5936 25.1151L32.0053 31.836C31.8877 33.4082 31.0248 33.7619 30.3188 33.7619ZM30.2011 23.8967C29.5344 23.8967 28.9852 24.4076 28.9068 25.0758L28.3577 31.836C28.3185 32.1112 28.4361 32.3863 28.6323 32.6221C28.8284 32.8186 29.1029 32.9365 29.3775 32.9365H30.3188C30.7502 32.9365 31.1424 32.7793 31.2209 31.7574L31.8092 24.9972C31.8484 24.6434 31.8484 24.2504 31.6915 24.0932C31.5347 23.936 31.1817 23.8967 30.8679 23.8967H30.2011Z" fill="#646464"/>
<path d="M62.4412 24.329C62.4412 23.4643 61.7352 22.7961 60.9116 22.7568L58.0091 22.7175C57.1463 22.7175 56.4795 23.3857 56.4795 24.2504V31.7967C56.4795 32.6614 57.1855 33.3295 58.0091 33.3295H60.9116C61.7744 33.3295 62.4412 32.6221 62.4412 31.7967V24.329Z" fill="#DFDFDF"/>
<path d="M60.9112 33.7619H58.0088C56.9498 33.7619 56.0869 32.8972 56.0869 31.836V24.2503C56.0869 23.7394 56.283 23.2678 56.636 22.8747C56.989 22.521 57.4989 22.3245 58.0088 22.3245L60.9112 22.3638C61.9702 22.3638 62.8331 23.2678 62.8331 24.329V31.836C62.8331 32.8972 61.9702 33.7619 60.9112 33.7619ZM57.9696 23.1105C57.6558 23.1105 57.3812 23.2284 57.1851 23.425C56.9498 23.6215 56.8321 23.9359 56.8321 24.211V31.7574C56.8321 32.3862 57.342 32.8972 57.9696 32.8972H60.872C61.4995 32.8972 62.0094 32.3862 62.0094 31.7574V24.329C62.0094 23.7001 61.4995 23.1891 60.872 23.1498L57.9696 23.1105C58.0088 23.1105 58.0088 23.1105 57.9696 23.1105Z" fill="#646464"/>
<path d="M52.0088 37.0241C52.0088 37.7315 51.4597 38.2818 50.7537 38.2818H48.2043C47.4983 38.2818 46.9492 37.7315 46.9492 37.0241C46.9492 36.3166 47.4983 35.7664 48.2043 35.7664H50.7537C51.4597 35.7664 52.0088 36.3166 52.0088 37.0241Z" fill="#DFDFDF"/>
<path d="M50.7534 38.6748H48.204C47.3019 38.6748 46.5566 37.928 46.5566 37.024C46.5566 36.1201 47.3019 35.3733 48.204 35.3733H50.7534C51.6555 35.3733 52.4007 36.1201 52.4007 37.024C52.4007 37.9673 51.6555 38.6748 50.7534 38.6748ZM48.204 36.1594C47.7333 36.1594 47.3411 36.5524 47.3411 37.024C47.3411 37.4957 47.7333 37.8887 48.204 37.8887H50.7534C51.224 37.8887 51.6162 37.4957 51.6162 37.024C51.6162 36.5524 51.224 36.1594 50.7534 36.1594H48.204Z" fill="#646464"/>
<path d="M52.6355 56.794H44.0459C42.8693 56.794 41.8887 55.9686 41.5749 54.7895C40.7121 51.095 38.5156 48.5009 35.1426 47.0074C33.8875 46.4571 33.2207 45.5924 33.2207 44.5705V33.2904L34.2405 23.2286C34.3581 22.0102 35.3779 21.1062 36.5938 21.1062H52.5962C53.8121 21.1062 54.7927 22.0888 54.7927 23.3072V54.5537C54.7927 55.8114 53.8121 56.794 52.6355 56.794ZM34.0051 33.369V44.5705C34.0051 45.5138 34.9072 46.0641 35.4563 46.2999C39.0647 47.8721 41.3788 50.6626 42.3201 54.6323C42.5163 55.4577 43.2222 56.0079 44.0067 56.0079H52.5962C53.3807 56.0079 54.0082 55.3791 54.0082 54.593V23.3072C54.0082 22.5211 53.3807 21.8923 52.5962 21.8923H36.5938C35.7701 21.8923 35.1033 22.5211 35.0249 23.3072L34.0051 33.369Z" fill="#646464"/>
<path d="M240.704 45.946H189.01V47.0465H240.704V45.946Z" fill="#DFDFDF"/>
<path d="M241.096 47.4396H188.617V45.553H241.096V47.4396ZM189.402 46.6535H240.311V46.3391H189.402V46.6535Z" fill="#646464"/>
<path d="M94.0938 39.5397C94.0938 40.4044 94.7997 41.0726 95.6234 41.0726H252.04C252.903 41.0726 253.569 40.3651 253.569 39.5397V36.081L248.157 34.6661V33.88L253.569 33.2511V30.0282C253.569 29.1635 252.863 28.4954 252.04 28.4954H95.6234C94.7605 28.4954 94.0938 29.2028 94.0938 30.0282V39.5397Z" fill="#DFDFDF"/>
<path d="M252.039 41.4656H95.623C94.5641 41.4656 93.7012 40.6009 93.7012 39.5397V29.9889C93.7012 28.9277 94.5641 28.063 95.623 28.063H252.039C253.098 28.063 253.961 28.9277 253.961 29.9889V33.5655L248.549 34.1944V34.3123L253.961 35.7272V39.5004C254 40.6009 253.138 41.4656 252.039 41.4656ZM95.623 28.8491C94.9955 28.8491 94.4856 29.36 94.4856 29.9889V39.5004C94.4856 40.1292 94.9955 40.6402 95.623 40.6402H252.039C252.667 40.6402 253.177 40.1292 253.177 39.5004V36.3168L247.764 34.9018V33.4869L253.177 32.858V29.9889C253.177 29.36 252.667 28.8491 252.039 28.8491H95.623Z" fill="#646464"/>
<path d="M89.7397 26.923C89.7397 27.7877 90.4456 28.4559 91.2693 28.4559H246.627C247.49 28.4559 248.156 27.7484 248.156 26.923V17.4115C248.156 16.5468 247.45 15.8787 246.627 15.8787H90.2103C89.3474 15.8787 88.6807 16.5861 88.6807 17.4115V21.3026L89.7789 22.128V26.923H89.7397Z" fill="#DFDFDF"/>
<path d="M246.626 28.8882H91.2691C90.2101 28.8882 89.3472 28.0235 89.3472 26.9623V22.3244L88.249 21.4991V17.4115C88.249 16.3503 89.1119 15.4856 90.1709 15.4856H246.587C247.646 15.4856 248.509 16.3503 248.509 17.4115V26.923C248.548 27.9842 247.685 28.8882 246.626 28.8882ZM89.0335 21.106L90.1317 21.9314V26.9623C90.1317 27.5912 90.6415 28.1021 91.2691 28.1021H246.626C247.254 28.1021 247.764 27.5912 247.764 26.9623V17.4115C247.764 16.7826 247.254 16.2717 246.626 16.2717H90.2101C89.5826 16.2717 89.0727 16.7826 89.0727 17.4115V21.106H89.0335Z" fill="#646464"/>
<path d="M91.8965 14.3459C91.8965 15.2106 92.6025 15.8787 93.4261 15.8787H249.882C250.745 15.8787 251.411 15.1712 251.411 14.3459V4.83436C251.411 3.96968 250.705 3.30151 249.882 3.30151H93.4654C92.6025 3.30151 91.9357 4.00898 91.9357 4.83436V6.56373L95.7402 7.3105L91.9357 9.90455V14.3459H91.8965Z" fill="#DFDFDF"/>
<path d="M249.882 16.2717H93.4658C92.4068 16.2717 91.5439 15.407 91.5439 14.3458V9.66869L94.7209 7.50699L91.5439 6.87813V4.83433C91.5439 3.77313 92.4068 2.90845 93.4658 2.90845H249.921C250.98 2.90845 251.843 3.77313 251.843 4.83433V14.3458C251.804 15.407 250.941 16.2717 249.882 16.2717ZM92.2892 10.101V14.3458C92.2892 14.9747 92.799 15.4857 93.4266 15.4857H249.882C250.51 15.4857 251.02 14.9747 251.02 14.3458V4.83433C251.02 4.20547 250.51 3.69452 249.882 3.69452H93.4658C92.8383 3.69452 92.3284 4.20547 92.3284 4.83433V6.24927L96.7212 7.11395L92.2892 10.101Z" fill="#646464"/>
<path d="M143.042 52.156H145.435C146.297 52.156 146.964 52.8635 146.964 53.6889V54.0033C146.964 54.868 146.258 55.5361 145.435 55.5361H143.042V52.156Z" fill="#DFDFDF"/>
<path d="M145.434 55.9291H142.649V51.7629H145.434C146.493 51.7629 147.356 52.6276 147.356 53.6888V54.0033C147.356 55.0645 146.493 55.9291 145.434 55.9291ZM143.434 55.1431H145.434C146.062 55.1431 146.572 54.6321 146.572 54.0033V53.6888C146.572 53.06 146.062 52.549 145.434 52.549H143.434V55.1431Z" fill="#646464"/>
<path d="M244.234 52.156H246.627C247.49 52.156 248.157 52.8635 248.157 53.6889V54.0033C248.157 54.868 247.451 55.5361 246.627 55.5361H244.234V52.156Z" fill="#DFDFDF"/>
<path d="M246.627 55.9291H243.842V51.7629H246.627C247.686 51.7629 248.548 52.6276 248.548 53.6888V54.0033C248.548 55.0645 247.686 55.9291 246.627 55.9291ZM244.626 55.1431H246.627C247.254 55.1431 247.764 54.6321 247.764 54.0033V53.6888C247.764 53.06 247.254 52.549 246.627 52.549H244.626V55.1431Z" fill="#646464"/>
<path d="M125 46.1819H105.859V47.0466H125V46.1819Z" fill="#DFDFDF"/>
<path d="M125.391 47.4396H105.467V45.7888H125.391V47.4396ZM106.251 46.6535H124.607V46.5749H106.251V46.6535Z" fill="#646464"/>
<path d="M186.618 47.0073C185.755 47.0073 185.088 47.7148 185.088 48.5402V58.091C185.088 58.9557 185.794 59.6238 186.618 59.6238C187.324 59.6238 187.951 59.6238 189.01 59.6238V59.5845C189.01 53.1387 194.227 47.872 200.698 47.872C206.66 47.872 212.19 52.3919 212.386 59.6238H216.152V59.5845C216.152 53.178 221.368 47.872 227.84 47.872C233.762 47.872 239.332 52.3919 239.528 59.6631H244.744C245.607 59.6631 246.274 58.9557 246.274 58.1303V48.5795C246.274 47.7148 245.568 47.0466 244.705 47.0466C237.174 47.0073 207.091 47.0073 186.618 47.0073Z" fill="#DFDFDF"/>
<path d="M244.744 60.0168H239.135V59.6238C238.978 54.1213 234.978 48.2257 227.839 48.2257C221.603 48.2257 216.543 53.2959 216.543 59.5452V59.9775H211.994V59.5845C211.837 54.082 207.836 48.2257 200.698 48.2257C194.462 48.2257 189.402 53.2959 189.402 59.5452V59.9382L189.01 59.9775H186.617C185.558 59.9775 184.695 59.1129 184.695 58.0516V48.5008C184.695 47.4396 185.558 46.575 186.617 46.575H244.705C245.803 46.575 246.666 47.4396 246.666 48.5008V58.0516C246.666 59.1522 245.803 60.0168 244.744 60.0168ZM239.88 59.2308H244.744C245.371 59.2308 245.881 58.7198 245.881 58.091V48.5401C245.881 47.9113 245.332 47.4003 244.705 47.4003H186.617C185.99 47.4003 185.48 47.9113 185.48 48.5401V58.091C185.48 58.7198 185.99 59.2308 186.617 59.2308H188.617C188.814 52.7063 194.148 47.4789 200.698 47.4789C206.306 47.4789 212.347 51.6058 212.739 59.2308H215.759C215.955 52.7063 221.289 47.4789 227.839 47.4789C234.389 47.4789 239.527 52.5098 239.88 59.2308Z" fill="#646464"/>
<path d="M65.8535 47.1646H72.9134V13.3634C72.9134 12.4987 72.2074 11.8306 71.3838 11.8306H67.4224C66.5595 11.8306 65.8927 12.538 65.8927 13.3634V47.1646H65.8535Z" fill="#DFDFDF"/>
<path d="M73.2662 47.5577H65.4219V13.3634C65.4219 12.3022 66.2848 11.4375 67.3437 11.4375H71.3051C72.3641 11.4375 73.227 12.3022 73.227 13.3634V47.5577H73.2662ZM66.2455 46.7716H72.521V13.3634C72.521 12.7345 72.0111 12.2236 71.3836 12.2236H67.4222C66.7946 12.2236 66.2848 12.7345 66.2848 13.3634V46.7716H66.2455Z" fill="#646464"/>
<path d="M68.0099 11.9091H70.7162V1.7687C70.7162 1.02193 70.1279 0.393066 69.3435 0.393066C68.5983 0.393066 67.9707 1.02193 67.9707 1.7687V11.9091H68.0099Z" fill="#DFDFDF"/>
<path d="M71.1089 12.3021H67.6182V1.76867C67.6182 0.786075 68.4026 0 69.3831 0C70.3637 0 71.1481 0.786075 71.1481 1.76867V12.3021H71.1089ZM68.4026 11.516H70.3245V1.76867C70.3245 1.21842 69.893 0.786075 69.3439 0.786075C68.7948 0.786075 68.3634 1.21842 68.3634 1.76867V11.516H68.4026Z" fill="#646464"/>
<path d="M112.763 45.9069H106.997V12.8524C106.997 11.9877 107.703 11.3196 108.527 11.3196H111.233C112.096 11.3196 112.763 12.027 112.763 12.8524V45.9069Z" fill="#DFDFDF"/>
<path d="M113.155 46.2999H106.604V12.8524C106.604 11.7912 107.467 10.9265 108.526 10.9265H111.233C112.292 10.9265 113.155 11.7912 113.155 12.8524V46.2999ZM107.389 45.5138H112.37V12.8524C112.37 12.2235 111.86 11.7126 111.233 11.7126H108.526C107.899 11.7126 107.389 12.2235 107.389 12.8524V45.5138Z" fill="#646464"/>
<path d="M124.177 45.9069H118.411V12.8524C118.411 11.9877 119.117 11.3196 119.941 11.3196H122.647C123.51 11.3196 124.177 12.027 124.177 12.8524V45.9069Z" fill="#DFDFDF"/>
<path d="M124.569 46.2999H118.019V12.8524C118.019 11.7912 118.881 10.9265 119.94 10.9265H122.647C123.706 10.9265 124.569 11.7912 124.569 12.8524V46.2999ZM118.803 45.5138H123.784V12.8524C123.784 12.2235 123.274 11.7126 122.647 11.7126H119.94C119.313 11.7126 118.803 12.2235 118.803 12.8524V45.5138Z" fill="#646464"/>
<path d="M143.63 47.0073C133.276 47.0073 73.5804 47.0073 65.8145 47.0073V59.6238C73.8941 59.6238 86.3666 59.6238 87.8963 59.6238V59.5845C87.8963 53.1387 93.1128 47.872 99.5844 47.872C105.546 47.872 111.076 52.3919 111.272 59.6238H115.038V59.5845C115.038 53.178 120.254 47.872 126.726 47.872C132.648 47.872 138.218 52.3919 138.414 59.6631H143.63C144.493 59.6631 145.16 58.9557 145.16 58.1303V48.5795C145.16 47.6755 144.493 47.0073 143.63 47.0073Z" fill="#DFDFDF"/>
<path d="M143.63 60.0168H138.021V59.6238C137.864 54.1213 133.864 48.2257 126.725 48.2257C120.489 48.2257 115.43 53.2959 115.43 59.5452V59.9382L115.037 59.9775H110.88V59.5845C110.723 54.082 106.722 48.2257 99.584 48.2257C93.3478 48.2257 88.2882 53.2959 88.2882 59.5452V59.9382L87.8959 59.9775H65.4219V46.575H143.63C144.689 46.575 145.552 47.4396 145.552 48.5008V58.0516C145.552 59.1522 144.689 60.0168 143.63 60.0168ZM138.767 59.2308H143.63C144.258 59.2308 144.767 58.7198 144.767 58.091V48.5401C144.767 47.9113 144.258 47.4003 143.63 47.4003H66.2063V59.2308H87.5037C87.6998 52.7063 93.034 47.4789 99.584 47.4789C105.193 47.4789 111.233 51.6058 111.625 59.2308H114.645C114.841 52.7063 120.175 47.4789 126.725 47.4789C133.275 47.4789 138.414 52.5098 138.767 59.2308Z" fill="#646464"/>
<path d="M236.193 45.9069H230.428V12.8524C230.428 11.9877 231.134 11.3196 231.957 11.3196H234.664C235.527 11.3196 236.193 12.027 236.193 12.8524V45.9069Z" fill="#DFDFDF"/>
<path d="M236.585 46.2999H230.035V12.8524C230.035 11.7912 230.898 10.9265 231.957 10.9265H234.663C235.722 10.9265 236.585 11.7912 236.585 12.8524V46.2999ZM230.78 45.5138H235.762V12.8524C235.762 12.2235 235.252 11.7126 234.624 11.7126H231.918C231.29 11.7126 230.78 12.2235 230.78 12.8524V45.5138Z" fill="#646464"/>
<path d="M224.741 45.3959H218.976V12.3021C218.976 11.4375 219.682 10.7693 220.505 10.7693H223.212C224.074 10.7693 224.741 11.4768 224.741 12.3021V45.3959Z" fill="#DFDFDF"/>
<path d="M225.133 45.7889H218.583V12.3021C218.583 11.2409 219.446 10.3762 220.505 10.3762H223.211C224.27 10.3762 225.133 11.2409 225.133 12.3021V45.7889ZM219.367 45.0028H224.349V12.3021C224.349 11.6732 223.839 11.1623 223.211 11.1623H220.505C219.877 11.1623 219.367 11.6732 219.367 12.3021V45.0028Z" fill="#646464"/>
<path d="M10.1588 59.9383H1.92223C1.05935 59.9383 0.392578 59.2308 0.392578 58.4054V48.5009C0.392578 47.6362 1.09857 46.968 1.92223 46.968H10.1588V59.9383Z" fill="#DFDFDF"/>
<path d="M10.5506 60.3313H1.92187C0.862878 60.3313 0 59.4666 0 58.4054V48.5008C0 47.4396 0.862878 46.575 1.92187 46.575H10.5506V60.3313ZM1.92187 47.3217C1.29432 47.3217 0.784435 47.8327 0.784435 48.4615V58.3661C0.784435 58.9949 1.29432 59.5059 1.92187 59.5059H9.76621V47.2824H1.92187V47.3217Z" fill="#646464"/>
<path d="M5.29426 46.9289H7.45146V37.8498C7.45146 37.5353 7.02002 37.4174 6.86313 37.7318L5.80415 40.3259C5.41193 41.2692 5.21582 42.2911 5.21582 43.313V46.9289H5.29426Z" fill="#DFDFDF"/>
<path d="M7.84413 47.3218H4.86328V43.3129C4.86328 42.2517 5.05939 41.1905 5.45161 40.2079L6.51059 37.6138C6.62826 37.2994 6.94203 37.1422 7.29503 37.1815C7.6088 37.2601 7.84413 37.5352 7.84413 37.8496V47.3218ZM5.68694 46.5358H7.0597V38.3213L6.19682 40.483C5.84383 41.387 5.64772 42.3303 5.64772 43.3129V46.5358H5.68694Z" fill="#646464"/>
<path d="M78.7964 61.825C78.7964 62.6897 78.0905 63.3579 77.2668 63.3579H59.264C58.4011 63.3579 57.7344 62.6504 57.7344 61.825V51.0951C57.7344 50.2304 58.4404 49.5623 59.264 49.5623H77.2668C78.1297 49.5623 78.7964 50.2697 78.7964 51.0951V61.825Z" fill="#DFDFDF"/>
<path d="M77.2664 63.7509H59.2637C58.2047 63.7509 57.3418 62.8862 57.3418 61.825V51.0951C57.3418 50.0339 58.2047 49.1692 59.2637 49.1692H77.2664C78.3254 49.1692 79.1883 50.0339 79.1883 51.0951V61.8643C79.1883 62.8862 78.3254 63.7509 77.2664 63.7509ZM59.2637 49.916C58.6361 49.916 58.1262 50.4269 58.1262 51.0558V61.825C58.1262 62.4539 58.6361 62.9648 59.2637 62.9648H77.2664C77.894 62.9648 78.4039 62.4539 78.4039 61.825V51.0951C78.4039 50.4662 77.894 49.9553 77.2664 49.9553H59.2637V49.916Z" fill="#646464"/>
<path d="M74.5614 63.5543C74.5614 64.0653 74.1299 64.4976 73.62 64.4976C73.1101 64.4976 72.6787 64.0653 72.6787 63.5543V49.5622C72.6787 49.0512 73.1101 48.6189 73.62 48.6189C74.1299 48.6189 74.5614 49.0512 74.5614 49.5622V63.5543Z" fill="#DFDFDF"/>
<path d="M73.6197 64.8906C72.8745 64.8906 72.2861 64.3011 72.2861 63.5543V49.5622C72.2861 48.8154 72.8745 48.2258 73.6197 48.2258C74.3649 48.2258 74.9532 48.8154 74.9532 49.5622V63.5543C74.9532 64.3011 74.3649 64.8906 73.6197 64.8906ZM73.6197 49.0119C73.3059 49.0119 73.0706 49.2477 73.0706 49.5622V63.5543C73.0706 63.8687 73.3059 64.1046 73.6197 64.1046C73.9334 64.1046 74.1688 63.8687 74.1688 63.5543V49.5622C74.1688 49.2477 73.9334 49.0119 73.6197 49.0119Z" fill="#646464"/>
<path d="M69.2264 63.5543C69.2264 64.0653 68.795 64.4976 68.2851 64.4976C67.7752 64.4976 67.3438 64.0653 67.3438 63.5543V49.5622C67.3438 49.0512 67.7752 48.6189 68.2851 48.6189C68.795 48.6189 69.2264 49.0512 69.2264 49.5622V63.5543Z" fill="#DFDFDF"/>
<path d="M68.2456 64.8906C67.5004 64.8906 66.9121 64.3011 66.9121 63.5543V49.5622C66.9121 48.8154 67.5004 48.2258 68.2456 48.2258C68.9909 48.2258 69.5792 48.8154 69.5792 49.5622V63.5543C69.6184 64.3011 68.9909 64.8906 68.2456 64.8906ZM68.2456 49.0119C67.9319 49.0119 67.6965 49.2477 67.6965 49.5622V63.5543C67.6965 63.8687 67.9319 64.1046 68.2456 64.1046C68.5594 64.1046 68.7947 63.8687 68.7947 63.5543V49.5622C68.834 49.2477 68.5594 49.0119 68.2456 49.0119Z" fill="#646464"/>
<path d="M63.8533 63.5543C63.8533 64.0653 63.4219 64.4976 62.912 64.4976C62.4021 64.4976 61.9707 64.0653 61.9707 63.5543V49.5622C61.9707 49.0512 62.4021 48.6189 62.912 48.6189C63.4219 48.6189 63.8533 49.0512 63.8533 49.5622V63.5543Z" fill="#DFDFDF"/>
<path d="M62.9117 64.8906C62.1664 64.8906 61.5781 64.3011 61.5781 63.5543V49.5622C61.5781 48.8154 62.1664 48.2258 62.9117 48.2258C63.6569 48.2258 64.2452 48.8154 64.2452 49.5622V63.5543C64.2452 64.3011 63.6569 64.8906 62.9117 64.8906ZM62.9117 49.0119C62.5979 49.0119 62.3626 49.2477 62.3626 49.5622V63.5543C62.3626 63.8687 62.5979 64.1046 62.9117 64.1046C63.2254 64.1046 63.4608 63.8687 63.4608 63.5543V49.5622C63.4608 49.2477 63.2254 49.0119 62.9117 49.0119Z" fill="#646464"/>
<path d="M87.5039 45.5138C87.5039 46.3785 88.2099 47.0467 89.0336 47.0467H245.45C246.313 47.0467 246.98 46.3392 246.98 45.5138V41.0332H89.0336C88.1707 41.0332 87.5039 41.7407 87.5039 42.5661V45.5138Z" fill="#DFDFDF"/>
<path d="M245.449 47.479H89.0332C87.9742 47.479 87.1113 46.6143 87.1113 45.5531V42.6446C87.1113 41.5834 87.9742 40.7188 89.0332 40.7188H247.411V45.5924C247.371 46.6143 246.508 47.479 245.449 47.479ZM89.0332 41.4655C88.4056 41.4655 87.8958 41.9765 87.8958 42.6053V45.5138C87.8958 46.1427 88.4056 46.6536 89.0332 46.6536H245.449C246.077 46.6536 246.587 46.1427 246.587 45.5138V41.4262H89.0332V41.4655Z" fill="#646464"/>
<path d="M2.39258 55.4577C3.45157 55.4577 4.27522 54.593 4.27522 53.5712C4.27522 52.51 3.41234 51.6846 2.39258 51.6846V55.4577Z" fill="#DFDFDF"/>
<path d="M2.39222 55.8507H2V51.2522H2.39222C3.64731 51.2522 4.66708 52.2741 4.66708 53.5318C4.66708 54.8288 3.64731 55.8507 2.39222 55.8507ZM2.78443 52.0776V54.9861C3.41198 54.8288 3.88264 54.2393 3.88264 53.5318C3.88264 52.8637 3.41198 52.2741 2.78443 52.0776Z" fill="#646464"/>
<path d="M36.7511 59.5845C36.7511 65.1263 32.2799 69.6069 26.7496 69.6069C21.2193 69.6069 16.748 65.1263 16.748 59.5845C16.748 54.0426 21.2193 49.562 26.7496 49.562C32.2799 49.562 36.7511 54.0426 36.7511 59.5845Z" fill="#DFDFDF"/>
<path d="M26.7492 69.9999C21.0229 69.9999 16.3555 65.3228 16.3555 59.5844C16.3555 53.8461 21.0229 49.1689 26.7492 49.1689C32.4756 49.1689 37.143 53.8461 37.143 59.5844C37.143 65.3228 32.4756 69.9999 26.7492 69.9999ZM26.7492 49.955C21.4543 49.955 17.1399 54.2784 17.1399 59.5844C17.1399 64.8905 21.4543 69.2139 26.7492 69.2139C32.0442 69.2139 36.3586 64.8905 36.3586 59.5844C36.3586 54.2784 32.0442 49.955 26.7492 49.955Z" fill="#646464"/>
<path d="M33.5346 59.5845C33.5346 63.3183 30.5145 66.384 26.7492 66.384C23.0232 66.384 19.9639 63.3576 19.9639 59.5845C19.9639 55.8506 22.9839 52.7849 26.7492 52.7849C30.5145 52.7849 33.5346 55.8113 33.5346 59.5845Z" fill="#DFDFDF"/>
<path d="M26.7489 66.7377C22.7875 66.7377 19.5713 63.5148 19.5713 59.5451C19.5713 55.5754 22.7875 52.3525 26.7489 52.3525C30.7103 52.3525 33.9264 55.5754 33.9264 59.5451C33.9264 63.5148 30.7103 66.7377 26.7489 66.7377ZM26.7489 53.1779C23.2189 53.1779 20.3557 56.0471 20.3557 59.5844C20.3557 63.1218 23.2189 65.9909 26.7489 65.9909C30.2788 65.9909 33.142 63.1218 33.142 59.5844C33.142 56.0471 30.2788 53.1779 26.7489 53.1779Z" fill="#646464"/>
<path d="M32.2015 59.5845C32.2015 62.6109 29.7697 65.0478 26.7497 65.0478C23.7296 65.0478 21.2979 62.6109 21.2979 59.5845C21.2979 56.5581 23.7296 54.1213 26.7497 54.1213C29.7697 54.082 32.2015 56.5581 32.2015 59.5845Z" fill="#DFDFDF"/>
<path d="M26.7493 65.4408C23.5331 65.4408 20.9053 62.8074 20.9053 59.5845C20.9053 56.3616 23.5331 53.7283 26.7493 53.7283C29.9655 53.7283 32.5934 56.3616 32.5934 59.5845C32.5934 62.8074 29.9655 65.4408 26.7493 65.4408ZM26.7493 54.475C23.9646 54.475 21.6897 56.7547 21.6897 59.5452C21.6897 62.3358 23.9646 64.6154 26.7493 64.6154C29.5341 64.6154 31.8089 62.3358 31.8089 59.5452C31.8089 56.7547 29.5341 54.475 26.7493 54.475Z" fill="#646464"/>
<path d="M29.926 59.5845C29.926 61.3139 28.514 62.7288 26.7883 62.7288C25.0625 62.7288 23.6113 61.3139 23.6113 59.5845C23.6113 57.8551 25.0233 56.4009 26.7883 56.4009C28.514 56.4009 29.926 57.8158 29.926 59.5845Z" fill="#DFDFDF"/>
<path d="M26.7489 63.1218C24.7878 63.1218 23.1797 61.5103 23.1797 59.5845C23.1797 57.6586 24.7878 56.0078 26.7489 56.0078C28.71 56.0078 30.2788 57.6193 30.2788 59.5845C30.2788 61.5496 28.71 63.1218 26.7489 63.1218ZM26.7489 56.7939C25.2192 56.7939 23.9641 58.0516 23.9641 59.5845C23.9641 61.1173 25.2192 62.3357 26.7489 62.3357C28.2785 62.3357 29.4944 61.078 29.4944 59.5845C29.4944 58.0909 28.2785 56.7939 26.7489 56.7939Z" fill="#646464"/>
<path d="M109.625 59.5845C109.625 65.1263 105.154 69.6069 99.6236 69.6069C94.0933 69.6069 89.6221 65.1263 89.6221 59.5845C89.6221 54.0426 94.0933 49.562 99.6236 49.562C105.154 49.562 109.625 54.0426 109.625 59.5845Z" fill="#DFDFDF"/>
<path d="M99.6233 69.9999C93.8969 69.9999 89.2295 65.3228 89.2295 59.5844C89.2295 53.8461 93.8969 49.1689 99.6233 49.1689C105.35 49.1689 110.017 53.8461 110.017 59.5844C110.017 65.3228 105.35 69.9999 99.6233 69.9999ZM99.6233 49.955C94.3283 49.955 90.0139 54.2784 90.0139 59.5844C90.0139 64.8905 94.3283 69.2139 99.6233 69.2139C104.918 69.2139 109.233 64.8905 109.233 59.5844C109.233 54.2784 104.918 49.955 99.6233 49.955Z" fill="#646464"/>
<path d="M106.409 59.5845C106.409 63.3183 103.389 66.384 99.6233 66.384C95.858 66.384 92.8379 63.3576 92.8379 59.5845C92.8379 55.8506 95.858 52.7849 99.6233 52.7849C103.389 52.7849 106.409 55.8113 106.409 59.5845Z" fill="#DFDFDF"/>
<path d="M99.6229 66.7377C95.6615 66.7377 92.4453 63.5148 92.4453 59.5451C92.4453 55.5754 95.6615 52.3525 99.6229 52.3525C103.584 52.3525 106.8 55.5754 106.8 59.5451C106.8 63.5148 103.584 66.7377 99.6229 66.7377ZM99.6229 53.1779C96.0929 53.1779 93.2297 56.0471 93.2297 59.5844C93.2297 63.1218 96.0929 65.9909 99.6229 65.9909C103.153 65.9909 106.016 63.1218 106.016 59.5844C106.016 56.0471 103.153 53.1779 99.6229 53.1779Z" fill="#646464"/>
<path d="M105.076 59.5845C105.076 62.6109 102.644 65.0478 99.6237 65.0478C96.6036 65.0478 94.1719 62.6109 94.1719 59.5845C94.1719 56.5581 96.6036 54.1213 99.6237 54.1213C102.644 54.082 105.076 56.5581 105.076 59.5845Z" fill="#DFDFDF"/>
<path d="M99.6233 65.4408C96.4072 65.4408 93.7793 62.8074 93.7793 59.5845C93.7793 56.3616 96.4072 53.7283 99.6233 53.7283C102.84 53.7283 105.467 56.3616 105.467 59.5845C105.467 62.8074 102.84 65.4408 99.6233 65.4408ZM99.6233 54.475C96.8386 54.475 94.5637 56.7547 94.5637 59.5452C94.5637 62.3358 96.8386 64.6154 99.6233 64.6154C102.408 64.6154 104.683 62.3358 104.683 59.5452C104.683 56.7547 102.408 54.475 99.6233 54.475Z" fill="#646464"/>
<path d="M102.8 59.5845C102.8 61.3139 101.388 62.7288 99.6623 62.7288C97.9366 62.7288 96.4854 61.3139 96.4854 59.5845C96.4854 57.8551 97.8973 56.4009 99.6623 56.4009C101.349 56.4009 102.8 57.8158 102.8 59.5845Z" fill="#DFDFDF"/>
<path d="M99.6229 63.1218C97.6618 63.1218 96.0537 61.5103 96.0537 59.5845C96.0537 57.6586 97.6618 56.0078 99.6229 56.0078C101.584 56.0078 103.153 57.6193 103.153 59.5845C103.153 61.5496 101.584 63.1218 99.6229 63.1218ZM99.6229 56.7939C98.0932 56.7939 96.8381 58.0516 96.8381 59.5845C96.8381 61.1173 98.0932 62.3357 99.6229 62.3357C101.153 62.3357 102.368 61.078 102.368 59.5845C102.368 58.0909 101.153 56.7939 99.6229 56.7939Z" fill="#646464"/>
<path d="M136.688 59.5845C136.688 65.1263 132.216 69.6069 126.686 69.6069C121.156 69.6069 116.685 65.1263 116.685 59.5845C116.685 54.0426 121.156 49.562 126.686 49.562C132.216 49.562 136.688 54.0426 136.688 59.5845Z" fill="#DFDFDF"/>
<path d="M126.686 69.9999C120.959 69.9999 116.292 65.3228 116.292 59.5844C116.292 53.8461 120.959 49.1689 126.686 49.1689C132.412 49.1689 137.08 53.8461 137.08 59.5844C137.08 65.3228 132.412 69.9999 126.686 69.9999ZM126.686 49.955C121.391 49.955 117.076 54.2784 117.076 59.5844C117.076 64.8905 121.391 69.2139 126.686 69.2139C131.981 69.2139 136.295 64.8905 136.295 59.5844C136.295 54.2784 131.981 49.955 126.686 49.955Z" fill="#646464"/>
<path d="M133.471 59.5845C133.471 63.3183 130.451 66.384 126.686 66.384C122.96 66.384 119.9 63.3576 119.9 59.5845C119.9 55.8506 122.92 52.7849 126.686 52.7849C130.451 52.7849 133.471 55.8113 133.471 59.5845Z" fill="#DFDFDF"/>
<path d="M126.685 66.7377C122.724 66.7377 119.508 63.5148 119.508 59.5451C119.508 55.5754 122.724 52.3525 126.685 52.3525C130.647 52.3525 133.863 55.5754 133.863 59.5451C133.863 63.5148 130.647 66.7377 126.685 66.7377ZM126.685 53.1779C123.155 53.1779 120.292 56.0471 120.292 59.5844C120.292 63.1218 123.155 65.9909 126.685 65.9909C130.215 65.9909 133.079 63.1218 133.079 59.5844C133.079 56.0471 130.215 53.1779 126.685 53.1779Z" fill="#646464"/>
<path d="M132.138 59.5845C132.138 62.6109 129.706 65.0478 126.686 65.0478C123.666 65.0478 121.234 62.6109 121.234 59.5845C121.234 56.5581 123.666 54.1213 126.686 54.1213C129.706 54.082 132.138 56.5581 132.138 59.5845Z" fill="#DFDFDF"/>
<path d="M126.686 65.4408C123.47 65.4408 120.842 62.8074 120.842 59.5845C120.842 56.3616 123.47 53.7283 126.686 53.7283C129.902 53.7283 132.53 56.3616 132.53 59.5845C132.53 62.8074 129.902 65.4408 126.686 65.4408ZM126.686 54.475C123.901 54.475 121.626 56.7547 121.626 59.5452C121.626 62.3358 123.901 64.6154 126.686 64.6154C129.471 64.6154 131.745 62.3358 131.745 59.5452C131.745 56.7547 129.471 54.475 126.686 54.475Z" fill="#646464"/>
<path d="M129.863 59.5845C129.863 61.3139 128.451 62.7288 126.725 62.7288C124.999 62.7288 123.548 61.3139 123.548 59.5845C123.548 57.8551 124.96 56.4009 126.725 56.4009C128.451 56.4009 129.863 57.8158 129.863 59.5845Z" fill="#DFDFDF"/>
<path d="M126.685 63.1218C124.724 63.1218 123.116 61.5103 123.116 59.5845C123.116 57.6586 124.724 56.0078 126.685 56.0078C128.646 56.0078 130.215 57.6193 130.215 59.5845C130.215 61.5496 128.646 63.1218 126.685 63.1218ZM126.685 56.7939C125.156 56.7939 123.901 58.0516 123.901 59.5845C123.901 61.1173 125.156 62.3357 126.685 62.3357C128.215 62.3357 129.431 61.078 129.431 59.5845C129.431 58.0909 128.215 56.7939 126.685 56.7939Z" fill="#646464"/>
<path d="M210.738 59.5845C210.738 65.1263 206.267 69.6069 200.737 69.6069C195.207 69.6069 190.735 65.1263 190.735 59.5845C190.735 54.0426 195.207 49.562 200.737 49.562C206.267 49.562 210.738 54.0426 210.738 59.5845Z" fill="#DFDFDF"/>
<path d="M200.737 69.9999C195.01 69.9999 190.343 65.3228 190.343 59.5844C190.343 53.8461 195.01 49.1689 200.737 49.1689C206.463 49.1689 211.13 53.8461 211.13 59.5844C211.13 65.3228 206.463 69.9999 200.737 69.9999ZM200.737 49.955C195.442 49.955 191.127 54.2784 191.127 59.5844C191.127 64.8905 195.442 69.2139 200.737 69.2139C206.031 69.2139 210.346 64.8905 210.346 59.5844C210.346 54.2784 206.031 49.955 200.737 49.955Z" fill="#646464"/>
<path d="M207.522 59.5845C207.522 63.3183 204.502 66.384 200.737 66.384C197.01 66.384 193.951 63.3576 193.951 59.5845C193.951 55.8506 196.971 52.7849 200.737 52.7849C204.502 52.7849 207.522 55.8113 207.522 59.5845Z" fill="#DFDFDF"/>
<path d="M200.736 66.7377C196.775 66.7377 193.559 63.5148 193.559 59.5451C193.559 55.5754 196.775 52.3525 200.736 52.3525C204.698 52.3525 207.914 55.5754 207.914 59.5451C207.914 63.5148 204.698 66.7377 200.736 66.7377ZM200.736 53.1779C197.206 53.1779 194.343 56.0471 194.343 59.5844C194.343 63.1218 197.206 65.9909 200.736 65.9909C204.266 65.9909 207.129 63.1218 207.129 59.5844C207.129 56.0471 204.266 53.1779 200.736 53.1779Z" fill="#646464"/>
<path d="M206.189 59.5845C206.189 62.6109 203.757 65.0478 200.737 65.0478C197.717 65.0478 195.285 62.6109 195.285 59.5845C195.285 56.5581 197.717 54.1213 200.737 54.1213C203.757 54.082 206.189 56.5581 206.189 59.5845Z" fill="#DFDFDF"/>
<path d="M200.737 65.4408C197.52 65.4408 194.893 62.8074 194.893 59.5845C194.893 56.3616 197.52 53.7283 200.737 53.7283C203.953 53.7283 206.581 56.3616 206.581 59.5845C206.581 62.8074 203.953 65.4408 200.737 65.4408ZM200.737 54.475C197.952 54.475 195.677 56.7547 195.677 59.5452C195.677 62.3358 197.952 64.6154 200.737 64.6154C203.521 64.6154 205.796 62.3358 205.796 59.5452C205.796 56.7547 203.521 54.475 200.737 54.475Z" fill="#646464"/>
<path d="M203.913 59.5845C203.913 61.3139 202.501 62.7288 200.776 62.7288C199.05 62.7288 197.599 61.3139 197.599 59.5845C197.599 57.8551 199.011 56.4009 200.776 56.4009C202.501 56.4009 203.913 57.8158 203.913 59.5845Z" fill="#DFDFDF"/>
<path d="M200.736 63.1218C198.775 63.1218 197.167 61.5103 197.167 59.5845C197.167 57.6586 198.775 56.0078 200.736 56.0078C202.697 56.0078 204.266 57.6193 204.266 59.5845C204.266 61.5496 202.697 63.1218 200.736 63.1218ZM200.736 56.7939C199.207 56.7939 197.951 58.0516 197.951 59.5845C197.951 61.1173 199.207 62.3357 200.736 62.3357C202.266 62.3357 203.482 61.078 203.482 59.5845C203.482 58.0909 202.266 56.7939 200.736 56.7939Z" fill="#646464"/>
<path d="M237.684 59.5845C237.684 65.1263 233.212 69.6069 227.682 69.6069C222.152 69.6069 217.681 65.1263 217.681 59.5845C217.681 54.0426 222.152 49.562 227.682 49.562C233.212 49.562 237.684 54.0426 237.684 59.5845Z" fill="#DFDFDF"/>
<path d="M227.682 69.9999C221.955 69.9999 217.288 65.3228 217.288 59.5844C217.288 53.8461 221.955 49.1689 227.682 49.1689C233.408 49.1689 238.076 53.8461 238.076 59.5844C238.076 65.3228 233.408 69.9999 227.682 69.9999ZM227.682 49.955C222.387 49.955 218.073 54.2784 218.073 59.5844C218.073 64.8905 222.387 69.2139 227.682 69.2139C232.977 69.2139 237.291 64.8905 237.291 59.5844C237.291 54.2784 232.977 49.955 227.682 49.955Z" fill="#646464"/>
<path d="M234.467 59.5845C234.467 63.3183 231.447 66.384 227.682 66.384C223.956 66.384 220.896 63.3576 220.896 59.5845C220.896 55.8506 223.917 52.7849 227.682 52.7849C231.447 52.7849 234.467 55.8113 234.467 59.5845Z" fill="#DFDFDF"/>
<path d="M227.681 66.7377C223.72 66.7377 220.504 63.5148 220.504 59.5451C220.504 55.5754 223.72 52.3525 227.681 52.3525C231.643 52.3525 234.859 55.5754 234.859 59.5451C234.859 63.5148 231.643 66.7377 227.681 66.7377ZM227.681 53.1779C224.152 53.1779 221.288 56.0471 221.288 59.5844C221.288 63.1218 224.152 65.9909 227.681 65.9909C231.211 65.9909 234.075 63.1218 234.075 59.5844C234.075 56.0471 231.211 53.1779 227.681 53.1779Z" fill="#646464"/>
<path d="M233.134 59.5845C233.134 62.6109 230.702 65.0478 227.682 65.0478C224.662 65.0478 222.23 62.6109 222.23 59.5845C222.23 56.5581 224.662 54.1213 227.682 54.1213C230.702 54.082 233.134 56.5581 233.134 59.5845Z" fill="#DFDFDF"/>
<path d="M227.682 65.4408C224.466 65.4408 221.838 62.8074 221.838 59.5845C221.838 56.3616 224.466 53.7283 227.682 53.7283C230.898 53.7283 233.526 56.3616 233.526 59.5845C233.526 62.8074 230.898 65.4408 227.682 65.4408ZM227.682 54.475C224.897 54.475 222.622 56.7547 222.622 59.5452C222.622 62.3358 224.897 64.6154 227.682 64.6154C230.467 64.6154 232.742 62.3358 232.742 59.5452C232.742 56.7547 230.467 54.475 227.682 54.475Z" fill="#646464"/>
<path d="M230.859 59.5845C230.859 61.3139 229.447 62.7288 227.721 62.7288C225.995 62.7288 224.544 61.3139 224.544 59.5845C224.544 57.8551 225.956 56.4009 227.721 56.4009C229.447 56.4009 230.859 57.8158 230.859 59.5845Z" fill="#DFDFDF"/>
<path d="M227.681 63.1218C225.72 63.1218 224.112 61.5103 224.112 59.5845C224.112 57.6586 225.72 56.0078 227.681 56.0078C229.643 56.0078 231.211 57.6193 231.211 59.5845C231.211 61.5496 229.643 63.1218 227.681 63.1218ZM227.681 56.7939C226.152 56.7939 224.897 58.0516 224.897 59.5845C224.897 61.1173 226.152 62.3357 227.681 62.3357C229.211 62.3357 230.427 61.078 230.427 59.5845C230.427 58.0909 229.211 56.7939 227.681 56.7939Z" fill="#646464"/>
</g>
<defs>
<clipPath id="clip0_761_2672">
<rect width="254" height="70" fill="white"/>
</clipPath>
</defs>
</svg>
