<svg width="166" height="70" viewBox="0 0 166 70" fill="none" xmlns="http://www.w3.org/2000/svg">
<g clip-path="url(#clip0_761_2831)">
<path d="M5.89252 58.4303H2.17114C1.1965 58.4303 0.443359 57.6262 0.443359 56.6881V54.0525C0.443359 53.0697 1.2408 52.3103 2.17114 52.3103H5.84822V58.4303H5.89252Z" fill="#DFDFDF"/>
<path d="M6.3352 58.8769H2.1708C0.974646 58.8769 0 57.8942 0 56.688V54.0524C0 52.8463 0.974646 51.8635 2.1708 51.8635H6.2909V58.8769H6.3352ZM2.1708 52.757C1.46197 52.757 0.886042 53.3377 0.886042 54.0524V56.688C0.886042 57.4028 1.46197 57.9835 2.1708 57.9835H5.40486V52.757H2.1708Z" fill="#646464"/>
<path d="M38.0555 54.3651H37.9669C38.3213 55.5712 38.4985 56.822 38.4985 58.1175C40.9795 58.1175 37.391 58.1175 42.1756 58.1175V12.5081C42.1756 11.5253 41.3782 10.7659 40.4478 10.7659H13.778C12.759 10.7659 11.8287 11.4359 11.4742 12.4187L5.93649 28.2324L4.60742 31.5827V58.4302H11.9173C11.9616 57.1347 12.0502 55.3479 12.3603 54.0971C13.6451 48.8259 19.36 44.7161 25.3408 44.7161C31.4988 44.7161 36.4606 48.9152 38.0112 54.3204H38.0555V54.3651Z" fill="#DFDFDF"/>
<path d="M12.3156 58.8769H4.16406V31.4933L5.53743 28.0983L11.0752 12.2846C11.4739 11.1232 12.5815 10.3191 13.8219 10.3191H40.4918C41.6879 10.3191 42.6626 11.3019 42.6626 12.508V58.5642H42.2196L40.8462 58.1174L41.7766 57.8047V12.508C41.7766 11.7932 41.2006 11.2125 40.4918 11.2125H13.7776C12.9359 11.2125 12.1827 11.7486 11.8726 12.5527L6.33487 28.411L5.0501 31.672V57.9834H11.4739C11.5182 56.8666 11.6068 55.2138 11.9169 54.0077C13.246 48.5578 19.1382 44.314 25.3405 44.314C31.4542 44.314 36.7261 48.2897 38.4539 54.2757C38.764 55.3925 38.9412 56.5539 38.9855 57.7154H39.5171V58.6088H38.0995V58.1621C38.0995 56.956 37.9223 55.7499 37.6122 54.5437C36.0173 49.0045 31.0997 45.2521 25.3848 45.2521C19.5812 45.2521 14.0877 49.2278 12.8473 54.2757C12.4929 55.6605 12.4043 57.7154 12.4043 58.5195L12.3156 58.8769Z" fill="#646464"/>
<path d="M35.2641 18.6282C35.2641 17.6454 34.4667 16.886 33.5363 16.886H16.1256C15.1067 16.886 14.132 17.5561 13.7776 18.5388L10.3663 28.0092C10.0562 28.8132 10.6764 29.662 11.5182 29.662H33.5363C34.511 29.662 35.2641 28.8579 35.2641 27.9198V18.6282Z" fill="#DFDFDF"/>
<path d="M33.5363 30.064H11.5182C10.9866 30.064 10.455 29.7959 10.1448 29.3492C9.83472 28.9025 9.74612 28.3218 9.92333 27.8304L13.3346 18.3601C13.7333 17.1986 14.8409 16.4392 16.0813 16.4392H33.492C34.6882 16.4392 35.6628 17.422 35.6628 18.6281V27.8751C35.7072 29.0812 34.7325 30.064 33.5363 30.064ZM16.1256 17.3326C15.2839 17.3326 14.4864 17.8687 14.2206 18.6728L10.8094 28.1431C10.7208 28.3665 10.7651 28.6345 10.898 28.8578C11.0309 29.0812 11.2967 29.1705 11.5182 29.1705H33.5363C34.2452 29.1705 34.8211 28.5898 34.8211 27.8751V18.6281C34.8211 17.9134 34.2452 17.3326 33.5363 17.3326H16.1256Z" fill="#646464"/>
<path d="M35.3536 32.6994C35.3536 33.5035 34.7334 34.1289 33.936 34.1289H31.0563C30.2589 34.1289 29.6387 33.5035 29.6387 32.6994C29.6387 31.8953 30.2589 31.2699 31.0563 31.2699H33.936C34.7334 31.2253 35.3536 31.8953 35.3536 32.6994Z" fill="#DFDFDF"/>
<path d="M33.9356 34.5756H31.056C30.0371 34.5756 29.1953 33.7269 29.1953 32.6994C29.1953 31.672 30.0371 30.8232 31.056 30.8232H33.9356C34.9546 30.8232 35.7963 31.672 35.7963 32.6994C35.7963 33.7269 34.9546 34.5756 33.9356 34.5756ZM31.056 31.672C30.5244 31.672 30.0814 32.1187 30.0814 32.6548C30.0814 33.1908 30.5244 33.6375 31.056 33.6375H33.9356C34.4673 33.6375 34.9103 33.1908 34.9103 32.6548C34.9103 32.1187 34.4673 31.672 33.9356 31.672H31.056Z" fill="#646464"/>
<path d="M9.17039 53.3824H8.68307C7.3097 53.3824 6.20215 52.2656 6.20215 50.8808V31.4934L6.24645 31.4041L11.3855 16.5285C11.8285 15.233 13.0247 14.3843 14.398 14.3843H35.8846C37.2579 14.3843 38.3655 15.5011 38.3655 16.8859V40.8744C38.3655 42.2592 37.2579 43.376 35.8846 43.376H24.4103C19.1384 43.376 13.955 46.6817 12.0943 51.2381C11.607 52.5783 10.4552 53.3824 9.17039 53.3824ZM7.08819 31.6721V50.8808C7.08819 51.7742 7.79702 52.4889 8.68307 52.4889H9.17039C10.0564 52.4889 10.8982 51.8635 11.2969 50.9701C13.2462 46.1009 18.7839 42.5719 24.4103 42.5719H35.8403C36.7263 42.5719 37.4351 41.8572 37.4351 40.9637V16.9305C37.4351 16.0371 36.7263 15.3224 35.8403 15.3224H14.3537C13.3791 15.3224 12.493 15.9478 12.1829 16.8859L7.08819 31.6721Z" fill="#646464"/>
<path d="M2.1709 52.3102H4.65182V46.4583H3.89868C2.92403 46.4583 2.1709 47.2177 2.1709 48.2004V52.3102Z" fill="#DFDFDF"/>
<path d="M5.0502 52.7568H1.72754V48.2004C1.72754 47.6196 1.94905 47.0389 2.34777 46.6369C2.74649 46.2348 3.32241 46.0115 3.89834 46.0115H5.0502V52.7568ZM2.61358 51.8634H4.20846V46.9049H3.89834C3.54393 46.9049 3.23381 47.0389 2.968 47.2623C2.70219 47.5303 2.56928 47.843 2.56928 48.2004V51.8634H2.61358Z" fill="#646464"/>
<path d="M150.938 40.3384H53.2959V44.5822H150.938V40.3384Z" fill="#DFDFDF"/>
<path d="M151.38 45.0288H52.8525V39.8916H151.38V45.0288ZM53.7386 44.1354H150.494V40.785H53.7386V44.1354Z" fill="#646464"/>
<path d="M153.949 49.6299H156.652C157.626 49.6299 158.379 50.434 158.379 51.3721V51.7294C158.379 52.7122 157.582 53.4716 156.652 53.4716H153.949V49.6299Z" fill="#DFDFDF"/>
<path d="M156.696 53.9183H153.551V49.1831H156.696C157.892 49.1831 158.867 50.1659 158.867 51.372V51.7294C158.867 52.9355 157.892 53.9183 156.696 53.9183ZM154.393 53.0248H156.652C157.361 53.0248 157.937 52.4441 157.937 51.7294V51.372C157.937 50.6573 157.361 50.0765 156.652 50.0765H154.393V53.0248Z" fill="#646464"/>
<path d="M154.615 43.7781C142.919 43.7781 50.9482 43.7781 42.2207 43.7781V58.1176C51.3469 58.1176 89.9784 58.1176 91.7062 58.1176V58.0729C91.7062 50.7468 97.5983 44.7608 104.908 44.7608C111.642 44.7608 117.889 49.8981 118.11 58.1176H122.363V58.0729C122.363 50.7915 128.255 44.7608 135.565 44.7608C142.299 44.7608 148.546 49.898 148.767 58.1622H156.387V45.5649C156.387 44.5822 155.59 43.7781 154.615 43.7781Z" fill="#DFDFDF"/>
<path d="M156.83 58.6089H148.324V58.1622C148.147 51.9082 143.628 45.2075 135.565 45.2075C128.521 45.2075 122.806 50.9701 122.806 58.0728V58.5196L122.363 58.5642H117.667V58.1175C117.49 51.8635 112.971 45.2075 104.908 45.2075C97.8638 45.2075 92.1488 50.9701 92.1488 58.0728V58.5642H41.7773V43.3313H154.615C155.811 43.3313 156.786 44.3141 156.786 45.5202V58.6089H156.83ZM149.166 57.7155H155.944V45.5649C155.944 44.8501 155.368 44.2694 154.659 44.2694H42.6634V57.7155H91.2628C91.4843 50.3 97.5094 44.3587 104.908 44.3587C111.243 44.3587 118.066 49.0492 118.509 57.7155H121.92C122.141 50.3 128.166 44.3587 135.565 44.3587C142.963 44.3141 148.723 50.032 149.166 57.7155Z" fill="#646464"/>
<path d="M43.6377 28.4557C43.6377 35.2458 49.0869 40.6957 55.7765 40.6957H153.374C160.108 40.6957 165.513 35.2011 165.513 28.4557V16.1264C165.513 9.33638 160.064 3.88647 153.374 3.88647H55.8208C49.0869 3.88647 43.682 9.38105 43.682 16.1264V28.4557H43.6377Z" fill="#DFDFDF"/>
<path d="M153.374 41.1423H55.8211C48.8656 41.1423 43.2393 35.4244 43.2393 28.4557V16.1264C43.2393 9.11296 48.9099 3.4397 55.8211 3.4397H153.419C160.374 3.4397 166 9.15763 166 16.1264V28.4557C166 35.4691 160.33 41.1423 153.374 41.1423ZM55.8211 4.28845C49.3529 4.28845 44.1253 9.60434 44.1253 16.0817V28.411C44.1253 34.933 49.3973 40.2042 55.8211 40.2042H153.419C159.887 40.2042 165.114 34.8883 165.114 28.411V16.1264C165.114 9.60434 159.842 4.33312 153.419 4.33312H55.8211V4.28845Z" fill="#646464"/>
<path d="M91.7943 3.8418H76.4658C76.4658 1.9656 77.9721 0.446777 79.8328 0.446777H88.4274C90.2438 0.446777 91.7943 1.9656 91.7943 3.8418Z" fill="#DFDFDF"/>
<path d="M92.237 4.28845H76.0225V3.84174C76.0225 1.74218 77.7502 0 79.8324 0H88.4271C90.5092 0 92.237 1.74218 92.237 3.84174V4.28845ZM76.9085 3.39502H91.2624C91.0409 1.96554 89.8447 0.893427 88.3827 0.893427H79.7881C78.3705 0.893427 77.13 1.96554 76.9085 3.39502Z" fill="#646464"/>
<path d="M112.262 3.8418H96.9336C96.9336 1.9656 98.4399 0.446777 100.301 0.446777H108.895C110.756 0.446777 112.262 1.9656 112.262 3.8418Z" fill="#DFDFDF"/>
<path d="M112.705 4.28845H96.4902V3.84174C96.4902 1.74218 98.218 0 100.3 0H108.895C110.977 0 112.705 1.74218 112.705 3.84174V4.28845ZM97.4206 3.39502H111.774C111.553 1.96554 110.357 0.893427 108.895 0.893427H100.3C98.8382 0.893427 97.6421 1.96554 97.4206 3.39502Z" fill="#646464"/>
<path d="M132.73 3.8418H117.401C117.401 1.9656 118.908 0.446777 120.768 0.446777H129.363C131.224 0.446777 132.73 1.9656 132.73 3.8418Z" fill="#DFDFDF"/>
<path d="M133.173 4.28845H116.958V3.84174C116.958 1.74218 118.686 0 120.768 0H129.363C131.445 0 133.173 1.74218 133.173 3.84174V4.28845ZM117.888 3.39502H132.242C132.021 1.96554 130.825 0.893427 129.363 0.893427H120.768C119.306 0.893427 118.11 1.96554 117.888 3.39502Z" fill="#646464"/>
<path d="M158.513 59.6363C158.513 60.6191 157.716 61.3785 156.785 61.3785H153.507C152.532 61.3785 151.779 60.5744 151.779 59.6363V56.6433C151.779 55.6605 152.577 54.9011 153.507 54.9011H156.785C157.76 54.9011 158.513 55.7052 158.513 56.6433V59.6363Z" fill="#DFDFDF"/>
<path d="M156.785 61.8251H153.507C152.311 61.8251 151.336 60.8423 151.336 59.6362V56.6432C151.336 55.4371 152.311 54.4543 153.507 54.4543H156.785C157.981 54.4543 158.956 55.4371 158.956 56.6432V59.6362C158.956 60.8423 157.981 61.8251 156.785 61.8251ZM153.507 55.3478C152.798 55.3478 152.222 55.9285 152.222 56.6432V59.6362C152.222 60.351 152.798 60.9317 153.507 60.9317H156.785C157.494 60.9317 158.07 60.351 158.07 59.6362V56.6432C158.07 55.9285 157.494 55.3478 156.785 55.3478H153.507Z" fill="#646464"/>
<path d="M68.802 60.6191C68.802 61.6019 68.0045 62.3613 67.0742 62.3613H46.7395C45.7649 62.3613 45.0117 61.5572 45.0117 60.6191V48.3791C45.0117 47.3964 45.8092 46.637 46.7395 46.637H67.0742C68.0488 46.637 68.802 47.441 68.802 48.3791V60.6191Z" fill="#DFDFDF"/>
<path d="M67.0738 62.8526H46.7392C45.543 62.8526 44.5684 61.8698 44.5684 60.6637V48.4238C44.5684 47.2176 45.543 46.2349 46.7392 46.2349H67.0738C68.27 46.2349 69.2446 47.2176 69.2446 48.4238V60.6637C69.2446 61.8698 68.27 62.8526 67.0738 62.8526ZM46.7392 47.1283C46.0303 47.1283 45.4544 47.709 45.4544 48.4238V60.6637C45.4544 61.3785 46.0303 61.9592 46.7392 61.9592H67.0738C67.7827 61.9592 68.3586 61.3785 68.3586 60.6637V48.4238C68.3586 47.709 67.7827 47.1283 67.0738 47.1283H46.7392Z" fill="#646464"/>
<path d="M64.0171 62.5847C64.0171 63.1655 63.5298 63.6568 62.9539 63.6568C62.378 63.6568 61.8906 63.1655 61.8906 62.5847V46.6817C61.8906 46.101 62.378 45.6096 62.9539 45.6096C63.5298 45.6096 64.0171 46.101 64.0171 46.6817V62.5847Z" fill="#DFDFDF"/>
<path d="M62.9535 64.1482C62.1118 64.1482 61.4473 63.4781 61.4473 62.6293V46.7263C61.4473 45.8776 62.1118 45.2075 62.9535 45.2075C63.7953 45.2075 64.4598 45.8776 64.4598 46.7263V62.6293C64.4598 63.4334 63.7953 64.1482 62.9535 64.1482ZM62.9535 46.0563C62.5991 46.0563 62.3333 46.3243 62.3333 46.6817V62.5847C62.3333 62.942 62.5991 63.2101 62.9535 63.2101C63.308 63.2101 63.5738 62.942 63.5738 62.5847V46.6817C63.5738 46.3243 63.308 46.0563 62.9535 46.0563Z" fill="#646464"/>
<path d="M57.9478 62.5847C57.9478 63.1655 57.4605 63.6568 56.8845 63.6568C56.3086 63.6568 55.8213 63.1655 55.8213 62.5847V46.6817C55.8213 46.101 56.3086 45.6096 56.8845 45.6096C57.4605 45.6096 57.9478 46.101 57.9478 46.6817V62.5847Z" fill="#DFDFDF"/>
<path d="M56.8842 64.1482C56.0425 64.1482 55.3779 63.4781 55.3779 62.6293V46.7263C55.3779 45.8776 56.0425 45.2075 56.8842 45.2075C57.7259 45.2075 58.3905 45.8776 58.3905 46.7263V62.6293C58.3905 63.4334 57.7259 64.1482 56.8842 64.1482ZM56.8842 46.0563C56.5298 46.0563 56.264 46.3243 56.264 46.6817V62.5847C56.264 62.942 56.5298 63.2101 56.8842 63.2101C57.2386 63.2101 57.5044 62.942 57.5044 62.5847V46.6817C57.5044 46.3243 57.2386 46.0563 56.8842 46.0563Z" fill="#646464"/>
<path d="M51.9224 62.5847C51.9224 63.1655 51.4351 63.6568 50.8591 63.6568C50.2832 63.6568 49.7959 63.1655 49.7959 62.5847V46.6817C49.7959 46.101 50.2832 45.6096 50.8591 45.6096C51.4351 45.6096 51.9224 46.101 51.9224 46.6817V62.5847Z" fill="#DFDFDF"/>
<path d="M50.8588 64.1482C50.0171 64.1482 49.3525 63.4781 49.3525 62.6293V46.7263C49.3525 45.8776 50.0171 45.2075 50.8588 45.2075C51.7006 45.2075 52.3651 45.8776 52.3651 46.7263V62.6293C52.3651 63.4334 51.6562 64.1482 50.8588 64.1482ZM50.8588 46.0563C50.5044 46.0563 50.2386 46.3243 50.2386 46.6817V62.5847C50.2386 62.942 50.5044 63.2101 50.8588 63.2101C51.2132 63.2101 51.479 62.942 51.479 62.5847V46.6817C51.479 46.3243 51.1689 46.0563 50.8588 46.0563Z" fill="#646464"/>
<path d="M137.691 27.8302C137.425 27.8302 137.248 27.6516 137.248 27.3835V3.84173C137.248 3.57371 137.425 3.39502 137.691 3.39502C137.957 3.39502 138.134 3.57371 138.134 3.84173V27.3835C138.134 27.6516 137.957 27.8302 137.691 27.8302Z" fill="#646464"/>
<path d="M148.324 27.9196C148.058 27.9196 147.881 27.7409 147.881 27.4729V3.93109C147.881 3.66306 148.058 3.48438 148.324 3.48438C148.59 3.48438 148.767 3.66306 148.767 3.93109V27.4729C148.767 27.7409 148.545 27.9196 148.324 27.9196Z" fill="#646464"/>
<path d="M147.925 9.64904H137.913C137.647 9.64904 137.47 9.47036 137.47 9.20233C137.47 8.9343 137.647 8.75562 137.913 8.75562H147.925C148.191 8.75562 148.368 8.9343 148.368 9.20233C148.368 9.47036 148.147 9.64904 147.925 9.64904Z" fill="#646464"/>
<path d="M147.925 16.4838H137.913C137.647 16.4838 137.47 16.3051 137.47 16.037C137.47 15.769 137.647 15.5903 137.913 15.5903H147.925C148.191 15.5903 148.368 15.769 148.368 16.037C148.368 16.3051 148.147 16.4838 147.925 16.4838Z" fill="#646464"/>
<path d="M147.925 23.2738H137.913C137.647 23.2738 137.47 23.0951 137.47 22.8271C137.47 22.5591 137.647 22.3804 137.913 22.3804H147.925C148.191 22.3804 148.368 22.5591 148.368 22.8271C148.368 23.0951 148.147 23.2738 147.925 23.2738Z" fill="#646464"/>
<path d="M36.3724 58.0282C36.3724 64.3268 31.322 69.4193 25.0754 69.4193C18.8288 69.4193 13.7783 64.3268 13.7783 58.0282C13.7783 51.7295 18.8288 46.637 25.0754 46.637C31.2777 46.637 36.3724 51.7295 36.3724 58.0282Z" fill="#DFDFDF"/>
<path d="M25.075 69.866C18.6069 69.866 13.335 64.5501 13.335 58.0281C13.335 51.5061 18.6069 46.1902 25.075 46.1902C31.5431 46.1902 36.8151 51.5061 36.8151 58.0281C36.8151 64.5501 31.5431 69.866 25.075 69.866ZM25.075 47.0836C19.0942 47.0836 14.221 51.9975 14.221 58.0281C14.221 64.0587 19.0942 68.9726 25.075 68.9726C31.0558 68.9726 35.929 64.0587 35.929 58.0281C35.929 51.9975 31.0558 47.0836 25.075 47.0836Z" fill="#646464"/>
<path d="M32.6947 58.0282C32.6947 62.272 29.2835 65.7563 25.0305 65.7563C20.8218 65.7563 17.3662 62.3166 17.3662 58.0282C17.3662 53.7844 20.7775 50.3 25.0305 50.3C29.2835 50.3 32.6947 53.7844 32.6947 58.0282Z" fill="#DFDFDF"/>
<path d="M25.0751 66.203C20.6005 66.203 16.9678 62.5399 16.9678 58.0281C16.9678 53.5163 20.6005 49.8533 25.0751 49.8533C29.5496 49.8533 33.1823 53.5163 33.1823 58.0281C33.138 62.5399 29.5053 66.203 25.0751 66.203ZM25.0751 50.7467C21.0879 50.7467 17.8538 54.0077 17.8538 58.0281C17.8538 62.0485 21.0879 65.3096 25.0751 65.3096C29.0622 65.3096 32.2963 62.0485 32.2963 58.0281C32.252 54.0077 29.0179 50.7467 25.0751 50.7467Z" fill="#646464"/>
<path d="M31.233 58.0282C31.233 61.4679 28.4862 64.2375 25.075 64.2375C21.6637 64.2375 18.917 61.4679 18.917 58.0282C18.917 54.5885 21.6637 51.8188 25.075 51.8188C28.4419 51.8188 31.233 54.5885 31.233 58.0282Z" fill="#DFDFDF"/>
<path d="M25.0746 64.6841C21.4419 64.6841 18.4736 61.6911 18.4736 58.0281C18.4736 54.365 21.4419 51.3721 25.0746 51.3721C28.7074 51.3721 31.6757 54.365 31.6757 58.0281C31.6757 61.6911 28.7074 64.6841 25.0746 64.6841ZM25.0746 52.2655C21.9292 52.2655 19.3597 54.8564 19.3597 58.0281C19.3597 61.1998 21.9292 63.7907 25.0746 63.7907C28.2201 63.7907 30.7896 61.1998 30.7896 58.0281C30.7896 54.8564 28.2201 52.2655 25.0746 52.2655Z" fill="#646464"/>
<path d="M28.6199 58.028C28.6199 59.9936 27.0251 61.6018 25.0758 61.6018C23.1265 61.6018 21.4873 59.9936 21.4873 58.028C21.4873 56.0625 23.0822 54.4097 25.0758 54.4097C27.0251 54.4543 28.6199 56.0625 28.6199 58.028Z" fill="#DFDFDF"/>
<path d="M25.0754 62.0931C22.8603 62.0931 21.0439 60.2616 21.0439 58.0727C21.0439 55.8838 22.8603 54.0076 25.0754 54.0076C27.2905 54.0076 29.0626 55.8391 29.0626 58.0727C29.0626 60.3062 27.2462 62.0931 25.0754 62.0931ZM25.0754 54.901C23.3477 54.901 21.93 56.3305 21.93 58.0727C21.93 59.8148 23.3477 61.1997 25.0754 61.1997C26.8032 61.1997 28.1766 59.7702 28.1766 58.0727C28.1766 56.3751 26.7589 54.901 25.0754 54.901Z" fill="#646464"/>
<path d="M116.204 58.1622C116.204 64.4608 111.154 69.5534 104.907 69.5534C98.6608 69.5534 93.6104 64.4608 93.6104 58.1622C93.6104 51.8635 98.6608 46.771 104.907 46.771C111.154 46.771 116.204 51.8635 116.204 58.1622Z" fill="#DFDFDF"/>
<path d="M104.907 70C98.4389 70 93.167 64.6841 93.167 58.1621C93.167 51.6401 98.4389 46.3242 104.907 46.3242C111.375 46.3242 116.647 51.6401 116.647 58.1621C116.647 64.6841 111.375 70 104.907 70ZM104.907 47.2176C98.9263 47.2176 94.053 52.1315 94.053 58.1621C94.053 64.1928 98.9263 69.1066 104.907 69.1066C110.888 69.1066 115.761 64.1928 115.761 58.1621C115.761 52.1315 110.888 47.2176 104.907 47.2176Z" fill="#646464"/>
<path d="M112.572 58.1622C112.572 62.406 109.16 65.8904 104.907 65.8904C100.699 65.8904 97.2432 62.4507 97.2432 58.1622C97.2432 53.9184 100.654 50.4341 104.907 50.4341C109.16 50.4341 112.572 53.8738 112.572 58.1622Z" fill="#DFDFDF"/>
<path d="M104.907 66.2923C100.433 66.2923 96.7998 62.6293 96.7998 58.1175C96.7998 53.6057 100.433 49.9426 104.907 49.9426C109.382 49.9426 113.014 53.6057 113.014 58.1175C113.014 62.6293 109.382 66.2923 104.907 66.2923ZM104.907 50.8807C100.92 50.8807 97.6858 54.1417 97.6858 58.1622C97.6858 62.1826 100.92 65.4436 104.907 65.4436C108.894 65.4436 112.128 62.1826 112.128 58.1622C112.128 54.1417 108.894 50.8807 104.907 50.8807Z" fill="#646464"/>
<path d="M111.109 58.1622C111.109 61.6019 108.362 64.3716 104.951 64.3716C101.54 64.3716 98.793 61.6019 98.793 58.1622C98.793 54.7225 101.54 51.9529 104.951 51.9529C108.318 51.9082 111.109 54.7225 111.109 58.1622Z" fill="#DFDFDF"/>
<path d="M104.907 64.8182C101.274 64.8182 98.3057 61.8252 98.3057 58.1621C98.3057 54.4991 101.274 51.5061 104.907 51.5061C108.539 51.5061 111.508 54.4991 111.508 58.1621C111.552 61.8252 108.584 64.8182 104.907 64.8182ZM104.907 52.3549C101.761 52.3549 99.1917 54.9458 99.1917 58.1175C99.1917 61.2891 101.761 63.8801 104.907 63.8801C108.052 63.8801 110.622 61.2891 110.622 58.1175C110.666 54.9458 108.096 52.3549 104.907 52.3549Z" fill="#646464"/>
<path d="M108.496 58.162C108.496 60.1276 106.901 61.7804 104.952 61.7804C103.002 61.7804 101.363 60.1722 101.363 58.162C101.363 56.1965 102.958 54.5883 104.952 54.5883C106.901 54.5436 108.496 56.1518 108.496 58.162Z" fill="#DFDFDF"/>
<path d="M104.907 62.1824C102.692 62.1824 100.876 60.3509 100.876 58.1173C100.876 55.8838 102.692 54.0969 104.907 54.0969C107.123 54.0969 108.895 55.9285 108.895 58.1173C108.895 60.3062 107.123 62.1824 104.907 62.1824ZM104.907 54.9904C103.18 54.9904 101.762 56.4198 101.762 58.1173C101.762 59.8149 103.18 61.289 104.907 61.289C106.635 61.289 108.009 59.8595 108.009 58.1173C108.009 56.3752 106.635 54.9904 104.907 54.9904Z" fill="#646464"/>
<path d="M146.907 58.1622C146.907 64.4608 141.856 69.5534 135.61 69.5534C129.363 69.5534 124.312 64.4608 124.312 58.1622C124.312 51.8635 129.363 46.771 135.61 46.771C141.856 46.771 146.907 51.8635 146.907 58.1622Z" fill="#DFDFDF"/>
<path d="M135.609 70C129.141 70 123.869 64.6841 123.869 58.1621C123.869 51.6401 129.141 46.3242 135.609 46.3242C142.077 46.3242 147.349 51.6401 147.349 58.1621C147.349 64.6841 142.077 70 135.609 70ZM135.609 47.2176C129.628 47.2176 124.755 52.1315 124.755 58.1621C124.755 64.1928 129.628 69.1066 135.609 69.1066C141.59 69.1066 146.463 64.1928 146.463 58.1621C146.463 52.1315 141.59 47.2176 135.609 47.2176Z" fill="#646464"/>
<path d="M143.274 58.1622C143.274 62.406 139.863 65.8904 135.61 65.8904C131.401 65.8904 127.945 62.4507 127.945 58.1622C127.945 53.9184 131.357 50.4341 135.61 50.4341C139.818 50.4341 143.274 53.8738 143.274 58.1622Z" fill="#DFDFDF"/>
<path d="M135.609 66.2923C131.135 66.2923 127.502 62.6293 127.502 58.1175C127.502 53.6057 131.135 49.9426 135.609 49.9426C140.084 49.9426 143.717 53.6057 143.717 58.1175C143.717 62.6293 140.084 66.2923 135.609 66.2923ZM135.609 50.8807C131.622 50.8807 128.388 54.1417 128.388 58.1622C128.388 62.1826 131.622 65.4436 135.609 65.4436C139.596 65.4436 142.83 62.1826 142.83 58.1622C142.83 54.1417 139.596 50.8807 135.609 50.8807Z" fill="#646464"/>
<path d="M141.767 58.1622C141.767 61.6019 139.02 64.3716 135.609 64.3716C132.198 64.3716 129.451 61.6019 129.451 58.1622C129.451 54.7225 132.198 51.9529 135.609 51.9529C139.02 51.9082 141.767 54.7225 141.767 58.1622Z" fill="#DFDFDF"/>
<path d="M135.609 64.8182C131.976 64.8182 129.008 61.8252 129.008 58.1621C129.008 54.4991 131.976 51.5061 135.609 51.5061C139.242 51.5061 142.21 54.4991 142.21 58.1621C142.21 61.8252 139.242 64.8182 135.609 64.8182ZM135.609 52.3549C132.463 52.3549 129.894 54.9458 129.894 58.1175C129.894 61.2891 132.463 63.8801 135.609 63.8801C138.754 63.8801 141.324 61.2891 141.324 58.1175C141.324 54.9458 138.754 52.3549 135.609 52.3549Z" fill="#646464"/>
<path d="M139.154 58.162C139.154 60.1276 137.559 61.7804 135.61 61.7804C133.661 61.7804 132.021 60.1722 132.021 58.162C132.021 56.1965 133.616 54.5883 135.61 54.5883C137.559 54.5436 139.154 56.1518 139.154 58.162Z" fill="#DFDFDF"/>
<path d="M135.61 62.1824C133.395 62.1824 131.578 60.3509 131.578 58.1173C131.578 55.8838 133.395 54.0969 135.61 54.0969C137.825 54.0969 139.597 55.9285 139.597 58.1173C139.597 60.3062 137.825 62.1824 135.61 62.1824ZM135.61 54.9904C133.882 54.9904 132.464 56.4198 132.464 58.1173C132.464 59.8149 133.882 61.289 135.61 61.289C137.337 61.289 138.711 59.8595 138.711 58.1173C138.711 56.3752 137.337 54.9904 135.61 54.9904Z" fill="#646464"/>
</g>
<defs>
<clipPath id="clip0_761_2831">
<rect width="166" height="70" fill="white"/>
</clipPath>
</defs>
</svg>
