<svg width="156" height="70" viewBox="0 0 156 70" fill="none" xmlns="http://www.w3.org/2000/svg">
<g clip-path="url(#clip0_761_2940)">
<path d="M6.27392 57.9586H2.31141C1.27362 57.9586 0.47168 57.1152 0.47168 56.1313V53.3669C0.47168 52.3361 1.32079 51.5396 2.31141 51.5396H6.22674V57.9586H6.27392Z" fill="#DFDFDF"/>
<path d="M6.74569 58.4271H2.31146C1.0378 58.4271 0 57.3963 0 56.1313V53.3669C0 52.1018 1.0378 51.071 2.31146 51.071H6.69852V58.4271H6.74569ZM2.31146 52.0081C1.5567 52.0081 0.943453 52.6172 0.943453 53.3669V56.1313C0.943453 56.881 1.5567 57.4901 2.31146 57.4901H5.75506V52.0081H2.31146Z" fill="#646464"/>
<path d="M150.811 48.7283H153.688C154.726 48.7283 155.528 49.5716 155.528 50.5556V50.9304C155.528 51.9612 154.679 52.7577 153.688 52.7577H150.811V48.7283Z" fill="#DFDFDF"/>
<path d="M153.688 53.2263H150.339V48.2598H153.688C154.962 48.2598 156 49.2906 156 50.5556V50.9304C156 52.1955 154.962 53.2263 153.688 53.2263ZM151.282 52.2892H153.688C154.443 52.2892 155.056 51.6801 155.056 50.9304V50.5556C155.056 49.806 154.443 49.1968 153.688 49.1968H151.282V52.2892Z" fill="#646464"/>
<path d="M2.31152 51.5395H4.95319V45.4016H4.19843C3.16063 45.4016 2.3587 46.1981 2.3587 47.2289V51.5395H2.31152Z" fill="#DFDFDF"/>
<path d="M5.37779 52.0081H1.83984V47.229C1.83984 46.6199 2.07571 46.0576 2.50026 45.5891C2.92482 45.1674 3.53806 44.9331 4.1513 44.9331H5.37779V52.0081ZM2.7833 51.071H4.48151V45.8702H4.1513C3.77392 45.8702 3.44371 46.0108 3.16068 46.2919C2.87764 46.5261 2.73612 46.901 2.73612 47.2758V51.071H2.7833Z" fill="#646464"/>
<path d="M140.102 39.0295H57.0312V42.7779H140.102V39.0295Z" fill="#DFDFDF"/>
<path d="M140.527 43.2464H56.5596V38.561H140.574V43.2464H140.527ZM57.503 42.3094H139.631V39.4981H57.503V42.3094Z" fill="#646464"/>
<path d="M151.518 42.5903C139.065 42.5903 54.2012 42.5903 44.9082 42.5903V57.6305C54.6258 57.6305 82.6935 57.6305 84.5332 57.6305V57.5836C84.5332 49.8996 90.8072 43.6211 98.5907 43.6211C105.761 43.6211 112.412 49.0093 112.648 57.6305H117.177V57.5836C117.177 49.9464 123.451 43.6211 131.234 43.6211C138.357 43.6211 145.056 49.0093 145.292 57.6773H153.452V44.4176C153.358 43.3869 152.509 42.5903 151.518 42.5903Z" fill="#DFDFDF"/>
<path d="M153.83 58.0991H144.773V57.6305C144.584 51.071 139.773 44.0428 131.187 44.0428C123.687 44.0428 117.602 50.087 117.602 57.5368V58.0522H112.13V57.5837C111.941 51.0241 107.129 44.0428 98.5439 44.0428C91.0434 44.0428 84.9581 50.087 84.9581 57.5368V58.0522H44.3896V42.1218H151.472C152.745 42.1218 153.783 43.1526 153.783 44.4177V58.0991H153.83ZM145.669 57.162H152.887V44.4177C152.887 43.668 152.274 43.0589 151.519 43.0589H45.3803V57.162H84.0619C84.2977 49.3842 90.7132 43.1526 98.591 43.1526C105.337 43.1526 112.601 48.0723 113.073 57.162H116.705C116.941 49.3842 123.357 43.1526 131.235 43.1526C139.065 43.1526 145.245 49.1499 145.669 57.162Z" fill="#646464"/>
<path d="M151.141 29.3306H47.4082V39.2636H151.141V29.3306Z" fill="#DFDFDF"/>
<path d="M151.565 39.7322H46.9365V28.8621H151.613V39.7322H151.565ZM47.88 38.7951H150.669V29.7991H47.88V38.7951Z" fill="#646464"/>
<path d="M153.547 16.5864H47.4082V26.5195H153.547V16.5864Z" fill="#DFDFDF"/>
<path d="M154.018 26.9881H46.9365V16.1179H154.018V26.9881ZM47.88 26.051H153.075V17.055H47.88V26.051Z" fill="#646464"/>
<path d="M153.547 3.84204H47.4082V13.7751H153.547V3.84204Z" fill="#DFDFDF"/>
<path d="M154.018 14.2437H46.9365V3.37354H154.018V14.2437ZM47.88 13.3066H153.075V4.31062H47.88V13.3066Z" fill="#646464"/>
<path d="M78.071 40.435C79.1088 40.435 79.9107 39.5917 79.9107 38.6077V2.29582C79.9107 1.26503 79.0616 0.468506 78.071 0.468506H75.0048C73.967 0.468506 73.165 1.31188 73.165 2.29582V38.6077C73.165 39.6385 74.0141 40.435 75.0048 40.435H78.071Z" fill="#DFDFDF"/>
<path d="M78.071 40.9036H75.0048C73.7312 40.9036 72.6934 39.8728 72.6934 38.6078V2.29585C72.6934 1.03079 73.7312 0 75.0048 0H78.071C79.3447 0 80.3825 1.03079 80.3825 2.29585V38.6078C80.3825 39.8728 79.3447 40.9036 78.071 40.9036ZM75.0048 0.937082C74.2501 0.937082 73.6368 1.54618 73.6368 2.29585V38.6078C73.6368 39.3574 74.2501 39.9665 75.0048 39.9665H78.071C78.8258 39.9665 79.439 39.3574 79.439 38.6078V2.29585C79.439 1.54618 78.8258 0.937082 78.071 0.937082H75.0048Z" fill="#646464"/>
<path d="M52.2204 40.435C53.2582 40.435 54.0601 39.5917 54.0601 38.6077V2.29582C54.0601 1.26503 53.211 0.468506 52.2204 0.468506H49.1542C48.1164 0.468506 47.3145 1.31188 47.3145 2.29582V38.6077C47.3145 39.6385 48.1636 40.435 49.1542 40.435H52.2204Z" fill="#DFDFDF"/>
<path d="M52.2205 40.9036H49.1542C47.8806 40.9036 46.8428 39.8728 46.8428 38.6078V2.29585C46.8428 1.03079 47.8806 0 49.1542 0H52.2205C53.4941 0 54.5319 1.03079 54.5319 2.29585V38.6078C54.5319 39.8728 53.4941 40.9036 52.2205 40.9036ZM49.1542 0.937082C48.3995 0.937082 47.7862 1.54618 47.7862 2.29585V38.6078C47.7862 39.3574 48.3995 39.9665 49.1542 39.9665H52.2205C52.9752 39.9665 53.5885 39.3574 53.5885 38.6078V2.29585C53.5885 1.54618 52.9752 0.937082 52.2205 0.937082H49.1542Z" fill="#646464"/>
<path d="M103.922 40.435C104.959 40.435 105.761 39.5917 105.761 38.6077V2.29582C105.761 1.26503 104.912 0.468506 103.922 0.468506H100.855C99.8176 0.468506 99.0156 1.31188 99.0156 2.29582V38.6077C99.0156 39.6385 99.8647 40.435 100.855 40.435H103.922Z" fill="#DFDFDF"/>
<path d="M103.922 40.9036H100.855C99.5817 40.9036 98.5439 39.8728 98.5439 38.6078V2.29585C98.5439 1.03079 99.5817 0 100.855 0H103.922C105.195 0 106.233 1.03079 106.233 2.29585V38.6078C106.233 39.8728 105.195 40.9036 103.922 40.9036ZM100.855 0.937082C100.101 0.937082 99.4874 1.54618 99.4874 2.29585V38.6078C99.4874 39.3574 100.101 39.9665 100.855 39.9665H103.922C104.676 39.9665 105.29 39.3574 105.29 38.6078V2.29585C105.29 1.54618 104.676 0.937082 103.922 0.937082H100.855Z" fill="#646464"/>
<path d="M129.772 40.435C130.81 40.435 131.612 39.5917 131.612 38.6077V2.29582C131.612 1.26503 130.763 0.468506 129.772 0.468506H126.706C125.668 0.468506 124.866 1.31188 124.866 2.29582V38.6077C124.866 39.6385 125.715 40.435 126.706 40.435H129.772Z" fill="#DFDFDF"/>
<path d="M129.772 40.9036H126.706C125.432 40.9036 124.395 39.8728 124.395 38.6078V2.29585C124.395 1.03079 125.432 0 126.706 0H129.772C131.046 0 132.084 1.03079 132.084 2.29585V38.6078C132.084 39.8728 131.046 40.9036 129.772 40.9036ZM126.706 0.937082C125.951 0.937082 125.338 1.54618 125.338 2.29585V38.6078C125.338 39.3574 125.951 39.9665 126.706 39.9665H129.772C130.527 39.9665 131.14 39.3574 131.14 38.6078V2.29585C131.14 1.54618 130.527 0.937082 129.772 0.937082H126.706Z" fill="#646464"/>
<path d="M151.708 40.435C152.746 40.435 153.547 39.5917 153.547 38.6077V2.29582C153.547 1.26503 152.698 0.468506 151.708 0.468506H148.641C147.604 0.468506 146.802 1.31188 146.802 2.29582V38.6077C146.802 39.6385 147.651 40.435 148.641 40.435H151.708Z" fill="#DFDFDF"/>
<path d="M151.708 40.9036H148.642C147.368 40.9036 146.33 39.8728 146.33 38.6078V2.29585C146.33 1.03079 147.368 0 148.642 0H151.708C152.981 0 154.019 1.03079 154.019 2.29585V38.6078C154.019 39.8728 152.981 40.9036 151.708 40.9036ZM148.689 0.937082C147.934 0.937082 147.321 1.54618 147.321 2.29585V38.6078C147.321 39.3574 147.934 39.9665 148.689 39.9665H151.755C152.51 39.9665 153.123 39.3574 153.123 38.6078V2.29585C153.123 1.54618 152.51 0.937082 151.755 0.937082H148.689Z" fill="#646464"/>
<path d="M155.387 59.2236C155.387 60.2544 154.538 61.0509 153.547 61.0509H150.057C149.019 61.0509 148.217 60.2075 148.217 59.2236V56.0844C148.217 55.0536 149.066 54.2571 150.057 54.2571H153.547C154.585 54.2571 155.387 55.1005 155.387 56.0844V59.2236Z" fill="#DFDFDF"/>
<path d="M153.547 61.5195H150.057C148.783 61.5195 147.745 60.4887 147.745 59.2236V56.0844C147.745 54.8194 148.783 53.7886 150.057 53.7886H153.547C154.821 53.7886 155.859 54.8194 155.859 56.0844V59.2236C155.859 60.4887 154.821 61.5195 153.547 61.5195ZM150.057 54.7257C149.302 54.7257 148.689 55.3348 148.689 56.0844V59.2236C148.689 59.9733 149.302 60.5824 150.057 60.5824H153.547C154.302 60.5824 154.915 59.9733 154.915 59.2236V56.0844C154.915 55.3348 154.302 54.7257 153.547 54.7257H150.057Z" fill="#646464"/>
<path d="M73.3063 60.2542C73.3063 61.285 72.4572 62.0815 71.4666 62.0815H49.8143C48.7765 62.0815 47.9746 61.2381 47.9746 60.2542V47.4162C47.9746 46.3854 48.8237 45.5889 49.8143 45.5889H71.4666C72.5044 45.5889 73.3063 46.4322 73.3063 47.4162V60.2542Z" fill="#DFDFDF"/>
<path d="M71.4198 62.597H49.7675C48.4939 62.597 47.4561 61.5662 47.4561 60.3011V47.4631C47.4561 46.198 48.4939 45.1672 49.7675 45.1672H71.4198C72.6934 45.1672 73.7312 46.198 73.7312 47.4631V60.3011C73.7784 61.5193 72.6934 62.597 71.4198 62.597ZM49.7675 46.0575C49.0128 46.0575 48.3995 46.6666 48.3995 47.4162V60.2543C48.3995 61.0039 49.0128 61.613 49.7675 61.613H71.4198C72.1745 61.613 72.7878 61.0039 72.7878 60.2543V47.4162C72.7878 46.6666 72.1745 46.0575 71.4198 46.0575H49.7675Z" fill="#646464"/>
<path d="M68.2116 62.3158C68.2116 62.9249 67.6927 63.4403 67.0794 63.4403C66.4662 63.4403 65.9473 62.9249 65.9473 62.3158V45.6357C65.9473 45.0266 66.4662 44.5112 67.0794 44.5112C67.6927 44.5112 68.2116 45.0266 68.2116 45.6357V62.3158Z" fill="#DFDFDF"/>
<path d="M67.0326 63.9089C66.1363 63.9089 65.4287 63.206 65.4287 62.3158V45.6358C65.4287 44.7455 66.1363 44.0427 67.0326 44.0427C67.9289 44.0427 68.6365 44.7455 68.6365 45.6358V62.3158C68.6836 63.206 67.9289 63.9089 67.0326 63.9089ZM67.0326 44.9798C66.6552 44.9798 66.3722 45.2609 66.3722 45.6358V62.3158C66.3722 62.6907 66.6552 62.9718 67.0326 62.9718C67.41 62.9718 67.693 62.6907 67.693 62.3158V45.6358C67.7402 45.2609 67.41 44.9798 67.0326 44.9798Z" fill="#646464"/>
<path d="M61.7496 62.3158C61.7496 62.9249 61.2307 63.4403 60.6175 63.4403C60.0043 63.4403 59.4854 62.9249 59.4854 62.3158V45.6357C59.4854 45.0266 60.0043 44.5112 60.6175 44.5112C61.2307 44.5112 61.7496 45.0266 61.7496 45.6357V62.3158Z" fill="#DFDFDF"/>
<path d="M60.6175 63.9089C59.7213 63.9089 59.0137 63.206 59.0137 62.3158V45.6358C59.0137 44.7455 59.7213 44.0427 60.6175 44.0427C61.5138 44.0427 62.2214 44.7455 62.2214 45.6358V62.3158C62.2214 63.206 61.5138 63.9089 60.6175 63.9089ZM60.6175 44.9798C60.2402 44.9798 59.9571 45.2609 59.9571 45.6358V62.3158C59.9571 62.6907 60.2402 62.9718 60.6175 62.9718C60.9949 62.9718 61.278 62.6907 61.278 62.3158V45.6358C61.278 45.2609 60.9949 44.9798 60.6175 44.9798Z" fill="#646464"/>
<path d="M55.2867 62.3158C55.2867 62.9249 54.7679 63.4403 54.1546 63.4403C53.5414 63.4403 53.0225 62.9249 53.0225 62.3158V45.6357C53.0225 45.0266 53.5414 44.5112 54.1546 44.5112C54.7679 44.5112 55.2867 45.0266 55.2867 45.6357V62.3158Z" fill="#DFDFDF"/>
<path d="M54.1547 63.9089C53.2584 63.9089 52.5508 63.206 52.5508 62.3158V45.6358C52.5508 44.7455 53.2584 44.0427 54.1547 44.0427C55.0509 44.0427 55.7585 44.7455 55.7585 45.6358V62.3158C55.7585 63.206 55.0509 63.9089 54.1547 63.9089ZM54.1547 44.9798C53.7773 44.9798 53.4942 45.2609 53.4942 45.6358V62.3158C53.4942 62.6907 53.7773 62.9718 54.1547 62.9718C54.532 62.9718 54.8151 62.6907 54.8151 62.3158V45.6358C54.8151 45.2609 54.532 44.9798 54.1547 44.9798Z" fill="#646464"/>
<path d="M38.5874 57.5369C38.5874 64.1433 33.2097 69.4847 26.5583 69.4847C19.907 69.4847 14.5293 64.1433 14.5293 57.5369C14.5293 50.9305 19.907 45.5891 26.5583 45.5891C33.2097 45.5891 38.5874 50.9305 38.5874 57.5369Z" fill="#DFDFDF"/>
<path d="M26.5584 69.9533C19.6712 69.9533 14.0576 64.3776 14.0576 57.5369C14.0576 50.6962 19.6712 45.1206 26.5584 45.1206C33.4456 45.1206 39.0591 50.6962 39.0591 57.5369C39.0591 64.3776 33.4456 69.9533 26.5584 69.9533ZM26.5584 46.0577C20.1901 46.0577 15.0011 51.2116 15.0011 57.5369C15.0011 63.8622 20.1901 69.0162 26.5584 69.0162C32.9267 69.0162 38.1157 63.8622 38.1157 57.5369C38.1157 51.2116 32.9267 46.0577 26.5584 46.0577Z" fill="#646464"/>
<path d="M34.7192 57.5369C34.7192 61.988 31.0869 65.6427 26.5583 65.6427C22.0769 65.6427 18.3975 62.0349 18.3975 57.5369C18.3975 53.0858 22.0298 49.4312 26.5583 49.4312C31.0869 49.4312 34.7192 53.0858 34.7192 57.5369Z" fill="#DFDFDF"/>
<path d="M26.5584 66.1112C21.7939 66.1112 17.9258 62.2692 17.9258 57.5369C17.9258 52.8047 21.7939 48.9626 26.5584 48.9626C31.3228 48.9626 35.191 52.8047 35.191 57.5369C35.191 62.2692 31.3228 66.1112 26.5584 66.1112ZM26.5584 49.8997C22.3128 49.8997 18.8692 53.3201 18.8692 57.5369C18.8692 61.7538 22.3128 65.1742 26.5584 65.1742C30.8039 65.1742 34.2475 61.7538 34.2475 57.5369C34.2475 53.3201 30.8039 49.8997 26.5584 49.8997Z" fill="#646464"/>
<path d="M33.115 57.5369C33.115 61.1447 30.1903 64.0496 26.558 64.0496C22.9257 64.0496 20.001 61.1447 20.001 57.5369C20.001 53.9291 22.9257 51.0242 26.558 51.0242C30.1903 51.0242 33.115 53.9291 33.115 57.5369Z" fill="#DFDFDF"/>
<path d="M26.558 64.5182C22.6899 64.5182 19.5293 61.379 19.5293 57.5369C19.5293 53.6949 22.6899 50.5557 26.558 50.5557C30.4262 50.5557 33.5867 53.6949 33.5867 57.5369C33.5867 61.379 30.4262 64.5182 26.558 64.5182ZM26.558 51.4927C23.2088 51.4927 20.4728 54.2103 20.4728 57.5369C20.4728 60.8636 23.2088 63.5811 26.558 63.5811C29.9073 63.5811 32.6433 60.8636 32.6433 57.5369C32.6433 54.2103 29.9073 51.4927 26.558 51.4927Z" fill="#646464"/>
<path d="M30.379 57.5369C30.379 59.5985 28.6808 61.2852 26.6052 61.2852C24.5296 61.2852 22.7842 59.5985 22.7842 57.5369C22.7842 55.4753 24.4824 53.7417 26.6052 53.7417C28.6808 53.7886 30.379 55.4753 30.379 57.5369Z" fill="#DFDFDF"/>
<path d="M26.5583 61.8007C24.1997 61.8007 22.2656 59.8796 22.2656 57.5838C22.2656 55.2879 24.1997 53.3201 26.5583 53.3201C28.917 53.3201 30.8039 55.2411 30.8039 57.5838C30.8039 59.9265 28.917 61.8007 26.5583 61.8007ZM26.5583 54.2572C24.7186 54.2572 23.2091 55.7565 23.2091 57.5838C23.2091 59.4111 24.7186 60.8636 26.5583 60.8636C28.3981 60.8636 29.8604 59.3642 29.8604 57.5838C29.8604 55.8033 28.3981 54.2572 26.5583 54.2572Z" fill="#646464"/>
<path d="M110.62 57.5835C110.62 64.19 105.242 69.5313 98.5906 69.5313C91.9392 69.5313 86.5615 64.19 86.5615 57.5835C86.5615 50.9771 91.9392 45.6357 98.5906 45.6357C105.242 45.6357 110.62 50.9771 110.62 57.5835Z" fill="#DFDFDF"/>
<path d="M98.5906 69.9999C91.7034 69.9999 86.0898 64.4243 86.0898 57.5836C86.0898 50.7429 91.7034 45.1672 98.5906 45.1672C105.478 45.1672 111.091 50.7429 111.091 57.5836C111.091 64.4243 105.478 69.9999 98.5906 69.9999ZM98.5906 46.1043C92.2223 46.1043 87.0333 51.2583 87.0333 57.5836C87.0333 63.9089 92.2223 69.0628 98.5906 69.0628C104.959 69.0628 110.148 63.9089 110.148 57.5836C110.148 51.2583 104.959 46.1043 98.5906 46.1043Z" fill="#646464"/>
<path d="M106.751 57.5835C106.751 62.0347 103.119 65.6893 98.5906 65.6893C94.1092 65.6893 90.4297 62.0815 90.4297 57.5835C90.4297 53.1324 94.062 49.4778 98.5906 49.4778C103.072 49.4778 106.751 53.0855 106.751 57.5835Z" fill="#DFDFDF"/>
<path d="M98.5906 66.1579C93.8262 66.1579 89.958 62.3158 89.958 57.5836C89.958 52.8513 93.8262 49.0093 98.5906 49.0093C103.355 49.0093 107.223 52.8513 107.223 57.5836C107.223 62.3158 103.355 66.1579 98.5906 66.1579ZM98.5906 49.9464C94.3451 49.9464 90.9015 53.3667 90.9015 57.5836C90.9015 61.8004 94.3451 65.2208 98.5906 65.2208C102.836 65.2208 106.28 61.8004 106.28 57.5836C106.28 53.3667 102.836 49.9464 98.5906 49.9464Z" fill="#646464"/>
<path d="M105.147 57.5836C105.147 61.1913 102.222 64.0963 98.5902 64.0963C94.9579 64.0963 92.0332 61.1913 92.0332 57.5836C92.0332 53.9758 94.9579 51.0709 98.5902 51.0709C102.222 51.024 105.147 53.9758 105.147 57.5836Z" fill="#DFDFDF"/>
<path d="M98.5902 64.5648C94.7221 64.5648 91.5615 61.4256 91.5615 57.5836C91.5615 53.7415 94.7221 50.6023 98.5902 50.6023C102.458 50.6023 105.619 53.7415 105.619 57.5836C105.619 61.4256 102.458 64.5648 98.5902 64.5648ZM98.5902 51.4925C95.241 51.4925 92.505 54.2101 92.505 57.5367C92.505 60.8633 95.241 63.5809 98.5902 63.5809C101.94 63.5809 104.676 60.8633 104.676 57.5367C104.676 54.2101 101.94 51.4925 98.5902 51.4925Z" fill="#646464"/>
<path d="M102.364 57.5835C102.364 59.6451 100.666 61.3318 98.5905 61.3318C96.5149 61.3318 94.7695 59.6451 94.7695 57.5835C94.7695 55.5219 96.4677 53.7883 98.5905 53.7883C100.666 53.7883 102.364 55.4751 102.364 57.5835Z" fill="#DFDFDF"/>
<path d="M98.5906 61.8004C96.2319 61.8004 94.2979 59.8794 94.2979 57.5835C94.2979 55.2408 96.2319 53.3198 98.5906 53.3198C100.949 53.3198 102.836 55.2408 102.836 57.5835C102.836 59.9262 100.949 61.8004 98.5906 61.8004ZM98.5906 54.2569C96.7508 54.2569 95.2413 55.7562 95.2413 57.5835C95.2413 59.4109 96.7508 60.8633 98.5906 60.8633C100.43 60.8633 101.893 59.364 101.893 57.5835C101.893 55.7562 100.43 54.2569 98.5906 54.2569Z" fill="#646464"/>
<path d="M143.028 57.5835C143.028 64.19 137.65 69.5313 130.999 69.5313C124.347 69.5313 118.97 64.19 118.97 57.5835C118.97 50.9771 124.347 45.6357 130.999 45.6357C137.65 45.6357 143.028 50.9771 143.028 57.5835Z" fill="#DFDFDF"/>
<path d="M130.999 69.9999C124.112 69.9999 118.498 64.4243 118.498 57.5836C118.498 50.7429 124.112 45.1672 130.999 45.1672C137.886 45.1672 143.5 50.7429 143.5 57.5836C143.5 64.4243 137.886 69.9999 130.999 69.9999ZM130.999 46.1043C124.631 46.1043 119.442 51.2583 119.442 57.5836C119.442 63.9089 124.631 69.0628 130.999 69.0628C137.367 69.0628 142.556 63.9089 142.556 57.5836C142.556 51.2583 137.367 46.1043 130.999 46.1043Z" fill="#646464"/>
<path d="M139.16 57.5835C139.16 62.0347 135.527 65.6893 130.999 65.6893C126.517 65.6893 122.838 62.0815 122.838 57.5835C122.838 53.1324 126.47 49.4778 130.999 49.4778C135.48 49.4778 139.16 53.0855 139.16 57.5835Z" fill="#DFDFDF"/>
<path d="M130.999 66.1579C126.234 66.1579 122.366 62.3158 122.366 57.5836C122.366 52.8513 126.234 49.0093 130.999 49.0093C135.763 49.0093 139.631 52.8513 139.631 57.5836C139.631 62.3158 135.763 66.1579 130.999 66.1579ZM130.999 49.9464C126.753 49.9464 123.31 53.3667 123.31 57.5836C123.31 61.8004 126.753 65.2208 130.999 65.2208C135.244 65.2208 138.688 61.8004 138.688 57.5836C138.688 53.3667 135.244 49.9464 130.999 49.9464Z" fill="#646464"/>
<path d="M137.555 57.5836C137.555 61.1913 134.631 64.0963 130.998 64.0963C127.366 64.0963 124.441 61.1913 124.441 57.5836C124.441 53.9758 127.366 51.0709 130.998 51.0709C134.631 51.024 137.555 53.9758 137.555 57.5836Z" fill="#DFDFDF"/>
<path d="M130.998 64.5648C127.13 64.5648 123.97 61.4256 123.97 57.5836C123.97 53.7415 127.13 50.6023 130.998 50.6023C134.867 50.6023 138.027 53.7415 138.027 57.5836C138.027 61.4256 134.867 64.5648 130.998 64.5648ZM130.998 51.4925C127.649 51.4925 124.913 54.2101 124.913 57.5367C124.913 60.8633 127.649 63.5809 130.998 63.5809C134.348 63.5809 137.084 60.8633 137.084 57.5367C137.084 54.2101 134.348 51.4925 130.998 51.4925Z" fill="#646464"/>
<path d="M134.773 57.5835C134.773 59.6451 133.074 61.3318 130.999 61.3318C128.923 61.3318 127.178 59.6451 127.178 57.5835C127.178 55.5219 128.876 53.7883 130.999 53.7883C133.074 53.7883 134.773 55.4751 134.773 57.5835Z" fill="#DFDFDF"/>
<path d="M130.999 61.8004C128.64 61.8004 126.706 59.8794 126.706 57.5835C126.706 55.2408 128.64 53.3198 130.999 53.3198C133.357 53.3198 135.244 55.2408 135.244 57.5835C135.244 59.9262 133.357 61.8004 130.999 61.8004ZM130.999 54.2569C129.159 54.2569 127.65 55.7562 127.65 57.5835C127.65 59.4109 129.159 60.8633 130.999 60.8633C132.839 60.8633 134.301 59.364 134.301 57.5835C134.301 55.7562 132.839 54.2569 130.999 54.2569Z" fill="#646464"/>
<path d="M40.3322 53.6947H40.2378C40.6152 54.9597 40.8039 56.2716 40.8039 57.6304C43.4456 57.6304 39.6246 57.6304 44.7192 57.6304V9.7924C44.7192 8.76161 43.8701 7.96509 42.8795 7.96509H14.4815C13.3966 7.96509 12.4059 8.6679 12.0286 9.69869L6.13198 26.285L4.7168 29.7991V57.9584H12.5003C12.5475 56.5996 12.6418 54.7255 12.972 53.4135C14.34 47.8848 20.4253 43.5742 26.7936 43.5742C33.3506 43.5742 38.6339 47.9785 40.285 53.6478H40.3322V53.6947Z" fill="#DFDFDF"/>
<path d="M12.9249 58.427H4.24512V29.7054L5.70747 26.1445L11.6041 9.55816C12.0286 8.33996 13.2079 7.49658 14.5288 7.49658H42.9267C44.2004 7.49658 45.2382 8.52737 45.2382 9.79243V58.099H44.7664L43.3041 57.6305L44.2947 57.3025V9.79243C44.2947 9.04277 43.6815 8.43366 42.9267 8.43366H14.4816C13.5853 8.43366 12.7834 8.99591 12.4532 9.83929L6.55658 26.4256L5.18857 29.8928V57.4899H12.0286C12.0758 56.3185 12.1701 54.5849 12.5003 53.3199C13.9155 47.6037 20.1895 43.1525 26.7936 43.1525C33.3035 43.1525 38.917 47.3226 40.7568 53.601C41.087 54.7724 41.2757 55.9906 41.3228 57.2088H41.8889V58.1458H40.3794V57.6773C40.3794 56.4122 40.1907 55.1472 39.8605 53.8821C38.1151 47.9785 32.8789 44.0428 26.7936 44.0428C20.614 44.0428 14.7646 48.2128 13.4438 53.5073C13.0664 54.9598 12.9721 57.0682 12.9721 57.9584L12.9249 58.427Z" fill="#646464"/>
<path d="M37.3602 16.2113C37.3602 15.1806 36.5111 14.384 35.5204 14.384H16.9816C15.8966 14.384 14.8588 15.0868 14.4814 16.1176L10.8491 26.0507C10.5189 26.8941 11.1793 27.7843 12.0756 27.7843H35.5204C36.5582 27.7843 37.3602 26.9409 37.3602 25.957V16.2113Z" fill="#DFDFDF"/>
<path d="M35.5205 28.206H12.0756C11.5096 28.206 10.9435 27.9249 10.6133 27.4564C10.2831 26.9878 10.1887 26.3787 10.3774 25.8633L14.0569 15.9303C14.4814 14.712 15.6608 13.9155 16.9816 13.9155H35.5205C36.7941 13.9155 37.8319 14.9463 37.8319 16.2114V25.9102C37.8319 27.1752 36.7941 28.206 35.5205 28.206ZM16.9816 14.8526C16.0853 14.8526 15.2362 15.4149 14.9532 16.2582L11.3209 26.1444C11.2265 26.3787 11.2737 26.6598 11.4152 26.8941C11.5567 27.1284 11.8398 27.2221 12.0756 27.2221H35.5205C36.2752 27.2221 36.8885 26.613 36.8885 25.8633V16.2114C36.8885 15.4617 36.2752 14.8526 35.5205 14.8526H16.9816Z" fill="#646464"/>
<path d="M37.4544 30.9236C37.4544 31.767 36.794 32.423 35.9449 32.423H32.8787C32.0296 32.423 31.3691 31.767 31.3691 30.9236C31.3691 30.0803 32.0296 29.4243 32.8787 29.4243H35.9449C36.794 29.4243 37.4544 30.1271 37.4544 30.9236Z" fill="#DFDFDF"/>
<path d="M35.9449 32.9384H32.8787C31.7937 32.9384 30.8975 32.0482 30.8975 30.9706C30.8975 29.8929 31.7937 29.0027 32.8787 29.0027H35.9449C37.0299 29.0027 37.9262 29.8929 37.9262 30.9706C37.9262 32.0482 37.0299 32.9384 35.9449 32.9384ZM32.8787 29.8929C32.3126 29.8929 31.8409 30.3615 31.8409 30.9237C31.8409 31.486 32.3126 31.9545 32.8787 31.9545H35.9449C36.511 31.9545 36.9827 31.486 36.9827 30.9237C36.9827 30.3615 36.511 29.8929 35.9449 29.8929H32.8787Z" fill="#646464"/>
<path d="M9.57561 52.6639H9.05671C7.59436 52.6639 6.41504 51.4925 6.41504 50.0401V29.7054L6.46221 29.6117L11.8871 14.0561C12.3588 12.6974 13.6325 11.8071 15.0948 11.8071H37.9736C39.4359 11.8071 40.6152 12.9785 40.6152 14.431V39.5916C40.6152 41.0441 39.4359 42.2154 37.9736 42.2154H25.803C20.1895 42.2154 14.6703 45.6826 12.689 50.4617C12.1701 51.8205 10.9436 52.6639 9.57561 52.6639ZM7.35849 29.8928V50.0401C7.35849 50.9771 8.11326 51.7268 9.05671 51.7268H9.57561C10.5191 51.7268 11.4153 51.0709 11.8399 50.1338C13.9155 45.0267 19.8121 41.2783 25.803 41.2783H37.9736C38.917 41.2783 39.6718 40.5287 39.6718 39.5916V14.431C39.6718 13.4939 38.917 12.7442 37.9736 12.7442H15.0948C14.057 12.7442 13.1136 13.4002 12.7833 14.3841L7.35849 29.8928Z" fill="#646464"/>
</g>
<defs>
<clipPath id="clip0_761_2940">
<rect width="156" height="70" fill="white"/>
</clipPath>
</defs>
</svg>
