<?xml version="1.0" standalone="no"?>
<!DOCTYPE svg PUBLIC "-//W3C//DTD SVG 20010904//EN"
 "http://www.w3.org/TR/2001/REC-SVG-20010904/DTD/svg10.dtd">
<svg version="1.0" xmlns="http://www.w3.org/2000/svg"
 width="656.000000pt" height="656.000000pt" viewBox="0 0 656.000000 656.000000"
 preserveAspectRatio="xMidYMid meet">
<metadata>
Created by potrace 1.14, written by Peter Selinger 2001-2017
</metadata>
<g transform="translate(0.000000,656.000000) scale(0.100000,-0.100000)"
fill="#000000" stroke="none">
<path d="M3 4303 c1 -1198 6 -2191 10 -2208 9 -37 18 -89 23 -135 7 -57 54
-238 86 -330 71 -204 190 -437 300 -585 158 -213 319 -376 508 -515 41 -30 77
-57 80 -60 3 -3 21 -14 40 -24 19 -11 37 -22 40 -25 11 -13 230 -131 230 -124
0 3 6 1 13 -5 29 -24 278 -114 377 -137 8 -1 35 -8 60 -15 25 -7 54 -14 65
-15 11 -2 38 -6 60 -10 22 -3 50 -8 63 -10 163 -27 526 -28 657 -1 11 2 45 7
75 12 30 4 58 9 63 10 4 1 14 2 22 3 29 2 14 17 -85 81 -55 35 -100 68 -100
72 0 5 -6 8 -14 8 -8 0 -16 3 -18 8 -1 4 -23 23 -48 42 -75 58 -120 99 -235
215 -129 130 -136 138 -238 275 -43 58 -81 110 -85 115 -5 6 -11 17 -15 25
-19 38 -53 88 -62 90 -5 1 -21 7 -35 12 -14 5 -32 11 -40 13 -40 9 -183 84
-273 145 -340 228 -558 590 -603 997 -6 61 -13 3309 -6 3330 5 17 912 17 913
0 0 -7 2 -768 4 -1692 2 -924 6 -1703 9 -1732 19 -190 76 -422 148 -603 50
-125 183 -381 208 -400 4 -3 13 -16 20 -30 12 -23 82 -120 105 -146 6 -7 26
-31 45 -55 62 -77 232 -242 330 -320 96 -77 225 -169 236 -169 3 0 19 -9 35
-20 42 -30 211 -113 309 -150 47 -18 94 -36 105 -41 62 -25 274 -78 370 -93
22 -3 60 -9 85 -13 61 -10 532 -10 600 0 30 5 75 12 100 17 24 5 48 6 52 4 5
-3 8 0 8 6 0 6 4 9 9 6 16 -10 243 57 386 114 99 39 299 139 303 151 2 5 8 9
14 9 6 0 36 16 67 37 130 85 254 186 376 309 138 138 165 168 165 184 0 6 4
10 9 10 4 0 40 46 79 103 40 56 75 107 79 113 30 40 146 268 168 329 10 28 22
55 25 60 15 21 90 271 105 350 7 35 21 123 30 180 16 107 17 335 18 2295 l0
2105 -1380 3 -1381 2 -1 -2102 c0 -1157 -3 -2125 -6 -2153 -14 -126 -57 -298
-96 -385 -49 -106 -122 -237 -142 -251 -13 -9 1 -33 31 -51 15 -9 47 -31 72
-49 48 -35 210 -122 210 -114 0 3 13 -1 29 -9 15 -8 39 -17 52 -20 13 -3 44
-10 69 -17 81 -20 103 -22 255 -22 87 0 161 5 177 11 17 7 34 28 48 59 44 96
108 260 116 296 1 4 2 8 4 10 2 3 3 7 35 132 29 114 33 132 41 195 3 25 7 56
9 69 16 95 18 337 19 1821 l1 1665 460 2 461 2 -1 -1682 c-1 -1177 -5 -1696
-13 -1727 -6 -25 -13 -62 -16 -84 -17 -109 -124 -364 -197 -467 -80 -113 -227
-271 -299 -322 -246 -173 -405 -241 -657 -281 -105 -17 -356 -13 -443 7 -67
16 -210 56 -235 66 -161 68 -237 107 -295 151 -19 14 -48 34 -65 45 -50 31
-227 217 -287 301 -113 159 -206 380 -232 554 -3 14 -8 48 -12 75 -4 28 -8
1000 -8 2160 l-1 2110 -1378 3 -1378 2 4 -2177z"/>
</g>
</svg>
