<svg width="60" height="60" viewBox="0 0 60 60" fill="none" xmlns="http://www.w3.org/2000/svg">
<path d="M21.994 16.5339H53.266L36.1833 29.9486C35.8213 30.2326 35.3906 30.3713 35 30.4093C34.6066 30.3706 34.1746 30.2319 33.8086 29.9486L21.6006 20.3586C21.4713 20.2546 21.3253 20.1753 21.1646 20.1259C21.7393 19.3153 22.0673 18.3346 22.05 17.2779C22.0466 17.0359 22.0253 16.7866 21.994 16.5339ZM14.0413 7.90658C14.0806 7.91325 14.1453 7.93792 14.286 8.00325C14.564 8.13525 15.006 8.47525 15.4386 8.94925C16.31 9.89858 17.1806 11.3366 17.6326 12.2859C17.6466 12.3139 17.6613 12.3446 17.6746 12.3759C18.9573 14.5766 19.5106 16.2599 19.5273 17.3159C19.5453 18.3766 19.2606 18.8333 18.3613 19.3499L16.0413 20.6873C14.53 21.5573 13.816 23.1166 13.6386 24.5713C13.4606 26.0266 13.7226 27.4406 14.37 28.5586L20.0966 38.4286C20.7453 39.5459 21.8526 40.4806 23.2066 41.0546C24.562 41.6299 26.276 41.7926 27.7873 40.9246L30.1073 39.5899C31.006 39.0746 31.5493 39.0639 32.462 39.6066C33.3773 40.1506 34.566 41.4646 35.8433 43.6666C35.8613 43.6993 35.8786 43.7266 35.8993 43.7579C36.498 44.6213 37.3133 46.0859 37.7066 47.3126C37.902 47.9219 37.9786 48.4726 37.954 48.7773C37.9266 49.0833 37.92 49.0519 37.8393 49.0999L36.074 50.1119C31.6393 52.0353 27.5746 51.6012 23.942 49.7173C20.3026 47.8253 17.1393 44.4086 14.934 40.3973C14.9266 40.3893 14.9233 40.3793 14.9173 40.3739L10.0866 32.0486C10.0786 32.0406 10.0753 32.0333 10.0686 32.0226C7.67862 28.1159 6.28595 23.6806 6.46062 19.5999C6.63529 15.5253 8.28862 11.8106 12.1833 8.95258L13.9493 7.94392C13.99 7.92059 14.0033 7.90258 14.0413 7.90658ZM14.0593 5.42592C13.592 5.41858 13.1153 5.51658 12.6866 5.76525L10.8193 6.83925C10.7773 6.86325 10.7386 6.88792 10.7006 6.91192C6.20795 10.1999 4.13929 14.7773 3.93729 19.4953C3.73529 24.2113 5.30995 29.0786 7.91129 33.3339L12.726 41.6306L12.7146 41.6059C15.118 45.9733 18.562 49.7619 22.7706 51.9446C26.9813 54.1306 31.9973 54.6373 37.1066 52.4093C37.1486 52.3913 37.1913 52.3713 37.2293 52.3479L39.0993 51.2739C39.964 50.7819 40.3986 49.8246 40.4693 48.9886C40.542 48.1553 40.372 47.3439 40.114 46.5446C39.6086 44.9639 38.7273 43.4286 37.9993 42.3753C36.624 40.0093 35.296 38.3673 33.7613 37.4493C32.2146 36.5273 30.358 36.5406 28.8433 37.4113L26.5233 38.7486C25.838 39.1433 25.0366 39.0973 24.1933 38.7406C23.354 38.3839 22.5766 37.6706 22.288 37.1706L16.5613 27.3013C16.272 26.7986 16.0353 25.7733 16.1473 24.8693C16.2553 23.9679 16.6213 23.2619 17.3073 22.8666L19.5613 21.5706C19.62 21.8726 19.7906 22.1466 20.038 22.3306L32.2466 31.9226C33.0406 32.5466 33.9813 32.8939 34.9286 32.9486C34.9766 32.9513 35.026 32.9513 35.0746 32.9486C36.0226 32.8939 36.9586 32.5459 37.7533 31.9226L54.568 18.7133V40.5359C54.568 40.8679 54.1893 41.3053 53.4466 41.3053H41.806C41.1053 41.3013 40.538 41.8666 40.538 42.5633C40.538 43.2586 41.106 43.8239 41.806 43.8199H53.4466C55.3493 43.8199 57.098 42.4446 57.098 40.5359V17.3033C57.098 15.3933 55.3493 14.0186 53.4466 14.0186H21.3013C20.9453 13.1286 20.4753 12.1853 19.8833 11.1599C19.3293 10.0066 18.4306 8.48192 17.306 7.25592C16.738 6.63458 16.1253 6.08392 15.3593 5.72792V5.73125C14.9786 5.55125 14.526 5.43592 14.0593 5.42592Z" fill="#FFC825"/>
</svg>
