<svg width="60" height="60" viewBox="0 0 60 60" fill="none" xmlns="http://www.w3.org/2000/svg">
<path d="M13.013 51.1597C11.974 51.1755 10.9501 50.9085 10.0512 50.3871C9.15226 49.8657 8.41207 49.1096 7.90988 48.1998H4.34665C3.67086 48.1991 3.02294 47.9304 2.54509 47.4525C2.06724 46.9747 1.7985 46.3268 1.79785 45.651V43.5901C1.79785 43.57 1.79785 43.5508 1.79973 43.5306V18.0185C1.79818 17.34 2.06585 16.6885 2.54401 16.2071C3.02217 15.7257 3.67177 15.4535 4.35031 15.4505H5.61558C7.83065 4.01876 23.3201 5.1387 25.1145 15.4505H34.2368C34.9178 15.4509 35.5708 15.7216 36.0525 16.2031C36.5341 16.6846 36.805 17.3375 36.8058 18.0185V21.7219H45.7395C46.8512 21.7451 47.9451 22.0058 48.9477 22.4866C49.9503 22.9673 50.8385 23.657 51.5527 24.5093C52.2669 25.3616 52.7904 26.3568 53.0883 27.4281C53.3862 28.4994 53.4515 29.622 53.2797 30.7206C53.3048 31.1043 53.4759 31.4638 53.758 31.7252C54.04 31.9866 54.4114 32.13 54.7959 32.1259C55.699 32.1269 56.5648 32.4862 57.2033 33.1249C57.8418 33.7635 58.2009 34.6295 58.2016 35.5326V45.651C58.1983 46.3294 57.9259 46.9788 57.4443 47.4567C56.9626 47.9345 56.3111 48.2018 55.6326 48.1998H50.8115C50.2981 49.0986 49.5562 49.8457 48.6609 50.3654C47.7657 50.885 46.749 51.1587 45.7138 51.1587C44.6787 51.1587 43.662 50.885 42.7668 50.3654C41.8715 49.8457 41.1296 49.0986 40.6162 48.1998H18.0997C17.6008 49.1088 16.8636 49.8646 15.9674 50.3861C15.0712 50.9076 14.0498 51.1751 13.013 51.1597ZM9.4516 47.1003C9.90133 48.0182 10.6911 48.7248 11.6533 49.07C12.6154 49.4152 13.6743 49.3718 14.605 48.9491C15.5357 48.5264 16.2651 47.7576 16.6382 46.8059C17.0114 45.8542 16.9989 44.7946 16.6036 43.8519C16.1539 42.934 15.3641 42.2274 14.4019 41.8822C13.4398 41.537 12.3809 41.5804 11.4502 42.0031C10.5195 42.4258 9.79015 43.1946 9.417 44.1463C9.04384 45.0979 9.05626 46.1576 9.4516 47.1003ZM42.1487 47.081C42.4588 47.7601 42.9635 48.3319 43.5988 48.7241C44.234 49.1162 44.9714 49.311 45.7175 49.2838C46.3571 49.2923 46.9888 49.1418 47.5559 48.8458C48.123 48.5498 48.6077 48.1176 48.9664 47.588C49.3251 47.0583 49.5467 46.4478 49.6111 45.8114C49.6756 45.175 49.5809 44.5325 49.3356 43.9417V43.9389L49.3338 43.9362C49.0556 43.2124 48.557 42.5945 47.9083 42.1698C47.2596 41.745 46.4938 41.5351 45.7193 41.5695C45.0647 41.5647 44.4195 41.7249 43.8433 42.0354C43.267 42.3459 42.7784 42.7967 42.4225 43.3461C42.0666 43.8954 41.8549 44.5257 41.8071 45.1785C41.7592 45.8313 41.8767 46.4856 42.1487 47.081ZM51.4431 46.3248H55.6327C56.5634 46.3148 56.2914 45.1199 56.3266 44.5331C55.1754 44.5365 52.565 44.5272 51.4432 44.5276C51.5348 45.1232 51.5347 45.7292 51.4431 46.3248ZM36.802 46.3248H39.9935C39.902 45.7292 39.902 45.1232 39.9935 44.5276H36.8021L36.802 46.3248ZM18.7222 46.3248H34.927V44.5313H18.7223C18.8086 45.126 18.8085 45.7301 18.7222 46.3248ZM3.67285 44.5313C3.7087 45.099 3.43926 46.3284 4.34671 46.3248H7.29102C7.19946 45.7304 7.19946 45.1256 7.29102 44.5313L3.67285 44.5313ZM54.1825 42.6525H56.323V40.0113H54.7501C54.5997 40.0114 54.4555 40.0711 54.3491 40.1773C54.2427 40.2836 54.1828 40.4277 54.1825 40.578L54.1825 42.6525ZM50.8206 42.6525H52.3075V40.578C52.3082 39.9305 52.5658 39.3097 53.0237 38.8519C53.4817 38.3941 54.1026 38.1367 54.7501 38.1363H56.3266V35.5326C56.3262 35.1266 56.1648 34.7374 55.8779 34.4503C55.5909 34.1631 55.2018 34.0015 54.7958 34.0009C53.8983 34.0002 53.0377 33.6434 52.403 33.0088C51.7683 32.3742 51.4113 31.5137 51.4104 30.6162C51.569 29.7727 51.5424 28.9048 51.3327 28.0726C51.1229 27.2404 50.7349 26.4637 50.1954 25.7962C49.6559 25.1286 48.9779 24.5863 48.2082 24.2065C47.4385 23.8268 46.5956 23.6188 45.7376 23.5969H36.8058V42.6526H40.6162C41.1344 41.7583 41.8785 41.016 42.774 40.4999C43.6695 39.9838 44.6849 39.7122 45.7184 39.7122C46.752 39.7122 47.7674 39.9838 48.6629 40.4999C49.5584 41.016 50.3025 41.7583 50.8206 42.6525ZM18.107 42.6525H34.9271C34.9262 39.1852 34.9279 21.0441 34.9308 18.0184C34.9304 17.8346 34.8572 17.6584 34.7271 17.5285C34.597 17.3986 34.4207 17.3255 34.2369 17.3254H25.2207C25.1688 18.325 24.9866 19.3136 24.6787 20.266C25.6008 21.3206 27.7859 22.6302 26.7167 24.2788L32.5431 30.1061C33.096 30.6596 33.4065 31.41 33.4063 32.1923C33.4061 32.9746 33.0952 33.7248 32.542 34.278C31.9888 34.8312 31.2386 35.1421 30.4563 35.1423C29.674 35.1425 28.9236 34.832 28.3701 34.2791L22.5437 28.4518C20.9202 29.5129 19.6079 27.373 18.5758 26.4578C12.5243 28.5399 5.33313 23.8583 5.44351 17.3254C4.86468 17.3605 3.66601 17.0924 3.67475 18.0185V42.6525H7.90988C8.42656 41.7575 9.16975 41.0142 10.0647 40.4975C10.9597 39.9807 11.975 39.7086 13.0085 39.7087C14.042 39.7087 15.0572 39.9807 15.9522 40.4975C16.8472 41.0143 17.5904 41.7575 18.107 42.6525ZM23.9022 27.1582L29.6957 32.9526C29.8987 33.1476 30.1701 33.2552 30.4515 33.2523C30.733 33.2495 31.0021 33.1365 31.2012 32.9375C31.4003 32.7386 31.5135 32.4695 31.5165 32.188C31.5195 31.9066 31.4121 31.6352 31.2173 31.432L25.4238 25.6376L23.9022 27.1582ZM20.3904 25.6201L21.6429 26.8735C22.0184 26.2633 24.6693 23.7985 25.1383 23.2709L23.8987 22.0908C23.0546 23.5512 21.8457 24.7674 20.3904 25.6201ZM13.7967 24.8493C23.0067 26.6227 27.1929 13.7577 18.6891 9.90048C8.26799 5.13879 1.98038 21.7748 13.7967 24.8493ZM45.7157 48.1705C45.3375 48.1811 44.9614 48.1119 44.6117 47.9675C44.262 47.8231 43.9466 47.6068 43.686 47.3325C43.4254 47.0583 43.2254 46.7323 43.0991 46.3757C42.9728 46.0191 42.9229 45.6399 42.9528 45.2627C43.0132 44.5452 43.3507 43.8795 43.8938 43.4067C44.4369 42.9338 45.1427 42.6912 45.8617 42.7301C46.5807 42.769 47.2563 43.0864 47.7452 43.6151C48.234 44.1438 48.4977 44.8421 48.4804 45.5619C48.4582 46.2739 48.1548 46.9482 47.6366 47.437C47.1185 47.9259 46.4278 48.1897 45.7157 48.1705ZM44.8221 45.4275C44.8168 45.5451 44.8365 45.6625 44.8799 45.7719C44.9233 45.8814 44.9893 45.9803 45.0738 46.0624C45.1582 46.1444 45.2591 46.2076 45.3697 46.2477C45.4804 46.2879 45.5983 46.3042 45.7157 46.2954C45.8315 46.2982 45.9467 46.2779 46.0545 46.2355C46.1623 46.1931 46.2605 46.1296 46.3434 46.0487C46.4263 45.9677 46.4922 45.8711 46.5371 45.7643C46.5821 45.6576 46.6053 45.5429 46.6053 45.4271C46.6053 45.3112 46.5821 45.1966 46.5371 45.0898C46.4922 44.9831 46.4263 44.8864 46.3434 44.8055C46.2605 44.7246 46.1623 44.6611 46.0545 44.6187C45.9467 44.5763 45.8315 44.5559 45.7157 44.5587C45.5982 44.55 45.4802 44.5663 45.3695 44.6065C45.2589 44.6468 45.158 44.7101 45.0735 44.7922C44.9891 44.8743 44.923 44.9734 44.8797 45.0829C44.8363 45.1924 44.8167 45.3099 44.8221 45.4275ZM13.002 48.1705C12.2757 48.1686 11.5797 47.8787 11.0668 47.3645C10.5539 46.8502 10.2658 46.1535 10.2658 45.4271C10.2658 44.7008 10.5539 44.0041 11.0668 43.4898C11.5797 42.9755 12.2757 42.6856 13.002 42.6838C13.7284 42.6856 14.4243 42.9755 14.9373 43.4898C15.4502 44.0041 15.7383 44.7008 15.7383 45.4271C15.7383 46.1535 15.4502 46.8502 14.9373 47.3645C14.4243 47.8787 13.7284 48.1686 13.002 48.1705ZM12.1066 45.4275C12.1014 45.5453 12.1212 45.6628 12.1647 45.7723C12.2082 45.8818 12.2745 45.9808 12.3591 46.0628C12.4437 46.1449 12.5448 46.208 12.6556 46.2481C12.7664 46.2882 12.8845 46.3043 13.002 46.2954C13.1177 46.298 13.2327 46.2775 13.3403 46.235C13.4479 46.1925 13.5459 46.129 13.6286 46.0481C13.7114 45.9672 13.7771 45.8706 13.822 45.7639C13.8668 45.6573 13.8899 45.5428 13.8899 45.4271C13.8899 45.3114 13.8668 45.1968 13.822 45.0902C13.7771 44.9836 13.7114 44.887 13.6286 44.8061C13.5459 44.7252 13.4479 44.6616 13.3403 44.6192C13.2327 44.5767 13.1177 44.5561 13.002 44.5587C12.8845 44.5501 12.7664 44.5664 12.6557 44.6067C12.5449 44.6469 12.4439 44.7101 12.3593 44.7922C12.2748 44.8743 12.2085 44.9733 12.165 45.0828C12.1214 45.1923 12.1015 45.3098 12.1066 45.4275ZM41.8612 36.1129C40.8727 36.0072 38.9837 36.5625 38.9371 35.1754C38.9831 33.7892 40.8709 34.3433 41.8613 34.2379C42.1069 34.2425 42.341 34.3432 42.5131 34.5186C42.6852 34.6939 42.7817 34.9298 42.7817 35.1755C42.7817 35.4212 42.6853 35.657 42.5131 35.8324C42.341 36.0077 42.1069 36.1084 41.8612 36.1129ZM47.7865 32.7209H39.8746C39.7515 32.721 39.6295 32.6968 39.5158 32.6497C39.402 32.6026 39.2986 32.5336 39.2115 32.4465C39.1245 32.3594 39.0554 32.256 39.0083 32.1423C38.9612 32.0285 38.937 31.9066 38.9371 31.7834V26.2875C38.937 26.1644 38.9612 26.0425 39.0083 25.9287C39.0554 25.8149 39.1245 25.7115 39.2115 25.6245C39.2986 25.5374 39.402 25.4683 39.5158 25.4212C39.6295 25.3742 39.7515 25.35 39.8746 25.35H45.2615C46.1796 25.3511 47.0599 25.7164 47.709 26.3657C48.3582 27.015 48.7232 27.8953 48.724 28.8135V31.7835C48.7241 31.9066 48.6999 32.0285 48.6528 32.1423C48.6057 32.2561 48.5367 32.3594 48.4496 32.4465C48.3625 32.5336 48.2592 32.6026 48.1454 32.6497C48.0317 32.6968 47.9097 32.721 47.7865 32.7209ZM40.812 30.8459H46.849V28.8134C46.8487 28.3924 46.6814 27.9887 46.3838 27.6909C46.0861 27.3931 45.6825 27.2255 45.2615 27.225H40.8121L40.812 30.8459ZM14.8789 19.7378C14.3495 19.9171 12.4974 17.6353 11.6708 16.918C10.7985 16.0713 12.1491 14.719 12.9966 15.5924L14.8789 17.4747L18.0118 14.3409C18.8583 13.469 20.2109 14.8188 19.3374 15.6666L15.5417 19.4632C15.4547 19.5503 15.3514 19.6194 15.2376 19.6665C15.1239 19.7137 15.002 19.7379 14.8789 19.7378Z" fill="#FFC825"/>
</svg>
