<svg width="60" height="60" viewBox="0 0 60 60" fill="none" xmlns="http://www.w3.org/2000/svg">
<path d="M15.9375 31.875C15.4404 31.8755 14.9637 32.0732 14.6122 32.4247C14.2607 32.7762 14.063 33.2529 14.0625 33.75V53.4375C14.063 53.9346 14.2607 54.4113 14.6122 54.7628C14.9637 55.1143 15.4404 55.312 15.9375 55.3125H19.7823C19.9983 56.3711 20.5735 57.3226 21.4104 58.0059C22.2473 58.6893 23.2946 59.0625 24.375 59.0625C25.4554 59.0625 26.5027 58.6893 27.3396 58.0059C28.1765 57.3226 28.7517 56.3711 28.9677 55.3125H43.2198C43.4358 56.3711 44.011 57.3226 44.8479 58.0059C45.6848 58.6893 46.7321 59.0625 47.8125 59.0625C48.8929 59.0625 49.9402 58.6893 50.7771 58.0059C51.614 57.3226 52.1892 56.3711 52.4052 55.3125H55.3125C56.0582 55.3117 56.7731 55.0151 57.3003 54.4878C57.8276 53.9606 58.1242 53.2457 58.125 52.5V45.5905C58.1225 45.0133 57.9459 44.4503 57.6183 43.9751L51.9498 35.8759C51.688 35.5097 51.343 35.211 50.9432 35.0044C50.5433 34.7978 50.1001 34.6892 49.65 34.6875H41.25V33.75C41.2495 33.2529 41.0518 32.7762 40.7003 32.4247C40.3488 32.0732 39.8721 31.8755 39.375 31.875H15.9375ZM24.375 57.1875C23.8187 57.1875 23.275 57.0225 22.8125 56.7135C22.3499 56.4045 21.9895 55.9652 21.7766 55.4513C21.5637 54.9374 21.508 54.3719 21.6165 53.8263C21.7251 53.2807 21.9929 52.7796 22.3863 52.3863C22.7796 51.9929 23.2807 51.7251 23.8263 51.6165C24.3719 51.508 24.9374 51.5637 25.4513 51.7766C25.9652 51.9895 26.4045 52.3499 26.7135 52.8125C27.0226 53.275 27.1875 53.8187 27.1875 54.375C27.1867 55.1207 26.8901 55.8356 26.3628 56.3628C25.8356 56.8901 25.1207 57.1867 24.375 57.1875ZM39.375 53.4375H28.9677C28.7517 52.3789 28.1765 51.4274 27.3396 50.7441C26.5027 50.0607 25.4554 49.6875 24.375 49.6875C23.2946 49.6875 22.2473 50.0607 21.4104 50.7441C20.5735 51.4274 19.9983 52.3789 19.7823 53.4375H15.9375V33.75H39.375V53.4375ZM47.8125 57.1875C47.2562 57.1875 46.7125 57.0225 46.25 56.7135C45.7874 56.4045 45.427 55.9652 45.2141 55.4513C45.0012 54.9374 44.9455 54.3719 45.054 53.8263C45.1626 53.2807 45.4304 52.7796 45.8238 52.3863C46.2171 51.9929 46.7182 51.7251 47.2638 51.6165C47.8094 51.508 48.3749 51.5637 48.8888 51.7766C49.4027 51.9895 49.842 52.3499 50.151 52.8125C50.46 53.275 50.625 53.8187 50.625 54.375C50.6242 55.1207 50.3276 55.8356 49.8003 56.3628C49.2731 56.8901 48.5582 57.1867 47.8125 57.1875ZM52.1102 39.375L54.7349 43.125H45.9375V39.375H52.1102ZM41.25 36.5625H49.65C49.8005 36.5633 49.9486 36.5997 50.0823 36.6687C50.2161 36.7377 50.3316 36.8373 50.4195 36.9594L50.7979 37.5H45C44.7514 37.5 44.5129 37.5988 44.3371 37.7746C44.1613 37.9504 44.0625 38.1889 44.0625 38.4375V44.0625C44.0625 44.3111 44.1613 44.5496 44.3371 44.7254C44.5129 44.9012 44.7514 45 45 45H56.0472L56.0738 45.038C56.1865 45.2004 56.2479 45.3928 56.25 45.5905V52.5C56.2497 52.7485 56.1508 52.9868 55.9751 53.1626C55.7993 53.3383 55.5611 53.4372 55.3125 53.4375H52.4052C52.1892 52.3789 51.614 51.4274 50.7771 50.7441C49.9402 50.0607 48.8929 49.6875 47.8125 49.6875C46.7321 49.6875 45.6848 50.0607 44.8479 50.7441C44.011 51.4274 43.4358 52.3789 43.2198 53.4375H41.25V36.5625Z" fill="#FFC825"/>
<path d="M1.875 37.5H12.1875V39.375H1.875V37.5Z" fill="#FFC825"/>
<path d="M3.75 43.125H12.1875V45H3.75V43.125Z" fill="#FFC825"/>
<path d="M5.625 48.75H12.1875V50.625H5.625V48.75Z" fill="#FFC825"/>
<path d="M11.25 21.5625C11.3939 21.5624 11.5359 21.5293 11.6649 21.4656C11.794 21.402 11.9067 21.3095 11.9944 21.1954C12.6855 20.2931 18.75 12.2694 18.75 8.4375C18.75 6.44838 17.9598 4.54072 16.5533 3.1342C15.1468 1.72768 13.2391 0.9375 11.25 0.9375C9.26088 0.9375 7.35322 1.72768 5.9467 3.1342C4.54018 4.54072 3.75 6.44838 3.75 8.4375C3.75 12.2694 9.81445 20.2931 10.5057 21.1954C10.5933 21.3095 10.706 21.402 10.8351 21.4656C10.9641 21.5293 11.1061 21.5624 11.25 21.5625ZM11.25 2.8125C12.7413 2.81413 14.1711 3.40729 15.2257 4.46183C16.2802 5.51636 16.8734 6.94616 16.875 8.4375C16.875 10.8238 13.3113 16.2209 11.25 19.0553C9.18869 16.2209 5.625 10.8238 5.625 8.4375C5.62663 6.94616 6.21979 5.51636 7.27433 4.46183C8.32886 3.40729 9.75866 2.81413 11.25 2.8125Z" fill="#FFC825"/>
<path d="M15.4688 8.4375C15.4688 7.60311 15.2213 6.78746 14.7578 6.09369C14.2942 5.39992 13.6353 4.85919 12.8644 4.53989C12.0936 4.22058 11.2453 4.13703 10.427 4.29981C9.60861 4.4626 8.8569 4.86439 8.2669 5.45439C7.67689 6.0444 7.2751 6.79611 7.11231 7.61446C6.94953 8.43282 7.03308 9.28107 7.35239 10.0519C7.67169 10.8228 8.21242 11.4817 8.90619 11.9453C9.59996 12.4088 10.4156 12.6563 11.25 12.6563C12.3685 12.655 13.4409 12.2102 14.2318 11.4193C15.0227 10.6284 15.4675 9.55601 15.4688 8.4375ZM8.90625 8.4375C8.90625 7.97395 9.04371 7.52081 9.30124 7.13538C9.55878 6.74996 9.92482 6.44955 10.3531 6.27216C10.7814 6.09477 11.2526 6.04835 11.7072 6.13879C12.1619 6.22922 12.5795 6.45244 12.9073 6.78022C13.2351 7.108 13.4583 7.52562 13.5487 7.98026C13.6392 8.4349 13.5927 8.90615 13.4153 9.33442C13.238 9.76268 12.9375 10.1287 12.5521 10.3863C12.1667 10.6438 11.7136 10.7813 11.25 10.7813C10.6286 10.7805 10.0329 10.5334 9.59353 10.094C9.15415 9.6546 8.90698 9.05888 8.90625 8.4375Z" fill="#FFC825"/>
<path d="M48.75 23.4375C48.8939 23.4374 49.0359 23.4043 49.1649 23.3406C49.294 23.277 49.4067 23.1845 49.4944 23.0704C50.1855 22.1681 56.25 14.1444 56.25 10.3125C56.25 8.32338 55.4598 6.41572 54.0533 5.0092C52.6468 3.60268 50.7391 2.8125 48.75 2.8125C46.7609 2.8125 44.8532 3.60268 43.4467 5.0092C42.0402 6.41572 41.25 8.32338 41.25 10.3125C41.25 14.1444 47.3145 22.1681 48.0056 23.0704C48.0933 23.1845 48.206 23.277 48.3351 23.3406C48.4641 23.4043 48.6061 23.4374 48.75 23.4375ZM48.75 4.6875C50.2413 4.68913 51.6711 5.28229 52.7257 6.33683C53.7802 7.39136 54.3734 8.82116 54.375 10.3125C54.375 12.6988 50.8113 18.0959 48.75 20.9303C46.6887 18.0959 43.125 12.6988 43.125 10.3125C43.1266 8.82116 43.7198 7.39136 44.7743 6.33683C45.8289 5.28229 47.2587 4.68913 48.75 4.6875Z" fill="#FFC825"/>
<path d="M52.9688 10.3125C52.9688 9.47811 52.7213 8.66246 52.2578 7.96869C51.7942 7.27492 51.1353 6.73419 50.3644 6.41489C49.5936 6.09558 48.7453 6.01203 47.927 6.17481C47.1086 6.3376 46.3569 6.73939 45.7669 7.32939C45.1769 7.9194 44.7751 8.67111 44.6123 9.48946C44.4495 10.3078 44.5331 11.1561 44.8524 11.9269C45.1717 12.6978 45.7124 13.3567 46.4062 13.8203C47.1 14.2838 47.9156 14.5313 48.75 14.5313C49.8685 14.53 50.9409 14.0852 51.7318 13.2943C52.5227 12.5034 52.9675 11.431 52.9688 10.3125ZM46.4063 10.3125C46.4063 9.84895 46.5437 9.39581 46.8012 9.01038C47.0588 8.62496 47.4248 8.32455 47.8531 8.14716C48.2814 7.96977 48.7526 7.92335 49.2072 8.01379C49.6619 8.10422 50.0795 8.32744 50.4073 8.65522C50.7351 8.983 50.9583 9.40062 51.0487 9.85526C51.1391 10.3099 51.0927 10.7812 50.9153 11.2094C50.738 11.6377 50.4375 12.0037 50.0521 12.2613C49.6667 12.5188 49.2136 12.6563 48.75 12.6563C48.1286 12.6555 47.5329 12.4084 47.0935 11.969C46.6541 11.5296 46.407 10.9339 46.4063 10.3125Z" fill="#FFC825"/>
<path d="M44.6986 26.2499C45.3582 26.2477 46.0172 26.2092 46.6725 26.1346L46.4623 24.2715C45.8756 24.3381 45.2858 24.3727 44.6953 24.3751L44.6986 26.2499Z" fill="#FFC825"/>
<path d="M42.9487 24.2681C42.3744 24.1944 41.8063 24.0783 41.2491 23.9209L40.7354 25.724C41.3815 25.9068 42.0402 26.0418 42.7061 26.1278L42.9487 24.2681Z" fill="#FFC825"/>
<path d="M39.6358 23.3179C39.115 23.073 38.6148 22.7865 38.1401 22.4612L37.0889 24.0137C37.645 24.3942 38.2307 24.7294 38.8404 25.0162L39.6358 23.3179Z" fill="#FFC825"/>
<path d="M17.7668 20.3601C17.1738 20.5326 16.564 20.7256 15.9375 20.9391L16.5463 22.7131C17.1428 22.5083 17.7243 22.324 18.2909 22.1601L17.7668 20.3601Z" fill="#FFC825"/>
<path d="M36.6574 21.3788C36.1244 20.9779 35.5648 20.6139 34.9822 20.2893L34.084 21.9357C34.5927 22.2192 35.0813 22.5377 35.546 22.8888L36.6574 21.3788Z" fill="#FFC825"/>
<path d="M21.8476 21.3146L21.5053 19.4714C20.9053 19.5826 20.2785 19.7153 19.625 19.8696L20.059 21.6935C20.6801 21.5458 21.2771 21.4208 21.8476 21.3146Z" fill="#FFC825"/>
<path d="M25.4669 20.8344L25.3175 18.9651C24.7354 19.0116 24.096 19.0772 23.4043 19.1691L23.6514 21.0277C24.308 20.9404 24.9151 20.8787 25.4669 20.8344Z" fill="#FFC825"/>
<path d="M32.5173 21.2568L33.1149 19.48C32.9306 19.4181 32.7385 19.3583 32.5386 19.3008C32.0855 19.1699 31.6255 19.0639 31.1607 18.9834L30.8418 20.8311C31.2399 20.9002 31.6339 20.9911 32.0221 21.1032C32.1943 21.1521 32.3594 21.2033 32.5173 21.2568Z" fill="#FFC825"/>
<path d="M29.1149 20.6694L29.1592 18.7952C28.5948 18.7816 27.9942 18.7947 27.2119 18.8371L27.3135 20.7094C28.0452 20.6695 28.6008 20.6574 29.1149 20.6694Z" fill="#FFC825"/>
</svg>
