<svg width="60" height="60" viewBox="0 0 60 60" fill="none" xmlns="http://www.w3.org/2000/svg">
<path d="M31.5 33C38.3926 33 44 27.1682 44 20C44 12.8318 38.3926 7 31.5 7C24.6074 7 19 12.8318 19 20C19 27.1682 24.6075 33 31.5 33ZM30.1937 14.3333V14.1793C30.1937 13.429 30.7786 12.8208 31.5 12.8208C32.2214 12.8208 32.8063 13.429 32.8063 14.1793V14.2759H32.8992C33.6207 14.2759 34.2056 14.8842 34.2056 15.6345C34.2056 16.3847 33.6207 16.993 32.8992 16.993H30.8003C30.3633 16.993 30.0078 17.3627 30.0078 17.8173C30.0078 18.2718 30.3633 18.6415 30.8003 18.6415H32.1997C34.0774 18.6415 35.6049 20.2301 35.6049 22.183C35.6049 23.9202 34.3955 25.3683 32.8064 25.6669V25.8208C32.8064 26.5711 32.2215 27.1794 31.5001 27.1794C30.7787 27.1794 30.1938 26.5711 30.1938 25.8208V25.7243H30.1008C29.3794 25.7243 28.7945 25.116 28.7945 24.3657C28.7945 23.6154 29.3794 23.0072 30.1008 23.0072H32.1997C32.6368 23.0072 32.9923 22.6374 32.9923 22.183C32.9923 21.7284 32.6368 21.3587 32.1997 21.3587H30.8005C28.9229 21.3587 27.3954 19.77 27.3954 17.8173C27.3954 16.08 28.6048 14.6319 30.1937 14.3333Z" fill="#FFC825"/>
<path d="M49.0963 14.8624L52.1991 13.4675C52.9145 13.1459 53.2045 12.3636 52.8468 11.7202C52.489 11.0769 51.6192 10.8161 50.9037 11.1377L47.8009 12.5327C47.0855 12.8543 46.7955 13.6366 47.1532 14.2799C47.5123 14.9257 48.3837 15.1826 49.0963 14.8624Z" fill="#FFC825"/>
<path d="M52.1991 25.5326L49.0963 24.1376C48.3812 23.8163 47.511 24.0768 47.1532 24.7201C46.7955 25.3635 47.0855 26.1458 47.8009 26.4674L50.9037 27.8624C51.6182 28.1834 52.4885 27.924 52.8468 27.2799C53.2045 26.6365 52.9145 25.8542 52.1991 25.5326Z" fill="#FFC825"/>
<path d="M14.3326 12.5328L11.7469 11.1377C11.1506 10.8161 10.4258 11.0769 10.1277 11.7202C9.82958 12.3636 10.0712 13.1458 10.6674 13.4674L13.2531 14.8624C13.847 15.1827 14.5731 14.9258 14.8723 14.2799C15.1704 13.6365 14.9288 12.8544 14.3326 12.5328Z" fill="#FFC825"/>
<path d="M13.2531 24.1376L10.6674 25.5326C10.0712 25.8542 9.82958 26.6365 10.1277 27.2799C10.4262 27.924 11.1515 28.1834 11.7469 27.8624L14.3326 26.4674C14.9288 26.1458 15.1704 25.3635 14.8723 24.7201C14.5742 24.0768 13.849 23.8163 13.2531 24.1376Z" fill="#FFC825"/>
<path d="M43.3893 36.3155L36.9107 42.907C36.1147 43.7159 35.0582 44.161 33.9352 44.161H29.0738C28.3525 44.161 27.7319 43.5971 27.6979 42.8641C27.6617 42.0815 28.2746 41.4354 29.0359 41.4354H33.3738C34.9587 41.4354 36.2433 40.1283 36.2433 38.516C36.2433 36.9037 34.9587 35.5965 33.3738 35.5965H24.6373C20.5737 35.5965 19.2861 39.0792 19.0727 39.9757H17V50H35.4714C37.1371 50 38.7035 49.3399 39.8823 48.141L49.6074 38.2463C50.1165 37.7285 50.1473 36.8668 49.6009 36.3124C47.8201 34.5051 45.0559 34.6199 43.3893 36.3155Z" fill="#636363"/>
<path d="M12.693 37H8.30706C7.58521 37 7 37.6154 7 38.3746V51.6254C7 52.3846 7.58521 53 8.30706 53H12.6929C13.4148 53 14 52.3846 14 51.6254V38.3746C14.0001 37.6154 13.4149 37 12.693 37Z" fill="#636363"/>
</svg>
