<svg width="41" height="41" viewBox="0 0 41 41" fill="none" xmlns="http://www.w3.org/2000/svg">
<path d="M11.1043 5.125C5.91511 5.125 1.70846 9.33166 1.70846 14.5208C1.70846 18.3536 3.7037 22.0621 6.68164 22.7777C7.83033 23.0538 8.74513 24.5279 8.54857 26.2107C8.28547 28.4631 6.24859 30.7387 2.21558 32.532C1.3176 32.9313 1.6936 34.2821 2.66874 34.1601C13.1794 32.8441 20.465 25.9919 20.5 16.2972C20.5001 9.62996 16.5611 5.125 11.1043 5.125Z" fill="#FFC825"/>
<path d="M31.6043 5.125C26.4151 5.125 22.2085 9.33166 22.2085 14.5208C22.2085 18.3536 24.2037 22.0621 27.1816 22.7777C28.3303 23.0538 29.2451 24.5279 29.0486 26.2107C28.7855 28.4631 26.7486 30.7387 22.7156 32.532C21.8176 32.9313 22.1936 34.2821 23.1687 34.1601C33.6794 32.8441 40.965 25.9919 41 16.2972C41.0001 9.62996 37.0611 5.125 31.6043 5.125Z" fill="#FFC825"/>
</svg>
