
<svg  xmlns="http://www.w3.org/2000/svg" xmlns:xlink="http://www.w3.org/1999/xlink" x="0px" y="0px"
	 viewBox="0 0 998 582" style="enable-background:new 0 0 998 582;" xml:space="preserve" fill="#fff">
<path class="st0" d="M0,499c0-8.7,3.3-16.3,10-23L476,10c6.7-6.7,14.3-10,23-10c8.7,0,16.3,3.3,23,10l466,466c6.7,6.7,10,14.3,10,23
	s-3.3,16.3-10,23l-50,50c-6.7,6.7-14.3,10-23,10c-8.7,0-16.3-3.3-23-10L499,179L106,572c-6.7,6.7-14.3,10-23,10s-16.3-3.3-23-10
	l-50-50C3.3,515.3,0,507.7,0,499z"/>
</svg>
