<svg width="60" height="60" viewBox="0 0 60 60" fill="none" xmlns="http://www.w3.org/2000/svg">
<path d="M26.4515 10.9444C26.4515 10.4267 26.8713 10.0069 27.389 10.0069H42.0511C42.5688 10.0069 42.9886 10.4267 42.9886 10.9444C42.9886 11.4622 42.5688 11.8819 42.0511 11.8819H27.389C26.8713 11.8819 26.4515 11.4623 26.4515 10.9444ZM18.7227 12.9438C18.9057 13.1268 19.1456 13.2183 19.3856 13.2183C19.6256 13.2183 19.8655 13.1268 20.0485 12.9438L22.9223 10.07C23.2885 9.7039 23.2884 9.11034 22.9223 8.74425C22.5562 8.37815 21.9627 8.37815 21.5966 8.74425L19.3857 10.9552L18.6117 10.1812C18.2456 9.81511 17.6521 9.81511 17.286 10.1812C16.9197 10.5473 16.9199 11.1408 17.286 11.5069L18.7227 12.9438ZM27.389 21.8812H42.0511C42.5688 21.8812 42.9886 21.4614 42.9886 20.9437C42.9886 20.426 42.5688 20.0062 42.0511 20.0062H27.389C26.8713 20.0062 26.4515 20.426 26.4515 20.9437C26.4515 21.4614 26.8713 21.8812 27.389 21.8812ZM18.7227 23.0435C18.9057 23.2265 19.1456 23.318 19.3856 23.318C19.6256 23.318 19.8655 23.2265 20.0485 23.0435L22.9223 20.1697C23.2885 19.8036 23.2884 19.21 22.9223 18.8439C22.5562 18.4778 21.9627 18.4778 21.5966 18.8439L19.3857 21.0549L18.6117 20.2809C18.2456 19.9148 17.6521 19.9148 17.286 20.2809C16.9197 20.647 16.9199 21.2405 17.286 21.6066L18.7227 23.0435ZM55.9065 39.6744L51.7608 42.0678C51.3314 42.3158 50.8541 42.4423 50.3696 42.4423C50.1255 42.4423 49.8798 42.4103 49.6373 42.3453C48.9138 42.1515 48.3099 41.6889 47.9372 41.0433L47.8237 40.8469L45.7265 41.9178C46.3536 42.912 46.2629 44.138 45.7119 45.0854C45.4349 45.5615 45.039 45.9718 44.5647 46.2551C44.8398 46.7054 44.9859 47.2216 44.9839 47.7713C44.9797 48.9107 44.3381 50.0126 43.3493 50.5787C42.7999 50.8931 42.1923 51.0151 41.584 50.9448C41.5528 51.4559 41.3954 51.9582 41.1382 52.3999C40.5942 53.3339 39.5927 54.0094 38.4409 53.9799C38.4286 54.532 38.2674 55.0784 37.9901 55.5546C37.4587 56.4666 36.492 57.1357 35.3731 57.1357C34.8635 57.1357 34.3222 56.9968 33.7762 56.6789L31.3003 55.2371L30.8187 55.9219C30.2153 56.7798 29.3311 57.2562 28.3619 57.2562C28.2731 57.2562 28.1836 57.2523 28.0935 57.2442C26.9819 57.1444 25.9584 56.4386 25.4665 55.4383C24.4222 55.978 23.2077 55.7816 22.3106 55.1506C21.7313 54.7432 21.2777 54.1499 21.0708 53.467C20.2096 53.6553 19.3074 53.4278 18.6016 52.9313C17.7225 52.3129 17.133 51.2664 17.2557 50.1281C16.703 50.0701 16.1685 49.8621 15.7149 49.5431C14.4582 48.6589 13.7937 46.8997 14.9553 45.2483L15.035 45.1349L11.9271 41.2538C11.5514 41.7891 11.0046 42.1734 10.3625 42.3454C10.1202 42.4105 9.8742 42.4424 9.63022 42.4424C9.14576 42.4424 8.66846 42.3159 8.23897 42.0679L4.09334 39.6744C2.7567 38.9028 2.29709 37.1875 3.06877 35.8508L10.3447 23.2484C10.5683 22.8612 10.8713 22.5481 11.2212 22.3167V3.6814C11.2212 3.16366 11.6409 2.7439 12.1587 2.7439H47.8411C48.3588 2.7439 48.7786 3.16366 48.7786 3.6814V22.3167C49.1284 22.548 49.4315 22.8611 49.655 23.2483L56.931 35.8507C57.7026 37.1875 57.243 38.9027 55.9065 39.6744ZM13.0962 4.6189V21.8684C13.4635 21.9112 13.8282 22.0275 14.1683 22.2239L18.314 24.6174C18.9597 24.9902 19.4222 25.5939 19.616 26.3176C19.7368 26.7686 19.744 27.2315 19.642 27.6726L24.8397 29.5293C27.0321 27.5697 28.6493 26.8735 31.9853 27.6078C35.1126 28.2963 37.7359 28.3026 40.3459 27.6158C40.2572 27.1918 40.2678 26.7493 40.3836 26.3174C40.5774 25.5938 41.0399 24.99 41.6857 24.6173L45.8313 22.2237C46.1714 22.0273 46.5361 21.9112 46.9035 21.8684V4.6189H13.0962ZM10.4388 40.1058L17.7147 27.5035C17.8371 27.2915 17.8692 27.0427 17.805 26.803C17.7408 26.5632 17.5885 26.3636 17.3765 26.2413L13.2309 23.8477C13.0858 23.7639 12.9271 23.7241 12.7704 23.7241C12.4507 23.7241 12.1396 23.8899 11.9686 24.1859L4.69264 36.7883C4.43787 37.2296 4.58963 37.7958 5.03084 38.0505L9.17658 40.4442C9.38869 40.5666 9.6376 40.5987 9.87725 40.5343C10.117 40.4701 10.3165 40.318 10.4388 40.1058ZM18.4803 47.7284L20.6349 44.6653L20.6353 44.6647C21.29 43.7307 20.4943 43.1008 20.3281 42.984C20.1619 42.867 19.2992 42.3315 18.6419 43.2659L16.4888 46.3267C15.8313 47.2616 16.6275 47.8924 16.7938 48.0093C16.9599 48.1264 17.8221 48.6622 18.4797 47.7291L18.4803 47.7284ZM21.5501 50.856L24.5599 46.5771L25.0175 45.9264C25.6751 44.9916 24.8788 44.3608 24.7125 44.2439C24.5461 44.1268 23.6832 43.5907 23.0256 44.5253L22.1693 45.7428C22.1692 45.743 22.169 45.7431 22.1689 45.7434L22.1686 45.744L20.014 48.8071L19.3754 49.715C18.7179 50.6499 19.5142 51.2807 19.6805 51.3977C19.8467 51.5145 20.7097 52.0505 21.3672 51.1161L21.5501 50.856ZM25.7574 52.3664C25.7581 52.3654 25.7588 52.3645 25.7596 52.3635L26.8392 50.8285L28.0846 49.058C28.7419 48.1235 27.9459 47.4926 27.7797 47.3756C27.6137 47.2589 26.7519 46.7228 26.0945 47.6546L26.0935 47.656L23.0838 51.9349L23.0832 51.9358C22.4273 52.8699 23.223 53.5003 23.3893 53.6172C23.5556 53.7342 24.4186 54.2704 25.076 53.3356L25.7574 52.3664ZM30.0593 51.6258C29.893 51.5088 29.0306 50.9729 28.3733 51.9066L28.3728 51.9073L27.2932 53.4424C27.0187 53.8326 26.9662 54.2176 27.1373 54.5866C27.3337 55.0101 27.7958 55.3352 28.2608 55.3768C28.6658 55.4131 29.0104 55.2336 29.285 54.8433L30.3646 53.3085C31.0219 52.3737 30.2256 51.7428 30.0593 51.6258ZM43.6657 42.4866L32.0727 35.7761C31.0305 35.1742 30.0003 35.608 28.4056 36.3649C28.3282 36.4016 28.2508 36.4384 28.1733 36.4749C28.0569 36.7086 27.9395 36.9595 27.8172 37.2206C27.2151 38.5071 26.5326 39.965 25.3521 40.6023C23.9626 41.3521 22.7226 41.4666 21.8606 40.9243C21.4638 40.6746 20.8078 40.0539 20.8719 38.7018L21.1201 33.4764C21.1313 33.2383 21.2331 33.0134 21.4044 32.8475C21.892 32.3753 22.3295 31.9442 22.7526 31.5274C22.9461 31.3368 23.1323 31.1534 23.3141 30.9753L18.8052 29.3646L12.9416 39.5207L16.1583 43.5377L17.1083 42.187C18.2695 40.5358 20.1494 40.5665 21.4063 41.4496C21.8154 41.7371 22.1618 42.1173 22.403 42.5562C23.4953 41.8556 24.8267 42.0316 25.7912 42.71C26.6005 43.2792 27.1643 44.2114 27.1531 45.2438C27.764 45.2745 28.3604 45.4911 28.8589 45.8419C29.971 46.6246 30.6192 48.0924 29.9482 49.5644C30.3746 49.659 30.7814 49.841 31.1381 50.092C32.2086 50.8451 32.8486 52.2328 32.2977 53.648L34.7197 55.0584C35.7075 55.6333 36.2676 54.7863 36.3699 54.6106C36.4722 54.4351 36.9323 53.5306 35.9471 52.9551L35.9458 52.9543C35.9457 52.9542 35.9457 52.9542 35.9455 52.954C35.9455 52.954 35.9455 52.954 35.9454 52.954L32.8244 51.1369C32.377 50.8764 32.2255 50.3026 32.486 49.8551C32.7465 49.4077 33.3204 49.2563 33.7679 49.5167L36.8888 51.3339C36.889 51.334 36.8892 51.334 36.8893 51.3342L36.8897 51.3344C36.8904 51.3348 36.8911 51.3352 36.8918 51.3356L37.8677 51.904C38.8553 52.4789 39.4155 51.6318 39.5179 51.4563C39.6203 51.2806 40.0802 50.3762 39.095 49.8007L39.0936 49.7998C39.0935 49.7998 39.0935 49.7997 39.0934 49.7997C39.0931 49.7996 39.0929 49.7994 39.0927 49.7992L35.2667 47.5715C34.8193 47.311 34.6678 46.7371 34.9283 46.2897C35.1889 45.8423 35.7628 45.6909 36.2102 45.9513L40.0372 48.1796L40.0374 48.1797C40.0383 48.1802 40.0388 48.1805 40.0395 48.181L41.2644 48.8942C41.6769 49.1344 42.0649 49.1535 42.4179 48.9515C42.8231 48.7196 43.1073 48.2314 43.1089 47.7645C43.1104 47.3578 42.9021 47.0298 42.4897 46.7896L41.5004 46.2135C41.5002 46.2134 41.4998 46.2133 41.4996 46.2131L41.4988 46.2126C41.4986 46.2125 41.4984 46.2124 41.4983 46.2123L37.7092 44.0061C37.2617 43.7456 37.1102 43.1717 37.3707 42.7243C37.6313 42.2769 38.2051 42.1255 38.6526 42.3858L42.4418 44.592C43.4295 45.1658 43.989 44.3185 44.0912 44.1428C44.1931 43.9671 44.6529 43.0616 43.6657 42.4866ZM46.8849 39.221L41.176 29.3327C37.2387 30.4442 33.8417 29.9364 31.5822 29.439C28.2814 28.7128 27.4727 29.5095 24.0687 32.8633C23.7367 33.1904 23.3683 33.5532 22.9754 33.9357L22.7448 38.7911C22.7297 39.1094 22.7913 39.2949 22.8592 39.3376C23.0177 39.4372 23.5932 39.4212 24.4615 38.9525C25.0971 38.6094 25.64 37.4494 26.1191 36.4259C26.2929 36.0544 26.4728 35.6705 26.6579 35.3217C26.7541 35.1406 26.9071 34.9961 27.0933 34.9101C27.263 34.8318 27.4324 34.7514 27.6015 34.671C29.2237 33.9009 31.0624 33.028 33.0111 34.1528L44.1655 40.6094L46.8849 39.221ZM55.3071 36.7882L48.0313 24.1859C47.7765 23.7446 47.2101 23.593 46.7689 23.8477L42.6232 26.2413C42.4112 26.3636 42.2591 26.5632 42.1947 26.803C42.1305 27.0427 42.1625 27.2915 42.285 27.5035L49.5609 40.106C49.6833 40.318 49.8828 40.4701 50.1226 40.5343C50.3626 40.599 50.6111 40.5666 50.8231 40.4442L54.969 38.0506C55.4102 37.7958 55.562 37.2295 55.3071 36.7882Z" fill="#FFC825"/>
</svg>
