<svg width="60" height="60" viewBox="0 0 60 60" fill="none" xmlns="http://www.w3.org/2000/svg">
<path fill-rule="evenodd" clip-rule="evenodd" d="M30.0744 15.4064V18.5402C30.0744 18.6289 30.057 18.7166 30.0231 18.7985C29.9892 18.8805 29.9394 18.9549 29.8768 19.0176C29.8141 19.0803 29.7397 19.13 29.6578 19.1639C29.5758 19.1979 29.4881 19.2153 29.3994 19.2153H26.6441C26.5554 19.2153 26.4677 19.1979 26.3858 19.1639C26.3039 19.13 26.2294 19.0803 26.1668 19.0176C26.1041 18.9549 26.0544 18.8805 26.0204 18.7985C25.9865 18.7166 25.9691 18.6289 25.9691 18.5402V15.4064H20.6338V28.1164H35.4097V15.4064H30.0744Z" fill="#FDC212"/>
<path d="M27.3193 15.4067H28.7245V17.8657H27.3193V15.4067Z" fill="#FDC212"/>
<path fill-rule="evenodd" clip-rule="evenodd" d="M13.9483 15.4064V18.5402C13.9483 18.6289 13.9309 18.7166 13.897 18.7985C13.8631 18.8805 13.8133 18.9549 13.7507 19.0176C13.688 19.0803 13.6136 19.13 13.5317 19.1639C13.4498 19.1979 13.362 19.2153 13.2733 19.2153H10.5181C10.3392 19.2152 10.1677 19.144 10.0413 19.0175C9.91484 18.891 9.84377 18.7194 9.84371 18.5406V15.4064H4.50781V28.1164H19.2836V15.4064H13.9483Z" fill="#FDC212"/>
<path d="M11.1934 15.4067H12.5986V17.8657H11.1934V15.4067Z" fill="#FDC212"/>
<path fill-rule="evenodd" clip-rule="evenodd" d="M55.6939 34.4385H53.3521C52.9903 34.4379 52.6435 34.2939 52.3876 34.0381C52.1317 33.7822 51.9877 33.4354 51.9871 33.0736V31.4764C51.9877 31.1146 52.1317 30.7678 52.3876 30.512C52.6435 30.2561 52.9903 30.1122 53.3521 30.1116H55.6939V25.7088L49.8502 15H39.2178V38.4844H43.2249C45.3822 34.5938 50.989 34.5938 53.1463 38.4844H55.6939V34.4385ZM41.6061 26.742V18.0633C41.6061 17.8843 41.6772 17.7126 41.8038 17.586C41.9303 17.4594 42.102 17.3883 42.2811 17.3883L48.0292 17.3906C48.1502 17.3907 48.2689 17.4234 48.3728 17.4852C48.4768 17.5471 48.5621 17.6359 48.6198 17.7422L53.1931 26.123C53.4805 26.5992 53.2768 27.4175 52.6306 27.4175H42.2814C42.1927 27.4176 42.1048 27.4001 42.0228 27.3662C41.9409 27.3323 41.8664 27.2825 41.8037 27.2198C41.7409 27.157 41.6912 27.0825 41.6573 27.0005C41.6234 26.9185 41.606 26.8307 41.6061 26.742Z" fill="#636363"/>
<path fill-rule="evenodd" clip-rule="evenodd" d="M55.6936 31.4615L53.3418 31.4664V33.0835L55.6936 33.0885V31.4615Z" fill="#636363"/>
<path fill-rule="evenodd" clip-rule="evenodd" d="M37.8681 29.4666H3.36914V38.484H5.99145C8.14887 34.5934 13.7555 34.5934 15.9129 38.484H37.8681V29.4666Z" fill="#636363"/>
<path fill-rule="evenodd" clip-rule="evenodd" d="M42.9561 18.7383V26.067H51.6304L47.6312 18.7383H42.9561Z" fill="#636363"/>
<path fill-rule="evenodd" clip-rule="evenodd" d="M42.6899 39.834H16.4473C16.5823 40.3687 16.6388 40.9203 16.6151 41.4713H42.522C42.4983 40.9203 42.5548 40.3687 42.6899 39.834Z" fill="#636363"/>
<path fill-rule="evenodd" clip-rule="evenodd" d="M53.8486 41.4713H57.3056C57.5227 41.4713 57.731 41.3851 57.8845 41.2315C58.038 41.078 58.1243 40.8698 58.1243 40.6527C58.1243 40.4355 58.038 40.2273 57.8845 40.0738C57.731 39.9202 57.5227 39.834 57.3056 39.834H53.6807C53.8157 40.3687 53.8723 40.9203 53.8486 41.4713Z" fill="#636363"/>
<path fill-rule="evenodd" clip-rule="evenodd" d="M5.45602 39.834H2.69367C2.47655 39.834 2.26831 39.9202 2.11478 40.0738C1.96125 40.2273 1.875 40.4355 1.875 40.6527C1.875 40.8698 1.96125 41.078 2.11478 41.2315C2.26831 41.3851 2.47655 41.4713 2.69367 41.4713H5.2882C5.2645 40.9203 5.32102 40.3687 5.45602 39.834Z" fill="#636363"/>
<path fill-rule="evenodd" clip-rule="evenodd" d="M51.2397 38.1751C50.6357 37.5711 49.8662 37.1598 49.0284 36.9931C48.1907 36.8265 47.3223 36.912 46.5332 37.2389C45.7441 37.5658 45.0696 38.1193 44.595 38.8295C44.1205 39.5397 43.8672 40.3747 43.8672 41.2289C43.8672 42.083 44.1205 42.918 44.595 43.6282C45.0696 44.3384 45.7441 44.892 46.5332 45.2188C47.3223 45.5457 48.1907 45.6312 49.0284 45.4646C49.8662 45.298 50.6357 44.8866 51.2397 44.2827C52.0495 43.4727 52.5045 42.3742 52.5045 41.2289C52.5045 40.0835 52.0495 38.985 51.2397 38.1751ZM48.1859 38.8027C50.3396 38.8027 51.4264 41.4192 49.9013 42.9443C48.3762 44.4693 45.7598 43.3827 45.7598 41.2289C45.7597 40.9103 45.8224 40.5947 45.9444 40.3004C46.0663 40.006 46.245 39.7385 46.4703 39.5132C46.6956 39.2879 46.963 39.1092 47.2574 38.9873C47.5518 38.8654 47.8673 38.8027 48.1859 38.8027Z" fill="#636363"/>
<path fill-rule="evenodd" clip-rule="evenodd" d="M48.9464 40.4679C48.7959 40.3174 48.6042 40.2149 48.3954 40.1734C48.1867 40.1319 47.9703 40.1532 47.7737 40.2346C47.577 40.3161 47.409 40.454 47.2907 40.631C47.1725 40.8079 47.1094 41.016 47.1094 41.2288C47.1094 41.4417 47.1725 41.6497 47.2907 41.8267C47.409 42.0037 47.577 42.1416 47.7737 42.2231C47.9703 42.3045 48.1867 42.3258 48.3954 42.2843C48.6042 42.2428 48.7959 42.1403 48.9464 41.9898C49.148 41.7878 49.2612 41.5142 49.2612 41.2288C49.2612 40.9435 49.148 40.6699 48.9464 40.4679Z" fill="#636363"/>
<path fill-rule="evenodd" clip-rule="evenodd" d="M14.0053 38.1751C13.4013 37.5711 12.6318 37.1598 11.7941 36.9931C10.9563 36.8265 10.088 36.912 9.29883 37.2389C8.50968 37.5658 7.83519 38.1193 7.36065 38.8295C6.8861 39.5397 6.63281 40.3747 6.63281 41.2289C6.63281 42.083 6.8861 42.918 7.36065 43.6282C7.83519 44.3384 8.50968 44.892 9.29883 45.2188C10.088 45.5457 10.9563 45.6312 11.7941 45.4646C12.6318 45.298 13.4013 44.8866 14.0053 44.2827C14.8151 43.4727 15.2701 42.3742 15.2701 41.2289C15.2701 40.0835 14.8151 38.985 14.0053 38.1751ZM10.9515 38.8027C13.1052 38.8027 14.192 41.4192 12.6669 42.9443C11.1418 44.4693 8.52539 43.3827 8.52539 41.2289C8.52545 40.5854 8.78108 39.9684 9.23606 39.5134C9.69103 39.0584 10.3081 38.8028 10.9515 38.8027Z" fill="#636363"/>
<path fill-rule="evenodd" clip-rule="evenodd" d="M11.713 40.4679C11.5625 40.3174 11.3708 40.2149 11.162 40.1734C10.9533 40.1319 10.7369 40.1532 10.5403 40.2346C10.3436 40.3161 10.1756 40.454 10.0573 40.631C9.93909 40.8079 9.87598 41.016 9.87598 41.2288C9.87598 41.4417 9.93909 41.6497 10.0573 41.8267C10.1756 42.0037 10.3436 42.1416 10.5403 42.2231C10.7369 42.3045 10.9533 42.3258 11.162 42.2843C11.3708 42.2428 11.5625 42.1403 11.713 41.9898C11.9146 41.7878 12.0278 41.5142 12.0278 41.2288C12.0278 40.9435 11.9146 40.6699 11.713 40.4679Z" fill="#636363"/>
</svg>
