<svg width="60" height="60" viewBox="0 0 60 60" fill="none" xmlns="http://www.w3.org/2000/svg">
<path d="M15.1363 42.5337C16.3818 42.5337 17.4597 42.0869 18.3405 41.206C19.2214 40.3252 19.6682 39.2469 19.6682 38.0018C19.6682 36.7567 19.2214 35.6785 18.3405 34.7973C17.4593 33.9168 16.3814 33.47 15.1363 33.47C13.8909 33.47 12.8127 33.9168 11.9322 34.7976C11.0513 35.6785 10.6045 36.7564 10.6045 38.0018C10.6045 39.2472 11.051 40.3252 11.9322 41.206C12.8134 42.0869 13.8913 42.5337 15.1363 42.5337Z" fill="#636363"/>
<path d="M22.2978 46.4738C22.2294 46.0911 22.1401 45.7272 22.033 45.3922C21.9162 45.0273 21.758 44.6685 21.563 44.325C21.3498 43.9504 21.0964 43.6211 20.8094 43.3465C20.4925 43.0434 20.1098 42.8017 19.671 42.6278C19.236 42.4556 18.7596 42.3683 18.2548 42.3683C17.8314 42.3683 17.4998 42.5613 17.1953 42.7594C17.013 42.8785 16.8066 43.0115 16.5776 43.1575C16.4813 43.2189 16.2967 43.3149 15.963 43.4227C15.4675 43.5828 14.9985 43.5828 14.5027 43.4227C14.1694 43.3149 13.9844 43.2189 13.8887 43.1582C13.6591 43.0115 13.453 42.8785 13.2694 42.7587C12.9659 42.5613 12.6342 42.3683 12.2109 42.3683C11.7061 42.3683 11.2294 42.4556 10.795 42.6278C10.3566 42.8013 9.97354 43.0434 9.65564 43.3472C9.36896 43.6218 9.11584 43.9507 8.90301 44.3254C8.70798 44.6685 8.54987 45.0273 8.43304 45.3925C8.32596 45.7269 8.237 46.0908 8.16818 46.4735C8.10138 46.8464 8.05573 47.2029 8.0329 47.5326C8.01108 47.8451 8 48.1691 8 48.4957C8 49.7898 8.55289 50.5881 9.01715 51.0298C9.67377 51.6552 10.5241 51.9718 11.5439 51.9718H18.9221C19.9419 51.9718 20.7923 51.6549 21.4492 51.0298C21.9131 50.5884 22.4664 49.7901 22.4664 48.4954C22.466 48.1667 22.4549 47.8428 22.4331 47.5323C22.4103 47.2036 22.365 46.8474 22.2978 46.4738Z" fill="#636363"/>
<path d="M40.1387 38.0018C40.1387 39.2472 40.5851 40.3252 41.4663 41.206C42.3475 42.0869 43.4254 42.5337 44.6702 42.5337C45.9156 42.5337 46.9939 42.0869 47.8747 41.206C48.7556 40.3252 49.202 39.2469 49.202 38.0018C49.202 36.7567 48.7556 35.6785 47.8744 34.7973C46.9935 33.9168 45.9153 33.47 44.6702 33.47C43.4248 33.47 42.3469 33.9168 41.466 34.7976C40.5851 35.6785 40.1387 36.7567 40.1387 38.0018Z" fill="#636363"/>
<path d="M51.9663 47.5316C51.9435 47.2029 51.8978 46.8471 51.831 46.4738C51.7622 46.0911 51.6733 45.7272 51.5658 45.3922C51.449 45.0273 51.2909 44.6685 51.0959 44.325C50.883 43.9504 50.6296 43.6211 50.3426 43.3465C50.0257 43.0434 49.6427 42.8017 49.2039 42.6278C48.7692 42.4556 48.2925 42.3683 47.788 42.3683C47.3643 42.3683 47.0326 42.5613 46.7285 42.7594C46.5459 42.8785 46.3398 43.0115 46.1108 43.1575C46.0145 43.2189 45.8295 43.3149 45.4962 43.4227C45.0007 43.5828 44.5314 43.5828 44.0356 43.4227C43.7022 43.3149 43.5173 43.2189 43.4216 43.1582C43.192 43.0115 42.9859 42.8785 42.8026 42.7587C42.4991 42.5613 42.1674 42.3683 41.7438 42.3683C41.2389 42.3683 40.7626 42.4556 40.3278 42.6278C39.8894 42.8017 39.5064 43.0434 39.1885 43.3472C38.9022 43.6214 38.649 43.9507 38.4359 44.3254C38.2408 44.6685 38.0827 45.0273 37.9659 45.3925C37.8588 45.7272 37.7699 46.0908 37.701 46.4735C37.6342 46.8468 37.5886 47.2029 37.5658 47.5326C37.5439 47.8444 37.5332 48.1687 37.5332 48.4957C37.5332 49.7898 38.0861 50.5881 38.55 51.0298C39.207 51.6552 40.0573 51.9718 41.0771 51.9718H48.4553C49.4751 51.9718 50.3251 51.6549 50.9821 51.0298C51.4463 50.5884 51.9992 49.7901 51.9992 48.4954C51.9992 48.1664 51.9881 47.8421 51.9663 47.5316Z" fill="#636363"/>
<path d="M29.9039 17.059C31.1493 17.059 32.2273 16.6125 33.1081 15.7313C33.989 14.8505 34.4358 13.7725 34.4358 12.5271C34.4358 11.282 33.9893 10.2041 33.1081 9.32294C32.2273 8.44241 31.149 7.99561 29.9039 7.99561C28.6585 7.99561 27.5806 8.44208 26.6997 9.32327C25.8189 10.2041 25.3721 11.282 25.3721 12.5275C25.3721 13.7725 25.8189 14.8508 26.7001 15.7317C27.5809 16.6125 28.6592 17.059 29.9039 17.059Z" fill="#636363"/>
<path d="M37.1997 22.0571C37.1766 21.7285 37.1312 21.373 37.0644 20.9993C36.9956 20.6166 36.9067 20.2527 36.7992 19.9177C36.6824 19.5528 36.5243 19.1936 36.3293 18.8509C36.1161 18.4759 35.8627 18.1466 35.576 17.872C35.2591 17.5689 34.8761 17.3272 34.437 17.1533C34.0019 16.9811 33.5256 16.8938 33.021 16.8938C32.5974 16.8938 32.2657 17.0868 31.9616 17.2849C31.7793 17.4041 31.5728 17.537 31.3442 17.683C31.2476 17.7444 31.0626 17.8405 30.7292 17.9482C30.2344 18.108 29.7648 18.1083 29.2686 17.9479C28.936 17.8405 28.751 17.7444 28.655 17.6833C28.4254 17.5367 28.2189 17.4037 28.036 17.2845C27.7328 17.0868 27.4012 16.8938 26.9772 16.8938C26.4723 16.8938 25.996 16.9811 25.5612 17.1533C25.1225 17.3268 24.7395 17.5689 24.4219 17.8727C24.1352 18.1469 23.8821 18.4763 23.6693 18.8506C23.4746 19.1933 23.3165 19.5525 23.1993 19.9181C23.0922 20.2527 23.0029 20.6163 22.9344 20.999C22.8676 21.3719 22.822 21.7281 22.7988 22.0581C22.7773 22.37 22.7666 22.6939 22.7666 23.0209C22.7666 24.3153 23.3192 25.1132 23.7834 25.5554C24.4404 26.1804 25.2903 26.4973 26.3105 26.4973H33.6884C34.7085 26.4973 35.5585 26.1804 36.2155 25.5554C36.6797 25.1136 37.2326 24.3156 37.2326 23.0205C37.2323 22.6919 37.2215 22.3676 37.1997 22.0571Z" fill="#636363"/>
<path d="M33.9386 46.3892H25.8692C25.1568 46.3892 24.5791 46.9666 24.5791 47.6792C24.5791 48.3916 25.1568 48.9693 25.8692 48.9693H33.9386C34.6512 48.9693 35.229 48.3916 35.229 47.6792C35.229 46.9666 34.6512 46.3892 33.9386 46.3892Z" fill="#FFC825"/>
<path d="M22.0952 27.4155C21.5161 27.0006 20.7101 27.1338 20.2952 27.7129L18.0833 30.7993C17.6684 31.3783 17.8013 32.1843 18.3807 32.5996C18.6083 32.7627 18.8708 32.8409 19.131 32.8409C19.5328 32.8409 19.9289 32.654 20.181 32.3025L22.3926 29.2158C22.8075 28.6367 22.6746 27.8307 22.0952 27.4155Z" fill="#FFC825"/>
<path d="M40.6759 32.8408C40.9358 32.8408 41.1986 32.7626 41.4262 32.5991C42.0056 32.1842 42.1386 31.3782 41.7236 30.7992L39.5118 27.7125C39.0968 27.1334 38.2908 27.0001 37.7118 27.4154C37.1324 27.8303 36.9994 28.6363 37.4143 29.2157L39.6259 32.3021C39.878 32.6539 40.2738 32.8408 40.6759 32.8408Z" fill="#FFC825"/>
</svg>
