<svg width="32" height="32" viewBox="0 0 32 32" fill="none" xmlns="http://www.w3.org/2000/svg">
<g clip-path="url(#clip0_761_2092)">
<path d="M7.72399 16.8781L22.5249 31.6381C23.0099 32.1214 23.795 32.1206 24.2791 31.6356C24.7629 31.1507 24.7616 30.3651 24.2766 29.8815L10.3567 15.9999L24.2771 2.1185C24.7621 1.63475 24.7633 0.849693 24.2796 0.364695C24.0369 0.121571 23.719 7.54874e-06 23.4011 7.52094e-06C23.0839 7.49322e-06 22.7673 0.120758 22.525 0.362194L7.72399 15.1218C7.49043 15.3542 7.35937 15.6704 7.35937 15.9999C7.35937 16.3294 7.49081 16.6453 7.72399 16.8781Z" fill="black"/>
</g>
<defs>
<clipPath id="clip0_761_2092">
<rect width="32" height="32" fill="white" transform="translate(32 32) rotate(-180)"/>
</clipPath>
</defs>
</svg>
