<svg width="60" height="60" viewBox="0 0 60 60" fill="none" xmlns="http://www.w3.org/2000/svg">
<path d="M39.5148 25.5709C41.256 27.8891 42.2891 30.7684 42.2891 33.8844C42.2891 41.533 36.0664 47.7557 28.4178 47.7557C20.7692 47.7557 14.5466 41.533 14.5466 33.8844C14.5466 25.7338 21.5969 19.2636 29.8049 20.0823V14.4647H28.4178C17.7098 14.4647 8.99805 23.1763 8.99805 33.8845C8.99805 44.5926 17.7098 53.3043 28.4178 53.3043C39.1259 53.3043 47.8376 44.5926 47.8376 33.8845V18.6261H39.5148V25.5709Z" fill="#636363"/>
<path d="M29.8048 22.874V25.5617H27.0306V22.874C25.0073 23.1275 23.1518 23.9279 21.6168 25.122L23.5134 27.0187L21.5518 28.9803L19.6551 27.0837C18.4611 28.6187 17.6606 30.4741 17.4072 32.4974H20.0949V35.2717H17.4072C17.6607 37.295 18.4611 39.1504 19.6551 40.6855L21.5518 38.7888L23.5134 40.7505L21.6168 42.6471C23.1518 43.8412 25.0072 44.6416 27.0306 44.8951V42.2074H29.8048V44.8951C31.8282 44.6416 33.6835 43.8412 35.2186 42.6471L33.3219 40.7505L35.2836 38.7888L37.1803 40.6855C38.3743 39.1504 39.1747 37.2951 39.4282 35.2717H36.7404V32.4974H39.4282C39.1748 30.4741 38.3743 28.6187 37.1803 27.0837L35.2836 28.9803L33.3219 27.0187L35.2186 25.122C33.6836 23.928 31.8281 23.1275 29.8048 22.874ZM29.8048 35.2717H24.2563V32.4974H27.0306V28.3361H29.8048V35.2717Z" fill="#FFC825"/>
<path d="M43.6754 6.69568L36.3506 15.8518H51.0003L43.6754 6.69568Z" fill="#636363"/>
</svg>
