<svg width="146" height="57" viewBox="0 0 146 57" fill="none" xmlns="http://www.w3.org/2000/svg">
<g clip-path="url(#clip0_761_2053)">
<path d="M144.8 24.1C122.3 21.6 100.7 25.8 79.1004 31.3C79.2004 31.2 79.2004 31.1 79.3004 30.9C81.4004 27 83.6004 22.6 83.9004 18.1C83.9004 17.6 83.4004 17.4 83.0004 17.5C75.8004 19 71.1004 26.8 68.2004 32.9C68.2004 33 68.1004 33.1 68.1004 33.1C65.3004 33.1 62.5004 33.1 59.7004 33.2C58.1004 33.3 56.5004 33.3 54.9004 33.4C59.2004 29.2 62.8004 24.4 65.7004 19.2C68.8004 13.6 71.1004 6.8 69.5004 0.4C69.4004 0.2 69.2004 0 69.0004 0C62.0004 0.8 57.0004 8.4 53.8004 14C50.2004 20.2 47.5004 27.1 46.1004 34.2C43.0004 34.6 39.9004 35 36.8004 35.5C36.8004 35.4 36.9004 35.3 36.9004 35.2C37.0004 34.8 36.3004 34.6 36.2004 35C36.1004 35.2 36.1004 35.4 36.0004 35.6C33.6004 36 31.1004 36.5 28.7004 37C20.3004 38.9 11.8004 41.4 4.20039 45.6C2.90039 46.3 1.60039 47.1 0.400391 48C-0.0996094 48.4 0.000390649 49.3 0.700391 49.2C15.8004 48.6 30.5004 45.6 45.2004 41.9C45.1004 47.3 46.6004 53.6 52.5004 55C55.9004 55.8 59.3004 54.3 62.3004 52.1C62.2004 53.4 62.2004 54.7 62.2004 56C62.2004 56.4 62.5004 56.6 62.9004 56.7C67.3004 57.2 71.5004 54.6 74.9004 51.7C75.9004 52.4 77.2004 53 78.6004 53.3C84.6004 54.6 91.3004 53.2 97.1004 51.8C101.7 50.6 107.7 49.1 111.3 45.7C111.5 45.5 111.5 45.1 111.3 44.9C105.2 39.7 97.4004 37.1 89.7004 35.5C88.8004 35.3 87.8004 35.1 86.9004 35C87.1004 34.2 87.2004 33.4 87.2004 32.5C87.2004 32.1 86.8004 31.8 86.4004 31.9C84.6004 32.3 82.8004 33.1 81.1004 34.1C80.0004 34 78.9004 33.8 77.8004 33.7C77.9004 33.6 77.9004 33.5 78.0004 33.4C99.3004 27.9 120.7 23.6 142.9 25.6C141.3 26.8 139.5 27.6 137.7 28.5C136.9 28.9 137.6 30 138.4 29.7C140.9 28.5 143.3 27.5 145.4 25.6C145.8 24.9 145.4 24.2 144.8 24.1ZM82.4004 19C82.0004 22 80.7004 24.9 79.4004 27.6C78.7004 29 78.0004 30.4 77.2004 31.7C75.4004 32.2 73.6004 32.6 71.7004 33.1C70.9004 33.1 70.2004 33 69.4004 33C72.2004 27.5 76.3004 20.8 82.4004 19ZM73.3004 34.5C74.1004 34.5 74.8004 34.6 75.6004 34.6C74.7004 36 73.8004 37.5 72.8004 38.8C70.3004 42.4 67.4004 45.8 64.1004 48.8C64.9004 44.3 66.5004 39.8 68.3004 35.8C70.0004 35.4 71.6004 34.9 73.3004 34.5ZM55.1004 34.6C59.2004 34.3 63.3004 34.2 67.4004 34.3V34.4C60.5004 36.3 53.6004 38.2 46.6004 40C48.4004 38.9 50.2004 37.5 51.6004 36.3C52.2004 35.8 52.8004 35.3 53.4004 34.8C54.0004 34.6 54.6004 34.6 55.1004 34.6ZM47.1004 35.2C48.8004 35 50.4004 34.9 52.1004 34.7C50.4004 36.1 48.7004 37.5 46.9004 38.6C46.8004 38.7 46.7004 38.7 46.7004 38.7C46.8004 38 46.8004 37.4 46.9004 36.8C46.9004 36.4 47.0004 35.8 47.1004 35.2ZM57.4004 10.3C60.0004 6.5 63.7004 2.1 68.5004 1C69.0004 1 69.0004 5.4 69.0004 6C68.9004 7.9 68.4004 9.8 67.9004 11.7C66.7004 15.8 64.5004 19.6 62.1004 23.2C59.7004 26.9 56.8004 30.4 53.5004 33.5C51.4004 33.6 49.4004 33.8 47.3004 34C49.0004 25.6 52.6004 17.3 57.4004 10.3ZM45.9004 35.4C45.7004 36.8 45.4004 38.2 45.3004 39.7C44.4004 40.2 43.6004 40.6 42.7004 41C41.5004 41.3 40.2004 41.6 39.0004 41.9C36.4004 41.9 36.2004 39.2 36.6004 36.8C39.6004 36.2 42.7004 35.7 45.9004 35.4ZM23.8004 39.5C27.7004 38.5 31.7004 37.6 35.7004 36.9C35.4004 39.1 35.6004 41.4 37.3004 42.3C26.0004 44.9 14.6004 46.9 3.10039 47.7C9.40039 43.8 16.7004 41.4 23.8004 39.5ZM54.5004 53.9C47.8004 54.4 46.4004 47.4 46.4004 41.6C53.1004 39.9 59.8004 38.1 66.5004 36.2C64.6004 40.6 63.0004 45.4 62.4004 50.2C60.2004 52.1 57.5004 53.6 54.5004 53.9ZM73.8004 43.9C75.0004 40.5 78.0004 37.3 81.4004 35.2C82.7004 35.4 84.0004 35.5 85.2004 35.7C83.9004 40 80.6004 44 77.8004 47C76.9004 47.9 76.0004 48.9 74.9004 49.9C73.5004 48.6 72.9004 46.6 73.8004 43.9ZM86.6004 36.3C94.8004 36.3 103.5 40 110 45.4C106.9 48 102.3 49.1 98.5004 50.2C93.2004 51.7 87.6004 52.6 82.1004 52.5C79.9004 52.4 77.6004 51.9 75.9004 50.9C76.7004 50.1 77.5004 49.5 78.3004 48.7C81.5004 45.3 85.2004 39.9 86.6004 36.3ZM85.9004 33.2C85.8004 33.7 85.8004 34.1 85.7004 34.6C84.9004 34.5 84.1004 34.4 83.3004 34.2C84.1004 33.8 85.0004 33.4 85.9004 33.2ZM79.5004 35C76.5004 37.2 74.0004 40.1 72.8004 43.1C71.6004 46.2 72.1004 48.9 73.9004 50.7C70.9004 53.3 67.3004 55.5 63.6004 55.3C63.6004 53.9 63.6004 52.4 63.8004 50.9C65.9004 49.2 67.7004 47.2 69.2004 45.5C72.2004 42.2 74.8004 38.5 77.1004 34.6C77.9004 34.8 78.7004 34.9 79.5004 35Z" fill="white"/>
</g>
<defs>
<clipPath id="clip0_761_2053">
<rect width="145.5" height="56.8" fill="white"/>
</clipPath>
</defs>
</svg>
