<svg width="44" height="44" viewBox="0 0 44 44" fill="none" xmlns="http://www.w3.org/2000/svg">
<g clip-path="url(#clip0_1001_3)">
<path d="M33.6038 28.6176C32.1924 27.2243 30.4305 27.2243 29.0281 28.6176C27.9584 29.6784 26.8886 30.7392 25.8368 31.8179C25.5492 32.1145 25.3064 32.1775 24.9559 31.9797C24.2637 31.6021 23.5265 31.2965 22.8613 30.883C19.7599 28.9323 17.162 26.4242 14.8606 23.6015C13.719 22.1991 12.7032 20.6979 11.993 19.0078C11.8491 18.6662 11.8761 18.4415 12.1548 18.1628C13.2245 17.129 14.2673 16.0683 15.3191 15.0075C16.7844 13.5332 16.7844 11.8072 15.3101 10.324C14.4741 9.47896 13.6381 8.65192 12.802 7.80691C11.939 6.94391 11.085 6.07193 10.2131 5.21793C8.8017 3.84253 7.03976 3.84253 5.6374 5.22692C4.55866 6.28768 3.52486 7.37541 2.42814 8.41819C1.41233 9.38007 0.899923 10.5577 0.792049 11.9331C0.621249 14.1715 1.16961 16.284 1.94271 18.3426C3.52486 22.6036 5.93405 26.3882 8.85564 29.8582C12.802 34.5507 17.5125 38.2634 23.0231 40.9422C25.5042 42.1468 28.0752 43.0728 30.871 43.2256C32.7947 43.3335 34.4668 42.848 35.8062 41.3468C36.7231 40.322 37.7569 39.3871 38.7278 38.4072C40.1661 36.9509 40.1751 35.189 38.7458 33.7506C37.0378 32.0336 35.3208 30.3256 33.6038 28.6176Z" fill="black"/>
<path d="M31.8862 21.453L35.2034 20.8867C34.682 17.8392 33.2436 15.0794 31.0592 12.886C28.7489 10.5757 25.8273 9.1194 22.6091 8.66992L22.1416 12.005C24.6317 12.3556 26.8971 13.4793 28.686 15.2682C30.376 16.9583 31.4817 19.0978 31.8862 21.453Z" fill="black"/>
<path d="M37.0731 7.03388C33.2436 3.20435 28.3982 0.786169 23.0495 0.0400391L22.582 3.37515C27.2026 4.02239 31.3918 6.11695 34.6999 9.4161C37.8372 12.5534 39.8958 16.5178 40.642 20.8777L43.9591 20.3114C43.0871 15.2593 40.7049 10.6746 37.0731 7.03388Z" fill="black"/>
</g>
<defs>
<clipPath id="clip0_1001_3">
<rect width="43.2" height="43.2" fill="white" transform="translate(0.759766 0.0400391)"/>
</clipPath>
</defs>
</svg>
