<svg width="41" height="40" viewBox="0 0 41 40" fill="none" xmlns="http://www.w3.org/2000/svg">
<path d="M40.2076 0V25.7348C40.2076 30.3943 37.9378 34.552 34.4791 37.1685C32.8218 38.4229 30.8402 39.319 28.7506 39.7491C27.8139 39.9283 26.8771 40.0358 25.8683 40.0358C24.8595 40.0358 23.9228 39.9283 22.9861 39.7491C21.9773 39.534 21.0405 39.2473 20.1038 38.853C19.095 38.4229 18.1222 37.8495 17.2215 37.1685C16.1407 36.3441 15.1679 35.3763 14.3393 34.3011C12.5379 31.8996 11.457 28.9606 11.457 25.7348V5.69892H5.7285V25.6989C5.7285 29.4265 8.1424 32.6165 11.457 33.7993C11.5651 33.8351 11.6732 33.871 11.7813 33.9068C13.1143 36.1649 14.9878 38.0645 17.2215 39.4624C17.3296 39.534 17.4377 39.6057 17.5458 39.6416C17.4377 39.6774 17.3296 39.6774 17.2215 39.7133C16.2848 39.8925 15.3481 40 14.3393 40C13.3665 40 12.3937 39.8925 11.457 39.7133C9.33133 39.2831 7.3858 38.3871 5.7285 37.1326C2.26978 34.552 0 30.3943 0 25.7348V0H17.2215V25.7348C17.2215 28.2796 18.3384 30.5376 20.1038 32.1147C20.9324 32.8674 21.9052 33.4409 22.9861 33.7993C23.8868 34.1219 24.8595 34.3011 25.8683 34.3011C26.8771 34.3011 27.8499 34.1219 28.7506 33.7993C32.0652 32.6165 34.4791 29.4624 34.4791 25.7348V5.69892H28.7146V25.6989C28.7146 28.0645 28.1381 30.2867 27.1293 32.2581C26.733 32.3297 26.3007 32.3656 25.8323 32.3656C24.7875 32.3656 23.8147 32.1505 22.95 31.7204C22.3736 31.4337 21.8332 31.0753 21.3648 30.681C22.3736 29.2832 22.95 27.5627 22.95 25.6989V0H40.2076Z" fill="#FFC825"/>
</svg>
