<?xml version="1.0" encoding="utf-8"?>
<!-- Generator: Adobe Illustrator 27.0.1, SVG Export Plug-In . SVG Version: 6.00 Build 0)  -->
<svg version="1.1" id="Слой_1" xmlns="http://www.w3.org/2000/svg" xmlns:xlink="http://www.w3.org/1999/xlink" x="0px" y="0px"
	 viewBox="0 0 40 40" style="enable-background:new 0 0 40 40;" xml:space="preserve">
<style type="text/css">
	.st0{fill:#fff;}
</style>
<path class="st0" d="M11.8,0C0.9,0,0,0.9,0,11.8v16.5C0,39.1,0.9,40,11.8,40h16.5C39.1,40,40,39.1,40,28.2V11.8
	C40,0.9,39.1,0,28.2,0H11.8z M9.2,4h21.7C35.6,4,36,4.4,36,9.2v21.7c0,4.8-0.4,5.2-5.2,5.2h-4.2V24h4.7l0.7-5.3h-5.5
	c0,0,0-3.1,0-3.9c0-1.5,1.3-2.3,2.4-2.3c1.1,0,3.4,0,3.4,0V7.6c0,0-2-0.3-4-0.3c-1.7,0-3.6,0.4-5.2,2c-1.6,1.6-1.8,3.9-1.8,6.8
	c0,0.8,0,2.6,0,2.6h-4.6V24h4.6v12H9.2C4.4,36,4,35.6,4,30.8V9.2C4,4.4,4.4,4,9.2,4z"/>
</svg>
