<svg version="1.1" id="linkedin" xmlns="http://www.w3.org/2000/svg" xmlns:xlink="http://www.w3.org/1999/xlink" x="0px" y="0px"
	 viewBox="0 0 383.9 383.9" style="enable-background:new 0 0 383.9 383.9;" xml:space="preserve">
<style type="text/css">
	.st0{fill-rule:evenodd;clip-rule:evenodd;fill:#222222;}
	.st1{fill:#222222;}
</style>
<path class="st0" d="M118.8,320V148.9H63.9V320H118.8z M93.4,123c18.3,0,29.7-13.1,29.7-29.5C122.8,76.8,111.7,64,93.7,64
	S64,76.8,64,93.5c0,16.4,11.4,29.5,29,29.5H93.4L93.4,123z M256.6,145c-29.1,0-41.6,16.4-49.6,27.8V149h-55v171h55v-97.4
	c0-5,0.4-10,1.9-13.5c4-10,13-20.3,28.2-20.3c19.9,0,27.9,15.3,27.9,37.7V320h55v-99.9C320,168.8,292.8,145,256.6,145z"/>
<path class="st1" d="M353.2,0H32.8C15.3,0,0,12.6,0,29.9V351c0,17.4,15.3,32.9,32.8,32.9h320.3c17.6,0,30.8-15.6,30.8-32.9V29.9
	C384,12.6,370.7,0,353.2,0z M350,352H35.1c-1.8,0-3.1-1.4-3.1-3.1V34c0-1.1,1-2,2-2h316c1,0,2,1,2,2v316
	C352,350.9,351.1,352,350,352z"/>
</svg>
