<svg version="1.1" id="Слой_1" xmlns="http://www.w3.org/2000/svg" xmlns:xlink="http://www.w3.org/1999/xlink" x="0px" y="0px"
	 viewBox="0 0 32 32" style="enable-background:new 0 0 32 32;" xml:space="preserve" fill="#222">
<g>
	<path d="M30.3,10c-1.2-2.8-3.1-5.1-5.6-6.8c-2.5-1.7-5.5-2.7-8.7-2.7c-2.1,0-4.2,0.4-6,1.2C7.2,2.9,4.8,4.9,3.1,7.3
		C1.5,9.8,0.5,12.8,0.5,16c0,2.1,0.4,4.2,1.2,6c1.2,2.8,3.1,5.1,5.6,6.8c2.5,1.7,5.5,2.6,8.7,2.6c2.1,0,4.2-0.4,6-1.2
		c2.8-1.2,5.1-3.1,6.8-5.6c1.7-2.5,2.7-5.5,2.7-8.7C31.5,13.9,31.1,11.8,30.3,10z M25.1,19.8c-0.7,1.8-2,3.3-3.6,4.4
		c-1.6,1.1-3.5,1.7-5.5,1.7c-1.4,0-2.7-0.3-3.8-0.8c-1.8-0.8-3.3-2-4.4-3.6c-1.1-1.6-1.7-3.5-1.7-5.5c0-1.4,0.3-2.7,0.8-3.9
		c0.7-1.8,2-3.3,3.6-4.3c1.6-1.1,3.5-1.7,5.5-1.7c1.4,0,2.7,0.3,3.8,0.8c1.8,0.8,3.3,2,4.4,3.6c1.1,1.6,1.7,3.5,1.7,5.5
		C25.9,17.4,25.6,18.7,25.1,19.8z"/>
	<path d="M16,11.1c-2.7,0-4.9,2.2-4.9,4.9c0,2.7,2.2,4.9,4.9,4.9c2.7,0,4.9-2.2,4.9-4.9C20.9,13.3,18.7,11.1,16,11.1z"/>
</g>
</svg>
